G04 #@! TF.GenerationSoftware,KiCad,Pcbnew,(5.1.5)-3*
G04 #@! TF.CreationDate,2020-01-24T13:16:09+01:00*
G04 #@! TF.ProjectId,Main Board,4d61696e-2042-46f6-9172-642e6b696361,rev?*
G04 #@! TF.SameCoordinates,Original*
G04 #@! TF.FileFunction,Copper,L3,Inr*
G04 #@! TF.FilePolarity,Positive*
%FSLAX46Y46*%
G04 Gerber Fmt 4.6, Leading zero omitted, Abs format (unit mm)*
G04 Created by KiCad (PCBNEW (5.1.5)-3) date 2020-01-24 13:16:09*
%MOMM*%
%LPD*%
G04 APERTURE LIST*
%ADD10C,1.300000*%
%ADD11C,1.400000*%
%ADD12C,3.000000*%
%ADD13R,1.400000X1.400000*%
%ADD14C,0.800000*%
%ADD15C,7.000000*%
%ADD16O,1.950000X1.700000*%
%ADD17C,0.100000*%
%ADD18O,1.200000X1.750000*%
%ADD19O,1.750000X1.200000*%
%ADD20O,2.000000X1.700000*%
%ADD21C,1.500000*%
%ADD22C,1.600000*%
%ADD23R,1.600000X1.600000*%
%ADD24C,1.000000*%
%ADD25C,0.600000*%
%ADD26C,0.304800*%
%ADD27C,0.355600*%
%ADD28C,0.508000*%
%ADD29C,1.016000*%
%ADD30C,0.254000*%
%ADD31C,0.200000*%
%ADD32C,0.711200*%
G04 APERTURE END LIST*
D10*
X46000000Y-91000000D03*
X48000000Y-92000000D03*
X46000000Y-93000000D03*
X48000000Y-94000000D03*
X46000000Y-95000000D03*
X48000000Y-96000000D03*
X46000000Y-97000000D03*
X48000000Y-98000000D03*
X46000000Y-99000000D03*
X48000000Y-100000000D03*
X46000000Y-101000000D03*
X59000000Y-101000000D03*
X57000000Y-100000000D03*
X59000000Y-99000000D03*
X57000000Y-98000000D03*
X59000000Y-97000000D03*
X57000000Y-96000000D03*
X59000000Y-95000000D03*
X57000000Y-94000000D03*
X59000000Y-93000000D03*
X57000000Y-92000000D03*
X59000000Y-91000000D03*
D11*
X130000000Y-106500000D03*
D12*
X125230000Y-109210000D03*
D13*
X132500000Y-106500000D03*
D11*
X130000000Y-109700000D03*
X132500000Y-109700000D03*
D12*
X137270000Y-109210000D03*
D14*
X49856155Y-109143845D03*
X48000000Y-108375000D03*
X46143845Y-109143845D03*
X45375000Y-111000000D03*
X46143845Y-112856155D03*
X48000000Y-113625000D03*
X49856155Y-112856155D03*
X50625000Y-111000000D03*
D15*
X48000000Y-111000000D03*
X199000000Y-111000000D03*
D14*
X201625000Y-111000000D03*
X200856155Y-112856155D03*
X199000000Y-113625000D03*
X197143845Y-112856155D03*
X196375000Y-111000000D03*
X197143845Y-109143845D03*
X199000000Y-108375000D03*
X200856155Y-109143845D03*
D15*
X199000000Y-29000000D03*
D14*
X201625000Y-29000000D03*
X200856155Y-30856155D03*
X199000000Y-31625000D03*
X197143845Y-30856155D03*
X196375000Y-29000000D03*
X197143845Y-27143845D03*
X199000000Y-26375000D03*
X200856155Y-27143845D03*
X119356155Y-27143845D03*
X117500000Y-26375000D03*
X115643845Y-27143845D03*
X114875000Y-29000000D03*
X115643845Y-30856155D03*
X117500000Y-31625000D03*
X119356155Y-30856155D03*
X120125000Y-29000000D03*
D15*
X117500000Y-29000000D03*
X117500000Y-111000000D03*
D14*
X120125000Y-111000000D03*
X119356155Y-112856155D03*
X117500000Y-113625000D03*
X115643845Y-112856155D03*
X114875000Y-111000000D03*
X115643845Y-109143845D03*
X117500000Y-108375000D03*
X119356155Y-109143845D03*
X49856155Y-27143845D03*
X48000000Y-26375000D03*
X46143845Y-27143845D03*
X45375000Y-29000000D03*
X46143845Y-30856155D03*
X48000000Y-31625000D03*
X49856155Y-30856155D03*
X50625000Y-29000000D03*
D15*
X48000000Y-29000000D03*
D16*
X199050000Y-54000000D03*
X199050000Y-51500000D03*
X199050000Y-49000000D03*
G04 #@! TA.AperFunction,ViaPad*
D17*
G36*
X199799504Y-45651204D02*
G01*
X199823773Y-45654804D01*
X199847571Y-45660765D01*
X199870671Y-45669030D01*
X199892849Y-45679520D01*
X199913893Y-45692133D01*
X199933598Y-45706747D01*
X199951777Y-45723223D01*
X199968253Y-45741402D01*
X199982867Y-45761107D01*
X199995480Y-45782151D01*
X200005970Y-45804329D01*
X200014235Y-45827429D01*
X200020196Y-45851227D01*
X200023796Y-45875496D01*
X200025000Y-45900000D01*
X200025000Y-47100000D01*
X200023796Y-47124504D01*
X200020196Y-47148773D01*
X200014235Y-47172571D01*
X200005970Y-47195671D01*
X199995480Y-47217849D01*
X199982867Y-47238893D01*
X199968253Y-47258598D01*
X199951777Y-47276777D01*
X199933598Y-47293253D01*
X199913893Y-47307867D01*
X199892849Y-47320480D01*
X199870671Y-47330970D01*
X199847571Y-47339235D01*
X199823773Y-47345196D01*
X199799504Y-47348796D01*
X199775000Y-47350000D01*
X198325000Y-47350000D01*
X198300496Y-47348796D01*
X198276227Y-47345196D01*
X198252429Y-47339235D01*
X198229329Y-47330970D01*
X198207151Y-47320480D01*
X198186107Y-47307867D01*
X198166402Y-47293253D01*
X198148223Y-47276777D01*
X198131747Y-47258598D01*
X198117133Y-47238893D01*
X198104520Y-47217849D01*
X198094030Y-47195671D01*
X198085765Y-47172571D01*
X198079804Y-47148773D01*
X198076204Y-47124504D01*
X198075000Y-47100000D01*
X198075000Y-45900000D01*
X198076204Y-45875496D01*
X198079804Y-45851227D01*
X198085765Y-45827429D01*
X198094030Y-45804329D01*
X198104520Y-45782151D01*
X198117133Y-45761107D01*
X198131747Y-45741402D01*
X198148223Y-45723223D01*
X198166402Y-45706747D01*
X198186107Y-45692133D01*
X198207151Y-45679520D01*
X198229329Y-45669030D01*
X198252429Y-45660765D01*
X198276227Y-45654804D01*
X198300496Y-45651204D01*
X198325000Y-45650000D01*
X199775000Y-45650000D01*
X199799504Y-45651204D01*
G37*
G04 #@! TD.AperFunction*
G04 #@! TA.AperFunction,ViaPad*
G36*
X199749504Y-76651204D02*
G01*
X199773773Y-76654804D01*
X199797571Y-76660765D01*
X199820671Y-76669030D01*
X199842849Y-76679520D01*
X199863893Y-76692133D01*
X199883598Y-76706747D01*
X199901777Y-76723223D01*
X199918253Y-76741402D01*
X199932867Y-76761107D01*
X199945480Y-76782151D01*
X199955970Y-76804329D01*
X199964235Y-76827429D01*
X199970196Y-76851227D01*
X199973796Y-76875496D01*
X199975000Y-76900000D01*
X199975000Y-78100000D01*
X199973796Y-78124504D01*
X199970196Y-78148773D01*
X199964235Y-78172571D01*
X199955970Y-78195671D01*
X199945480Y-78217849D01*
X199932867Y-78238893D01*
X199918253Y-78258598D01*
X199901777Y-78276777D01*
X199883598Y-78293253D01*
X199863893Y-78307867D01*
X199842849Y-78320480D01*
X199820671Y-78330970D01*
X199797571Y-78339235D01*
X199773773Y-78345196D01*
X199749504Y-78348796D01*
X199725000Y-78350000D01*
X198275000Y-78350000D01*
X198250496Y-78348796D01*
X198226227Y-78345196D01*
X198202429Y-78339235D01*
X198179329Y-78330970D01*
X198157151Y-78320480D01*
X198136107Y-78307867D01*
X198116402Y-78293253D01*
X198098223Y-78276777D01*
X198081747Y-78258598D01*
X198067133Y-78238893D01*
X198054520Y-78217849D01*
X198044030Y-78195671D01*
X198035765Y-78172571D01*
X198029804Y-78148773D01*
X198026204Y-78124504D01*
X198025000Y-78100000D01*
X198025000Y-76900000D01*
X198026204Y-76875496D01*
X198029804Y-76851227D01*
X198035765Y-76827429D01*
X198044030Y-76804329D01*
X198054520Y-76782151D01*
X198067133Y-76761107D01*
X198081747Y-76741402D01*
X198098223Y-76723223D01*
X198116402Y-76706747D01*
X198136107Y-76692133D01*
X198157151Y-76679520D01*
X198179329Y-76669030D01*
X198202429Y-76660765D01*
X198226227Y-76654804D01*
X198250496Y-76651204D01*
X198275000Y-76650000D01*
X199725000Y-76650000D01*
X199749504Y-76651204D01*
G37*
G04 #@! TD.AperFunction*
D16*
X199000000Y-80000000D03*
X199000000Y-82500000D03*
X199000000Y-85000000D03*
G04 #@! TA.AperFunction,ViaPad*
D17*
G36*
X89374505Y-27126204D02*
G01*
X89398773Y-27129804D01*
X89422572Y-27135765D01*
X89445671Y-27144030D01*
X89467850Y-27154520D01*
X89488893Y-27167132D01*
X89508599Y-27181747D01*
X89526777Y-27198223D01*
X89543253Y-27216401D01*
X89557868Y-27236107D01*
X89570480Y-27257150D01*
X89580970Y-27279329D01*
X89589235Y-27302428D01*
X89595196Y-27326227D01*
X89598796Y-27350495D01*
X89600000Y-27374999D01*
X89600000Y-28625001D01*
X89598796Y-28649505D01*
X89595196Y-28673773D01*
X89589235Y-28697572D01*
X89580970Y-28720671D01*
X89570480Y-28742850D01*
X89557868Y-28763893D01*
X89543253Y-28783599D01*
X89526777Y-28801777D01*
X89508599Y-28818253D01*
X89488893Y-28832868D01*
X89467850Y-28845480D01*
X89445671Y-28855970D01*
X89422572Y-28864235D01*
X89398773Y-28870196D01*
X89374505Y-28873796D01*
X89350001Y-28875000D01*
X88649999Y-28875000D01*
X88625495Y-28873796D01*
X88601227Y-28870196D01*
X88577428Y-28864235D01*
X88554329Y-28855970D01*
X88532150Y-28845480D01*
X88511107Y-28832868D01*
X88491401Y-28818253D01*
X88473223Y-28801777D01*
X88456747Y-28783599D01*
X88442132Y-28763893D01*
X88429520Y-28742850D01*
X88419030Y-28720671D01*
X88410765Y-28697572D01*
X88404804Y-28673773D01*
X88401204Y-28649505D01*
X88400000Y-28625001D01*
X88400000Y-27374999D01*
X88401204Y-27350495D01*
X88404804Y-27326227D01*
X88410765Y-27302428D01*
X88419030Y-27279329D01*
X88429520Y-27257150D01*
X88442132Y-27236107D01*
X88456747Y-27216401D01*
X88473223Y-27198223D01*
X88491401Y-27181747D01*
X88511107Y-27167132D01*
X88532150Y-27154520D01*
X88554329Y-27144030D01*
X88577428Y-27135765D01*
X88601227Y-27129804D01*
X88625495Y-27126204D01*
X88649999Y-27125000D01*
X89350001Y-27125000D01*
X89374505Y-27126204D01*
G37*
G04 #@! TD.AperFunction*
D18*
X91000000Y-28000000D03*
X93000000Y-28000000D03*
G04 #@! TA.AperFunction,ViaPad*
D17*
G36*
X200649505Y-37401204D02*
G01*
X200673773Y-37404804D01*
X200697572Y-37410765D01*
X200720671Y-37419030D01*
X200742850Y-37429520D01*
X200763893Y-37442132D01*
X200783599Y-37456747D01*
X200801777Y-37473223D01*
X200818253Y-37491401D01*
X200832868Y-37511107D01*
X200845480Y-37532150D01*
X200855970Y-37554329D01*
X200864235Y-37577428D01*
X200870196Y-37601227D01*
X200873796Y-37625495D01*
X200875000Y-37649999D01*
X200875000Y-38350001D01*
X200873796Y-38374505D01*
X200870196Y-38398773D01*
X200864235Y-38422572D01*
X200855970Y-38445671D01*
X200845480Y-38467850D01*
X200832868Y-38488893D01*
X200818253Y-38508599D01*
X200801777Y-38526777D01*
X200783599Y-38543253D01*
X200763893Y-38557868D01*
X200742850Y-38570480D01*
X200720671Y-38580970D01*
X200697572Y-38589235D01*
X200673773Y-38595196D01*
X200649505Y-38598796D01*
X200625001Y-38600000D01*
X199374999Y-38600000D01*
X199350495Y-38598796D01*
X199326227Y-38595196D01*
X199302428Y-38589235D01*
X199279329Y-38580970D01*
X199257150Y-38570480D01*
X199236107Y-38557868D01*
X199216401Y-38543253D01*
X199198223Y-38526777D01*
X199181747Y-38508599D01*
X199167132Y-38488893D01*
X199154520Y-38467850D01*
X199144030Y-38445671D01*
X199135765Y-38422572D01*
X199129804Y-38398773D01*
X199126204Y-38374505D01*
X199125000Y-38350001D01*
X199125000Y-37649999D01*
X199126204Y-37625495D01*
X199129804Y-37601227D01*
X199135765Y-37577428D01*
X199144030Y-37554329D01*
X199154520Y-37532150D01*
X199167132Y-37511107D01*
X199181747Y-37491401D01*
X199198223Y-37473223D01*
X199216401Y-37456747D01*
X199236107Y-37442132D01*
X199257150Y-37429520D01*
X199279329Y-37419030D01*
X199302428Y-37410765D01*
X199326227Y-37404804D01*
X199350495Y-37401204D01*
X199374999Y-37400000D01*
X200625001Y-37400000D01*
X200649505Y-37401204D01*
G37*
G04 #@! TD.AperFunction*
D19*
X200000000Y-40000000D03*
X200000000Y-62500000D03*
G04 #@! TA.AperFunction,ViaPad*
D17*
G36*
X200649505Y-59901204D02*
G01*
X200673773Y-59904804D01*
X200697572Y-59910765D01*
X200720671Y-59919030D01*
X200742850Y-59929520D01*
X200763893Y-59942132D01*
X200783599Y-59956747D01*
X200801777Y-59973223D01*
X200818253Y-59991401D01*
X200832868Y-60011107D01*
X200845480Y-60032150D01*
X200855970Y-60054329D01*
X200864235Y-60077428D01*
X200870196Y-60101227D01*
X200873796Y-60125495D01*
X200875000Y-60149999D01*
X200875000Y-60850001D01*
X200873796Y-60874505D01*
X200870196Y-60898773D01*
X200864235Y-60922572D01*
X200855970Y-60945671D01*
X200845480Y-60967850D01*
X200832868Y-60988893D01*
X200818253Y-61008599D01*
X200801777Y-61026777D01*
X200783599Y-61043253D01*
X200763893Y-61057868D01*
X200742850Y-61070480D01*
X200720671Y-61080970D01*
X200697572Y-61089235D01*
X200673773Y-61095196D01*
X200649505Y-61098796D01*
X200625001Y-61100000D01*
X199374999Y-61100000D01*
X199350495Y-61098796D01*
X199326227Y-61095196D01*
X199302428Y-61089235D01*
X199279329Y-61080970D01*
X199257150Y-61070480D01*
X199236107Y-61057868D01*
X199216401Y-61043253D01*
X199198223Y-61026777D01*
X199181747Y-61008599D01*
X199167132Y-60988893D01*
X199154520Y-60967850D01*
X199144030Y-60945671D01*
X199135765Y-60922572D01*
X199129804Y-60898773D01*
X199126204Y-60874505D01*
X199125000Y-60850001D01*
X199125000Y-60149999D01*
X199126204Y-60125495D01*
X199129804Y-60101227D01*
X199135765Y-60077428D01*
X199144030Y-60054329D01*
X199154520Y-60032150D01*
X199167132Y-60011107D01*
X199181747Y-59991401D01*
X199198223Y-59973223D01*
X199216401Y-59956747D01*
X199236107Y-59942132D01*
X199257150Y-59929520D01*
X199279329Y-59919030D01*
X199302428Y-59910765D01*
X199326227Y-59904804D01*
X199350495Y-59901204D01*
X199374999Y-59900000D01*
X200625001Y-59900000D01*
X200649505Y-59901204D01*
G37*
G04 #@! TD.AperFunction*
G04 #@! TA.AperFunction,ViaPad*
G36*
X200649505Y-90901204D02*
G01*
X200673773Y-90904804D01*
X200697572Y-90910765D01*
X200720671Y-90919030D01*
X200742850Y-90929520D01*
X200763893Y-90942132D01*
X200783599Y-90956747D01*
X200801777Y-90973223D01*
X200818253Y-90991401D01*
X200832868Y-91011107D01*
X200845480Y-91032150D01*
X200855970Y-91054329D01*
X200864235Y-91077428D01*
X200870196Y-91101227D01*
X200873796Y-91125495D01*
X200875000Y-91149999D01*
X200875000Y-91850001D01*
X200873796Y-91874505D01*
X200870196Y-91898773D01*
X200864235Y-91922572D01*
X200855970Y-91945671D01*
X200845480Y-91967850D01*
X200832868Y-91988893D01*
X200818253Y-92008599D01*
X200801777Y-92026777D01*
X200783599Y-92043253D01*
X200763893Y-92057868D01*
X200742850Y-92070480D01*
X200720671Y-92080970D01*
X200697572Y-92089235D01*
X200673773Y-92095196D01*
X200649505Y-92098796D01*
X200625001Y-92100000D01*
X199374999Y-92100000D01*
X199350495Y-92098796D01*
X199326227Y-92095196D01*
X199302428Y-92089235D01*
X199279329Y-92080970D01*
X199257150Y-92070480D01*
X199236107Y-92057868D01*
X199216401Y-92043253D01*
X199198223Y-92026777D01*
X199181747Y-92008599D01*
X199167132Y-91988893D01*
X199154520Y-91967850D01*
X199144030Y-91945671D01*
X199135765Y-91922572D01*
X199129804Y-91898773D01*
X199126204Y-91874505D01*
X199125000Y-91850001D01*
X199125000Y-91149999D01*
X199126204Y-91125495D01*
X199129804Y-91101227D01*
X199135765Y-91077428D01*
X199144030Y-91054329D01*
X199154520Y-91032150D01*
X199167132Y-91011107D01*
X199181747Y-90991401D01*
X199198223Y-90973223D01*
X199216401Y-90956747D01*
X199236107Y-90942132D01*
X199257150Y-90929520D01*
X199279329Y-90919030D01*
X199302428Y-90910765D01*
X199326227Y-90904804D01*
X199350495Y-90901204D01*
X199374999Y-90900000D01*
X200625001Y-90900000D01*
X200649505Y-90901204D01*
G37*
G04 #@! TD.AperFunction*
D19*
X200000000Y-93500000D03*
X200000000Y-70500000D03*
G04 #@! TA.AperFunction,ViaPad*
D17*
G36*
X200649505Y-67901204D02*
G01*
X200673773Y-67904804D01*
X200697572Y-67910765D01*
X200720671Y-67919030D01*
X200742850Y-67929520D01*
X200763893Y-67942132D01*
X200783599Y-67956747D01*
X200801777Y-67973223D01*
X200818253Y-67991401D01*
X200832868Y-68011107D01*
X200845480Y-68032150D01*
X200855970Y-68054329D01*
X200864235Y-68077428D01*
X200870196Y-68101227D01*
X200873796Y-68125495D01*
X200875000Y-68149999D01*
X200875000Y-68850001D01*
X200873796Y-68874505D01*
X200870196Y-68898773D01*
X200864235Y-68922572D01*
X200855970Y-68945671D01*
X200845480Y-68967850D01*
X200832868Y-68988893D01*
X200818253Y-69008599D01*
X200801777Y-69026777D01*
X200783599Y-69043253D01*
X200763893Y-69057868D01*
X200742850Y-69070480D01*
X200720671Y-69080970D01*
X200697572Y-69089235D01*
X200673773Y-69095196D01*
X200649505Y-69098796D01*
X200625001Y-69100000D01*
X199374999Y-69100000D01*
X199350495Y-69098796D01*
X199326227Y-69095196D01*
X199302428Y-69089235D01*
X199279329Y-69080970D01*
X199257150Y-69070480D01*
X199236107Y-69057868D01*
X199216401Y-69043253D01*
X199198223Y-69026777D01*
X199181747Y-69008599D01*
X199167132Y-68988893D01*
X199154520Y-68967850D01*
X199144030Y-68945671D01*
X199135765Y-68922572D01*
X199129804Y-68898773D01*
X199126204Y-68874505D01*
X199125000Y-68850001D01*
X199125000Y-68149999D01*
X199126204Y-68125495D01*
X199129804Y-68101227D01*
X199135765Y-68077428D01*
X199144030Y-68054329D01*
X199154520Y-68032150D01*
X199167132Y-68011107D01*
X199181747Y-67991401D01*
X199198223Y-67973223D01*
X199216401Y-67956747D01*
X199236107Y-67942132D01*
X199257150Y-67929520D01*
X199279329Y-67919030D01*
X199302428Y-67910765D01*
X199326227Y-67904804D01*
X199350495Y-67901204D01*
X199374999Y-67900000D01*
X200625001Y-67900000D01*
X200649505Y-67901204D01*
G37*
G04 #@! TD.AperFunction*
D18*
X138150000Y-46550000D03*
X136150000Y-46550000D03*
G04 #@! TA.AperFunction,ViaPad*
D17*
G36*
X134524505Y-45676204D02*
G01*
X134548773Y-45679804D01*
X134572572Y-45685765D01*
X134595671Y-45694030D01*
X134617850Y-45704520D01*
X134638893Y-45717132D01*
X134658599Y-45731747D01*
X134676777Y-45748223D01*
X134693253Y-45766401D01*
X134707868Y-45786107D01*
X134720480Y-45807150D01*
X134730970Y-45829329D01*
X134739235Y-45852428D01*
X134745196Y-45876227D01*
X134748796Y-45900495D01*
X134750000Y-45924999D01*
X134750000Y-47175001D01*
X134748796Y-47199505D01*
X134745196Y-47223773D01*
X134739235Y-47247572D01*
X134730970Y-47270671D01*
X134720480Y-47292850D01*
X134707868Y-47313893D01*
X134693253Y-47333599D01*
X134676777Y-47351777D01*
X134658599Y-47368253D01*
X134638893Y-47382868D01*
X134617850Y-47395480D01*
X134595671Y-47405970D01*
X134572572Y-47414235D01*
X134548773Y-47420196D01*
X134524505Y-47423796D01*
X134500001Y-47425000D01*
X133799999Y-47425000D01*
X133775495Y-47423796D01*
X133751227Y-47420196D01*
X133727428Y-47414235D01*
X133704329Y-47405970D01*
X133682150Y-47395480D01*
X133661107Y-47382868D01*
X133641401Y-47368253D01*
X133623223Y-47351777D01*
X133606747Y-47333599D01*
X133592132Y-47313893D01*
X133579520Y-47292850D01*
X133569030Y-47270671D01*
X133560765Y-47247572D01*
X133554804Y-47223773D01*
X133551204Y-47199505D01*
X133550000Y-47175001D01*
X133550000Y-45924999D01*
X133551204Y-45900495D01*
X133554804Y-45876227D01*
X133560765Y-45852428D01*
X133569030Y-45829329D01*
X133579520Y-45807150D01*
X133592132Y-45786107D01*
X133606747Y-45766401D01*
X133623223Y-45748223D01*
X133641401Y-45731747D01*
X133661107Y-45717132D01*
X133682150Y-45704520D01*
X133704329Y-45694030D01*
X133727428Y-45685765D01*
X133751227Y-45679804D01*
X133775495Y-45676204D01*
X133799999Y-45675000D01*
X134500001Y-45675000D01*
X134524505Y-45676204D01*
G37*
G04 #@! TD.AperFunction*
G04 #@! TA.AperFunction,ViaPad*
G36*
X144024505Y-45676204D02*
G01*
X144048773Y-45679804D01*
X144072572Y-45685765D01*
X144095671Y-45694030D01*
X144117850Y-45704520D01*
X144138893Y-45717132D01*
X144158599Y-45731747D01*
X144176777Y-45748223D01*
X144193253Y-45766401D01*
X144207868Y-45786107D01*
X144220480Y-45807150D01*
X144230970Y-45829329D01*
X144239235Y-45852428D01*
X144245196Y-45876227D01*
X144248796Y-45900495D01*
X144250000Y-45924999D01*
X144250000Y-47175001D01*
X144248796Y-47199505D01*
X144245196Y-47223773D01*
X144239235Y-47247572D01*
X144230970Y-47270671D01*
X144220480Y-47292850D01*
X144207868Y-47313893D01*
X144193253Y-47333599D01*
X144176777Y-47351777D01*
X144158599Y-47368253D01*
X144138893Y-47382868D01*
X144117850Y-47395480D01*
X144095671Y-47405970D01*
X144072572Y-47414235D01*
X144048773Y-47420196D01*
X144024505Y-47423796D01*
X144000001Y-47425000D01*
X143299999Y-47425000D01*
X143275495Y-47423796D01*
X143251227Y-47420196D01*
X143227428Y-47414235D01*
X143204329Y-47405970D01*
X143182150Y-47395480D01*
X143161107Y-47382868D01*
X143141401Y-47368253D01*
X143123223Y-47351777D01*
X143106747Y-47333599D01*
X143092132Y-47313893D01*
X143079520Y-47292850D01*
X143069030Y-47270671D01*
X143060765Y-47247572D01*
X143054804Y-47223773D01*
X143051204Y-47199505D01*
X143050000Y-47175001D01*
X143050000Y-45924999D01*
X143051204Y-45900495D01*
X143054804Y-45876227D01*
X143060765Y-45852428D01*
X143069030Y-45829329D01*
X143079520Y-45807150D01*
X143092132Y-45786107D01*
X143106747Y-45766401D01*
X143123223Y-45748223D01*
X143141401Y-45731747D01*
X143161107Y-45717132D01*
X143182150Y-45704520D01*
X143204329Y-45694030D01*
X143227428Y-45685765D01*
X143251227Y-45679804D01*
X143275495Y-45676204D01*
X143299999Y-45675000D01*
X144000001Y-45675000D01*
X144024505Y-45676204D01*
G37*
G04 #@! TD.AperFunction*
D18*
X145650000Y-46550000D03*
X147650000Y-46550000D03*
X165750000Y-27750000D03*
X163750000Y-27750000D03*
G04 #@! TA.AperFunction,ViaPad*
D17*
G36*
X162124505Y-26876204D02*
G01*
X162148773Y-26879804D01*
X162172572Y-26885765D01*
X162195671Y-26894030D01*
X162217850Y-26904520D01*
X162238893Y-26917132D01*
X162258599Y-26931747D01*
X162276777Y-26948223D01*
X162293253Y-26966401D01*
X162307868Y-26986107D01*
X162320480Y-27007150D01*
X162330970Y-27029329D01*
X162339235Y-27052428D01*
X162345196Y-27076227D01*
X162348796Y-27100495D01*
X162350000Y-27124999D01*
X162350000Y-28375001D01*
X162348796Y-28399505D01*
X162345196Y-28423773D01*
X162339235Y-28447572D01*
X162330970Y-28470671D01*
X162320480Y-28492850D01*
X162307868Y-28513893D01*
X162293253Y-28533599D01*
X162276777Y-28551777D01*
X162258599Y-28568253D01*
X162238893Y-28582868D01*
X162217850Y-28595480D01*
X162195671Y-28605970D01*
X162172572Y-28614235D01*
X162148773Y-28620196D01*
X162124505Y-28623796D01*
X162100001Y-28625000D01*
X161399999Y-28625000D01*
X161375495Y-28623796D01*
X161351227Y-28620196D01*
X161327428Y-28614235D01*
X161304329Y-28605970D01*
X161282150Y-28595480D01*
X161261107Y-28582868D01*
X161241401Y-28568253D01*
X161223223Y-28551777D01*
X161206747Y-28533599D01*
X161192132Y-28513893D01*
X161179520Y-28492850D01*
X161169030Y-28470671D01*
X161160765Y-28447572D01*
X161154804Y-28423773D01*
X161151204Y-28399505D01*
X161150000Y-28375001D01*
X161150000Y-27124999D01*
X161151204Y-27100495D01*
X161154804Y-27076227D01*
X161160765Y-27052428D01*
X161169030Y-27029329D01*
X161179520Y-27007150D01*
X161192132Y-26986107D01*
X161206747Y-26966401D01*
X161223223Y-26948223D01*
X161241401Y-26931747D01*
X161261107Y-26917132D01*
X161282150Y-26904520D01*
X161304329Y-26894030D01*
X161327428Y-26885765D01*
X161351227Y-26879804D01*
X161375495Y-26876204D01*
X161399999Y-26875000D01*
X162100001Y-26875000D01*
X162124505Y-26876204D01*
G37*
G04 #@! TD.AperFunction*
G04 #@! TA.AperFunction,ViaPad*
G36*
X152624505Y-26876204D02*
G01*
X152648773Y-26879804D01*
X152672572Y-26885765D01*
X152695671Y-26894030D01*
X152717850Y-26904520D01*
X152738893Y-26917132D01*
X152758599Y-26931747D01*
X152776777Y-26948223D01*
X152793253Y-26966401D01*
X152807868Y-26986107D01*
X152820480Y-27007150D01*
X152830970Y-27029329D01*
X152839235Y-27052428D01*
X152845196Y-27076227D01*
X152848796Y-27100495D01*
X152850000Y-27124999D01*
X152850000Y-28375001D01*
X152848796Y-28399505D01*
X152845196Y-28423773D01*
X152839235Y-28447572D01*
X152830970Y-28470671D01*
X152820480Y-28492850D01*
X152807868Y-28513893D01*
X152793253Y-28533599D01*
X152776777Y-28551777D01*
X152758599Y-28568253D01*
X152738893Y-28582868D01*
X152717850Y-28595480D01*
X152695671Y-28605970D01*
X152672572Y-28614235D01*
X152648773Y-28620196D01*
X152624505Y-28623796D01*
X152600001Y-28625000D01*
X151899999Y-28625000D01*
X151875495Y-28623796D01*
X151851227Y-28620196D01*
X151827428Y-28614235D01*
X151804329Y-28605970D01*
X151782150Y-28595480D01*
X151761107Y-28582868D01*
X151741401Y-28568253D01*
X151723223Y-28551777D01*
X151706747Y-28533599D01*
X151692132Y-28513893D01*
X151679520Y-28492850D01*
X151669030Y-28470671D01*
X151660765Y-28447572D01*
X151654804Y-28423773D01*
X151651204Y-28399505D01*
X151650000Y-28375001D01*
X151650000Y-27124999D01*
X151651204Y-27100495D01*
X151654804Y-27076227D01*
X151660765Y-27052428D01*
X151669030Y-27029329D01*
X151679520Y-27007150D01*
X151692132Y-26986107D01*
X151706747Y-26966401D01*
X151723223Y-26948223D01*
X151741401Y-26931747D01*
X151761107Y-26917132D01*
X151782150Y-26904520D01*
X151804329Y-26894030D01*
X151827428Y-26885765D01*
X151851227Y-26879804D01*
X151875495Y-26876204D01*
X151899999Y-26875000D01*
X152600001Y-26875000D01*
X152624505Y-26876204D01*
G37*
G04 #@! TD.AperFunction*
D18*
X154250000Y-27750000D03*
X156250000Y-27750000D03*
G04 #@! TA.AperFunction,ViaPad*
D17*
G36*
X48774504Y-45151204D02*
G01*
X48798773Y-45154804D01*
X48822571Y-45160765D01*
X48845671Y-45169030D01*
X48867849Y-45179520D01*
X48888893Y-45192133D01*
X48908598Y-45206747D01*
X48926777Y-45223223D01*
X48943253Y-45241402D01*
X48957867Y-45261107D01*
X48970480Y-45282151D01*
X48980970Y-45304329D01*
X48989235Y-45327429D01*
X48995196Y-45351227D01*
X48998796Y-45375496D01*
X49000000Y-45400000D01*
X49000000Y-46600000D01*
X48998796Y-46624504D01*
X48995196Y-46648773D01*
X48989235Y-46672571D01*
X48980970Y-46695671D01*
X48970480Y-46717849D01*
X48957867Y-46738893D01*
X48943253Y-46758598D01*
X48926777Y-46776777D01*
X48908598Y-46793253D01*
X48888893Y-46807867D01*
X48867849Y-46820480D01*
X48845671Y-46830970D01*
X48822571Y-46839235D01*
X48798773Y-46845196D01*
X48774504Y-46848796D01*
X48750000Y-46850000D01*
X47250000Y-46850000D01*
X47225496Y-46848796D01*
X47201227Y-46845196D01*
X47177429Y-46839235D01*
X47154329Y-46830970D01*
X47132151Y-46820480D01*
X47111107Y-46807867D01*
X47091402Y-46793253D01*
X47073223Y-46776777D01*
X47056747Y-46758598D01*
X47042133Y-46738893D01*
X47029520Y-46717849D01*
X47019030Y-46695671D01*
X47010765Y-46672571D01*
X47004804Y-46648773D01*
X47001204Y-46624504D01*
X47000000Y-46600000D01*
X47000000Y-45400000D01*
X47001204Y-45375496D01*
X47004804Y-45351227D01*
X47010765Y-45327429D01*
X47019030Y-45304329D01*
X47029520Y-45282151D01*
X47042133Y-45261107D01*
X47056747Y-45241402D01*
X47073223Y-45223223D01*
X47091402Y-45206747D01*
X47111107Y-45192133D01*
X47132151Y-45179520D01*
X47154329Y-45169030D01*
X47177429Y-45160765D01*
X47201227Y-45154804D01*
X47225496Y-45151204D01*
X47250000Y-45150000D01*
X48750000Y-45150000D01*
X48774504Y-45151204D01*
G37*
G04 #@! TD.AperFunction*
D20*
X48000000Y-43500000D03*
D18*
X59000000Y-28000000D03*
G04 #@! TA.AperFunction,ViaPad*
D17*
G36*
X57374505Y-27126204D02*
G01*
X57398773Y-27129804D01*
X57422572Y-27135765D01*
X57445671Y-27144030D01*
X57467850Y-27154520D01*
X57488893Y-27167132D01*
X57508599Y-27181747D01*
X57526777Y-27198223D01*
X57543253Y-27216401D01*
X57557868Y-27236107D01*
X57570480Y-27257150D01*
X57580970Y-27279329D01*
X57589235Y-27302428D01*
X57595196Y-27326227D01*
X57598796Y-27350495D01*
X57600000Y-27374999D01*
X57600000Y-28625001D01*
X57598796Y-28649505D01*
X57595196Y-28673773D01*
X57589235Y-28697572D01*
X57580970Y-28720671D01*
X57570480Y-28742850D01*
X57557868Y-28763893D01*
X57543253Y-28783599D01*
X57526777Y-28801777D01*
X57508599Y-28818253D01*
X57488893Y-28832868D01*
X57467850Y-28845480D01*
X57445671Y-28855970D01*
X57422572Y-28864235D01*
X57398773Y-28870196D01*
X57374505Y-28873796D01*
X57350001Y-28875000D01*
X56649999Y-28875000D01*
X56625495Y-28873796D01*
X56601227Y-28870196D01*
X56577428Y-28864235D01*
X56554329Y-28855970D01*
X56532150Y-28845480D01*
X56511107Y-28832868D01*
X56491401Y-28818253D01*
X56473223Y-28801777D01*
X56456747Y-28783599D01*
X56442132Y-28763893D01*
X56429520Y-28742850D01*
X56419030Y-28720671D01*
X56410765Y-28697572D01*
X56404804Y-28673773D01*
X56401204Y-28649505D01*
X56400000Y-28625001D01*
X56400000Y-27374999D01*
X56401204Y-27350495D01*
X56404804Y-27326227D01*
X56410765Y-27302428D01*
X56419030Y-27279329D01*
X56429520Y-27257150D01*
X56442132Y-27236107D01*
X56456747Y-27216401D01*
X56473223Y-27198223D01*
X56491401Y-27181747D01*
X56511107Y-27167132D01*
X56532150Y-27154520D01*
X56554329Y-27144030D01*
X56577428Y-27135765D01*
X56601227Y-27129804D01*
X56625495Y-27126204D01*
X56649999Y-27125000D01*
X57350001Y-27125000D01*
X57374505Y-27126204D01*
G37*
G04 #@! TD.AperFunction*
G04 #@! TA.AperFunction,ViaPad*
G36*
X65374505Y-27126204D02*
G01*
X65398773Y-27129804D01*
X65422572Y-27135765D01*
X65445671Y-27144030D01*
X65467850Y-27154520D01*
X65488893Y-27167132D01*
X65508599Y-27181747D01*
X65526777Y-27198223D01*
X65543253Y-27216401D01*
X65557868Y-27236107D01*
X65570480Y-27257150D01*
X65580970Y-27279329D01*
X65589235Y-27302428D01*
X65595196Y-27326227D01*
X65598796Y-27350495D01*
X65600000Y-27374999D01*
X65600000Y-28625001D01*
X65598796Y-28649505D01*
X65595196Y-28673773D01*
X65589235Y-28697572D01*
X65580970Y-28720671D01*
X65570480Y-28742850D01*
X65557868Y-28763893D01*
X65543253Y-28783599D01*
X65526777Y-28801777D01*
X65508599Y-28818253D01*
X65488893Y-28832868D01*
X65467850Y-28845480D01*
X65445671Y-28855970D01*
X65422572Y-28864235D01*
X65398773Y-28870196D01*
X65374505Y-28873796D01*
X65350001Y-28875000D01*
X64649999Y-28875000D01*
X64625495Y-28873796D01*
X64601227Y-28870196D01*
X64577428Y-28864235D01*
X64554329Y-28855970D01*
X64532150Y-28845480D01*
X64511107Y-28832868D01*
X64491401Y-28818253D01*
X64473223Y-28801777D01*
X64456747Y-28783599D01*
X64442132Y-28763893D01*
X64429520Y-28742850D01*
X64419030Y-28720671D01*
X64410765Y-28697572D01*
X64404804Y-28673773D01*
X64401204Y-28649505D01*
X64400000Y-28625001D01*
X64400000Y-27374999D01*
X64401204Y-27350495D01*
X64404804Y-27326227D01*
X64410765Y-27302428D01*
X64419030Y-27279329D01*
X64429520Y-27257150D01*
X64442132Y-27236107D01*
X64456747Y-27216401D01*
X64473223Y-27198223D01*
X64491401Y-27181747D01*
X64511107Y-27167132D01*
X64532150Y-27154520D01*
X64554329Y-27144030D01*
X64577428Y-27135765D01*
X64601227Y-27129804D01*
X64625495Y-27126204D01*
X64649999Y-27125000D01*
X65350001Y-27125000D01*
X65374505Y-27126204D01*
G37*
G04 #@! TD.AperFunction*
D18*
X67000000Y-28000000D03*
G04 #@! TA.AperFunction,ViaPad*
D17*
G36*
X73374505Y-27126204D02*
G01*
X73398773Y-27129804D01*
X73422572Y-27135765D01*
X73445671Y-27144030D01*
X73467850Y-27154520D01*
X73488893Y-27167132D01*
X73508599Y-27181747D01*
X73526777Y-27198223D01*
X73543253Y-27216401D01*
X73557868Y-27236107D01*
X73570480Y-27257150D01*
X73580970Y-27279329D01*
X73589235Y-27302428D01*
X73595196Y-27326227D01*
X73598796Y-27350495D01*
X73600000Y-27374999D01*
X73600000Y-28625001D01*
X73598796Y-28649505D01*
X73595196Y-28673773D01*
X73589235Y-28697572D01*
X73580970Y-28720671D01*
X73570480Y-28742850D01*
X73557868Y-28763893D01*
X73543253Y-28783599D01*
X73526777Y-28801777D01*
X73508599Y-28818253D01*
X73488893Y-28832868D01*
X73467850Y-28845480D01*
X73445671Y-28855970D01*
X73422572Y-28864235D01*
X73398773Y-28870196D01*
X73374505Y-28873796D01*
X73350001Y-28875000D01*
X72649999Y-28875000D01*
X72625495Y-28873796D01*
X72601227Y-28870196D01*
X72577428Y-28864235D01*
X72554329Y-28855970D01*
X72532150Y-28845480D01*
X72511107Y-28832868D01*
X72491401Y-28818253D01*
X72473223Y-28801777D01*
X72456747Y-28783599D01*
X72442132Y-28763893D01*
X72429520Y-28742850D01*
X72419030Y-28720671D01*
X72410765Y-28697572D01*
X72404804Y-28673773D01*
X72401204Y-28649505D01*
X72400000Y-28625001D01*
X72400000Y-27374999D01*
X72401204Y-27350495D01*
X72404804Y-27326227D01*
X72410765Y-27302428D01*
X72419030Y-27279329D01*
X72429520Y-27257150D01*
X72442132Y-27236107D01*
X72456747Y-27216401D01*
X72473223Y-27198223D01*
X72491401Y-27181747D01*
X72511107Y-27167132D01*
X72532150Y-27154520D01*
X72554329Y-27144030D01*
X72577428Y-27135765D01*
X72601227Y-27129804D01*
X72625495Y-27126204D01*
X72649999Y-27125000D01*
X73350001Y-27125000D01*
X73374505Y-27126204D01*
G37*
G04 #@! TD.AperFunction*
D18*
X75000000Y-28000000D03*
X83000000Y-28000000D03*
G04 #@! TA.AperFunction,ViaPad*
D17*
G36*
X81374505Y-27126204D02*
G01*
X81398773Y-27129804D01*
X81422572Y-27135765D01*
X81445671Y-27144030D01*
X81467850Y-27154520D01*
X81488893Y-27167132D01*
X81508599Y-27181747D01*
X81526777Y-27198223D01*
X81543253Y-27216401D01*
X81557868Y-27236107D01*
X81570480Y-27257150D01*
X81580970Y-27279329D01*
X81589235Y-27302428D01*
X81595196Y-27326227D01*
X81598796Y-27350495D01*
X81600000Y-27374999D01*
X81600000Y-28625001D01*
X81598796Y-28649505D01*
X81595196Y-28673773D01*
X81589235Y-28697572D01*
X81580970Y-28720671D01*
X81570480Y-28742850D01*
X81557868Y-28763893D01*
X81543253Y-28783599D01*
X81526777Y-28801777D01*
X81508599Y-28818253D01*
X81488893Y-28832868D01*
X81467850Y-28845480D01*
X81445671Y-28855970D01*
X81422572Y-28864235D01*
X81398773Y-28870196D01*
X81374505Y-28873796D01*
X81350001Y-28875000D01*
X80649999Y-28875000D01*
X80625495Y-28873796D01*
X80601227Y-28870196D01*
X80577428Y-28864235D01*
X80554329Y-28855970D01*
X80532150Y-28845480D01*
X80511107Y-28832868D01*
X80491401Y-28818253D01*
X80473223Y-28801777D01*
X80456747Y-28783599D01*
X80442132Y-28763893D01*
X80429520Y-28742850D01*
X80419030Y-28720671D01*
X80410765Y-28697572D01*
X80404804Y-28673773D01*
X80401204Y-28649505D01*
X80400000Y-28625001D01*
X80400000Y-27374999D01*
X80401204Y-27350495D01*
X80404804Y-27326227D01*
X80410765Y-27302428D01*
X80419030Y-27279329D01*
X80429520Y-27257150D01*
X80442132Y-27236107D01*
X80456747Y-27216401D01*
X80473223Y-27198223D01*
X80491401Y-27181747D01*
X80511107Y-27167132D01*
X80532150Y-27154520D01*
X80554329Y-27144030D01*
X80577428Y-27135765D01*
X80601227Y-27129804D01*
X80625495Y-27126204D01*
X80649999Y-27125000D01*
X81350001Y-27125000D01*
X81374505Y-27126204D01*
G37*
G04 #@! TD.AperFunction*
D18*
X75000000Y-112000000D03*
X77000000Y-112000000D03*
G04 #@! TA.AperFunction,ViaPad*
D17*
G36*
X79374505Y-111126204D02*
G01*
X79398773Y-111129804D01*
X79422572Y-111135765D01*
X79445671Y-111144030D01*
X79467850Y-111154520D01*
X79488893Y-111167132D01*
X79508599Y-111181747D01*
X79526777Y-111198223D01*
X79543253Y-111216401D01*
X79557868Y-111236107D01*
X79570480Y-111257150D01*
X79580970Y-111279329D01*
X79589235Y-111302428D01*
X79595196Y-111326227D01*
X79598796Y-111350495D01*
X79600000Y-111374999D01*
X79600000Y-112625001D01*
X79598796Y-112649505D01*
X79595196Y-112673773D01*
X79589235Y-112697572D01*
X79580970Y-112720671D01*
X79570480Y-112742850D01*
X79557868Y-112763893D01*
X79543253Y-112783599D01*
X79526777Y-112801777D01*
X79508599Y-112818253D01*
X79488893Y-112832868D01*
X79467850Y-112845480D01*
X79445671Y-112855970D01*
X79422572Y-112864235D01*
X79398773Y-112870196D01*
X79374505Y-112873796D01*
X79350001Y-112875000D01*
X78649999Y-112875000D01*
X78625495Y-112873796D01*
X78601227Y-112870196D01*
X78577428Y-112864235D01*
X78554329Y-112855970D01*
X78532150Y-112845480D01*
X78511107Y-112832868D01*
X78491401Y-112818253D01*
X78473223Y-112801777D01*
X78456747Y-112783599D01*
X78442132Y-112763893D01*
X78429520Y-112742850D01*
X78419030Y-112720671D01*
X78410765Y-112697572D01*
X78404804Y-112673773D01*
X78401204Y-112649505D01*
X78400000Y-112625001D01*
X78400000Y-111374999D01*
X78401204Y-111350495D01*
X78404804Y-111326227D01*
X78410765Y-111302428D01*
X78419030Y-111279329D01*
X78429520Y-111257150D01*
X78442132Y-111236107D01*
X78456747Y-111216401D01*
X78473223Y-111198223D01*
X78491401Y-111181747D01*
X78511107Y-111167132D01*
X78532150Y-111154520D01*
X78554329Y-111144030D01*
X78577428Y-111135765D01*
X78601227Y-111129804D01*
X78625495Y-111126204D01*
X78649999Y-111125000D01*
X79350001Y-111125000D01*
X79374505Y-111126204D01*
G37*
G04 #@! TD.AperFunction*
G04 #@! TA.AperFunction,ViaPad*
G36*
X99374505Y-27126204D02*
G01*
X99398773Y-27129804D01*
X99422572Y-27135765D01*
X99445671Y-27144030D01*
X99467850Y-27154520D01*
X99488893Y-27167132D01*
X99508599Y-27181747D01*
X99526777Y-27198223D01*
X99543253Y-27216401D01*
X99557868Y-27236107D01*
X99570480Y-27257150D01*
X99580970Y-27279329D01*
X99589235Y-27302428D01*
X99595196Y-27326227D01*
X99598796Y-27350495D01*
X99600000Y-27374999D01*
X99600000Y-28625001D01*
X99598796Y-28649505D01*
X99595196Y-28673773D01*
X99589235Y-28697572D01*
X99580970Y-28720671D01*
X99570480Y-28742850D01*
X99557868Y-28763893D01*
X99543253Y-28783599D01*
X99526777Y-28801777D01*
X99508599Y-28818253D01*
X99488893Y-28832868D01*
X99467850Y-28845480D01*
X99445671Y-28855970D01*
X99422572Y-28864235D01*
X99398773Y-28870196D01*
X99374505Y-28873796D01*
X99350001Y-28875000D01*
X98649999Y-28875000D01*
X98625495Y-28873796D01*
X98601227Y-28870196D01*
X98577428Y-28864235D01*
X98554329Y-28855970D01*
X98532150Y-28845480D01*
X98511107Y-28832868D01*
X98491401Y-28818253D01*
X98473223Y-28801777D01*
X98456747Y-28783599D01*
X98442132Y-28763893D01*
X98429520Y-28742850D01*
X98419030Y-28720671D01*
X98410765Y-28697572D01*
X98404804Y-28673773D01*
X98401204Y-28649505D01*
X98400000Y-28625001D01*
X98400000Y-27374999D01*
X98401204Y-27350495D01*
X98404804Y-27326227D01*
X98410765Y-27302428D01*
X98419030Y-27279329D01*
X98429520Y-27257150D01*
X98442132Y-27236107D01*
X98456747Y-27216401D01*
X98473223Y-27198223D01*
X98491401Y-27181747D01*
X98511107Y-27167132D01*
X98532150Y-27154520D01*
X98554329Y-27144030D01*
X98577428Y-27135765D01*
X98601227Y-27129804D01*
X98625495Y-27126204D01*
X98649999Y-27125000D01*
X99350001Y-27125000D01*
X99374505Y-27126204D01*
G37*
G04 #@! TD.AperFunction*
D18*
X101000000Y-28000000D03*
X109000000Y-28000000D03*
G04 #@! TA.AperFunction,ViaPad*
D17*
G36*
X107374505Y-27126204D02*
G01*
X107398773Y-27129804D01*
X107422572Y-27135765D01*
X107445671Y-27144030D01*
X107467850Y-27154520D01*
X107488893Y-27167132D01*
X107508599Y-27181747D01*
X107526777Y-27198223D01*
X107543253Y-27216401D01*
X107557868Y-27236107D01*
X107570480Y-27257150D01*
X107580970Y-27279329D01*
X107589235Y-27302428D01*
X107595196Y-27326227D01*
X107598796Y-27350495D01*
X107600000Y-27374999D01*
X107600000Y-28625001D01*
X107598796Y-28649505D01*
X107595196Y-28673773D01*
X107589235Y-28697572D01*
X107580970Y-28720671D01*
X107570480Y-28742850D01*
X107557868Y-28763893D01*
X107543253Y-28783599D01*
X107526777Y-28801777D01*
X107508599Y-28818253D01*
X107488893Y-28832868D01*
X107467850Y-28845480D01*
X107445671Y-28855970D01*
X107422572Y-28864235D01*
X107398773Y-28870196D01*
X107374505Y-28873796D01*
X107350001Y-28875000D01*
X106649999Y-28875000D01*
X106625495Y-28873796D01*
X106601227Y-28870196D01*
X106577428Y-28864235D01*
X106554329Y-28855970D01*
X106532150Y-28845480D01*
X106511107Y-28832868D01*
X106491401Y-28818253D01*
X106473223Y-28801777D01*
X106456747Y-28783599D01*
X106442132Y-28763893D01*
X106429520Y-28742850D01*
X106419030Y-28720671D01*
X106410765Y-28697572D01*
X106404804Y-28673773D01*
X106401204Y-28649505D01*
X106400000Y-28625001D01*
X106400000Y-27374999D01*
X106401204Y-27350495D01*
X106404804Y-27326227D01*
X106410765Y-27302428D01*
X106419030Y-27279329D01*
X106429520Y-27257150D01*
X106442132Y-27236107D01*
X106456747Y-27216401D01*
X106473223Y-27198223D01*
X106491401Y-27181747D01*
X106511107Y-27167132D01*
X106532150Y-27154520D01*
X106554329Y-27144030D01*
X106577428Y-27135765D01*
X106601227Y-27129804D01*
X106625495Y-27126204D01*
X106649999Y-27125000D01*
X107350001Y-27125000D01*
X107374505Y-27126204D01*
G37*
G04 #@! TD.AperFunction*
D18*
X57000000Y-112000000D03*
G04 #@! TA.AperFunction,ViaPad*
D17*
G36*
X59374505Y-111126204D02*
G01*
X59398773Y-111129804D01*
X59422572Y-111135765D01*
X59445671Y-111144030D01*
X59467850Y-111154520D01*
X59488893Y-111167132D01*
X59508599Y-111181747D01*
X59526777Y-111198223D01*
X59543253Y-111216401D01*
X59557868Y-111236107D01*
X59570480Y-111257150D01*
X59580970Y-111279329D01*
X59589235Y-111302428D01*
X59595196Y-111326227D01*
X59598796Y-111350495D01*
X59600000Y-111374999D01*
X59600000Y-112625001D01*
X59598796Y-112649505D01*
X59595196Y-112673773D01*
X59589235Y-112697572D01*
X59580970Y-112720671D01*
X59570480Y-112742850D01*
X59557868Y-112763893D01*
X59543253Y-112783599D01*
X59526777Y-112801777D01*
X59508599Y-112818253D01*
X59488893Y-112832868D01*
X59467850Y-112845480D01*
X59445671Y-112855970D01*
X59422572Y-112864235D01*
X59398773Y-112870196D01*
X59374505Y-112873796D01*
X59350001Y-112875000D01*
X58649999Y-112875000D01*
X58625495Y-112873796D01*
X58601227Y-112870196D01*
X58577428Y-112864235D01*
X58554329Y-112855970D01*
X58532150Y-112845480D01*
X58511107Y-112832868D01*
X58491401Y-112818253D01*
X58473223Y-112801777D01*
X58456747Y-112783599D01*
X58442132Y-112763893D01*
X58429520Y-112742850D01*
X58419030Y-112720671D01*
X58410765Y-112697572D01*
X58404804Y-112673773D01*
X58401204Y-112649505D01*
X58400000Y-112625001D01*
X58400000Y-111374999D01*
X58401204Y-111350495D01*
X58404804Y-111326227D01*
X58410765Y-111302428D01*
X58419030Y-111279329D01*
X58429520Y-111257150D01*
X58442132Y-111236107D01*
X58456747Y-111216401D01*
X58473223Y-111198223D01*
X58491401Y-111181747D01*
X58511107Y-111167132D01*
X58532150Y-111154520D01*
X58554329Y-111144030D01*
X58577428Y-111135765D01*
X58601227Y-111129804D01*
X58625495Y-111126204D01*
X58649999Y-111125000D01*
X59350001Y-111125000D01*
X59374505Y-111126204D01*
G37*
G04 #@! TD.AperFunction*
D18*
X65000000Y-112000000D03*
X67000000Y-112000000D03*
G04 #@! TA.AperFunction,ViaPad*
D17*
G36*
X69374505Y-111126204D02*
G01*
X69398773Y-111129804D01*
X69422572Y-111135765D01*
X69445671Y-111144030D01*
X69467850Y-111154520D01*
X69488893Y-111167132D01*
X69508599Y-111181747D01*
X69526777Y-111198223D01*
X69543253Y-111216401D01*
X69557868Y-111236107D01*
X69570480Y-111257150D01*
X69580970Y-111279329D01*
X69589235Y-111302428D01*
X69595196Y-111326227D01*
X69598796Y-111350495D01*
X69600000Y-111374999D01*
X69600000Y-112625001D01*
X69598796Y-112649505D01*
X69595196Y-112673773D01*
X69589235Y-112697572D01*
X69580970Y-112720671D01*
X69570480Y-112742850D01*
X69557868Y-112763893D01*
X69543253Y-112783599D01*
X69526777Y-112801777D01*
X69508599Y-112818253D01*
X69488893Y-112832868D01*
X69467850Y-112845480D01*
X69445671Y-112855970D01*
X69422572Y-112864235D01*
X69398773Y-112870196D01*
X69374505Y-112873796D01*
X69350001Y-112875000D01*
X68649999Y-112875000D01*
X68625495Y-112873796D01*
X68601227Y-112870196D01*
X68577428Y-112864235D01*
X68554329Y-112855970D01*
X68532150Y-112845480D01*
X68511107Y-112832868D01*
X68491401Y-112818253D01*
X68473223Y-112801777D01*
X68456747Y-112783599D01*
X68442132Y-112763893D01*
X68429520Y-112742850D01*
X68419030Y-112720671D01*
X68410765Y-112697572D01*
X68404804Y-112673773D01*
X68401204Y-112649505D01*
X68400000Y-112625001D01*
X68400000Y-111374999D01*
X68401204Y-111350495D01*
X68404804Y-111326227D01*
X68410765Y-111302428D01*
X68419030Y-111279329D01*
X68429520Y-111257150D01*
X68442132Y-111236107D01*
X68456747Y-111216401D01*
X68473223Y-111198223D01*
X68491401Y-111181747D01*
X68511107Y-111167132D01*
X68532150Y-111154520D01*
X68554329Y-111144030D01*
X68577428Y-111135765D01*
X68601227Y-111129804D01*
X68625495Y-111126204D01*
X68649999Y-111125000D01*
X69350001Y-111125000D01*
X69374505Y-111126204D01*
G37*
G04 #@! TD.AperFunction*
G04 #@! TA.AperFunction,ViaPad*
G36*
X109374505Y-111126204D02*
G01*
X109398773Y-111129804D01*
X109422572Y-111135765D01*
X109445671Y-111144030D01*
X109467850Y-111154520D01*
X109488893Y-111167132D01*
X109508599Y-111181747D01*
X109526777Y-111198223D01*
X109543253Y-111216401D01*
X109557868Y-111236107D01*
X109570480Y-111257150D01*
X109580970Y-111279329D01*
X109589235Y-111302428D01*
X109595196Y-111326227D01*
X109598796Y-111350495D01*
X109600000Y-111374999D01*
X109600000Y-112625001D01*
X109598796Y-112649505D01*
X109595196Y-112673773D01*
X109589235Y-112697572D01*
X109580970Y-112720671D01*
X109570480Y-112742850D01*
X109557868Y-112763893D01*
X109543253Y-112783599D01*
X109526777Y-112801777D01*
X109508599Y-112818253D01*
X109488893Y-112832868D01*
X109467850Y-112845480D01*
X109445671Y-112855970D01*
X109422572Y-112864235D01*
X109398773Y-112870196D01*
X109374505Y-112873796D01*
X109350001Y-112875000D01*
X108649999Y-112875000D01*
X108625495Y-112873796D01*
X108601227Y-112870196D01*
X108577428Y-112864235D01*
X108554329Y-112855970D01*
X108532150Y-112845480D01*
X108511107Y-112832868D01*
X108491401Y-112818253D01*
X108473223Y-112801777D01*
X108456747Y-112783599D01*
X108442132Y-112763893D01*
X108429520Y-112742850D01*
X108419030Y-112720671D01*
X108410765Y-112697572D01*
X108404804Y-112673773D01*
X108401204Y-112649505D01*
X108400000Y-112625001D01*
X108400000Y-111374999D01*
X108401204Y-111350495D01*
X108404804Y-111326227D01*
X108410765Y-111302428D01*
X108419030Y-111279329D01*
X108429520Y-111257150D01*
X108442132Y-111236107D01*
X108456747Y-111216401D01*
X108473223Y-111198223D01*
X108491401Y-111181747D01*
X108511107Y-111167132D01*
X108532150Y-111154520D01*
X108554329Y-111144030D01*
X108577428Y-111135765D01*
X108601227Y-111129804D01*
X108625495Y-111126204D01*
X108649999Y-111125000D01*
X109350001Y-111125000D01*
X109374505Y-111126204D01*
G37*
G04 #@! TD.AperFunction*
D18*
X107000000Y-112000000D03*
X105000000Y-112000000D03*
X103000000Y-112000000D03*
G04 #@! TA.AperFunction,ViaPad*
D17*
G36*
X89374505Y-111126204D02*
G01*
X89398773Y-111129804D01*
X89422572Y-111135765D01*
X89445671Y-111144030D01*
X89467850Y-111154520D01*
X89488893Y-111167132D01*
X89508599Y-111181747D01*
X89526777Y-111198223D01*
X89543253Y-111216401D01*
X89557868Y-111236107D01*
X89570480Y-111257150D01*
X89580970Y-111279329D01*
X89589235Y-111302428D01*
X89595196Y-111326227D01*
X89598796Y-111350495D01*
X89600000Y-111374999D01*
X89600000Y-112625001D01*
X89598796Y-112649505D01*
X89595196Y-112673773D01*
X89589235Y-112697572D01*
X89580970Y-112720671D01*
X89570480Y-112742850D01*
X89557868Y-112763893D01*
X89543253Y-112783599D01*
X89526777Y-112801777D01*
X89508599Y-112818253D01*
X89488893Y-112832868D01*
X89467850Y-112845480D01*
X89445671Y-112855970D01*
X89422572Y-112864235D01*
X89398773Y-112870196D01*
X89374505Y-112873796D01*
X89350001Y-112875000D01*
X88649999Y-112875000D01*
X88625495Y-112873796D01*
X88601227Y-112870196D01*
X88577428Y-112864235D01*
X88554329Y-112855970D01*
X88532150Y-112845480D01*
X88511107Y-112832868D01*
X88491401Y-112818253D01*
X88473223Y-112801777D01*
X88456747Y-112783599D01*
X88442132Y-112763893D01*
X88429520Y-112742850D01*
X88419030Y-112720671D01*
X88410765Y-112697572D01*
X88404804Y-112673773D01*
X88401204Y-112649505D01*
X88400000Y-112625001D01*
X88400000Y-111374999D01*
X88401204Y-111350495D01*
X88404804Y-111326227D01*
X88410765Y-111302428D01*
X88419030Y-111279329D01*
X88429520Y-111257150D01*
X88442132Y-111236107D01*
X88456747Y-111216401D01*
X88473223Y-111198223D01*
X88491401Y-111181747D01*
X88511107Y-111167132D01*
X88532150Y-111154520D01*
X88554329Y-111144030D01*
X88577428Y-111135765D01*
X88601227Y-111129804D01*
X88625495Y-111126204D01*
X88649999Y-111125000D01*
X89350001Y-111125000D01*
X89374505Y-111126204D01*
G37*
G04 #@! TD.AperFunction*
D18*
X87000000Y-112000000D03*
X85000000Y-112000000D03*
X144900000Y-112000000D03*
X146900000Y-112000000D03*
G04 #@! TA.AperFunction,ViaPad*
D17*
G36*
X149274505Y-111126204D02*
G01*
X149298773Y-111129804D01*
X149322572Y-111135765D01*
X149345671Y-111144030D01*
X149367850Y-111154520D01*
X149388893Y-111167132D01*
X149408599Y-111181747D01*
X149426777Y-111198223D01*
X149443253Y-111216401D01*
X149457868Y-111236107D01*
X149470480Y-111257150D01*
X149480970Y-111279329D01*
X149489235Y-111302428D01*
X149495196Y-111326227D01*
X149498796Y-111350495D01*
X149500000Y-111374999D01*
X149500000Y-112625001D01*
X149498796Y-112649505D01*
X149495196Y-112673773D01*
X149489235Y-112697572D01*
X149480970Y-112720671D01*
X149470480Y-112742850D01*
X149457868Y-112763893D01*
X149443253Y-112783599D01*
X149426777Y-112801777D01*
X149408599Y-112818253D01*
X149388893Y-112832868D01*
X149367850Y-112845480D01*
X149345671Y-112855970D01*
X149322572Y-112864235D01*
X149298773Y-112870196D01*
X149274505Y-112873796D01*
X149250001Y-112875000D01*
X148549999Y-112875000D01*
X148525495Y-112873796D01*
X148501227Y-112870196D01*
X148477428Y-112864235D01*
X148454329Y-112855970D01*
X148432150Y-112845480D01*
X148411107Y-112832868D01*
X148391401Y-112818253D01*
X148373223Y-112801777D01*
X148356747Y-112783599D01*
X148342132Y-112763893D01*
X148329520Y-112742850D01*
X148319030Y-112720671D01*
X148310765Y-112697572D01*
X148304804Y-112673773D01*
X148301204Y-112649505D01*
X148300000Y-112625001D01*
X148300000Y-111374999D01*
X148301204Y-111350495D01*
X148304804Y-111326227D01*
X148310765Y-111302428D01*
X148319030Y-111279329D01*
X148329520Y-111257150D01*
X148342132Y-111236107D01*
X148356747Y-111216401D01*
X148373223Y-111198223D01*
X148391401Y-111181747D01*
X148411107Y-111167132D01*
X148432150Y-111154520D01*
X148454329Y-111144030D01*
X148477428Y-111135765D01*
X148501227Y-111129804D01*
X148525495Y-111126204D01*
X148549999Y-111125000D01*
X149250001Y-111125000D01*
X149274505Y-111126204D01*
G37*
G04 #@! TD.AperFunction*
G04 #@! TA.AperFunction,ViaPad*
G36*
X183624505Y-95876204D02*
G01*
X183648773Y-95879804D01*
X183672572Y-95885765D01*
X183695671Y-95894030D01*
X183717850Y-95904520D01*
X183738893Y-95917132D01*
X183758599Y-95931747D01*
X183776777Y-95948223D01*
X183793253Y-95966401D01*
X183807868Y-95986107D01*
X183820480Y-96007150D01*
X183830970Y-96029329D01*
X183839235Y-96052428D01*
X183845196Y-96076227D01*
X183848796Y-96100495D01*
X183850000Y-96124999D01*
X183850000Y-97375001D01*
X183848796Y-97399505D01*
X183845196Y-97423773D01*
X183839235Y-97447572D01*
X183830970Y-97470671D01*
X183820480Y-97492850D01*
X183807868Y-97513893D01*
X183793253Y-97533599D01*
X183776777Y-97551777D01*
X183758599Y-97568253D01*
X183738893Y-97582868D01*
X183717850Y-97595480D01*
X183695671Y-97605970D01*
X183672572Y-97614235D01*
X183648773Y-97620196D01*
X183624505Y-97623796D01*
X183600001Y-97625000D01*
X182899999Y-97625000D01*
X182875495Y-97623796D01*
X182851227Y-97620196D01*
X182827428Y-97614235D01*
X182804329Y-97605970D01*
X182782150Y-97595480D01*
X182761107Y-97582868D01*
X182741401Y-97568253D01*
X182723223Y-97551777D01*
X182706747Y-97533599D01*
X182692132Y-97513893D01*
X182679520Y-97492850D01*
X182669030Y-97470671D01*
X182660765Y-97447572D01*
X182654804Y-97423773D01*
X182651204Y-97399505D01*
X182650000Y-97375001D01*
X182650000Y-96124999D01*
X182651204Y-96100495D01*
X182654804Y-96076227D01*
X182660765Y-96052428D01*
X182669030Y-96029329D01*
X182679520Y-96007150D01*
X182692132Y-95986107D01*
X182706747Y-95966401D01*
X182723223Y-95948223D01*
X182741401Y-95931747D01*
X182761107Y-95917132D01*
X182782150Y-95904520D01*
X182804329Y-95894030D01*
X182827428Y-95885765D01*
X182851227Y-95879804D01*
X182875495Y-95876204D01*
X182899999Y-95875000D01*
X183600001Y-95875000D01*
X183624505Y-95876204D01*
G37*
G04 #@! TD.AperFunction*
D18*
X181250000Y-96750000D03*
X179250000Y-96750000D03*
X95000000Y-112000000D03*
G04 #@! TA.AperFunction,ViaPad*
D17*
G36*
X97374505Y-111126204D02*
G01*
X97398773Y-111129804D01*
X97422572Y-111135765D01*
X97445671Y-111144030D01*
X97467850Y-111154520D01*
X97488893Y-111167132D01*
X97508599Y-111181747D01*
X97526777Y-111198223D01*
X97543253Y-111216401D01*
X97557868Y-111236107D01*
X97570480Y-111257150D01*
X97580970Y-111279329D01*
X97589235Y-111302428D01*
X97595196Y-111326227D01*
X97598796Y-111350495D01*
X97600000Y-111374999D01*
X97600000Y-112625001D01*
X97598796Y-112649505D01*
X97595196Y-112673773D01*
X97589235Y-112697572D01*
X97580970Y-112720671D01*
X97570480Y-112742850D01*
X97557868Y-112763893D01*
X97543253Y-112783599D01*
X97526777Y-112801777D01*
X97508599Y-112818253D01*
X97488893Y-112832868D01*
X97467850Y-112845480D01*
X97445671Y-112855970D01*
X97422572Y-112864235D01*
X97398773Y-112870196D01*
X97374505Y-112873796D01*
X97350001Y-112875000D01*
X96649999Y-112875000D01*
X96625495Y-112873796D01*
X96601227Y-112870196D01*
X96577428Y-112864235D01*
X96554329Y-112855970D01*
X96532150Y-112845480D01*
X96511107Y-112832868D01*
X96491401Y-112818253D01*
X96473223Y-112801777D01*
X96456747Y-112783599D01*
X96442132Y-112763893D01*
X96429520Y-112742850D01*
X96419030Y-112720671D01*
X96410765Y-112697572D01*
X96404804Y-112673773D01*
X96401204Y-112649505D01*
X96400000Y-112625001D01*
X96400000Y-111374999D01*
X96401204Y-111350495D01*
X96404804Y-111326227D01*
X96410765Y-111302428D01*
X96419030Y-111279329D01*
X96429520Y-111257150D01*
X96442132Y-111236107D01*
X96456747Y-111216401D01*
X96473223Y-111198223D01*
X96491401Y-111181747D01*
X96511107Y-111167132D01*
X96532150Y-111154520D01*
X96554329Y-111144030D01*
X96577428Y-111135765D01*
X96601227Y-111129804D01*
X96625495Y-111126204D01*
X96649999Y-111125000D01*
X97350001Y-111125000D01*
X97374505Y-111126204D01*
G37*
G04 #@! TD.AperFunction*
G04 #@! TA.AperFunction,ViaPad*
G36*
X47649505Y-63401204D02*
G01*
X47673773Y-63404804D01*
X47697572Y-63410765D01*
X47720671Y-63419030D01*
X47742850Y-63429520D01*
X47763893Y-63442132D01*
X47783599Y-63456747D01*
X47801777Y-63473223D01*
X47818253Y-63491401D01*
X47832868Y-63511107D01*
X47845480Y-63532150D01*
X47855970Y-63554329D01*
X47864235Y-63577428D01*
X47870196Y-63601227D01*
X47873796Y-63625495D01*
X47875000Y-63649999D01*
X47875000Y-64350001D01*
X47873796Y-64374505D01*
X47870196Y-64398773D01*
X47864235Y-64422572D01*
X47855970Y-64445671D01*
X47845480Y-64467850D01*
X47832868Y-64488893D01*
X47818253Y-64508599D01*
X47801777Y-64526777D01*
X47783599Y-64543253D01*
X47763893Y-64557868D01*
X47742850Y-64570480D01*
X47720671Y-64580970D01*
X47697572Y-64589235D01*
X47673773Y-64595196D01*
X47649505Y-64598796D01*
X47625001Y-64600000D01*
X46374999Y-64600000D01*
X46350495Y-64598796D01*
X46326227Y-64595196D01*
X46302428Y-64589235D01*
X46279329Y-64580970D01*
X46257150Y-64570480D01*
X46236107Y-64557868D01*
X46216401Y-64543253D01*
X46198223Y-64526777D01*
X46181747Y-64508599D01*
X46167132Y-64488893D01*
X46154520Y-64467850D01*
X46144030Y-64445671D01*
X46135765Y-64422572D01*
X46129804Y-64398773D01*
X46126204Y-64374505D01*
X46125000Y-64350001D01*
X46125000Y-63649999D01*
X46126204Y-63625495D01*
X46129804Y-63601227D01*
X46135765Y-63577428D01*
X46144030Y-63554329D01*
X46154520Y-63532150D01*
X46167132Y-63511107D01*
X46181747Y-63491401D01*
X46198223Y-63473223D01*
X46216401Y-63456747D01*
X46236107Y-63442132D01*
X46257150Y-63429520D01*
X46279329Y-63419030D01*
X46302428Y-63410765D01*
X46326227Y-63404804D01*
X46350495Y-63401204D01*
X46374999Y-63400000D01*
X47625001Y-63400000D01*
X47649505Y-63401204D01*
G37*
G04 #@! TD.AperFunction*
D19*
X47000000Y-62000000D03*
G04 #@! TA.AperFunction,ViaPad*
D17*
G36*
X47649505Y-73401204D02*
G01*
X47673773Y-73404804D01*
X47697572Y-73410765D01*
X47720671Y-73419030D01*
X47742850Y-73429520D01*
X47763893Y-73442132D01*
X47783599Y-73456747D01*
X47801777Y-73473223D01*
X47818253Y-73491401D01*
X47832868Y-73511107D01*
X47845480Y-73532150D01*
X47855970Y-73554329D01*
X47864235Y-73577428D01*
X47870196Y-73601227D01*
X47873796Y-73625495D01*
X47875000Y-73649999D01*
X47875000Y-74350001D01*
X47873796Y-74374505D01*
X47870196Y-74398773D01*
X47864235Y-74422572D01*
X47855970Y-74445671D01*
X47845480Y-74467850D01*
X47832868Y-74488893D01*
X47818253Y-74508599D01*
X47801777Y-74526777D01*
X47783599Y-74543253D01*
X47763893Y-74557868D01*
X47742850Y-74570480D01*
X47720671Y-74580970D01*
X47697572Y-74589235D01*
X47673773Y-74595196D01*
X47649505Y-74598796D01*
X47625001Y-74600000D01*
X46374999Y-74600000D01*
X46350495Y-74598796D01*
X46326227Y-74595196D01*
X46302428Y-74589235D01*
X46279329Y-74580970D01*
X46257150Y-74570480D01*
X46236107Y-74557868D01*
X46216401Y-74543253D01*
X46198223Y-74526777D01*
X46181747Y-74508599D01*
X46167132Y-74488893D01*
X46154520Y-74467850D01*
X46144030Y-74445671D01*
X46135765Y-74422572D01*
X46129804Y-74398773D01*
X46126204Y-74374505D01*
X46125000Y-74350001D01*
X46125000Y-73649999D01*
X46126204Y-73625495D01*
X46129804Y-73601227D01*
X46135765Y-73577428D01*
X46144030Y-73554329D01*
X46154520Y-73532150D01*
X46167132Y-73511107D01*
X46181747Y-73491401D01*
X46198223Y-73473223D01*
X46216401Y-73456747D01*
X46236107Y-73442132D01*
X46257150Y-73429520D01*
X46279329Y-73419030D01*
X46302428Y-73410765D01*
X46326227Y-73404804D01*
X46350495Y-73401204D01*
X46374999Y-73400000D01*
X47625001Y-73400000D01*
X47649505Y-73401204D01*
G37*
G04 #@! TD.AperFunction*
D19*
X47000000Y-72000000D03*
X47000000Y-70000000D03*
X47000000Y-80000000D03*
X47000000Y-82000000D03*
G04 #@! TA.AperFunction,ViaPad*
D17*
G36*
X47649505Y-83401204D02*
G01*
X47673773Y-83404804D01*
X47697572Y-83410765D01*
X47720671Y-83419030D01*
X47742850Y-83429520D01*
X47763893Y-83442132D01*
X47783599Y-83456747D01*
X47801777Y-83473223D01*
X47818253Y-83491401D01*
X47832868Y-83511107D01*
X47845480Y-83532150D01*
X47855970Y-83554329D01*
X47864235Y-83577428D01*
X47870196Y-83601227D01*
X47873796Y-83625495D01*
X47875000Y-83649999D01*
X47875000Y-84350001D01*
X47873796Y-84374505D01*
X47870196Y-84398773D01*
X47864235Y-84422572D01*
X47855970Y-84445671D01*
X47845480Y-84467850D01*
X47832868Y-84488893D01*
X47818253Y-84508599D01*
X47801777Y-84526777D01*
X47783599Y-84543253D01*
X47763893Y-84557868D01*
X47742850Y-84570480D01*
X47720671Y-84580970D01*
X47697572Y-84589235D01*
X47673773Y-84595196D01*
X47649505Y-84598796D01*
X47625001Y-84600000D01*
X46374999Y-84600000D01*
X46350495Y-84598796D01*
X46326227Y-84595196D01*
X46302428Y-84589235D01*
X46279329Y-84580970D01*
X46257150Y-84570480D01*
X46236107Y-84557868D01*
X46216401Y-84543253D01*
X46198223Y-84526777D01*
X46181747Y-84508599D01*
X46167132Y-84488893D01*
X46154520Y-84467850D01*
X46144030Y-84445671D01*
X46135765Y-84422572D01*
X46129804Y-84398773D01*
X46126204Y-84374505D01*
X46125000Y-84350001D01*
X46125000Y-83649999D01*
X46126204Y-83625495D01*
X46129804Y-83601227D01*
X46135765Y-83577428D01*
X46144030Y-83554329D01*
X46154520Y-83532150D01*
X46167132Y-83511107D01*
X46181747Y-83491401D01*
X46198223Y-83473223D01*
X46216401Y-83456747D01*
X46236107Y-83442132D01*
X46257150Y-83429520D01*
X46279329Y-83419030D01*
X46302428Y-83410765D01*
X46326227Y-83404804D01*
X46350495Y-83401204D01*
X46374999Y-83400000D01*
X47625001Y-83400000D01*
X47649505Y-83401204D01*
G37*
G04 #@! TD.AperFunction*
G04 #@! TA.AperFunction,ViaPad*
G36*
X171624505Y-26876204D02*
G01*
X171648773Y-26879804D01*
X171672572Y-26885765D01*
X171695671Y-26894030D01*
X171717850Y-26904520D01*
X171738893Y-26917132D01*
X171758599Y-26931747D01*
X171776777Y-26948223D01*
X171793253Y-26966401D01*
X171807868Y-26986107D01*
X171820480Y-27007150D01*
X171830970Y-27029329D01*
X171839235Y-27052428D01*
X171845196Y-27076227D01*
X171848796Y-27100495D01*
X171850000Y-27124999D01*
X171850000Y-28375001D01*
X171848796Y-28399505D01*
X171845196Y-28423773D01*
X171839235Y-28447572D01*
X171830970Y-28470671D01*
X171820480Y-28492850D01*
X171807868Y-28513893D01*
X171793253Y-28533599D01*
X171776777Y-28551777D01*
X171758599Y-28568253D01*
X171738893Y-28582868D01*
X171717850Y-28595480D01*
X171695671Y-28605970D01*
X171672572Y-28614235D01*
X171648773Y-28620196D01*
X171624505Y-28623796D01*
X171600001Y-28625000D01*
X170899999Y-28625000D01*
X170875495Y-28623796D01*
X170851227Y-28620196D01*
X170827428Y-28614235D01*
X170804329Y-28605970D01*
X170782150Y-28595480D01*
X170761107Y-28582868D01*
X170741401Y-28568253D01*
X170723223Y-28551777D01*
X170706747Y-28533599D01*
X170692132Y-28513893D01*
X170679520Y-28492850D01*
X170669030Y-28470671D01*
X170660765Y-28447572D01*
X170654804Y-28423773D01*
X170651204Y-28399505D01*
X170650000Y-28375001D01*
X170650000Y-27124999D01*
X170651204Y-27100495D01*
X170654804Y-27076227D01*
X170660765Y-27052428D01*
X170669030Y-27029329D01*
X170679520Y-27007150D01*
X170692132Y-26986107D01*
X170706747Y-26966401D01*
X170723223Y-26948223D01*
X170741401Y-26931747D01*
X170761107Y-26917132D01*
X170782150Y-26904520D01*
X170804329Y-26894030D01*
X170827428Y-26885765D01*
X170851227Y-26879804D01*
X170875495Y-26876204D01*
X170899999Y-26875000D01*
X171600001Y-26875000D01*
X171624505Y-26876204D01*
G37*
G04 #@! TD.AperFunction*
D18*
X173250000Y-27750000D03*
X175250000Y-27750000D03*
X177250000Y-27750000D03*
X179250000Y-27750000D03*
X181250000Y-27750000D03*
X183250000Y-27750000D03*
X185250000Y-27750000D03*
X187250000Y-27750000D03*
X189250000Y-27750000D03*
G04 #@! TA.AperFunction,ViaPad*
D17*
G36*
X139124505Y-26876204D02*
G01*
X139148773Y-26879804D01*
X139172572Y-26885765D01*
X139195671Y-26894030D01*
X139217850Y-26904520D01*
X139238893Y-26917132D01*
X139258599Y-26931747D01*
X139276777Y-26948223D01*
X139293253Y-26966401D01*
X139307868Y-26986107D01*
X139320480Y-27007150D01*
X139330970Y-27029329D01*
X139339235Y-27052428D01*
X139345196Y-27076227D01*
X139348796Y-27100495D01*
X139350000Y-27124999D01*
X139350000Y-28375001D01*
X139348796Y-28399505D01*
X139345196Y-28423773D01*
X139339235Y-28447572D01*
X139330970Y-28470671D01*
X139320480Y-28492850D01*
X139307868Y-28513893D01*
X139293253Y-28533599D01*
X139276777Y-28551777D01*
X139258599Y-28568253D01*
X139238893Y-28582868D01*
X139217850Y-28595480D01*
X139195671Y-28605970D01*
X139172572Y-28614235D01*
X139148773Y-28620196D01*
X139124505Y-28623796D01*
X139100001Y-28625000D01*
X138399999Y-28625000D01*
X138375495Y-28623796D01*
X138351227Y-28620196D01*
X138327428Y-28614235D01*
X138304329Y-28605970D01*
X138282150Y-28595480D01*
X138261107Y-28582868D01*
X138241401Y-28568253D01*
X138223223Y-28551777D01*
X138206747Y-28533599D01*
X138192132Y-28513893D01*
X138179520Y-28492850D01*
X138169030Y-28470671D01*
X138160765Y-28447572D01*
X138154804Y-28423773D01*
X138151204Y-28399505D01*
X138150000Y-28375001D01*
X138150000Y-27124999D01*
X138151204Y-27100495D01*
X138154804Y-27076227D01*
X138160765Y-27052428D01*
X138169030Y-27029329D01*
X138179520Y-27007150D01*
X138192132Y-26986107D01*
X138206747Y-26966401D01*
X138223223Y-26948223D01*
X138241401Y-26931747D01*
X138261107Y-26917132D01*
X138282150Y-26904520D01*
X138304329Y-26894030D01*
X138327428Y-26885765D01*
X138351227Y-26879804D01*
X138375495Y-26876204D01*
X138399999Y-26875000D01*
X139100001Y-26875000D01*
X139124505Y-26876204D01*
G37*
G04 #@! TD.AperFunction*
D18*
X140750000Y-27750000D03*
X142750000Y-27750000D03*
X144750000Y-27750000D03*
X146750000Y-27750000D03*
X133250000Y-27750000D03*
X131250000Y-27750000D03*
X129250000Y-27750000D03*
G04 #@! TA.AperFunction,ViaPad*
D17*
G36*
X127624505Y-26876204D02*
G01*
X127648773Y-26879804D01*
X127672572Y-26885765D01*
X127695671Y-26894030D01*
X127717850Y-26904520D01*
X127738893Y-26917132D01*
X127758599Y-26931747D01*
X127776777Y-26948223D01*
X127793253Y-26966401D01*
X127807868Y-26986107D01*
X127820480Y-27007150D01*
X127830970Y-27029329D01*
X127839235Y-27052428D01*
X127845196Y-27076227D01*
X127848796Y-27100495D01*
X127850000Y-27124999D01*
X127850000Y-28375001D01*
X127848796Y-28399505D01*
X127845196Y-28423773D01*
X127839235Y-28447572D01*
X127830970Y-28470671D01*
X127820480Y-28492850D01*
X127807868Y-28513893D01*
X127793253Y-28533599D01*
X127776777Y-28551777D01*
X127758599Y-28568253D01*
X127738893Y-28582868D01*
X127717850Y-28595480D01*
X127695671Y-28605970D01*
X127672572Y-28614235D01*
X127648773Y-28620196D01*
X127624505Y-28623796D01*
X127600001Y-28625000D01*
X126899999Y-28625000D01*
X126875495Y-28623796D01*
X126851227Y-28620196D01*
X126827428Y-28614235D01*
X126804329Y-28605970D01*
X126782150Y-28595480D01*
X126761107Y-28582868D01*
X126741401Y-28568253D01*
X126723223Y-28551777D01*
X126706747Y-28533599D01*
X126692132Y-28513893D01*
X126679520Y-28492850D01*
X126669030Y-28470671D01*
X126660765Y-28447572D01*
X126654804Y-28423773D01*
X126651204Y-28399505D01*
X126650000Y-28375001D01*
X126650000Y-27124999D01*
X126651204Y-27100495D01*
X126654804Y-27076227D01*
X126660765Y-27052428D01*
X126669030Y-27029329D01*
X126679520Y-27007150D01*
X126692132Y-26986107D01*
X126706747Y-26966401D01*
X126723223Y-26948223D01*
X126741401Y-26931747D01*
X126761107Y-26917132D01*
X126782150Y-26904520D01*
X126804329Y-26894030D01*
X126827428Y-26885765D01*
X126851227Y-26879804D01*
X126875495Y-26876204D01*
X126899999Y-26875000D01*
X127600001Y-26875000D01*
X127624505Y-26876204D01*
G37*
G04 #@! TD.AperFunction*
D18*
X163000000Y-112000000D03*
G04 #@! TA.AperFunction,ViaPad*
D17*
G36*
X165374505Y-111126204D02*
G01*
X165398773Y-111129804D01*
X165422572Y-111135765D01*
X165445671Y-111144030D01*
X165467850Y-111154520D01*
X165488893Y-111167132D01*
X165508599Y-111181747D01*
X165526777Y-111198223D01*
X165543253Y-111216401D01*
X165557868Y-111236107D01*
X165570480Y-111257150D01*
X165580970Y-111279329D01*
X165589235Y-111302428D01*
X165595196Y-111326227D01*
X165598796Y-111350495D01*
X165600000Y-111374999D01*
X165600000Y-112625001D01*
X165598796Y-112649505D01*
X165595196Y-112673773D01*
X165589235Y-112697572D01*
X165580970Y-112720671D01*
X165570480Y-112742850D01*
X165557868Y-112763893D01*
X165543253Y-112783599D01*
X165526777Y-112801777D01*
X165508599Y-112818253D01*
X165488893Y-112832868D01*
X165467850Y-112845480D01*
X165445671Y-112855970D01*
X165422572Y-112864235D01*
X165398773Y-112870196D01*
X165374505Y-112873796D01*
X165350001Y-112875000D01*
X164649999Y-112875000D01*
X164625495Y-112873796D01*
X164601227Y-112870196D01*
X164577428Y-112864235D01*
X164554329Y-112855970D01*
X164532150Y-112845480D01*
X164511107Y-112832868D01*
X164491401Y-112818253D01*
X164473223Y-112801777D01*
X164456747Y-112783599D01*
X164442132Y-112763893D01*
X164429520Y-112742850D01*
X164419030Y-112720671D01*
X164410765Y-112697572D01*
X164404804Y-112673773D01*
X164401204Y-112649505D01*
X164400000Y-112625001D01*
X164400000Y-111374999D01*
X164401204Y-111350495D01*
X164404804Y-111326227D01*
X164410765Y-111302428D01*
X164419030Y-111279329D01*
X164429520Y-111257150D01*
X164442132Y-111236107D01*
X164456747Y-111216401D01*
X164473223Y-111198223D01*
X164491401Y-111181747D01*
X164511107Y-111167132D01*
X164532150Y-111154520D01*
X164554329Y-111144030D01*
X164577428Y-111135765D01*
X164601227Y-111129804D01*
X164625495Y-111126204D01*
X164649999Y-111125000D01*
X165350001Y-111125000D01*
X165374505Y-111126204D01*
G37*
G04 #@! TD.AperFunction*
G04 #@! TA.AperFunction,ViaPad*
G36*
X157374505Y-111126204D02*
G01*
X157398773Y-111129804D01*
X157422572Y-111135765D01*
X157445671Y-111144030D01*
X157467850Y-111154520D01*
X157488893Y-111167132D01*
X157508599Y-111181747D01*
X157526777Y-111198223D01*
X157543253Y-111216401D01*
X157557868Y-111236107D01*
X157570480Y-111257150D01*
X157580970Y-111279329D01*
X157589235Y-111302428D01*
X157595196Y-111326227D01*
X157598796Y-111350495D01*
X157600000Y-111374999D01*
X157600000Y-112625001D01*
X157598796Y-112649505D01*
X157595196Y-112673773D01*
X157589235Y-112697572D01*
X157580970Y-112720671D01*
X157570480Y-112742850D01*
X157557868Y-112763893D01*
X157543253Y-112783599D01*
X157526777Y-112801777D01*
X157508599Y-112818253D01*
X157488893Y-112832868D01*
X157467850Y-112845480D01*
X157445671Y-112855970D01*
X157422572Y-112864235D01*
X157398773Y-112870196D01*
X157374505Y-112873796D01*
X157350001Y-112875000D01*
X156649999Y-112875000D01*
X156625495Y-112873796D01*
X156601227Y-112870196D01*
X156577428Y-112864235D01*
X156554329Y-112855970D01*
X156532150Y-112845480D01*
X156511107Y-112832868D01*
X156491401Y-112818253D01*
X156473223Y-112801777D01*
X156456747Y-112783599D01*
X156442132Y-112763893D01*
X156429520Y-112742850D01*
X156419030Y-112720671D01*
X156410765Y-112697572D01*
X156404804Y-112673773D01*
X156401204Y-112649505D01*
X156400000Y-112625001D01*
X156400000Y-111374999D01*
X156401204Y-111350495D01*
X156404804Y-111326227D01*
X156410765Y-111302428D01*
X156419030Y-111279329D01*
X156429520Y-111257150D01*
X156442132Y-111236107D01*
X156456747Y-111216401D01*
X156473223Y-111198223D01*
X156491401Y-111181747D01*
X156511107Y-111167132D01*
X156532150Y-111154520D01*
X156554329Y-111144030D01*
X156577428Y-111135765D01*
X156601227Y-111129804D01*
X156625495Y-111126204D01*
X156649999Y-111125000D01*
X157350001Y-111125000D01*
X157374505Y-111126204D01*
G37*
G04 #@! TD.AperFunction*
D18*
X155000000Y-112000000D03*
G04 #@! TA.AperFunction,ViaPad*
D17*
G36*
X189274505Y-111126204D02*
G01*
X189298773Y-111129804D01*
X189322572Y-111135765D01*
X189345671Y-111144030D01*
X189367850Y-111154520D01*
X189388893Y-111167132D01*
X189408599Y-111181747D01*
X189426777Y-111198223D01*
X189443253Y-111216401D01*
X189457868Y-111236107D01*
X189470480Y-111257150D01*
X189480970Y-111279329D01*
X189489235Y-111302428D01*
X189495196Y-111326227D01*
X189498796Y-111350495D01*
X189500000Y-111374999D01*
X189500000Y-112625001D01*
X189498796Y-112649505D01*
X189495196Y-112673773D01*
X189489235Y-112697572D01*
X189480970Y-112720671D01*
X189470480Y-112742850D01*
X189457868Y-112763893D01*
X189443253Y-112783599D01*
X189426777Y-112801777D01*
X189408599Y-112818253D01*
X189388893Y-112832868D01*
X189367850Y-112845480D01*
X189345671Y-112855970D01*
X189322572Y-112864235D01*
X189298773Y-112870196D01*
X189274505Y-112873796D01*
X189250001Y-112875000D01*
X188549999Y-112875000D01*
X188525495Y-112873796D01*
X188501227Y-112870196D01*
X188477428Y-112864235D01*
X188454329Y-112855970D01*
X188432150Y-112845480D01*
X188411107Y-112832868D01*
X188391401Y-112818253D01*
X188373223Y-112801777D01*
X188356747Y-112783599D01*
X188342132Y-112763893D01*
X188329520Y-112742850D01*
X188319030Y-112720671D01*
X188310765Y-112697572D01*
X188304804Y-112673773D01*
X188301204Y-112649505D01*
X188300000Y-112625001D01*
X188300000Y-111374999D01*
X188301204Y-111350495D01*
X188304804Y-111326227D01*
X188310765Y-111302428D01*
X188319030Y-111279329D01*
X188329520Y-111257150D01*
X188342132Y-111236107D01*
X188356747Y-111216401D01*
X188373223Y-111198223D01*
X188391401Y-111181747D01*
X188411107Y-111167132D01*
X188432150Y-111154520D01*
X188454329Y-111144030D01*
X188477428Y-111135765D01*
X188501227Y-111129804D01*
X188525495Y-111126204D01*
X188549999Y-111125000D01*
X189250001Y-111125000D01*
X189274505Y-111126204D01*
G37*
G04 #@! TD.AperFunction*
D18*
X186900000Y-112000000D03*
G04 #@! TA.AperFunction,ViaPad*
D17*
G36*
X200649505Y-99001204D02*
G01*
X200673773Y-99004804D01*
X200697572Y-99010765D01*
X200720671Y-99019030D01*
X200742850Y-99029520D01*
X200763893Y-99042132D01*
X200783599Y-99056747D01*
X200801777Y-99073223D01*
X200818253Y-99091401D01*
X200832868Y-99111107D01*
X200845480Y-99132150D01*
X200855970Y-99154329D01*
X200864235Y-99177428D01*
X200870196Y-99201227D01*
X200873796Y-99225495D01*
X200875000Y-99249999D01*
X200875000Y-99950001D01*
X200873796Y-99974505D01*
X200870196Y-99998773D01*
X200864235Y-100022572D01*
X200855970Y-100045671D01*
X200845480Y-100067850D01*
X200832868Y-100088893D01*
X200818253Y-100108599D01*
X200801777Y-100126777D01*
X200783599Y-100143253D01*
X200763893Y-100157868D01*
X200742850Y-100170480D01*
X200720671Y-100180970D01*
X200697572Y-100189235D01*
X200673773Y-100195196D01*
X200649505Y-100198796D01*
X200625001Y-100200000D01*
X199374999Y-100200000D01*
X199350495Y-100198796D01*
X199326227Y-100195196D01*
X199302428Y-100189235D01*
X199279329Y-100180970D01*
X199257150Y-100170480D01*
X199236107Y-100157868D01*
X199216401Y-100143253D01*
X199198223Y-100126777D01*
X199181747Y-100108599D01*
X199167132Y-100088893D01*
X199154520Y-100067850D01*
X199144030Y-100045671D01*
X199135765Y-100022572D01*
X199129804Y-99998773D01*
X199126204Y-99974505D01*
X199125000Y-99950001D01*
X199125000Y-99249999D01*
X199126204Y-99225495D01*
X199129804Y-99201227D01*
X199135765Y-99177428D01*
X199144030Y-99154329D01*
X199154520Y-99132150D01*
X199167132Y-99111107D01*
X199181747Y-99091401D01*
X199198223Y-99073223D01*
X199216401Y-99056747D01*
X199236107Y-99042132D01*
X199257150Y-99029520D01*
X199279329Y-99019030D01*
X199302428Y-99010765D01*
X199326227Y-99004804D01*
X199350495Y-99001204D01*
X199374999Y-99000000D01*
X200625001Y-99000000D01*
X200649505Y-99001204D01*
G37*
G04 #@! TD.AperFunction*
D19*
X200000000Y-101600000D03*
G04 #@! TA.AperFunction,ViaPad*
D17*
G36*
X173274505Y-111126204D02*
G01*
X173298773Y-111129804D01*
X173322572Y-111135765D01*
X173345671Y-111144030D01*
X173367850Y-111154520D01*
X173388893Y-111167132D01*
X173408599Y-111181747D01*
X173426777Y-111198223D01*
X173443253Y-111216401D01*
X173457868Y-111236107D01*
X173470480Y-111257150D01*
X173480970Y-111279329D01*
X173489235Y-111302428D01*
X173495196Y-111326227D01*
X173498796Y-111350495D01*
X173500000Y-111374999D01*
X173500000Y-112625001D01*
X173498796Y-112649505D01*
X173495196Y-112673773D01*
X173489235Y-112697572D01*
X173480970Y-112720671D01*
X173470480Y-112742850D01*
X173457868Y-112763893D01*
X173443253Y-112783599D01*
X173426777Y-112801777D01*
X173408599Y-112818253D01*
X173388893Y-112832868D01*
X173367850Y-112845480D01*
X173345671Y-112855970D01*
X173322572Y-112864235D01*
X173298773Y-112870196D01*
X173274505Y-112873796D01*
X173250001Y-112875000D01*
X172549999Y-112875000D01*
X172525495Y-112873796D01*
X172501227Y-112870196D01*
X172477428Y-112864235D01*
X172454329Y-112855970D01*
X172432150Y-112845480D01*
X172411107Y-112832868D01*
X172391401Y-112818253D01*
X172373223Y-112801777D01*
X172356747Y-112783599D01*
X172342132Y-112763893D01*
X172329520Y-112742850D01*
X172319030Y-112720671D01*
X172310765Y-112697572D01*
X172304804Y-112673773D01*
X172301204Y-112649505D01*
X172300000Y-112625001D01*
X172300000Y-111374999D01*
X172301204Y-111350495D01*
X172304804Y-111326227D01*
X172310765Y-111302428D01*
X172319030Y-111279329D01*
X172329520Y-111257150D01*
X172342132Y-111236107D01*
X172356747Y-111216401D01*
X172373223Y-111198223D01*
X172391401Y-111181747D01*
X172411107Y-111167132D01*
X172432150Y-111154520D01*
X172454329Y-111144030D01*
X172477428Y-111135765D01*
X172501227Y-111129804D01*
X172525495Y-111126204D01*
X172549999Y-111125000D01*
X173250001Y-111125000D01*
X173274505Y-111126204D01*
G37*
G04 #@! TD.AperFunction*
D18*
X170900000Y-112000000D03*
X178900000Y-112000000D03*
G04 #@! TA.AperFunction,ViaPad*
D17*
G36*
X181274505Y-111126204D02*
G01*
X181298773Y-111129804D01*
X181322572Y-111135765D01*
X181345671Y-111144030D01*
X181367850Y-111154520D01*
X181388893Y-111167132D01*
X181408599Y-111181747D01*
X181426777Y-111198223D01*
X181443253Y-111216401D01*
X181457868Y-111236107D01*
X181470480Y-111257150D01*
X181480970Y-111279329D01*
X181489235Y-111302428D01*
X181495196Y-111326227D01*
X181498796Y-111350495D01*
X181500000Y-111374999D01*
X181500000Y-112625001D01*
X181498796Y-112649505D01*
X181495196Y-112673773D01*
X181489235Y-112697572D01*
X181480970Y-112720671D01*
X181470480Y-112742850D01*
X181457868Y-112763893D01*
X181443253Y-112783599D01*
X181426777Y-112801777D01*
X181408599Y-112818253D01*
X181388893Y-112832868D01*
X181367850Y-112845480D01*
X181345671Y-112855970D01*
X181322572Y-112864235D01*
X181298773Y-112870196D01*
X181274505Y-112873796D01*
X181250001Y-112875000D01*
X180549999Y-112875000D01*
X180525495Y-112873796D01*
X180501227Y-112870196D01*
X180477428Y-112864235D01*
X180454329Y-112855970D01*
X180432150Y-112845480D01*
X180411107Y-112832868D01*
X180391401Y-112818253D01*
X180373223Y-112801777D01*
X180356747Y-112783599D01*
X180342132Y-112763893D01*
X180329520Y-112742850D01*
X180319030Y-112720671D01*
X180310765Y-112697572D01*
X180304804Y-112673773D01*
X180301204Y-112649505D01*
X180300000Y-112625001D01*
X180300000Y-111374999D01*
X180301204Y-111350495D01*
X180304804Y-111326227D01*
X180310765Y-111302428D01*
X180319030Y-111279329D01*
X180329520Y-111257150D01*
X180342132Y-111236107D01*
X180356747Y-111216401D01*
X180373223Y-111198223D01*
X180391401Y-111181747D01*
X180411107Y-111167132D01*
X180432150Y-111154520D01*
X180454329Y-111144030D01*
X180477428Y-111135765D01*
X180501227Y-111129804D01*
X180525495Y-111126204D01*
X180549999Y-111125000D01*
X181250001Y-111125000D01*
X181274505Y-111126204D01*
G37*
G04 #@! TD.AperFunction*
D11*
X71770000Y-73180000D03*
X81940000Y-73170000D03*
X76860000Y-73170000D03*
X71770000Y-80800000D03*
X81930000Y-80800000D03*
X76840000Y-80800000D03*
X64150000Y-73180000D03*
D13*
X64150000Y-80800000D03*
D21*
X125250000Y-54500000D03*
X120370000Y-54500000D03*
G04 #@! TA.AperFunction,ViaPad*
D17*
G36*
X173624505Y-95876204D02*
G01*
X173648773Y-95879804D01*
X173672572Y-95885765D01*
X173695671Y-95894030D01*
X173717850Y-95904520D01*
X173738893Y-95917132D01*
X173758599Y-95931747D01*
X173776777Y-95948223D01*
X173793253Y-95966401D01*
X173807868Y-95986107D01*
X173820480Y-96007150D01*
X173830970Y-96029329D01*
X173839235Y-96052428D01*
X173845196Y-96076227D01*
X173848796Y-96100495D01*
X173850000Y-96124999D01*
X173850000Y-97375001D01*
X173848796Y-97399505D01*
X173845196Y-97423773D01*
X173839235Y-97447572D01*
X173830970Y-97470671D01*
X173820480Y-97492850D01*
X173807868Y-97513893D01*
X173793253Y-97533599D01*
X173776777Y-97551777D01*
X173758599Y-97568253D01*
X173738893Y-97582868D01*
X173717850Y-97595480D01*
X173695671Y-97605970D01*
X173672572Y-97614235D01*
X173648773Y-97620196D01*
X173624505Y-97623796D01*
X173600001Y-97625000D01*
X172899999Y-97625000D01*
X172875495Y-97623796D01*
X172851227Y-97620196D01*
X172827428Y-97614235D01*
X172804329Y-97605970D01*
X172782150Y-97595480D01*
X172761107Y-97582868D01*
X172741401Y-97568253D01*
X172723223Y-97551777D01*
X172706747Y-97533599D01*
X172692132Y-97513893D01*
X172679520Y-97492850D01*
X172669030Y-97470671D01*
X172660765Y-97447572D01*
X172654804Y-97423773D01*
X172651204Y-97399505D01*
X172650000Y-97375001D01*
X172650000Y-96124999D01*
X172651204Y-96100495D01*
X172654804Y-96076227D01*
X172660765Y-96052428D01*
X172669030Y-96029329D01*
X172679520Y-96007150D01*
X172692132Y-95986107D01*
X172706747Y-95966401D01*
X172723223Y-95948223D01*
X172741401Y-95931747D01*
X172761107Y-95917132D01*
X172782150Y-95904520D01*
X172804329Y-95894030D01*
X172827428Y-95885765D01*
X172851227Y-95879804D01*
X172875495Y-95876204D01*
X172899999Y-95875000D01*
X173600001Y-95875000D01*
X173624505Y-95876204D01*
G37*
G04 #@! TD.AperFunction*
D18*
X171250000Y-96750000D03*
X169250000Y-96750000D03*
D22*
X75150000Y-65050000D03*
D23*
X71650000Y-65050000D03*
D22*
X156950000Y-45600000D03*
D23*
X160450000Y-45600000D03*
X158300000Y-64000000D03*
D22*
X154800000Y-64000000D03*
D23*
X60150000Y-65050000D03*
D22*
X63650000Y-65050000D03*
D23*
X150250000Y-87950000D03*
D22*
X146750000Y-87950000D03*
X146400000Y-69300000D03*
D23*
X149900000Y-69300000D03*
D24*
X58500000Y-54000000D03*
X59500000Y-54000000D03*
X59500000Y-55000000D03*
X58500000Y-55000000D03*
X58500000Y-56000000D03*
X59500000Y-56000000D03*
X58500000Y-57000000D03*
X59500000Y-57000000D03*
X61500000Y-58250000D03*
X60500000Y-58250000D03*
X59500000Y-58250000D03*
X58500000Y-58250000D03*
X57500000Y-35750000D03*
X58750000Y-35750000D03*
X60000000Y-35750000D03*
X61250000Y-35750000D03*
X56250000Y-35750000D03*
D25*
X58200000Y-43700000D03*
D24*
X77000000Y-33750000D03*
X81500000Y-33750000D03*
X78500000Y-33750000D03*
X80000000Y-33750000D03*
X83000000Y-33750000D03*
X95000000Y-33750000D03*
X99500000Y-33750000D03*
X96500000Y-33750000D03*
X101000000Y-33750000D03*
X98000000Y-33750000D03*
D14*
X52500000Y-35500000D03*
X157825000Y-76625000D03*
X158575000Y-76650000D03*
X159300000Y-76675000D03*
X157925000Y-81100000D03*
X158625000Y-81350000D03*
X159275000Y-81750000D03*
X167650000Y-57100000D03*
X168450000Y-56800000D03*
X168825000Y-57525000D03*
X167600000Y-52525000D03*
X168375000Y-52825000D03*
X168750000Y-52125000D03*
X156600000Y-83750000D03*
X157400000Y-83750000D03*
X158200000Y-83750000D03*
X155000000Y-84400000D03*
X156500000Y-73700000D03*
X158000000Y-73900000D03*
X158800000Y-73900000D03*
X159600000Y-73900000D03*
X164750000Y-60450000D03*
X166350000Y-59850000D03*
X167150000Y-59850000D03*
X167950000Y-59900000D03*
X168250000Y-49700000D03*
X167450000Y-49700000D03*
X166650000Y-49700000D03*
D25*
X155950000Y-52100000D03*
X147550000Y-76000000D03*
X122400000Y-82300000D03*
X164000000Y-54450000D03*
X164000000Y-55200000D03*
X164000000Y-55950000D03*
X164750000Y-55950000D03*
X164750000Y-55200000D03*
X164750000Y-54450000D03*
X165500000Y-54450000D03*
X165500000Y-55200000D03*
X165500000Y-55950000D03*
X166250000Y-55950000D03*
X166250000Y-55200000D03*
X166250000Y-54450000D03*
X166250000Y-53700000D03*
X165500000Y-53700000D03*
X164750000Y-53700000D03*
X164000000Y-53700000D03*
D14*
X65700000Y-39700000D03*
D24*
X55400000Y-41900000D03*
X56700000Y-41900000D03*
X58000000Y-41900000D03*
X59300000Y-41900000D03*
X60600000Y-41900000D03*
X61250000Y-33250000D03*
X58750000Y-33250000D03*
X62500000Y-33250000D03*
X60000000Y-33250000D03*
X63750000Y-33250000D03*
D25*
X64500000Y-38000000D03*
X68500000Y-38000000D03*
X64000000Y-37500000D03*
X63500000Y-36250000D03*
X63500000Y-44000000D03*
X68250000Y-43500000D03*
X69900000Y-43100000D03*
X66200000Y-43700000D03*
D24*
X66500000Y-46500000D03*
X65250000Y-46500000D03*
X64000000Y-46500000D03*
X68000000Y-46500000D03*
D25*
X58300000Y-46500000D03*
D14*
X66500000Y-39700000D03*
X67300000Y-40500000D03*
X67300000Y-41300000D03*
X66500000Y-41300000D03*
X66500000Y-40500000D03*
X65700000Y-40500000D03*
X65700000Y-41300000D03*
X67300000Y-39700000D03*
D24*
X78250000Y-42500000D03*
X79250000Y-42500000D03*
X80250000Y-42500000D03*
X81250000Y-42500000D03*
X82250000Y-42500000D03*
X90100000Y-36100000D03*
X91100000Y-36100000D03*
X98650000Y-42300000D03*
X97650000Y-42300000D03*
X99650000Y-42300000D03*
X96650000Y-42300000D03*
X95650000Y-42300000D03*
D25*
X130500000Y-89800000D03*
X138800000Y-85250000D03*
X155250000Y-82200000D03*
X154750000Y-82550000D03*
X164550000Y-58750000D03*
X164900000Y-58250000D03*
X190650000Y-39500000D03*
X155750000Y-78350000D03*
X155000000Y-79100000D03*
X155750000Y-79100000D03*
X155000000Y-78350000D03*
X155000000Y-79850000D03*
X154250000Y-78350000D03*
X154250000Y-77600000D03*
X156500000Y-79100000D03*
X156500000Y-78350000D03*
X155750000Y-79850000D03*
X156500000Y-77600000D03*
X154250000Y-79850000D03*
X154250000Y-79100000D03*
X156500000Y-79850000D03*
X155750000Y-77600000D03*
X155000000Y-77600000D03*
X129000000Y-54700000D03*
X140100000Y-60450000D03*
X165150000Y-40000000D03*
X163550000Y-41000000D03*
X163550000Y-43300000D03*
X188650000Y-36300000D03*
X190450000Y-65600000D03*
D14*
X186050000Y-93200000D03*
X184750000Y-93200000D03*
X181950000Y-93200000D03*
X180450000Y-93200000D03*
X177450000Y-92700000D03*
X175150000Y-92700000D03*
X185650000Y-69300000D03*
X184250000Y-69300000D03*
X181950000Y-69300000D03*
X180150000Y-69300000D03*
X177650000Y-69300000D03*
X175450000Y-69300000D03*
X162250000Y-71100000D03*
X163050000Y-71100000D03*
X163850000Y-71100000D03*
X164650000Y-71100000D03*
X162250000Y-88400000D03*
X163050000Y-88400000D03*
X163850000Y-88400000D03*
X164650000Y-88400000D03*
X171350000Y-63400000D03*
X172150000Y-63400000D03*
X172950000Y-63400000D03*
X173750000Y-63400000D03*
X171250000Y-46200000D03*
X172050000Y-46200000D03*
X172850000Y-46200000D03*
X173650000Y-46200000D03*
X186450000Y-67000000D03*
X184850000Y-67000000D03*
X181950000Y-67000000D03*
X180350000Y-67000000D03*
X177350000Y-66200000D03*
X175150000Y-66100000D03*
X186450000Y-42600000D03*
X184850000Y-42600000D03*
X181950000Y-42600000D03*
X180350000Y-42600000D03*
X177350000Y-43500000D03*
X175150000Y-43500000D03*
X166250000Y-44000000D03*
X168350000Y-44000000D03*
X166350000Y-65500000D03*
X168350000Y-65500000D03*
D25*
X83650000Y-89800000D03*
X87350000Y-89750000D03*
X90950000Y-89750000D03*
X73750000Y-90000000D03*
X71700000Y-90000000D03*
X67400000Y-88750000D03*
X78850000Y-86050000D03*
X74800000Y-85300000D03*
X72700000Y-85300000D03*
X130550000Y-84750000D03*
X132000000Y-83400000D03*
X140400000Y-89300000D03*
X143900000Y-94300000D03*
X142700000Y-95350000D03*
X159150000Y-96750000D03*
X162350000Y-96750000D03*
X153500000Y-97250000D03*
X135450000Y-63850000D03*
X139850000Y-67150000D03*
X107800000Y-66450000D03*
X112100000Y-58450000D03*
X155100000Y-53300000D03*
X144900000Y-82300000D03*
X134700000Y-37000000D03*
X139200000Y-41150000D03*
X140950000Y-40200000D03*
X135150000Y-33150000D03*
X127150000Y-52150000D03*
X107650000Y-56300000D03*
X109400000Y-56300000D03*
X99900000Y-57050000D03*
X99900000Y-54550000D03*
X95650000Y-70800000D03*
X96650000Y-74550000D03*
X112900000Y-73050000D03*
X109400000Y-74550000D03*
D14*
X108400000Y-36800000D03*
X107900000Y-36300000D03*
D24*
X65650000Y-56800000D03*
D25*
X113650000Y-40300000D03*
X116150000Y-46550000D03*
X116150000Y-45550000D03*
X113650000Y-89050000D03*
X122400000Y-86300000D03*
X125900000Y-90050000D03*
X99400000Y-85300000D03*
X102900000Y-81550000D03*
X98900000Y-90300000D03*
X126650000Y-56550000D03*
X128150000Y-65050000D03*
X127400000Y-76550000D03*
X106150000Y-78300000D03*
X137150000Y-81800000D03*
X166400000Y-89800000D03*
X156400000Y-89550000D03*
X158400000Y-89550000D03*
X155650000Y-69300000D03*
X156900000Y-69050000D03*
X132650000Y-89800000D03*
X132650000Y-94200000D03*
X143550000Y-91700000D03*
D24*
X95200000Y-49000000D03*
X96200000Y-49000000D03*
X97200000Y-49000000D03*
X98200000Y-49000000D03*
X99200000Y-49000000D03*
X100200000Y-49000000D03*
D25*
X130500000Y-93700000D03*
X112700000Y-77500000D03*
X131950000Y-81800000D03*
X116500000Y-56400000D03*
X129000000Y-56250000D03*
X122050000Y-40700000D03*
X130500000Y-41850000D03*
X113450000Y-41700000D03*
X188700000Y-89950000D03*
X191050000Y-67800000D03*
X188350000Y-69500000D03*
X186050000Y-40100000D03*
D14*
X105150000Y-81200000D03*
X106750000Y-81200000D03*
X108350000Y-81200000D03*
X109950000Y-81200000D03*
X111550000Y-81200000D03*
D25*
X102650000Y-100300000D03*
X106200000Y-98850000D03*
X112800000Y-101000000D03*
X83350000Y-97250000D03*
X73350000Y-99250000D03*
X63450000Y-99300000D03*
X89150000Y-89250000D03*
X140450000Y-86200000D03*
X125150000Y-56500000D03*
X140150000Y-56900000D03*
X135250000Y-56800000D03*
X136100000Y-56800000D03*
X94150000Y-74700000D03*
X110250000Y-66650000D03*
X153200000Y-54950000D03*
X159700000Y-57900000D03*
X144850000Y-54000000D03*
X143350000Y-82450000D03*
X116900000Y-42750000D03*
X118400000Y-101550000D03*
D14*
X169900000Y-49000000D03*
X169950000Y-52550000D03*
X169900000Y-60700000D03*
X169900000Y-57000000D03*
X182950000Y-48250000D03*
X182950000Y-49250000D03*
X182550000Y-53750000D03*
X183450000Y-53750000D03*
X182900000Y-60250000D03*
X182900000Y-61250000D03*
X182550000Y-56000000D03*
X183450000Y-56000000D03*
X166450000Y-73700000D03*
X165750000Y-77400000D03*
X166500000Y-85750000D03*
X165700000Y-82750000D03*
X182950000Y-74950000D03*
X182950000Y-75900000D03*
X182550000Y-80200000D03*
X183400000Y-80200000D03*
X182550000Y-82300000D03*
X183400000Y-82300000D03*
X182950000Y-86550000D03*
X182950000Y-87600000D03*
D24*
X64000000Y-52750000D03*
X65000000Y-52750000D03*
X66000000Y-52750000D03*
X67000000Y-52750000D03*
X68000000Y-52750000D03*
X69000000Y-52750000D03*
D25*
X167000000Y-103300000D03*
X159000000Y-103250000D03*
X174450000Y-104750000D03*
X182450000Y-104750000D03*
X190450000Y-104700000D03*
X194550000Y-98050000D03*
X164850000Y-94650000D03*
X158400000Y-94750000D03*
X164800000Y-34050000D03*
X164200000Y-34050000D03*
D14*
X133850000Y-37300000D03*
X133050000Y-37300000D03*
X132250000Y-37350000D03*
D24*
X82650000Y-54800000D03*
X82650000Y-53800000D03*
X82650000Y-52800000D03*
D25*
X93900000Y-67550000D03*
X87400000Y-55800000D03*
X127650000Y-66300000D03*
X137950000Y-60300000D03*
X126350000Y-66300000D03*
X139400000Y-82550000D03*
X134400000Y-87800000D03*
X134650000Y-80050000D03*
X118050000Y-74150000D03*
X118850000Y-74850000D03*
X101950000Y-67500000D03*
X89150000Y-80800000D03*
X102950000Y-66800000D03*
X87900000Y-79800000D03*
X67650000Y-92050000D03*
X81900000Y-89550000D03*
X67650000Y-94050000D03*
X118700000Y-73250000D03*
X124400000Y-39300000D03*
X121900000Y-81550000D03*
X113400000Y-85800000D03*
X118000000Y-72400000D03*
X125800000Y-39300000D03*
X115900000Y-87300000D03*
X122150000Y-83800000D03*
X108925000Y-87700000D03*
X128800000Y-72050000D03*
X142000000Y-80275000D03*
X139350000Y-72350000D03*
X132150000Y-71200000D03*
X144125000Y-81175000D03*
X140750000Y-72300000D03*
X166150000Y-51100000D03*
X149150000Y-54700000D03*
X156350000Y-75100000D03*
X141050000Y-60500000D03*
X136050000Y-69375000D03*
X140231020Y-63100012D03*
X133750000Y-74200000D03*
X138303381Y-63095406D03*
X117200000Y-66600000D03*
X129550000Y-36500000D03*
X149750000Y-59325000D03*
X160525000Y-58825000D03*
X137400000Y-40800000D03*
X148025000Y-60025000D03*
X161400000Y-59475000D03*
X136650000Y-41550000D03*
X154125000Y-83200000D03*
X135127010Y-69337957D03*
X134900000Y-40550000D03*
X134500000Y-70075000D03*
X151250000Y-82975000D03*
X137900000Y-51050000D03*
X118800000Y-65650000D03*
X134400000Y-38050000D03*
X118700000Y-52150000D03*
X118050000Y-66850000D03*
X136400000Y-35250000D03*
X130650000Y-53050000D03*
X132650000Y-53050000D03*
D24*
X77500000Y-49000000D03*
X78500000Y-49000000D03*
X81500000Y-49000000D03*
X80500000Y-49000000D03*
X79500000Y-49000000D03*
X82500000Y-49000000D03*
D25*
X75500000Y-41250000D03*
X69700000Y-40400000D03*
X129850000Y-94200000D03*
X131150000Y-94200000D03*
D14*
X61650000Y-93000000D03*
X63550000Y-91100000D03*
D25*
X75150000Y-89300000D03*
D24*
X76650000Y-58550000D03*
X77900000Y-58550000D03*
X79150000Y-58550000D03*
X73400000Y-55050000D03*
X73400000Y-58550000D03*
X74650000Y-56800000D03*
X84400000Y-58050000D03*
X85400000Y-58050000D03*
X83400000Y-58050000D03*
X97400000Y-25550000D03*
X98400000Y-25550000D03*
X93400000Y-56800000D03*
X92400000Y-56800000D03*
D25*
X111150000Y-93950000D03*
X101900000Y-76500000D03*
X102700000Y-75800000D03*
X102400000Y-92650000D03*
X64500000Y-36250000D03*
X69000000Y-44000000D03*
X134850000Y-81400000D03*
X133350000Y-81000000D03*
X121725000Y-80525000D03*
X108975000Y-85750000D03*
D26*
X63500000Y-36250000D02*
X63500000Y-44000000D01*
X65300000Y-43700000D02*
X66200000Y-43700000D01*
X63800000Y-45200000D02*
X65300000Y-43700000D01*
X58300000Y-46500000D02*
X60300000Y-46500000D01*
X61600000Y-45200000D02*
X63800000Y-45200000D01*
X60300000Y-46500000D02*
X61600000Y-45200000D01*
D27*
X159700000Y-57900000D02*
X148750000Y-57900000D01*
X148750000Y-57900000D02*
X144850000Y-54000000D01*
D28*
X169900000Y-49000000D02*
X169900000Y-52500000D01*
X169900000Y-52500000D02*
X169950000Y-52550000D01*
X169900000Y-60700000D02*
X169900000Y-57000000D01*
D27*
X166450000Y-73700000D02*
X166450000Y-76700000D01*
X166450000Y-76700000D02*
X165750000Y-77400000D01*
X166500000Y-85750000D02*
X166500000Y-83550000D01*
X166500000Y-83550000D02*
X165700000Y-82750000D01*
D29*
X64000000Y-52750000D02*
X65200000Y-52750000D01*
X65200000Y-52750000D02*
X65650000Y-52300000D01*
X65000000Y-52750000D02*
X69000000Y-52750000D01*
X82650000Y-53800000D02*
X81150000Y-53800000D01*
D27*
X93900000Y-62300000D02*
X93900000Y-67550000D01*
X87400000Y-55800000D02*
X93900000Y-62300000D01*
D30*
X131950000Y-66300000D02*
X137950000Y-60300000D01*
X127650000Y-66300000D02*
X131950000Y-66300000D01*
X128150000Y-68100000D02*
X126350000Y-66300000D01*
X133800000Y-82550000D02*
X128150000Y-76900000D01*
X128150000Y-76900000D02*
X128150000Y-68100000D01*
X139400000Y-82550000D02*
X133800000Y-82550000D01*
X139400000Y-82550000D02*
X139400000Y-84050000D01*
X93000000Y-33250000D02*
X93000000Y-28000000D01*
X113850000Y-70600000D02*
X113850000Y-54100000D01*
X113850000Y-54100000D02*
X93000000Y-33250000D01*
X118050000Y-74150000D02*
X117400000Y-74150000D01*
X117400000Y-74150000D02*
X113850000Y-70600000D01*
X89000000Y-30150000D02*
X89000000Y-28000000D01*
X113150000Y-54300000D02*
X89000000Y-30150000D01*
X113150000Y-71000000D02*
X113150000Y-54300000D01*
X118850000Y-74850000D02*
X117000000Y-74850000D01*
X117000000Y-74850000D02*
X113150000Y-71000000D01*
X89150000Y-80800000D02*
X101950000Y-68000000D01*
X101950000Y-68000000D02*
X101950000Y-67500000D01*
X100950000Y-66800000D02*
X102950000Y-66800000D01*
X87950000Y-79800000D02*
X100950000Y-66800000D01*
X87900000Y-79800000D02*
X87950000Y-79800000D01*
X114600000Y-49100000D02*
X124400000Y-39300000D01*
X114600000Y-70200000D02*
X114600000Y-49100000D01*
X118700000Y-73250000D02*
X117650000Y-73250000D01*
X117650000Y-73250000D02*
X114600000Y-70200000D01*
X121900000Y-81550000D02*
X117650000Y-85800000D01*
X117650000Y-85800000D02*
X113400000Y-85800000D01*
X115500000Y-69950000D02*
X117950000Y-72400000D01*
X117950000Y-72400000D02*
X118000000Y-72400000D01*
X125800000Y-39300000D02*
X125800000Y-39350000D01*
X115500000Y-49650000D02*
X115500000Y-69950000D01*
X125800000Y-39350000D02*
X115500000Y-49650000D01*
X118650000Y-87300000D02*
X115900000Y-87300000D01*
X122150000Y-83800000D02*
X118650000Y-87300000D01*
X108925000Y-87700000D02*
X113825000Y-87700000D01*
X114225000Y-87300000D02*
X115900000Y-87300000D01*
X113825000Y-87700000D02*
X114225000Y-87300000D01*
X128800000Y-73000000D02*
X128800000Y-72050000D01*
X142000000Y-80275000D02*
X136075000Y-80275000D01*
X136075000Y-80275000D02*
X128800000Y-73000000D01*
X132150000Y-75375000D02*
X132150000Y-71200000D01*
X136350000Y-79575000D02*
X132150000Y-75375000D01*
X142525000Y-79575000D02*
X136350000Y-79575000D01*
X144125000Y-81175000D02*
X142525000Y-79575000D01*
X149750000Y-54100000D02*
X149150000Y-54700000D01*
X152850000Y-54100000D02*
X149750000Y-54100000D01*
X166150000Y-51100000D02*
X155850000Y-51100000D01*
X155850000Y-51100000D02*
X152850000Y-54100000D01*
X141050000Y-60500000D02*
X141100000Y-60550000D01*
X137150000Y-68800000D02*
X137150000Y-73000000D01*
X137150000Y-73000000D02*
X139250000Y-75100000D01*
X141100000Y-60550000D02*
X141100000Y-64850000D01*
X139250000Y-75100000D02*
X156350000Y-75100000D01*
X141100000Y-64850000D02*
X137150000Y-68800000D01*
X140231020Y-63524276D02*
X140231020Y-63100012D01*
X136050000Y-68950736D02*
X140231020Y-64769716D01*
X136050000Y-69375000D02*
X136050000Y-68950736D01*
X140231020Y-64769716D02*
X140231020Y-63524276D01*
X133750000Y-74200000D02*
X133750000Y-67648787D01*
X138003382Y-63395405D02*
X138303381Y-63095406D01*
X133750000Y-67648787D02*
X138003382Y-63395405D01*
X129550000Y-37800000D02*
X129550000Y-36500000D01*
X117200000Y-66600000D02*
X117200000Y-50150000D01*
X117200000Y-50150000D02*
X129550000Y-37800000D01*
X149750000Y-59325000D02*
X150250000Y-58825000D01*
X150250000Y-58825000D02*
X160525000Y-58825000D01*
X148925000Y-59325000D02*
X149750000Y-59325000D01*
X137400000Y-40800000D02*
X137400000Y-41300000D01*
X140900000Y-44800000D02*
X140900000Y-51300000D01*
X137400000Y-41300000D02*
X140900000Y-44800000D01*
X140900000Y-51300000D02*
X148925000Y-59325000D01*
X150000000Y-60025000D02*
X148025000Y-60025000D01*
X161400000Y-59475000D02*
X150550000Y-59475000D01*
X150550000Y-59475000D02*
X150000000Y-60025000D01*
X136650000Y-41550000D02*
X140104010Y-45004010D01*
X147725001Y-59725001D02*
X148025000Y-60025000D01*
X140104010Y-45004010D02*
X140104010Y-52104010D01*
X140104010Y-52104010D02*
X147725001Y-59725001D01*
X135127010Y-69762221D02*
X135127010Y-69337957D01*
X149225000Y-78300000D02*
X141325000Y-78300000D01*
X154125000Y-83200000D02*
X149225000Y-78300000D01*
X135825000Y-70460211D02*
X135127010Y-69762221D01*
X135825000Y-72800000D02*
X135825000Y-70460211D01*
X141325000Y-78300000D02*
X135825000Y-72800000D01*
X139384401Y-45458665D02*
X134900000Y-40974264D01*
X135127010Y-69337957D02*
X135127010Y-68913693D01*
X134900000Y-40974264D02*
X134900000Y-40550000D01*
X139384401Y-64656302D02*
X139384401Y-45458665D01*
X135127010Y-68913693D02*
X139384401Y-64656302D01*
X135075000Y-70650000D02*
X134500000Y-70075000D01*
X135075000Y-73000000D02*
X135075000Y-70650000D01*
X141000000Y-78925000D02*
X135075000Y-73000000D01*
X143075000Y-78925000D02*
X141000000Y-78925000D01*
X147125000Y-82975000D02*
X143075000Y-78925000D01*
X151250000Y-82975000D02*
X147125000Y-82975000D01*
X138930390Y-60080390D02*
X137900000Y-59050000D01*
X137900000Y-51474264D02*
X137900000Y-51050000D01*
X137900000Y-59050000D02*
X137900000Y-51474264D01*
X134500000Y-68200000D02*
X138930390Y-63769610D01*
X134500000Y-70075000D02*
X134500000Y-68200000D01*
X138930390Y-63769610D02*
X138930390Y-60080390D01*
X134400000Y-38050000D02*
X132450000Y-38050000D01*
X118700000Y-65550000D02*
X118800000Y-65650000D01*
X118700000Y-51800000D02*
X118700000Y-52150000D01*
X132450000Y-38050000D02*
X118700000Y-51800000D01*
X118700000Y-52150000D02*
X118700000Y-65550000D01*
X133100000Y-35250000D02*
X136400000Y-35250000D01*
X118000000Y-50350000D02*
X133100000Y-35250000D01*
X118050000Y-66850000D02*
X118000000Y-66800000D01*
X118000000Y-66800000D02*
X118000000Y-50350000D01*
X132650000Y-53050000D02*
X130650000Y-53050000D01*
D26*
X69700000Y-40400000D02*
X70550000Y-41250000D01*
X70550000Y-41250000D02*
X75500000Y-41250000D01*
D31*
X129349171Y-103008243D02*
X129341650Y-103075000D01*
X129371359Y-102944834D02*
X129349171Y-103008243D01*
X129407100Y-102887953D02*
X129371359Y-102944834D01*
X129454603Y-102840450D02*
X129407100Y-102887953D01*
X129511484Y-102804709D02*
X129454603Y-102840450D01*
X129574893Y-102782521D02*
X129511484Y-102804709D01*
X129511484Y-104545290D02*
X129574893Y-104567478D01*
X129641650Y-102775000D02*
X129574893Y-102782521D01*
X130267478Y-102541756D02*
X130245290Y-102605165D01*
X130275000Y-102475000D02*
X130267478Y-102541756D01*
X130105165Y-104604709D02*
X130162046Y-104640450D01*
X130267478Y-102408243D02*
X130275000Y-102475000D01*
X130041756Y-102767478D02*
X129975000Y-102775000D01*
X130245290Y-102344834D02*
X130267478Y-102408243D01*
X130245290Y-102605165D02*
X130209549Y-102662046D01*
X129407100Y-104087953D02*
X129371359Y-104144834D01*
X130209549Y-102287953D02*
X130245290Y-102344834D01*
X130162046Y-102240450D02*
X130209549Y-102287953D01*
X129975000Y-102775000D02*
X129641650Y-102775000D01*
X130209549Y-104687953D02*
X130245290Y-104744834D01*
X130041756Y-102182521D02*
X130105165Y-102204709D01*
X129975000Y-102175000D02*
X130041756Y-102182521D01*
X130105165Y-102204709D02*
X130162046Y-102240450D01*
X129641650Y-102175000D02*
X129975000Y-102175000D01*
X130209549Y-102662046D02*
X130162046Y-102709549D01*
X129574893Y-102167478D02*
X129641650Y-102175000D01*
X130162046Y-102709549D02*
X130105165Y-102745290D01*
X130041756Y-101567478D02*
X129975000Y-101575000D01*
X130275000Y-106225000D02*
X130144331Y-106355669D01*
X130275000Y-94625000D02*
X130275000Y-101275000D01*
X130267478Y-101341756D02*
X130245290Y-101405165D01*
X129371359Y-101744834D02*
X129349171Y-101808243D01*
X129574893Y-101582521D02*
X129511484Y-101604709D01*
X130267478Y-103741756D02*
X130245290Y-103805165D01*
X129641650Y-101575000D02*
X129574893Y-101582521D01*
X129454603Y-104040450D02*
X129407100Y-104087953D01*
X129975000Y-101575000D02*
X129641650Y-101575000D01*
X129511484Y-102145290D02*
X129574893Y-102167478D01*
X130041756Y-103967478D02*
X129975000Y-103975000D01*
X130105165Y-101545290D02*
X130041756Y-101567478D01*
X130275000Y-101275000D02*
X130267478Y-101341756D01*
X130245290Y-101405165D02*
X130209549Y-101462046D01*
X129975000Y-103975000D02*
X129641650Y-103975000D01*
X130162046Y-101509549D02*
X130105165Y-101545290D01*
X130209549Y-101462046D02*
X130162046Y-101509549D01*
X129850000Y-94200000D02*
X130275000Y-94625000D01*
X130245290Y-103805165D02*
X130209549Y-103862046D01*
X129511484Y-101604709D02*
X129454603Y-101640450D01*
X129407100Y-102062046D02*
X129454603Y-102109549D01*
X129454603Y-101640450D02*
X129407100Y-101687953D01*
X129407100Y-101687953D02*
X129371359Y-101744834D01*
X129349171Y-101808243D02*
X129341650Y-101875000D01*
X130105165Y-102745290D02*
X130041756Y-102767478D01*
X129341650Y-101875000D02*
X129349171Y-101941756D01*
X130275000Y-103675000D02*
X130267478Y-103741756D01*
X129454603Y-102109549D02*
X129511484Y-102145290D01*
X129349171Y-101941756D02*
X129371359Y-102005165D01*
X129371359Y-102005165D02*
X129407100Y-102062046D01*
X129341650Y-103075000D02*
X129349171Y-103141756D01*
X130162046Y-103909549D02*
X130105165Y-103945290D01*
X129349171Y-103141756D02*
X129371359Y-103205165D01*
X129371359Y-103205165D02*
X129407100Y-103262046D01*
X129407100Y-103262046D02*
X129454603Y-103309549D01*
X129454603Y-103309549D02*
X129511484Y-103345290D01*
X129511484Y-103345290D02*
X129574893Y-103367478D01*
X129454603Y-104509549D02*
X129511484Y-104545290D01*
X129574893Y-103367478D02*
X129641650Y-103375000D01*
X129641650Y-103375000D02*
X129975000Y-103375000D01*
X129975000Y-103375000D02*
X130041756Y-103382521D01*
X130041756Y-103382521D02*
X130105165Y-103404709D01*
X130105165Y-103404709D02*
X130162046Y-103440450D01*
X129341650Y-104275000D02*
X129349171Y-104341756D01*
X130162046Y-103440450D02*
X130209549Y-103487953D01*
X130209549Y-103487953D02*
X130245290Y-103544834D01*
X130245290Y-103544834D02*
X130267478Y-103608243D01*
X130162046Y-104640450D02*
X130209549Y-104687953D01*
X130267478Y-103608243D02*
X130275000Y-103675000D01*
X130209549Y-103862046D02*
X130162046Y-103909549D01*
X130105165Y-103945290D02*
X130041756Y-103967478D01*
X129641650Y-103975000D02*
X129574893Y-103982521D01*
X129574893Y-103982521D02*
X129511484Y-104004709D01*
X129511484Y-104004709D02*
X129454603Y-104040450D01*
X129371359Y-104144834D02*
X129349171Y-104208243D01*
X129349171Y-104208243D02*
X129341650Y-104275000D01*
X129349171Y-104341756D02*
X129371359Y-104405165D01*
X129371359Y-104405165D02*
X129407100Y-104462046D01*
X129407100Y-104462046D02*
X129454603Y-104509549D01*
X129574893Y-104567478D02*
X129641650Y-104575000D01*
X129641650Y-104575000D02*
X129975000Y-104575000D01*
X129975000Y-104575000D02*
X130041756Y-104582521D01*
X130041756Y-104582521D02*
X130105165Y-104604709D01*
X130245290Y-104744834D02*
X130267478Y-104808243D01*
X130267478Y-104808243D02*
X130275000Y-104875000D01*
X130275000Y-104875000D02*
X130275000Y-106225000D01*
X130144331Y-106355669D02*
X130000000Y-106500000D01*
X130725000Y-94625000D02*
X130725000Y-105225000D01*
X131150000Y-94200000D02*
X130725000Y-94625000D01*
X130725000Y-105225000D02*
X131200000Y-105700000D01*
X131200000Y-105700000D02*
X131200000Y-108950000D01*
X130450000Y-109700000D02*
X130000000Y-109700000D01*
X131200000Y-108950000D02*
X130450000Y-109700000D01*
D27*
X61650000Y-93000000D02*
X63550000Y-91100000D01*
D32*
X58400000Y-30550000D02*
X62450000Y-30550000D01*
X53900000Y-40050000D02*
X54900000Y-39050000D01*
X71275000Y-53800000D02*
X70525000Y-54550000D01*
X75900000Y-53800000D02*
X71275000Y-53800000D01*
X62450000Y-30550000D02*
X65000000Y-28000000D01*
X77900000Y-58550000D02*
X77900000Y-55800000D01*
X77900000Y-55800000D02*
X75900000Y-53800000D01*
X54900000Y-39050000D02*
X54900000Y-34050000D01*
X62400000Y-52300000D02*
X53900000Y-43800000D01*
X70525000Y-54550000D02*
X63900000Y-54550000D01*
X63900000Y-54550000D02*
X62400000Y-53050000D01*
X62400000Y-53050000D02*
X62400000Y-52300000D01*
X54900000Y-34050000D02*
X58400000Y-30550000D01*
X53900000Y-43800000D02*
X53900000Y-40050000D01*
D29*
X76650000Y-58550000D02*
X79150000Y-58550000D01*
X77900000Y-58550000D02*
X77900000Y-59050000D01*
X77900000Y-59050000D02*
X83900000Y-65050000D01*
X83900000Y-65050000D02*
X83900000Y-88550000D01*
X83900000Y-88550000D02*
X85900000Y-90550000D01*
X85900000Y-90550000D02*
X85900000Y-101050000D01*
X95000000Y-110150000D02*
X95000000Y-112000000D01*
X85900000Y-101050000D02*
X95000000Y-110150000D01*
D32*
X79000000Y-104200000D02*
X79000000Y-112000000D01*
X79400000Y-64550000D02*
X79400000Y-84050000D01*
X73400000Y-58550000D02*
X79400000Y-64550000D01*
X79400000Y-84050000D02*
X80150000Y-84800000D01*
X80150000Y-103050000D02*
X79000000Y-104200000D01*
X80150000Y-84800000D02*
X80150000Y-103050000D01*
X69000000Y-112000000D02*
X69000000Y-106700000D01*
X59000000Y-112000000D02*
X59000000Y-108200000D01*
X60400000Y-106800000D02*
X69150000Y-106800000D01*
X69000000Y-106700000D02*
X69150000Y-106800000D01*
X59000000Y-108200000D02*
X60400000Y-106800000D01*
X89000000Y-110400000D02*
X87150000Y-108550000D01*
X89000000Y-112000000D02*
X89000000Y-110400000D01*
X69150000Y-106800000D02*
X70150000Y-105800000D01*
X77400000Y-105800000D02*
X79000000Y-104200000D01*
X70150000Y-105800000D02*
X77400000Y-105800000D01*
X57000000Y-29950000D02*
X57000000Y-28000000D01*
X53650000Y-33300000D02*
X57000000Y-29950000D01*
X53650000Y-38050000D02*
X53650000Y-33300000D01*
X52650000Y-44550000D02*
X52650000Y-39050000D01*
X72900000Y-55550000D02*
X62900000Y-55550000D01*
X52650000Y-39050000D02*
X53650000Y-38050000D01*
X73400000Y-55050000D02*
X72900000Y-55550000D01*
X61150000Y-53050000D02*
X52650000Y-44550000D01*
X62900000Y-55550000D02*
X61150000Y-53800000D01*
X61150000Y-53800000D02*
X61150000Y-53050000D01*
D29*
X73000000Y-26700000D02*
X73000000Y-28000000D01*
X73900000Y-25800000D02*
X73000000Y-26700000D01*
X161750000Y-28200000D02*
X159400000Y-30550000D01*
X161750000Y-27750000D02*
X161750000Y-28200000D01*
X152250000Y-27750000D02*
X152250000Y-29200000D01*
X152250000Y-29200000D02*
X150900000Y-30550000D01*
X159400000Y-30550000D02*
X150900000Y-30550000D01*
X183250000Y-96750000D02*
X183250000Y-98200000D01*
X183250000Y-98200000D02*
X172650000Y-108800000D01*
X152100000Y-108800000D02*
X148900000Y-112000000D01*
X172650000Y-108800000D02*
X152100000Y-108800000D01*
X86150000Y-63800000D02*
X84400000Y-62050000D01*
X147650000Y-114050000D02*
X125400000Y-114050000D01*
X122400000Y-111050000D02*
X122400000Y-109050000D01*
X148900000Y-112800000D02*
X147650000Y-114050000D01*
X148900000Y-112000000D02*
X148900000Y-112800000D01*
X86150000Y-82550000D02*
X86150000Y-63800000D01*
X125400000Y-114050000D02*
X122400000Y-111050000D01*
X122400000Y-109050000D02*
X116400000Y-103050000D01*
X96400000Y-103050000D02*
X92650000Y-99300000D01*
X116400000Y-103050000D02*
X96400000Y-103050000D01*
X92650000Y-99300000D02*
X92650000Y-89050000D01*
X92650000Y-89050000D02*
X86150000Y-82550000D01*
X84400000Y-62050000D02*
X84400000Y-58050000D01*
X79150000Y-25800000D02*
X73900000Y-25800000D01*
X85900000Y-56550000D02*
X84400000Y-58050000D01*
X79150000Y-29800000D02*
X80650000Y-31300000D01*
X79150000Y-25800000D02*
X79150000Y-29800000D01*
X80650000Y-31300000D02*
X83150000Y-31300000D01*
X83150000Y-31300000D02*
X85900000Y-34050000D01*
X85900000Y-34050000D02*
X85900000Y-56550000D01*
X85900000Y-25800000D02*
X79150000Y-25800000D01*
X134150000Y-30550000D02*
X129650000Y-35050000D01*
X105900000Y-35050000D02*
X101650000Y-30800000D01*
X93900000Y-25800000D02*
X85900000Y-25800000D01*
X129650000Y-35050000D02*
X105900000Y-35050000D01*
X98900000Y-30800000D02*
X93900000Y-25800000D01*
X150900000Y-30550000D02*
X134150000Y-30550000D01*
X101650000Y-30800000D02*
X98900000Y-30800000D01*
X81000000Y-28000000D02*
X81000000Y-29150000D01*
X81000000Y-29150000D02*
X81650000Y-29800000D01*
X81650000Y-29800000D02*
X84150000Y-29800000D01*
X84150000Y-29800000D02*
X88150000Y-33800000D01*
X88150000Y-33800000D02*
X88150000Y-51550000D01*
X127250000Y-27750000D02*
X127250000Y-29950000D01*
X127250000Y-29950000D02*
X123650000Y-33550000D01*
X123650000Y-33550000D02*
X109150000Y-33550000D01*
X109150000Y-33550000D02*
X101150000Y-25550000D01*
X101150000Y-25550000D02*
X98400000Y-25550000D01*
X93400000Y-56800000D02*
X92400000Y-56800000D01*
X91150000Y-55550000D02*
X91150000Y-54550000D01*
X92400000Y-56800000D02*
X91150000Y-55550000D01*
X88150000Y-51550000D02*
X91150000Y-54550000D01*
X91150000Y-54550000D02*
X93400000Y-56800000D01*
X139950000Y-25450000D02*
X169500000Y-25450000D01*
X138750000Y-27750000D02*
X138750000Y-26650000D01*
X171250000Y-27200000D02*
X171250000Y-27750000D01*
X169500000Y-25450000D02*
X171250000Y-27200000D01*
X138750000Y-26650000D02*
X139950000Y-25450000D01*
D30*
X111150000Y-92350000D02*
X111150000Y-93950000D01*
X110400000Y-91600000D02*
X111150000Y-92350000D01*
X104100000Y-91600000D02*
X110400000Y-91600000D01*
X100950000Y-77450000D02*
X100950000Y-80850000D01*
X101900000Y-76500000D02*
X100950000Y-77450000D01*
X100950000Y-80850000D02*
X103100000Y-83000000D01*
X103100000Y-90600000D02*
X104100000Y-91600000D01*
X103100000Y-83000000D02*
X103100000Y-90600000D01*
X100250000Y-77200000D02*
X101650000Y-75800000D01*
X102400000Y-92650000D02*
X102400000Y-83100000D01*
X101650000Y-75800000D02*
X102700000Y-75800000D01*
X102400000Y-83100000D02*
X100250000Y-80950000D01*
X100250000Y-80950000D02*
X100250000Y-77200000D01*
D26*
X69000000Y-39900000D02*
X69000000Y-44000000D01*
X64500000Y-36250000D02*
X65350000Y-36250000D01*
X65350000Y-36250000D02*
X69000000Y-39900000D01*
D30*
X133350000Y-81000000D02*
X134450000Y-81000000D01*
X134450000Y-81000000D02*
X134850000Y-81400000D01*
X121725000Y-80525000D02*
X117250000Y-85000000D01*
X117250000Y-85000000D02*
X109725000Y-85000000D01*
X109725000Y-85000000D02*
X108975000Y-85750000D01*
G36*
X183160703Y-81695910D02*
G01*
X183313348Y-81749322D01*
X183450279Y-81835362D01*
X183564638Y-81949721D01*
X183650678Y-82086652D01*
X183704090Y-82239297D01*
X183723000Y-82407128D01*
X183723000Y-87442872D01*
X183704090Y-87610703D01*
X183650678Y-87763348D01*
X183564638Y-87900279D01*
X183450279Y-88014638D01*
X183313348Y-88100678D01*
X183160703Y-88154090D01*
X183000000Y-88172197D01*
X182839297Y-88154090D01*
X182686652Y-88100678D01*
X182549721Y-88014638D01*
X182435362Y-87900279D01*
X182349322Y-87763348D01*
X182295910Y-87610703D01*
X182277000Y-87442872D01*
X182277000Y-82407128D01*
X182295910Y-82239297D01*
X182349322Y-82086652D01*
X182435362Y-81949721D01*
X182549721Y-81835362D01*
X182686652Y-81749322D01*
X182839297Y-81695910D01*
X183000000Y-81677803D01*
X183160703Y-81695910D01*
G37*
X183160703Y-81695910D02*
X183313348Y-81749322D01*
X183450279Y-81835362D01*
X183564638Y-81949721D01*
X183650678Y-82086652D01*
X183704090Y-82239297D01*
X183723000Y-82407128D01*
X183723000Y-87442872D01*
X183704090Y-87610703D01*
X183650678Y-87763348D01*
X183564638Y-87900279D01*
X183450279Y-88014638D01*
X183313348Y-88100678D01*
X183160703Y-88154090D01*
X183000000Y-88172197D01*
X182839297Y-88154090D01*
X182686652Y-88100678D01*
X182549721Y-88014638D01*
X182435362Y-87900279D01*
X182349322Y-87763348D01*
X182295910Y-87610703D01*
X182277000Y-87442872D01*
X182277000Y-82407128D01*
X182295910Y-82239297D01*
X182349322Y-82086652D01*
X182435362Y-81949721D01*
X182549721Y-81835362D01*
X182686652Y-81749322D01*
X182839297Y-81695910D01*
X183000000Y-81677803D01*
X183160703Y-81695910D01*
G36*
X183160703Y-74445910D02*
G01*
X183313348Y-74499322D01*
X183450279Y-74585362D01*
X183564638Y-74699721D01*
X183650678Y-74836652D01*
X183704090Y-74989297D01*
X183723000Y-75157128D01*
X183723000Y-80192872D01*
X183704090Y-80360703D01*
X183650678Y-80513348D01*
X183564638Y-80650279D01*
X183450279Y-80764638D01*
X183313348Y-80850678D01*
X183160703Y-80904090D01*
X183000000Y-80922197D01*
X182839297Y-80904090D01*
X182686652Y-80850678D01*
X182549721Y-80764638D01*
X182435362Y-80650279D01*
X182349322Y-80513348D01*
X182295910Y-80360703D01*
X182277000Y-80192872D01*
X182277000Y-75157128D01*
X182295910Y-74989297D01*
X182349322Y-74836652D01*
X182435362Y-74699721D01*
X182549721Y-74585362D01*
X182686652Y-74499322D01*
X182839297Y-74445910D01*
X183000000Y-74427803D01*
X183160703Y-74445910D01*
G37*
X183160703Y-74445910D02*
X183313348Y-74499322D01*
X183450279Y-74585362D01*
X183564638Y-74699721D01*
X183650678Y-74836652D01*
X183704090Y-74989297D01*
X183723000Y-75157128D01*
X183723000Y-80192872D01*
X183704090Y-80360703D01*
X183650678Y-80513348D01*
X183564638Y-80650279D01*
X183450279Y-80764638D01*
X183313348Y-80850678D01*
X183160703Y-80904090D01*
X183000000Y-80922197D01*
X182839297Y-80904090D01*
X182686652Y-80850678D01*
X182549721Y-80764638D01*
X182435362Y-80650279D01*
X182349322Y-80513348D01*
X182295910Y-80360703D01*
X182277000Y-80192872D01*
X182277000Y-75157128D01*
X182295910Y-74989297D01*
X182349322Y-74836652D01*
X182435362Y-74699721D01*
X182549721Y-74585362D01*
X182686652Y-74499322D01*
X182839297Y-74445910D01*
X183000000Y-74427803D01*
X183160703Y-74445910D01*
G36*
X183160703Y-47561845D02*
G01*
X183313348Y-47615257D01*
X183450279Y-47701297D01*
X183564638Y-47815656D01*
X183650678Y-47952587D01*
X183704090Y-48105232D01*
X183723000Y-48273063D01*
X183723000Y-53642872D01*
X183704090Y-53810703D01*
X183650678Y-53963348D01*
X183564638Y-54100279D01*
X183450279Y-54214638D01*
X183313348Y-54300678D01*
X183160703Y-54354090D01*
X183000000Y-54372197D01*
X182839297Y-54354090D01*
X182686652Y-54300678D01*
X182549721Y-54214638D01*
X182435362Y-54100279D01*
X182349322Y-53963348D01*
X182295910Y-53810703D01*
X182277000Y-53642872D01*
X182277000Y-48273063D01*
X182295910Y-48105232D01*
X182349322Y-47952587D01*
X182435362Y-47815656D01*
X182549721Y-47701297D01*
X182686652Y-47615257D01*
X182839297Y-47561845D01*
X183000000Y-47543738D01*
X183160703Y-47561845D01*
G37*
X183160703Y-47561845D02*
X183313348Y-47615257D01*
X183450279Y-47701297D01*
X183564638Y-47815656D01*
X183650678Y-47952587D01*
X183704090Y-48105232D01*
X183723000Y-48273063D01*
X183723000Y-53642872D01*
X183704090Y-53810703D01*
X183650678Y-53963348D01*
X183564638Y-54100279D01*
X183450279Y-54214638D01*
X183313348Y-54300678D01*
X183160703Y-54354090D01*
X183000000Y-54372197D01*
X182839297Y-54354090D01*
X182686652Y-54300678D01*
X182549721Y-54214638D01*
X182435362Y-54100279D01*
X182349322Y-53963348D01*
X182295910Y-53810703D01*
X182277000Y-53642872D01*
X182277000Y-48273063D01*
X182295910Y-48105232D01*
X182349322Y-47952587D01*
X182435362Y-47815656D01*
X182549721Y-47701297D01*
X182686652Y-47615257D01*
X182839297Y-47561845D01*
X183000000Y-47543738D01*
X183160703Y-47561845D01*
G36*
X183210703Y-55266222D02*
G01*
X183363348Y-55319634D01*
X183500279Y-55405674D01*
X183614638Y-55520033D01*
X183700678Y-55656964D01*
X183754090Y-55809609D01*
X183773000Y-55977440D01*
X183773000Y-61347249D01*
X183754090Y-61515080D01*
X183700678Y-61667725D01*
X183614638Y-61804656D01*
X183500279Y-61919015D01*
X183363348Y-62005055D01*
X183210703Y-62058467D01*
X183050000Y-62076574D01*
X182889297Y-62058467D01*
X182736652Y-62005055D01*
X182599721Y-61919015D01*
X182485362Y-61804656D01*
X182399322Y-61667725D01*
X182345910Y-61515080D01*
X182327000Y-61347249D01*
X182327000Y-55977440D01*
X182345910Y-55809609D01*
X182399322Y-55656964D01*
X182485362Y-55520033D01*
X182599721Y-55405674D01*
X182736652Y-55319634D01*
X182889297Y-55266222D01*
X183050000Y-55248115D01*
X183210703Y-55266222D01*
G37*
X183210703Y-55266222D02*
X183363348Y-55319634D01*
X183500279Y-55405674D01*
X183614638Y-55520033D01*
X183700678Y-55656964D01*
X183754090Y-55809609D01*
X183773000Y-55977440D01*
X183773000Y-61347249D01*
X183754090Y-61515080D01*
X183700678Y-61667725D01*
X183614638Y-61804656D01*
X183500279Y-61919015D01*
X183363348Y-62005055D01*
X183210703Y-62058467D01*
X183050000Y-62076574D01*
X182889297Y-62058467D01*
X182736652Y-62005055D01*
X182599721Y-61919015D01*
X182485362Y-61804656D01*
X182399322Y-61667725D01*
X182345910Y-61515080D01*
X182327000Y-61347249D01*
X182327000Y-55977440D01*
X182345910Y-55809609D01*
X182399322Y-55656964D01*
X182485362Y-55520033D01*
X182599721Y-55405674D01*
X182736652Y-55319634D01*
X182889297Y-55266222D01*
X183050000Y-55248115D01*
X183210703Y-55266222D01*
G36*
X101423000Y-54500000D02*
G01*
X101425440Y-54524776D01*
X101432667Y-54548601D01*
X101444403Y-54570557D01*
X101458953Y-54588541D01*
X112023504Y-65452089D01*
X112123000Y-75600633D01*
X112123000Y-81573000D01*
X104777000Y-81573000D01*
X104777000Y-78232927D01*
X105469000Y-78232927D01*
X105469000Y-78367073D01*
X105495171Y-78498640D01*
X105546506Y-78622574D01*
X105621033Y-78734112D01*
X105715888Y-78828967D01*
X105827426Y-78903494D01*
X105951360Y-78954829D01*
X106082927Y-78981000D01*
X106217073Y-78981000D01*
X106348640Y-78954829D01*
X106472574Y-78903494D01*
X106584112Y-78828967D01*
X106678967Y-78734112D01*
X106753494Y-78622574D01*
X106804829Y-78498640D01*
X106831000Y-78367073D01*
X106831000Y-78232927D01*
X106804829Y-78101360D01*
X106753494Y-77977426D01*
X106678967Y-77865888D01*
X106584112Y-77771033D01*
X106472574Y-77696506D01*
X106348640Y-77645171D01*
X106217073Y-77619000D01*
X106082927Y-77619000D01*
X105951360Y-77645171D01*
X105827426Y-77696506D01*
X105715888Y-77771033D01*
X105621033Y-77865888D01*
X105546506Y-77977426D01*
X105495171Y-78101360D01*
X105469000Y-78232927D01*
X104777000Y-78232927D01*
X104777000Y-74482927D01*
X108719000Y-74482927D01*
X108719000Y-74617073D01*
X108745171Y-74748640D01*
X108796506Y-74872574D01*
X108871033Y-74984112D01*
X108965888Y-75078967D01*
X109077426Y-75153494D01*
X109201360Y-75204829D01*
X109332927Y-75231000D01*
X109467073Y-75231000D01*
X109598640Y-75204829D01*
X109722574Y-75153494D01*
X109834112Y-75078967D01*
X109928967Y-74984112D01*
X110003494Y-74872574D01*
X110054829Y-74748640D01*
X110081000Y-74617073D01*
X110081000Y-74482927D01*
X110054829Y-74351360D01*
X110003494Y-74227426D01*
X109928967Y-74115888D01*
X109834112Y-74021033D01*
X109722574Y-73946506D01*
X109598640Y-73895171D01*
X109467073Y-73869000D01*
X109332927Y-73869000D01*
X109201360Y-73895171D01*
X109077426Y-73946506D01*
X108965888Y-74021033D01*
X108871033Y-74115888D01*
X108796506Y-74227426D01*
X108745171Y-74351360D01*
X108719000Y-74482927D01*
X104777000Y-74482927D01*
X104777000Y-66382927D01*
X107119000Y-66382927D01*
X107119000Y-66517073D01*
X107145171Y-66648640D01*
X107196506Y-66772574D01*
X107271033Y-66884112D01*
X107365888Y-66978967D01*
X107477426Y-67053494D01*
X107601360Y-67104829D01*
X107732927Y-67131000D01*
X107867073Y-67131000D01*
X107998640Y-67104829D01*
X108122574Y-67053494D01*
X108234112Y-66978967D01*
X108328967Y-66884112D01*
X108403494Y-66772574D01*
X108454829Y-66648640D01*
X108481000Y-66517073D01*
X108481000Y-66382927D01*
X108454829Y-66251360D01*
X108403494Y-66127426D01*
X108328967Y-66015888D01*
X108234112Y-65921033D01*
X108122574Y-65846506D01*
X107998640Y-65795171D01*
X107867073Y-65769000D01*
X107732927Y-65769000D01*
X107601360Y-65795171D01*
X107477426Y-65846506D01*
X107365888Y-65921033D01*
X107271033Y-66015888D01*
X107196506Y-66127426D01*
X107145171Y-66251360D01*
X107119000Y-66382927D01*
X104777000Y-66382927D01*
X104777000Y-66300000D01*
X104774560Y-66275224D01*
X104767333Y-66251399D01*
X104755597Y-66229443D01*
X104739346Y-66209743D01*
X95418379Y-56982927D01*
X99219000Y-56982927D01*
X99219000Y-57117073D01*
X99245171Y-57248640D01*
X99296506Y-57372574D01*
X99371033Y-57484112D01*
X99465888Y-57578967D01*
X99577426Y-57653494D01*
X99701360Y-57704829D01*
X99832927Y-57731000D01*
X99967073Y-57731000D01*
X100098640Y-57704829D01*
X100222574Y-57653494D01*
X100334112Y-57578967D01*
X100428967Y-57484112D01*
X100503494Y-57372574D01*
X100554829Y-57248640D01*
X100581000Y-57117073D01*
X100581000Y-56982927D01*
X100554829Y-56851360D01*
X100503494Y-56727426D01*
X100428967Y-56615888D01*
X100334112Y-56521033D01*
X100222574Y-56446506D01*
X100098640Y-56395171D01*
X99967073Y-56369000D01*
X99832927Y-56369000D01*
X99701360Y-56395171D01*
X99577426Y-56446506D01*
X99465888Y-56521033D01*
X99371033Y-56615888D01*
X99296506Y-56727426D01*
X99245171Y-56851360D01*
X99219000Y-56982927D01*
X95418379Y-56982927D01*
X94877000Y-56447017D01*
X94877000Y-54482927D01*
X99219000Y-54482927D01*
X99219000Y-54617073D01*
X99245171Y-54748640D01*
X99296506Y-54872574D01*
X99371033Y-54984112D01*
X99465888Y-55078967D01*
X99577426Y-55153494D01*
X99701360Y-55204829D01*
X99832927Y-55231000D01*
X99967073Y-55231000D01*
X100098640Y-55204829D01*
X100222574Y-55153494D01*
X100334112Y-55078967D01*
X100428967Y-54984112D01*
X100503494Y-54872574D01*
X100554829Y-54748640D01*
X100581000Y-54617073D01*
X100581000Y-54482927D01*
X100554829Y-54351360D01*
X100503494Y-54227426D01*
X100428967Y-54115888D01*
X100334112Y-54021033D01*
X100222574Y-53946506D01*
X100098640Y-53895171D01*
X99967073Y-53869000D01*
X99832927Y-53869000D01*
X99701360Y-53895171D01*
X99577426Y-53946506D01*
X99465888Y-54021033D01*
X99371033Y-54115888D01*
X99296506Y-54227426D01*
X99245171Y-54351360D01*
X99219000Y-54482927D01*
X94877000Y-54482927D01*
X94877000Y-47827000D01*
X101423000Y-47827000D01*
X101423000Y-54500000D01*
G37*
X101423000Y-54500000D02*
X101425440Y-54524776D01*
X101432667Y-54548601D01*
X101444403Y-54570557D01*
X101458953Y-54588541D01*
X112023504Y-65452089D01*
X112123000Y-75600633D01*
X112123000Y-81573000D01*
X104777000Y-81573000D01*
X104777000Y-78232927D01*
X105469000Y-78232927D01*
X105469000Y-78367073D01*
X105495171Y-78498640D01*
X105546506Y-78622574D01*
X105621033Y-78734112D01*
X105715888Y-78828967D01*
X105827426Y-78903494D01*
X105951360Y-78954829D01*
X106082927Y-78981000D01*
X106217073Y-78981000D01*
X106348640Y-78954829D01*
X106472574Y-78903494D01*
X106584112Y-78828967D01*
X106678967Y-78734112D01*
X106753494Y-78622574D01*
X106804829Y-78498640D01*
X106831000Y-78367073D01*
X106831000Y-78232927D01*
X106804829Y-78101360D01*
X106753494Y-77977426D01*
X106678967Y-77865888D01*
X106584112Y-77771033D01*
X106472574Y-77696506D01*
X106348640Y-77645171D01*
X106217073Y-77619000D01*
X106082927Y-77619000D01*
X105951360Y-77645171D01*
X105827426Y-77696506D01*
X105715888Y-77771033D01*
X105621033Y-77865888D01*
X105546506Y-77977426D01*
X105495171Y-78101360D01*
X105469000Y-78232927D01*
X104777000Y-78232927D01*
X104777000Y-74482927D01*
X108719000Y-74482927D01*
X108719000Y-74617073D01*
X108745171Y-74748640D01*
X108796506Y-74872574D01*
X108871033Y-74984112D01*
X108965888Y-75078967D01*
X109077426Y-75153494D01*
X109201360Y-75204829D01*
X109332927Y-75231000D01*
X109467073Y-75231000D01*
X109598640Y-75204829D01*
X109722574Y-75153494D01*
X109834112Y-75078967D01*
X109928967Y-74984112D01*
X110003494Y-74872574D01*
X110054829Y-74748640D01*
X110081000Y-74617073D01*
X110081000Y-74482927D01*
X110054829Y-74351360D01*
X110003494Y-74227426D01*
X109928967Y-74115888D01*
X109834112Y-74021033D01*
X109722574Y-73946506D01*
X109598640Y-73895171D01*
X109467073Y-73869000D01*
X109332927Y-73869000D01*
X109201360Y-73895171D01*
X109077426Y-73946506D01*
X108965888Y-74021033D01*
X108871033Y-74115888D01*
X108796506Y-74227426D01*
X108745171Y-74351360D01*
X108719000Y-74482927D01*
X104777000Y-74482927D01*
X104777000Y-66382927D01*
X107119000Y-66382927D01*
X107119000Y-66517073D01*
X107145171Y-66648640D01*
X107196506Y-66772574D01*
X107271033Y-66884112D01*
X107365888Y-66978967D01*
X107477426Y-67053494D01*
X107601360Y-67104829D01*
X107732927Y-67131000D01*
X107867073Y-67131000D01*
X107998640Y-67104829D01*
X108122574Y-67053494D01*
X108234112Y-66978967D01*
X108328967Y-66884112D01*
X108403494Y-66772574D01*
X108454829Y-66648640D01*
X108481000Y-66517073D01*
X108481000Y-66382927D01*
X108454829Y-66251360D01*
X108403494Y-66127426D01*
X108328967Y-66015888D01*
X108234112Y-65921033D01*
X108122574Y-65846506D01*
X107998640Y-65795171D01*
X107867073Y-65769000D01*
X107732927Y-65769000D01*
X107601360Y-65795171D01*
X107477426Y-65846506D01*
X107365888Y-65921033D01*
X107271033Y-66015888D01*
X107196506Y-66127426D01*
X107145171Y-66251360D01*
X107119000Y-66382927D01*
X104777000Y-66382927D01*
X104777000Y-66300000D01*
X104774560Y-66275224D01*
X104767333Y-66251399D01*
X104755597Y-66229443D01*
X104739346Y-66209743D01*
X95418379Y-56982927D01*
X99219000Y-56982927D01*
X99219000Y-57117073D01*
X99245171Y-57248640D01*
X99296506Y-57372574D01*
X99371033Y-57484112D01*
X99465888Y-57578967D01*
X99577426Y-57653494D01*
X99701360Y-57704829D01*
X99832927Y-57731000D01*
X99967073Y-57731000D01*
X100098640Y-57704829D01*
X100222574Y-57653494D01*
X100334112Y-57578967D01*
X100428967Y-57484112D01*
X100503494Y-57372574D01*
X100554829Y-57248640D01*
X100581000Y-57117073D01*
X100581000Y-56982927D01*
X100554829Y-56851360D01*
X100503494Y-56727426D01*
X100428967Y-56615888D01*
X100334112Y-56521033D01*
X100222574Y-56446506D01*
X100098640Y-56395171D01*
X99967073Y-56369000D01*
X99832927Y-56369000D01*
X99701360Y-56395171D01*
X99577426Y-56446506D01*
X99465888Y-56521033D01*
X99371033Y-56615888D01*
X99296506Y-56727426D01*
X99245171Y-56851360D01*
X99219000Y-56982927D01*
X95418379Y-56982927D01*
X94877000Y-56447017D01*
X94877000Y-54482927D01*
X99219000Y-54482927D01*
X99219000Y-54617073D01*
X99245171Y-54748640D01*
X99296506Y-54872574D01*
X99371033Y-54984112D01*
X99465888Y-55078967D01*
X99577426Y-55153494D01*
X99701360Y-55204829D01*
X99832927Y-55231000D01*
X99967073Y-55231000D01*
X100098640Y-55204829D01*
X100222574Y-55153494D01*
X100334112Y-55078967D01*
X100428967Y-54984112D01*
X100503494Y-54872574D01*
X100554829Y-54748640D01*
X100581000Y-54617073D01*
X100581000Y-54482927D01*
X100554829Y-54351360D01*
X100503494Y-54227426D01*
X100428967Y-54115888D01*
X100334112Y-54021033D01*
X100222574Y-53946506D01*
X100098640Y-53895171D01*
X99967073Y-53869000D01*
X99832927Y-53869000D01*
X99701360Y-53895171D01*
X99577426Y-53946506D01*
X99465888Y-54021033D01*
X99371033Y-54115888D01*
X99296506Y-54227426D01*
X99245171Y-54351360D01*
X99219000Y-54482927D01*
X94877000Y-54482927D01*
X94877000Y-47827000D01*
X101423000Y-47827000D01*
X101423000Y-54500000D01*
G36*
X75023000Y-58425000D02*
G01*
X75025440Y-58449776D01*
X75032667Y-58473601D01*
X75044403Y-58495557D01*
X75061236Y-58515829D01*
X80523000Y-63853462D01*
X80523000Y-104550000D01*
X80525440Y-104574776D01*
X80532667Y-104598601D01*
X80544403Y-104620557D01*
X80560197Y-104639803D01*
X80579443Y-104655597D01*
X80601399Y-104667333D01*
X80625224Y-104674560D01*
X80650000Y-104677000D01*
X85351715Y-104677000D01*
X89773000Y-108607031D01*
X89773000Y-110513906D01*
X89724482Y-110499188D01*
X89600000Y-110486928D01*
X89381750Y-110490000D01*
X89223000Y-110648750D01*
X89223000Y-110667945D01*
X88777000Y-110664616D01*
X88777000Y-110648750D01*
X88618250Y-110490000D01*
X88400000Y-110486928D01*
X88275518Y-110499188D01*
X88155820Y-110535498D01*
X88045506Y-110594463D01*
X87967386Y-110658574D01*
X79959799Y-110598816D01*
X79954494Y-110594463D01*
X79844180Y-110535498D01*
X79724482Y-110499188D01*
X79600000Y-110486928D01*
X79381750Y-110490000D01*
X79278022Y-110593728D01*
X78717798Y-110589548D01*
X78618250Y-110490000D01*
X78400000Y-110486928D01*
X78275518Y-110499188D01*
X78155820Y-110535498D01*
X78063832Y-110584667D01*
X69803045Y-110523020D01*
X69724482Y-110499188D01*
X69600000Y-110486928D01*
X69381750Y-110490000D01*
X69352096Y-110519654D01*
X68642610Y-110514360D01*
X68618250Y-110490000D01*
X68400000Y-110486928D01*
X68275518Y-110499188D01*
X68235518Y-110511322D01*
X56527000Y-110423945D01*
X56527000Y-108607031D01*
X60948285Y-104677000D01*
X77650000Y-104677000D01*
X77674776Y-104674560D01*
X77698601Y-104667333D01*
X77720557Y-104655597D01*
X77739803Y-104639803D01*
X77755597Y-104620557D01*
X77767333Y-104598601D01*
X77774560Y-104574776D01*
X77777000Y-104550000D01*
X77777000Y-85982927D01*
X78169000Y-85982927D01*
X78169000Y-86117073D01*
X78195171Y-86248640D01*
X78246506Y-86372574D01*
X78321033Y-86484112D01*
X78415888Y-86578967D01*
X78527426Y-86653494D01*
X78651360Y-86704829D01*
X78782927Y-86731000D01*
X78917073Y-86731000D01*
X79048640Y-86704829D01*
X79172574Y-86653494D01*
X79284112Y-86578967D01*
X79378967Y-86484112D01*
X79453494Y-86372574D01*
X79504829Y-86248640D01*
X79531000Y-86117073D01*
X79531000Y-85982927D01*
X79504829Y-85851360D01*
X79453494Y-85727426D01*
X79378967Y-85615888D01*
X79284112Y-85521033D01*
X79172574Y-85446506D01*
X79048640Y-85395171D01*
X78917073Y-85369000D01*
X78782927Y-85369000D01*
X78651360Y-85395171D01*
X78527426Y-85446506D01*
X78415888Y-85521033D01*
X78321033Y-85615888D01*
X78246506Y-85727426D01*
X78195171Y-85851360D01*
X78169000Y-85982927D01*
X77777000Y-85982927D01*
X77777000Y-81343427D01*
X77797969Y-81312045D01*
X77879457Y-81115316D01*
X77921000Y-80906469D01*
X77921000Y-80693531D01*
X77879457Y-80484684D01*
X77797969Y-80287955D01*
X77777000Y-80256573D01*
X77777000Y-73743360D01*
X77817969Y-73682045D01*
X77899457Y-73485316D01*
X77941000Y-73276469D01*
X77941000Y-73063531D01*
X77899457Y-72854684D01*
X77817969Y-72657955D01*
X77777000Y-72596640D01*
X77777000Y-64800000D01*
X77774560Y-64775224D01*
X77767333Y-64751399D01*
X77755597Y-64729443D01*
X77739803Y-64710197D01*
X72277000Y-59247394D01*
X72277000Y-54677000D01*
X75023000Y-54677000D01*
X75023000Y-58425000D01*
G37*
X75023000Y-58425000D02*
X75025440Y-58449776D01*
X75032667Y-58473601D01*
X75044403Y-58495557D01*
X75061236Y-58515829D01*
X80523000Y-63853462D01*
X80523000Y-104550000D01*
X80525440Y-104574776D01*
X80532667Y-104598601D01*
X80544403Y-104620557D01*
X80560197Y-104639803D01*
X80579443Y-104655597D01*
X80601399Y-104667333D01*
X80625224Y-104674560D01*
X80650000Y-104677000D01*
X85351715Y-104677000D01*
X89773000Y-108607031D01*
X89773000Y-110513906D01*
X89724482Y-110499188D01*
X89600000Y-110486928D01*
X89381750Y-110490000D01*
X89223000Y-110648750D01*
X89223000Y-110667945D01*
X88777000Y-110664616D01*
X88777000Y-110648750D01*
X88618250Y-110490000D01*
X88400000Y-110486928D01*
X88275518Y-110499188D01*
X88155820Y-110535498D01*
X88045506Y-110594463D01*
X87967386Y-110658574D01*
X79959799Y-110598816D01*
X79954494Y-110594463D01*
X79844180Y-110535498D01*
X79724482Y-110499188D01*
X79600000Y-110486928D01*
X79381750Y-110490000D01*
X79278022Y-110593728D01*
X78717798Y-110589548D01*
X78618250Y-110490000D01*
X78400000Y-110486928D01*
X78275518Y-110499188D01*
X78155820Y-110535498D01*
X78063832Y-110584667D01*
X69803045Y-110523020D01*
X69724482Y-110499188D01*
X69600000Y-110486928D01*
X69381750Y-110490000D01*
X69352096Y-110519654D01*
X68642610Y-110514360D01*
X68618250Y-110490000D01*
X68400000Y-110486928D01*
X68275518Y-110499188D01*
X68235518Y-110511322D01*
X56527000Y-110423945D01*
X56527000Y-108607031D01*
X60948285Y-104677000D01*
X77650000Y-104677000D01*
X77674776Y-104674560D01*
X77698601Y-104667333D01*
X77720557Y-104655597D01*
X77739803Y-104639803D01*
X77755597Y-104620557D01*
X77767333Y-104598601D01*
X77774560Y-104574776D01*
X77777000Y-104550000D01*
X77777000Y-85982927D01*
X78169000Y-85982927D01*
X78169000Y-86117073D01*
X78195171Y-86248640D01*
X78246506Y-86372574D01*
X78321033Y-86484112D01*
X78415888Y-86578967D01*
X78527426Y-86653494D01*
X78651360Y-86704829D01*
X78782927Y-86731000D01*
X78917073Y-86731000D01*
X79048640Y-86704829D01*
X79172574Y-86653494D01*
X79284112Y-86578967D01*
X79378967Y-86484112D01*
X79453494Y-86372574D01*
X79504829Y-86248640D01*
X79531000Y-86117073D01*
X79531000Y-85982927D01*
X79504829Y-85851360D01*
X79453494Y-85727426D01*
X79378967Y-85615888D01*
X79284112Y-85521033D01*
X79172574Y-85446506D01*
X79048640Y-85395171D01*
X78917073Y-85369000D01*
X78782927Y-85369000D01*
X78651360Y-85395171D01*
X78527426Y-85446506D01*
X78415888Y-85521033D01*
X78321033Y-85615888D01*
X78246506Y-85727426D01*
X78195171Y-85851360D01*
X78169000Y-85982927D01*
X77777000Y-85982927D01*
X77777000Y-81343427D01*
X77797969Y-81312045D01*
X77879457Y-81115316D01*
X77921000Y-80906469D01*
X77921000Y-80693531D01*
X77879457Y-80484684D01*
X77797969Y-80287955D01*
X77777000Y-80256573D01*
X77777000Y-73743360D01*
X77817969Y-73682045D01*
X77899457Y-73485316D01*
X77941000Y-73276469D01*
X77941000Y-73063531D01*
X77899457Y-72854684D01*
X77817969Y-72657955D01*
X77777000Y-72596640D01*
X77777000Y-64800000D01*
X77774560Y-64775224D01*
X77767333Y-64751399D01*
X77755597Y-64729443D01*
X77739803Y-64710197D01*
X72277000Y-59247394D01*
X72277000Y-54677000D01*
X75023000Y-54677000D01*
X75023000Y-58425000D01*
G36*
X83523000Y-55173000D02*
G01*
X78314710Y-55173000D01*
X76446445Y-53304736D01*
X76423375Y-53276625D01*
X76311213Y-53184576D01*
X76183249Y-53116178D01*
X76044399Y-53074058D01*
X75936186Y-53063400D01*
X75936183Y-53063400D01*
X75900000Y-53059836D01*
X75863817Y-53063400D01*
X71311175Y-53063400D01*
X71274999Y-53059837D01*
X71238823Y-53063400D01*
X71238814Y-53063400D01*
X71130601Y-53074058D01*
X70991751Y-53116178D01*
X70863787Y-53184576D01*
X70751625Y-53276625D01*
X70728559Y-53304731D01*
X70219891Y-53813400D01*
X64205109Y-53813400D01*
X63277000Y-52885291D01*
X63277000Y-51427000D01*
X83523000Y-51427000D01*
X83523000Y-55173000D01*
G37*
X83523000Y-55173000D02*
X78314710Y-55173000D01*
X76446445Y-53304736D01*
X76423375Y-53276625D01*
X76311213Y-53184576D01*
X76183249Y-53116178D01*
X76044399Y-53074058D01*
X75936186Y-53063400D01*
X75936183Y-53063400D01*
X75900000Y-53059836D01*
X75863817Y-53063400D01*
X71311175Y-53063400D01*
X71274999Y-53059837D01*
X71238823Y-53063400D01*
X71238814Y-53063400D01*
X71130601Y-53074058D01*
X70991751Y-53116178D01*
X70863787Y-53184576D01*
X70751625Y-53276625D01*
X70728559Y-53304731D01*
X70219891Y-53813400D01*
X64205109Y-53813400D01*
X63277000Y-52885291D01*
X63277000Y-51427000D01*
X83523000Y-51427000D01*
X83523000Y-55173000D01*
G36*
X86523000Y-59173000D02*
G01*
X82777000Y-59173000D01*
X82777000Y-56427000D01*
X86523000Y-56427000D01*
X86523000Y-59173000D01*
G37*
X86523000Y-59173000D02*
X82777000Y-59173000D01*
X82777000Y-56427000D01*
X86523000Y-56427000D01*
X86523000Y-59173000D01*
M02*
