G04 #@! TF.GenerationSoftware,KiCad,Pcbnew,(5.1.5)-2*
G04 #@! TF.CreationDate,2020-02-03T19:36:56+01:00*
G04 #@! TF.ProjectId,Main Board,4d61696e-2042-46f6-9172-642e6b696361,rev?*
G04 #@! TF.SameCoordinates,Original*
G04 #@! TF.FileFunction,Legend,Bot*
G04 #@! TF.FilePolarity,Positive*
%FSLAX46Y46*%
G04 Gerber Fmt 4.6, Leading zero omitted, Abs format (unit mm)*
G04 Created by KiCad (PCBNEW (5.1.5)-2) date 2020-02-03 19:36:56*
%MOMM*%
%LPD*%
G04 APERTURE LIST*
%ADD10C,0.600000*%
%ADD11C,0.010000*%
%ADD12C,0.120000*%
%ADD13C,0.150000*%
G04 APERTURE END LIST*
D10*
X200900000Y-39000000D02*
X199150000Y-39000000D01*
X199950000Y-47750000D02*
X198200000Y-47750000D01*
X199950000Y-50250000D02*
X198200000Y-50250000D01*
X199950000Y-52750000D02*
X198200000Y-52750000D01*
X200850000Y-61550000D02*
X199100000Y-61550000D01*
X200900000Y-69550000D02*
X199150000Y-69550000D01*
X200850000Y-100600000D02*
X199100000Y-100600000D01*
X200900000Y-92500000D02*
X199150000Y-92500000D01*
X199900000Y-83800000D02*
X198150000Y-83800000D01*
X199900000Y-81300000D02*
X198150000Y-81300000D01*
X199900000Y-78800000D02*
X198150000Y-78800000D01*
X47950000Y-83000000D02*
X46200000Y-83000000D01*
X47900000Y-81000000D02*
X46150000Y-81000000D01*
X47850000Y-73000000D02*
X46100000Y-73000000D01*
X47850000Y-71000000D02*
X46100000Y-71000000D01*
X47850000Y-62950000D02*
X46100000Y-62950000D01*
X48850000Y-44750000D02*
X47100000Y-44750000D01*
D11*
G36*
X182526744Y-34299337D02*
G01*
X182527567Y-34415066D01*
X183127885Y-35025000D01*
X183728204Y-35634934D01*
X183728641Y-35914835D01*
X183729079Y-36194737D01*
X184094663Y-36194737D01*
X184104083Y-36265756D01*
X184107650Y-36298127D01*
X184113662Y-36359087D01*
X184121799Y-36444998D01*
X184131738Y-36552226D01*
X184143157Y-36677133D01*
X184155736Y-36816083D01*
X184169153Y-36965441D01*
X184183085Y-37121568D01*
X184197212Y-37280830D01*
X184211212Y-37439590D01*
X184224763Y-37594211D01*
X184237544Y-37741057D01*
X184249233Y-37876493D01*
X184259508Y-37996880D01*
X184268048Y-38098584D01*
X184274531Y-38177967D01*
X184278636Y-38231394D01*
X184280041Y-38255229D01*
X184280040Y-38255342D01*
X184269796Y-38274466D01*
X184239026Y-38313955D01*
X184187311Y-38374266D01*
X184114233Y-38455861D01*
X184019373Y-38559198D01*
X183902313Y-38684738D01*
X183762633Y-38832940D01*
X183599916Y-39004263D01*
X183554179Y-39052237D01*
X182828805Y-39812566D01*
X182887449Y-39871052D01*
X182946092Y-39929539D01*
X183040974Y-39826310D01*
X183075685Y-39789003D01*
X183129906Y-39731311D01*
X183200059Y-39657013D01*
X183282568Y-39569889D01*
X183373855Y-39473718D01*
X183470342Y-39372280D01*
X183528065Y-39311695D01*
X183636434Y-39198197D01*
X183724028Y-39107285D01*
X183793080Y-39037307D01*
X183845824Y-38986610D01*
X183884494Y-38953540D01*
X183911323Y-38936444D01*
X183928544Y-38933669D01*
X183938392Y-38943563D01*
X183943099Y-38964471D01*
X183944899Y-38994741D01*
X183945141Y-39003002D01*
X183957658Y-39059909D01*
X183988497Y-39128693D01*
X184031503Y-39198475D01*
X184080520Y-39258378D01*
X184100134Y-39276882D01*
X184200770Y-39341628D01*
X184318327Y-39377854D01*
X184422262Y-39386447D01*
X184540049Y-39370239D01*
X184648831Y-39322712D01*
X184745110Y-39245511D01*
X184762875Y-39226295D01*
X184827832Y-39152500D01*
X185951579Y-39152500D01*
X185951579Y-39386447D01*
X186252368Y-39386447D01*
X186252368Y-39277152D01*
X186256143Y-39202539D01*
X186268825Y-39150750D01*
X186284237Y-39122580D01*
X186295250Y-39102424D01*
X186304679Y-39073200D01*
X186313151Y-39030575D01*
X186321290Y-38970217D01*
X186329721Y-38887793D01*
X186339068Y-38778972D01*
X186345469Y-38698017D01*
X186374831Y-38318732D01*
X187095659Y-39048938D01*
X187225992Y-39181066D01*
X187351108Y-39308096D01*
X187468721Y-39427695D01*
X187576545Y-39537528D01*
X187672295Y-39635263D01*
X187753683Y-39718566D01*
X187818423Y-39785104D01*
X187864230Y-39832542D01*
X187888792Y-39858520D01*
X187929145Y-39899649D01*
X187962805Y-39928335D01*
X187980910Y-39937895D01*
X188004035Y-39926697D01*
X188037743Y-39898719D01*
X188049169Y-39887326D01*
X188097617Y-39836757D01*
X187830881Y-39565702D01*
X187762831Y-39496652D01*
X187675085Y-39407774D01*
X187571492Y-39302959D01*
X187455900Y-39186097D01*
X187332159Y-39061079D01*
X187204119Y-38931795D01*
X187075628Y-38802136D01*
X186983454Y-38709179D01*
X186843342Y-38567520D01*
X186725632Y-38447591D01*
X186628820Y-38347768D01*
X186551399Y-38266428D01*
X186491864Y-38201948D01*
X186462358Y-38168277D01*
X186225409Y-38168277D01*
X186195743Y-38547592D01*
X186186797Y-38658777D01*
X186178142Y-38760453D01*
X186170271Y-38847304D01*
X186163672Y-38914018D01*
X186158836Y-38955279D01*
X186157280Y-38964506D01*
X186148482Y-39002105D01*
X184886681Y-39002105D01*
X184878258Y-38897173D01*
X184852828Y-38773195D01*
X184799611Y-38663524D01*
X184721963Y-38572156D01*
X184623237Y-38503083D01*
X184512428Y-38461620D01*
X184476480Y-38442171D01*
X184458483Y-38400430D01*
X184458106Y-38398589D01*
X184455947Y-38380967D01*
X184458616Y-38362922D01*
X184468720Y-38341108D01*
X184488863Y-38312177D01*
X184521651Y-38272783D01*
X184569690Y-38219577D01*
X184635584Y-38149214D01*
X184721940Y-38058346D01*
X184727520Y-38052493D01*
X184820405Y-37954956D01*
X184919155Y-37851067D01*
X185016984Y-37747977D01*
X185107107Y-37652839D01*
X185182738Y-37572804D01*
X185199605Y-37554911D01*
X185264265Y-37487444D01*
X185321705Y-37429709D01*
X185367801Y-37385675D01*
X185398431Y-37359314D01*
X185408715Y-37353521D01*
X185424052Y-37365646D01*
X185459917Y-37398910D01*
X185513488Y-37450542D01*
X185581940Y-37517775D01*
X185662447Y-37597837D01*
X185752187Y-37687961D01*
X185825532Y-37762198D01*
X186225409Y-38168277D01*
X186462358Y-38168277D01*
X186448709Y-38152703D01*
X186420429Y-38117071D01*
X186405517Y-38093429D01*
X186402199Y-38082480D01*
X186403456Y-38058586D01*
X186407274Y-38004501D01*
X186413407Y-37923338D01*
X186421607Y-37818210D01*
X186431627Y-37692228D01*
X186443220Y-37548505D01*
X186456140Y-37390154D01*
X186470138Y-37220287D01*
X186481419Y-37084528D01*
X186545250Y-36319106D01*
X186381004Y-36319106D01*
X186380297Y-36335624D01*
X186376969Y-36382145D01*
X186371290Y-36455378D01*
X186363526Y-36552028D01*
X186353943Y-36668805D01*
X186342811Y-36802414D01*
X186330395Y-36949563D01*
X186318480Y-37089271D01*
X186304984Y-37247787D01*
X186292413Y-37397421D01*
X186281055Y-37534602D01*
X186271198Y-37655759D01*
X186263130Y-37757320D01*
X186257140Y-37835712D01*
X186253515Y-37887363D01*
X186252509Y-37907423D01*
X186250940Y-37919908D01*
X186244722Y-37924862D01*
X186231459Y-37920218D01*
X186208753Y-37903909D01*
X186174208Y-37873868D01*
X186125427Y-37828027D01*
X186060013Y-37764320D01*
X185975569Y-37680679D01*
X185885971Y-37591299D01*
X185519574Y-37225186D01*
X185522141Y-37222434D01*
X185279951Y-37222434D01*
X185268913Y-37237550D01*
X185238013Y-37273142D01*
X185190347Y-37325941D01*
X185129013Y-37392673D01*
X185057107Y-37470070D01*
X184977727Y-37554858D01*
X184893969Y-37643767D01*
X184808930Y-37733526D01*
X184725708Y-37820864D01*
X184647399Y-37902509D01*
X184577100Y-37975191D01*
X184517909Y-38035637D01*
X184472922Y-38080578D01*
X184445236Y-38106742D01*
X184437686Y-38112072D01*
X184435197Y-38094867D01*
X184430030Y-38047348D01*
X184422470Y-37972489D01*
X184412800Y-37873264D01*
X184401305Y-37752649D01*
X184388269Y-37613618D01*
X184373976Y-37459145D01*
X184358710Y-37292206D01*
X184346521Y-37157597D01*
X184330929Y-36983054D01*
X184316523Y-36818627D01*
X184303547Y-36667299D01*
X184292241Y-36532053D01*
X184282848Y-36415870D01*
X184275611Y-36321735D01*
X184270772Y-36252630D01*
X184268573Y-36211538D01*
X184268824Y-36200868D01*
X184281970Y-36210372D01*
X184315446Y-36240920D01*
X184366326Y-36289556D01*
X184431683Y-36353323D01*
X184508591Y-36429265D01*
X184594124Y-36514424D01*
X184685354Y-36605845D01*
X184779356Y-36700569D01*
X184873202Y-36795641D01*
X184963967Y-36888103D01*
X185048723Y-36974999D01*
X185124544Y-37053372D01*
X185188503Y-37120265D01*
X185237674Y-37172722D01*
X185269131Y-37207785D01*
X185279951Y-37222434D01*
X185522141Y-37222434D01*
X185656202Y-37078760D01*
X185725784Y-37004448D01*
X185803881Y-36921483D01*
X185887406Y-36833102D01*
X185973270Y-36742541D01*
X186058385Y-36653036D01*
X186139664Y-36567823D01*
X186214019Y-36490139D01*
X186278363Y-36423220D01*
X186329606Y-36370303D01*
X186364663Y-36334623D01*
X186380444Y-36319416D01*
X186381004Y-36319106D01*
X186545250Y-36319106D01*
X186561204Y-36127807D01*
X187359286Y-35288485D01*
X188157368Y-34449164D01*
X188156781Y-34331852D01*
X188156194Y-34214539D01*
X188027275Y-34352253D01*
X187955124Y-34429063D01*
X187869940Y-34519304D01*
X187774021Y-34620575D01*
X187669666Y-34730476D01*
X187559174Y-34846604D01*
X187444844Y-34966558D01*
X187328975Y-35087936D01*
X187213865Y-35208338D01*
X187101814Y-35325362D01*
X186995119Y-35436606D01*
X186896080Y-35539669D01*
X186806997Y-35632150D01*
X186730166Y-35711647D01*
X186667888Y-35775758D01*
X186622462Y-35822083D01*
X186596185Y-35848219D01*
X186590426Y-35853233D01*
X186590030Y-35835791D01*
X186592208Y-35791135D01*
X186596583Y-35725340D01*
X186602775Y-35644483D01*
X186605433Y-35612183D01*
X186625228Y-35375921D01*
X186470242Y-35375921D01*
X186462240Y-35413520D01*
X186458160Y-35443255D01*
X186452425Y-35499203D01*
X186445701Y-35574236D01*
X186438648Y-35661225D01*
X186436207Y-35693421D01*
X186429008Y-35785861D01*
X186421742Y-35871707D01*
X186415136Y-35942847D01*
X186409916Y-35991169D01*
X186408739Y-35999939D01*
X186404298Y-36017942D01*
X186394687Y-36039017D01*
X186377860Y-36065525D01*
X186351775Y-36099828D01*
X186314387Y-36144289D01*
X186263654Y-36201271D01*
X186197530Y-36273136D01*
X186113974Y-36362246D01*
X186010940Y-36470964D01*
X185905833Y-36581275D01*
X185801262Y-36690441D01*
X185703649Y-36791540D01*
X185615422Y-36882115D01*
X185539012Y-36959708D01*
X185476849Y-37021862D01*
X185431363Y-37066118D01*
X185404983Y-37090018D01*
X185399357Y-37093574D01*
X185384557Y-37080681D01*
X185349961Y-37047060D01*
X185298929Y-36996082D01*
X185234817Y-36931120D01*
X185160984Y-36855548D01*
X185107589Y-36800493D01*
X184828827Y-36512237D01*
X185650790Y-36512237D01*
X185650790Y-36194737D01*
X184648158Y-36194737D01*
X184648158Y-36336206D01*
X184464342Y-36152960D01*
X184333948Y-36022971D01*
X184080000Y-36022971D01*
X184077571Y-36043477D01*
X184065276Y-36054902D01*
X184035604Y-36059880D01*
X183981045Y-36061044D01*
X183971382Y-36061052D01*
X183862763Y-36061052D01*
X183862763Y-35769584D01*
X183971382Y-35877237D01*
X184032654Y-35942687D01*
X184069301Y-35992829D01*
X184080000Y-36022971D01*
X184333948Y-36022971D01*
X184280526Y-35969715D01*
X184280526Y-35806502D01*
X184280015Y-35731414D01*
X184277672Y-35683645D01*
X184272289Y-35657098D01*
X184262656Y-35645679D01*
X184248129Y-35643289D01*
X184231973Y-35639780D01*
X184220031Y-35625711D01*
X184210861Y-35595769D01*
X184203018Y-35544642D01*
X184195058Y-35467017D01*
X184192504Y-35438585D01*
X184186974Y-35375921D01*
X186470242Y-35375921D01*
X186625228Y-35375921D01*
X186837237Y-35375921D01*
X186837237Y-35225526D01*
X186747141Y-35225526D01*
X186694445Y-35224083D01*
X186665812Y-35217116D01*
X186662309Y-35212970D01*
X186477766Y-35212970D01*
X186468054Y-35222442D01*
X186434412Y-35225366D01*
X186411706Y-35225526D01*
X186335921Y-35225526D01*
X186053306Y-35225526D01*
X184173481Y-35225526D01*
X184237062Y-35160413D01*
X184335814Y-35080062D01*
X184458032Y-35018089D01*
X184605787Y-34973646D01*
X184752599Y-34949065D01*
X184848684Y-34937596D01*
X184848684Y-35058421D01*
X185617368Y-35058421D01*
X185617368Y-34921345D01*
X185730165Y-34932776D01*
X185808975Y-34942425D01*
X185892943Y-34955214D01*
X185943224Y-34964348D01*
X186043487Y-34984488D01*
X186048397Y-35105007D01*
X186053306Y-35225526D01*
X186335921Y-35225526D01*
X186335921Y-35158684D01*
X186338131Y-35116810D01*
X186343650Y-35093536D01*
X186345874Y-35091842D01*
X186370613Y-35102560D01*
X186406757Y-35128563D01*
X186442990Y-35160623D01*
X186467999Y-35189511D01*
X186470227Y-35193267D01*
X186477766Y-35212970D01*
X186662309Y-35212970D01*
X186651919Y-35200674D01*
X186646311Y-35182762D01*
X186623422Y-35136279D01*
X186579460Y-35080400D01*
X186521989Y-35022960D01*
X186458573Y-34971793D01*
X186416918Y-34945143D01*
X186369466Y-34915972D01*
X186345141Y-34891467D01*
X186336595Y-34862572D01*
X186335938Y-34845362D01*
X186335937Y-34841184D01*
X185483684Y-34841184D01*
X185483684Y-34924737D01*
X184982368Y-34924737D01*
X184982368Y-34841184D01*
X185483684Y-34841184D01*
X186335937Y-34841184D01*
X186335921Y-34791052D01*
X186195274Y-34791052D01*
X186130564Y-34792617D01*
X186080130Y-34796785D01*
X186052094Y-34802773D01*
X186049057Y-34805197D01*
X186031273Y-34808918D01*
X185987992Y-34807394D01*
X185926651Y-34801075D01*
X185884737Y-34795240D01*
X185808737Y-34783778D01*
X185739230Y-34773430D01*
X185686997Y-34765796D01*
X185671678Y-34763627D01*
X185631653Y-34751232D01*
X185617368Y-34731808D01*
X185613025Y-34723898D01*
X185597490Y-34717863D01*
X185567001Y-34713466D01*
X185517800Y-34710469D01*
X185446126Y-34708635D01*
X185348219Y-34707725D01*
X185233026Y-34707500D01*
X185110086Y-34707628D01*
X185016559Y-34708230D01*
X184948440Y-34709639D01*
X184901719Y-34712181D01*
X184872391Y-34716189D01*
X184856449Y-34721991D01*
X184849885Y-34729917D01*
X184848684Y-34739133D01*
X184838460Y-34768385D01*
X184804970Y-34785031D01*
X184743988Y-34790968D01*
X184733017Y-34791052D01*
X184629746Y-34801706D01*
X184512453Y-34831033D01*
X184391715Y-34875084D01*
X184278111Y-34929911D01*
X184182219Y-34991564D01*
X184169799Y-35001332D01*
X184129318Y-35033115D01*
X184105345Y-35045844D01*
X184088604Y-35041729D01*
X184071419Y-35024750D01*
X184020664Y-34991492D01*
X183954607Y-34978725D01*
X183883474Y-34985365D01*
X183817486Y-35010327D01*
X183766868Y-35052529D01*
X183763203Y-35057434D01*
X183725328Y-35136211D01*
X183718281Y-35217754D01*
X183741285Y-35295487D01*
X183793563Y-35362835D01*
X183799956Y-35368396D01*
X183837073Y-35394813D01*
X183874733Y-35406447D01*
X183927676Y-35407287D01*
X183940902Y-35406542D01*
X183992703Y-35404641D01*
X184019386Y-35408996D01*
X184029045Y-35422138D01*
X184030037Y-35434408D01*
X184032061Y-35470002D01*
X184037086Y-35523533D01*
X184040697Y-35555559D01*
X184045934Y-35606427D01*
X184043756Y-35632468D01*
X184031125Y-35641986D01*
X184008625Y-35643289D01*
X183995282Y-35638986D01*
X183973756Y-35625057D01*
X183942452Y-35599977D01*
X183899776Y-35562219D01*
X183844132Y-35510256D01*
X183773925Y-35442562D01*
X183687560Y-35357611D01*
X183583442Y-35253875D01*
X183459975Y-35129828D01*
X183315564Y-34983944D01*
X183245969Y-34913449D01*
X182525921Y-34183610D01*
X182526744Y-34299337D01*
G37*
X182526744Y-34299337D02*
X182527567Y-34415066D01*
X183127885Y-35025000D01*
X183728204Y-35634934D01*
X183728641Y-35914835D01*
X183729079Y-36194737D01*
X184094663Y-36194737D01*
X184104083Y-36265756D01*
X184107650Y-36298127D01*
X184113662Y-36359087D01*
X184121799Y-36444998D01*
X184131738Y-36552226D01*
X184143157Y-36677133D01*
X184155736Y-36816083D01*
X184169153Y-36965441D01*
X184183085Y-37121568D01*
X184197212Y-37280830D01*
X184211212Y-37439590D01*
X184224763Y-37594211D01*
X184237544Y-37741057D01*
X184249233Y-37876493D01*
X184259508Y-37996880D01*
X184268048Y-38098584D01*
X184274531Y-38177967D01*
X184278636Y-38231394D01*
X184280041Y-38255229D01*
X184280040Y-38255342D01*
X184269796Y-38274466D01*
X184239026Y-38313955D01*
X184187311Y-38374266D01*
X184114233Y-38455861D01*
X184019373Y-38559198D01*
X183902313Y-38684738D01*
X183762633Y-38832940D01*
X183599916Y-39004263D01*
X183554179Y-39052237D01*
X182828805Y-39812566D01*
X182887449Y-39871052D01*
X182946092Y-39929539D01*
X183040974Y-39826310D01*
X183075685Y-39789003D01*
X183129906Y-39731311D01*
X183200059Y-39657013D01*
X183282568Y-39569889D01*
X183373855Y-39473718D01*
X183470342Y-39372280D01*
X183528065Y-39311695D01*
X183636434Y-39198197D01*
X183724028Y-39107285D01*
X183793080Y-39037307D01*
X183845824Y-38986610D01*
X183884494Y-38953540D01*
X183911323Y-38936444D01*
X183928544Y-38933669D01*
X183938392Y-38943563D01*
X183943099Y-38964471D01*
X183944899Y-38994741D01*
X183945141Y-39003002D01*
X183957658Y-39059909D01*
X183988497Y-39128693D01*
X184031503Y-39198475D01*
X184080520Y-39258378D01*
X184100134Y-39276882D01*
X184200770Y-39341628D01*
X184318327Y-39377854D01*
X184422262Y-39386447D01*
X184540049Y-39370239D01*
X184648831Y-39322712D01*
X184745110Y-39245511D01*
X184762875Y-39226295D01*
X184827832Y-39152500D01*
X185951579Y-39152500D01*
X185951579Y-39386447D01*
X186252368Y-39386447D01*
X186252368Y-39277152D01*
X186256143Y-39202539D01*
X186268825Y-39150750D01*
X186284237Y-39122580D01*
X186295250Y-39102424D01*
X186304679Y-39073200D01*
X186313151Y-39030575D01*
X186321290Y-38970217D01*
X186329721Y-38887793D01*
X186339068Y-38778972D01*
X186345469Y-38698017D01*
X186374831Y-38318732D01*
X187095659Y-39048938D01*
X187225992Y-39181066D01*
X187351108Y-39308096D01*
X187468721Y-39427695D01*
X187576545Y-39537528D01*
X187672295Y-39635263D01*
X187753683Y-39718566D01*
X187818423Y-39785104D01*
X187864230Y-39832542D01*
X187888792Y-39858520D01*
X187929145Y-39899649D01*
X187962805Y-39928335D01*
X187980910Y-39937895D01*
X188004035Y-39926697D01*
X188037743Y-39898719D01*
X188049169Y-39887326D01*
X188097617Y-39836757D01*
X187830881Y-39565702D01*
X187762831Y-39496652D01*
X187675085Y-39407774D01*
X187571492Y-39302959D01*
X187455900Y-39186097D01*
X187332159Y-39061079D01*
X187204119Y-38931795D01*
X187075628Y-38802136D01*
X186983454Y-38709179D01*
X186843342Y-38567520D01*
X186725632Y-38447591D01*
X186628820Y-38347768D01*
X186551399Y-38266428D01*
X186491864Y-38201948D01*
X186462358Y-38168277D01*
X186225409Y-38168277D01*
X186195743Y-38547592D01*
X186186797Y-38658777D01*
X186178142Y-38760453D01*
X186170271Y-38847304D01*
X186163672Y-38914018D01*
X186158836Y-38955279D01*
X186157280Y-38964506D01*
X186148482Y-39002105D01*
X184886681Y-39002105D01*
X184878258Y-38897173D01*
X184852828Y-38773195D01*
X184799611Y-38663524D01*
X184721963Y-38572156D01*
X184623237Y-38503083D01*
X184512428Y-38461620D01*
X184476480Y-38442171D01*
X184458483Y-38400430D01*
X184458106Y-38398589D01*
X184455947Y-38380967D01*
X184458616Y-38362922D01*
X184468720Y-38341108D01*
X184488863Y-38312177D01*
X184521651Y-38272783D01*
X184569690Y-38219577D01*
X184635584Y-38149214D01*
X184721940Y-38058346D01*
X184727520Y-38052493D01*
X184820405Y-37954956D01*
X184919155Y-37851067D01*
X185016984Y-37747977D01*
X185107107Y-37652839D01*
X185182738Y-37572804D01*
X185199605Y-37554911D01*
X185264265Y-37487444D01*
X185321705Y-37429709D01*
X185367801Y-37385675D01*
X185398431Y-37359314D01*
X185408715Y-37353521D01*
X185424052Y-37365646D01*
X185459917Y-37398910D01*
X185513488Y-37450542D01*
X185581940Y-37517775D01*
X185662447Y-37597837D01*
X185752187Y-37687961D01*
X185825532Y-37762198D01*
X186225409Y-38168277D01*
X186462358Y-38168277D01*
X186448709Y-38152703D01*
X186420429Y-38117071D01*
X186405517Y-38093429D01*
X186402199Y-38082480D01*
X186403456Y-38058586D01*
X186407274Y-38004501D01*
X186413407Y-37923338D01*
X186421607Y-37818210D01*
X186431627Y-37692228D01*
X186443220Y-37548505D01*
X186456140Y-37390154D01*
X186470138Y-37220287D01*
X186481419Y-37084528D01*
X186545250Y-36319106D01*
X186381004Y-36319106D01*
X186380297Y-36335624D01*
X186376969Y-36382145D01*
X186371290Y-36455378D01*
X186363526Y-36552028D01*
X186353943Y-36668805D01*
X186342811Y-36802414D01*
X186330395Y-36949563D01*
X186318480Y-37089271D01*
X186304984Y-37247787D01*
X186292413Y-37397421D01*
X186281055Y-37534602D01*
X186271198Y-37655759D01*
X186263130Y-37757320D01*
X186257140Y-37835712D01*
X186253515Y-37887363D01*
X186252509Y-37907423D01*
X186250940Y-37919908D01*
X186244722Y-37924862D01*
X186231459Y-37920218D01*
X186208753Y-37903909D01*
X186174208Y-37873868D01*
X186125427Y-37828027D01*
X186060013Y-37764320D01*
X185975569Y-37680679D01*
X185885971Y-37591299D01*
X185519574Y-37225186D01*
X185522141Y-37222434D01*
X185279951Y-37222434D01*
X185268913Y-37237550D01*
X185238013Y-37273142D01*
X185190347Y-37325941D01*
X185129013Y-37392673D01*
X185057107Y-37470070D01*
X184977727Y-37554858D01*
X184893969Y-37643767D01*
X184808930Y-37733526D01*
X184725708Y-37820864D01*
X184647399Y-37902509D01*
X184577100Y-37975191D01*
X184517909Y-38035637D01*
X184472922Y-38080578D01*
X184445236Y-38106742D01*
X184437686Y-38112072D01*
X184435197Y-38094867D01*
X184430030Y-38047348D01*
X184422470Y-37972489D01*
X184412800Y-37873264D01*
X184401305Y-37752649D01*
X184388269Y-37613618D01*
X184373976Y-37459145D01*
X184358710Y-37292206D01*
X184346521Y-37157597D01*
X184330929Y-36983054D01*
X184316523Y-36818627D01*
X184303547Y-36667299D01*
X184292241Y-36532053D01*
X184282848Y-36415870D01*
X184275611Y-36321735D01*
X184270772Y-36252630D01*
X184268573Y-36211538D01*
X184268824Y-36200868D01*
X184281970Y-36210372D01*
X184315446Y-36240920D01*
X184366326Y-36289556D01*
X184431683Y-36353323D01*
X184508591Y-36429265D01*
X184594124Y-36514424D01*
X184685354Y-36605845D01*
X184779356Y-36700569D01*
X184873202Y-36795641D01*
X184963967Y-36888103D01*
X185048723Y-36974999D01*
X185124544Y-37053372D01*
X185188503Y-37120265D01*
X185237674Y-37172722D01*
X185269131Y-37207785D01*
X185279951Y-37222434D01*
X185522141Y-37222434D01*
X185656202Y-37078760D01*
X185725784Y-37004448D01*
X185803881Y-36921483D01*
X185887406Y-36833102D01*
X185973270Y-36742541D01*
X186058385Y-36653036D01*
X186139664Y-36567823D01*
X186214019Y-36490139D01*
X186278363Y-36423220D01*
X186329606Y-36370303D01*
X186364663Y-36334623D01*
X186380444Y-36319416D01*
X186381004Y-36319106D01*
X186545250Y-36319106D01*
X186561204Y-36127807D01*
X187359286Y-35288485D01*
X188157368Y-34449164D01*
X188156781Y-34331852D01*
X188156194Y-34214539D01*
X188027275Y-34352253D01*
X187955124Y-34429063D01*
X187869940Y-34519304D01*
X187774021Y-34620575D01*
X187669666Y-34730476D01*
X187559174Y-34846604D01*
X187444844Y-34966558D01*
X187328975Y-35087936D01*
X187213865Y-35208338D01*
X187101814Y-35325362D01*
X186995119Y-35436606D01*
X186896080Y-35539669D01*
X186806997Y-35632150D01*
X186730166Y-35711647D01*
X186667888Y-35775758D01*
X186622462Y-35822083D01*
X186596185Y-35848219D01*
X186590426Y-35853233D01*
X186590030Y-35835791D01*
X186592208Y-35791135D01*
X186596583Y-35725340D01*
X186602775Y-35644483D01*
X186605433Y-35612183D01*
X186625228Y-35375921D01*
X186470242Y-35375921D01*
X186462240Y-35413520D01*
X186458160Y-35443255D01*
X186452425Y-35499203D01*
X186445701Y-35574236D01*
X186438648Y-35661225D01*
X186436207Y-35693421D01*
X186429008Y-35785861D01*
X186421742Y-35871707D01*
X186415136Y-35942847D01*
X186409916Y-35991169D01*
X186408739Y-35999939D01*
X186404298Y-36017942D01*
X186394687Y-36039017D01*
X186377860Y-36065525D01*
X186351775Y-36099828D01*
X186314387Y-36144289D01*
X186263654Y-36201271D01*
X186197530Y-36273136D01*
X186113974Y-36362246D01*
X186010940Y-36470964D01*
X185905833Y-36581275D01*
X185801262Y-36690441D01*
X185703649Y-36791540D01*
X185615422Y-36882115D01*
X185539012Y-36959708D01*
X185476849Y-37021862D01*
X185431363Y-37066118D01*
X185404983Y-37090018D01*
X185399357Y-37093574D01*
X185384557Y-37080681D01*
X185349961Y-37047060D01*
X185298929Y-36996082D01*
X185234817Y-36931120D01*
X185160984Y-36855548D01*
X185107589Y-36800493D01*
X184828827Y-36512237D01*
X185650790Y-36512237D01*
X185650790Y-36194737D01*
X184648158Y-36194737D01*
X184648158Y-36336206D01*
X184464342Y-36152960D01*
X184333948Y-36022971D01*
X184080000Y-36022971D01*
X184077571Y-36043477D01*
X184065276Y-36054902D01*
X184035604Y-36059880D01*
X183981045Y-36061044D01*
X183971382Y-36061052D01*
X183862763Y-36061052D01*
X183862763Y-35769584D01*
X183971382Y-35877237D01*
X184032654Y-35942687D01*
X184069301Y-35992829D01*
X184080000Y-36022971D01*
X184333948Y-36022971D01*
X184280526Y-35969715D01*
X184280526Y-35806502D01*
X184280015Y-35731414D01*
X184277672Y-35683645D01*
X184272289Y-35657098D01*
X184262656Y-35645679D01*
X184248129Y-35643289D01*
X184231973Y-35639780D01*
X184220031Y-35625711D01*
X184210861Y-35595769D01*
X184203018Y-35544642D01*
X184195058Y-35467017D01*
X184192504Y-35438585D01*
X184186974Y-35375921D01*
X186470242Y-35375921D01*
X186625228Y-35375921D01*
X186837237Y-35375921D01*
X186837237Y-35225526D01*
X186747141Y-35225526D01*
X186694445Y-35224083D01*
X186665812Y-35217116D01*
X186662309Y-35212970D01*
X186477766Y-35212970D01*
X186468054Y-35222442D01*
X186434412Y-35225366D01*
X186411706Y-35225526D01*
X186335921Y-35225526D01*
X186053306Y-35225526D01*
X184173481Y-35225526D01*
X184237062Y-35160413D01*
X184335814Y-35080062D01*
X184458032Y-35018089D01*
X184605787Y-34973646D01*
X184752599Y-34949065D01*
X184848684Y-34937596D01*
X184848684Y-35058421D01*
X185617368Y-35058421D01*
X185617368Y-34921345D01*
X185730165Y-34932776D01*
X185808975Y-34942425D01*
X185892943Y-34955214D01*
X185943224Y-34964348D01*
X186043487Y-34984488D01*
X186048397Y-35105007D01*
X186053306Y-35225526D01*
X186335921Y-35225526D01*
X186335921Y-35158684D01*
X186338131Y-35116810D01*
X186343650Y-35093536D01*
X186345874Y-35091842D01*
X186370613Y-35102560D01*
X186406757Y-35128563D01*
X186442990Y-35160623D01*
X186467999Y-35189511D01*
X186470227Y-35193267D01*
X186477766Y-35212970D01*
X186662309Y-35212970D01*
X186651919Y-35200674D01*
X186646311Y-35182762D01*
X186623422Y-35136279D01*
X186579460Y-35080400D01*
X186521989Y-35022960D01*
X186458573Y-34971793D01*
X186416918Y-34945143D01*
X186369466Y-34915972D01*
X186345141Y-34891467D01*
X186336595Y-34862572D01*
X186335938Y-34845362D01*
X186335937Y-34841184D01*
X185483684Y-34841184D01*
X185483684Y-34924737D01*
X184982368Y-34924737D01*
X184982368Y-34841184D01*
X185483684Y-34841184D01*
X186335937Y-34841184D01*
X186335921Y-34791052D01*
X186195274Y-34791052D01*
X186130564Y-34792617D01*
X186080130Y-34796785D01*
X186052094Y-34802773D01*
X186049057Y-34805197D01*
X186031273Y-34808918D01*
X185987992Y-34807394D01*
X185926651Y-34801075D01*
X185884737Y-34795240D01*
X185808737Y-34783778D01*
X185739230Y-34773430D01*
X185686997Y-34765796D01*
X185671678Y-34763627D01*
X185631653Y-34751232D01*
X185617368Y-34731808D01*
X185613025Y-34723898D01*
X185597490Y-34717863D01*
X185567001Y-34713466D01*
X185517800Y-34710469D01*
X185446126Y-34708635D01*
X185348219Y-34707725D01*
X185233026Y-34707500D01*
X185110086Y-34707628D01*
X185016559Y-34708230D01*
X184948440Y-34709639D01*
X184901719Y-34712181D01*
X184872391Y-34716189D01*
X184856449Y-34721991D01*
X184849885Y-34729917D01*
X184848684Y-34739133D01*
X184838460Y-34768385D01*
X184804970Y-34785031D01*
X184743988Y-34790968D01*
X184733017Y-34791052D01*
X184629746Y-34801706D01*
X184512453Y-34831033D01*
X184391715Y-34875084D01*
X184278111Y-34929911D01*
X184182219Y-34991564D01*
X184169799Y-35001332D01*
X184129318Y-35033115D01*
X184105345Y-35045844D01*
X184088604Y-35041729D01*
X184071419Y-35024750D01*
X184020664Y-34991492D01*
X183954607Y-34978725D01*
X183883474Y-34985365D01*
X183817486Y-35010327D01*
X183766868Y-35052529D01*
X183763203Y-35057434D01*
X183725328Y-35136211D01*
X183718281Y-35217754D01*
X183741285Y-35295487D01*
X183793563Y-35362835D01*
X183799956Y-35368396D01*
X183837073Y-35394813D01*
X183874733Y-35406447D01*
X183927676Y-35407287D01*
X183940902Y-35406542D01*
X183992703Y-35404641D01*
X184019386Y-35408996D01*
X184029045Y-35422138D01*
X184030037Y-35434408D01*
X184032061Y-35470002D01*
X184037086Y-35523533D01*
X184040697Y-35555559D01*
X184045934Y-35606427D01*
X184043756Y-35632468D01*
X184031125Y-35641986D01*
X184008625Y-35643289D01*
X183995282Y-35638986D01*
X183973756Y-35625057D01*
X183942452Y-35599977D01*
X183899776Y-35562219D01*
X183844132Y-35510256D01*
X183773925Y-35442562D01*
X183687560Y-35357611D01*
X183583442Y-35253875D01*
X183459975Y-35129828D01*
X183315564Y-34983944D01*
X183245969Y-34913449D01*
X182525921Y-34183610D01*
X182526744Y-34299337D01*
G36*
X183027237Y-42210526D02*
G01*
X187706184Y-42210526D01*
X187706184Y-41057500D01*
X183027237Y-41057500D01*
X183027237Y-42210526D01*
G37*
X183027237Y-42210526D02*
X187706184Y-42210526D01*
X187706184Y-41057500D01*
X183027237Y-41057500D01*
X183027237Y-42210526D01*
D12*
X134100000Y-84550000D02*
G75*
G03X134100000Y-84550000I-950000J0D01*
G01*
X135350000Y-89300000D02*
G75*
G03X135350000Y-89300000I-950000J0D01*
G01*
X141600000Y-82300000D02*
G75*
G03X141600000Y-82300000I-950000J0D01*
G01*
X137100000Y-79800000D02*
G75*
G03X137100000Y-79800000I-950000J0D01*
G01*
X82850000Y-90800000D02*
G75*
G03X82850000Y-90800000I-950000J0D01*
G01*
X68100000Y-90050000D02*
G75*
G03X68100000Y-90050000I-950000J0D01*
G01*
X77350000Y-90050000D02*
G75*
G03X77350000Y-90050000I-950000J0D01*
G01*
X91350000Y-81800000D02*
G75*
G03X91350000Y-81800000I-950000J0D01*
G01*
X86850000Y-79550000D02*
G75*
G03X86850000Y-79550000I-950000J0D01*
G01*
X66850000Y-94550000D02*
G75*
G03X66850000Y-94550000I-950000J0D01*
G01*
X113850000Y-92800000D02*
G75*
G03X113850000Y-92800000I-950000J0D01*
G01*
X101850000Y-91800000D02*
G75*
G03X101850000Y-91800000I-950000J0D01*
G01*
D13*
X134888095Y-85650380D02*
X134316666Y-85650380D01*
X134602380Y-86650380D02*
X134602380Y-85650380D01*
X133983333Y-86650380D02*
X133983333Y-85650380D01*
X133602380Y-85650380D01*
X133507142Y-85698000D01*
X133459523Y-85745619D01*
X133411904Y-85840857D01*
X133411904Y-85983714D01*
X133459523Y-86078952D01*
X133507142Y-86126571D01*
X133602380Y-86174190D01*
X133983333Y-86174190D01*
X132459523Y-86650380D02*
X133030952Y-86650380D01*
X132745238Y-86650380D02*
X132745238Y-85650380D01*
X132840476Y-85793238D01*
X132935714Y-85888476D01*
X133030952Y-85936095D01*
X132126190Y-85650380D02*
X131507142Y-85650380D01*
X131840476Y-86031333D01*
X131697619Y-86031333D01*
X131602380Y-86078952D01*
X131554761Y-86126571D01*
X131507142Y-86221809D01*
X131507142Y-86459904D01*
X131554761Y-86555142D01*
X131602380Y-86602761D01*
X131697619Y-86650380D01*
X131983333Y-86650380D01*
X132078571Y-86602761D01*
X132126190Y-86555142D01*
X135661904Y-90400380D02*
X135090476Y-90400380D01*
X135376190Y-91400380D02*
X135376190Y-90400380D01*
X134757142Y-91400380D02*
X134757142Y-90400380D01*
X134376190Y-90400380D01*
X134280952Y-90448000D01*
X134233333Y-90495619D01*
X134185714Y-90590857D01*
X134185714Y-90733714D01*
X134233333Y-90828952D01*
X134280952Y-90876571D01*
X134376190Y-90924190D01*
X134757142Y-90924190D01*
X133233333Y-91400380D02*
X133804761Y-91400380D01*
X133519047Y-91400380D02*
X133519047Y-90400380D01*
X133614285Y-90543238D01*
X133709523Y-90638476D01*
X133804761Y-90686095D01*
X141911904Y-83400380D02*
X141340476Y-83400380D01*
X141626190Y-84400380D02*
X141626190Y-83400380D01*
X141007142Y-84400380D02*
X141007142Y-83400380D01*
X140626190Y-83400380D01*
X140530952Y-83448000D01*
X140483333Y-83495619D01*
X140435714Y-83590857D01*
X140435714Y-83733714D01*
X140483333Y-83828952D01*
X140530952Y-83876571D01*
X140626190Y-83924190D01*
X141007142Y-83924190D01*
X140054761Y-83495619D02*
X140007142Y-83448000D01*
X139911904Y-83400380D01*
X139673809Y-83400380D01*
X139578571Y-83448000D01*
X139530952Y-83495619D01*
X139483333Y-83590857D01*
X139483333Y-83686095D01*
X139530952Y-83828952D01*
X140102380Y-84400380D01*
X139483333Y-84400380D01*
X137411904Y-80900380D02*
X136840476Y-80900380D01*
X137126190Y-81900380D02*
X137126190Y-80900380D01*
X136507142Y-81900380D02*
X136507142Y-80900380D01*
X136126190Y-80900380D01*
X136030952Y-80948000D01*
X135983333Y-80995619D01*
X135935714Y-81090857D01*
X135935714Y-81233714D01*
X135983333Y-81328952D01*
X136030952Y-81376571D01*
X136126190Y-81424190D01*
X136507142Y-81424190D01*
X135602380Y-80900380D02*
X134983333Y-80900380D01*
X135316666Y-81281333D01*
X135173809Y-81281333D01*
X135078571Y-81328952D01*
X135030952Y-81376571D01*
X134983333Y-81471809D01*
X134983333Y-81709904D01*
X135030952Y-81805142D01*
X135078571Y-81852761D01*
X135173809Y-81900380D01*
X135459523Y-81900380D01*
X135554761Y-81852761D01*
X135602380Y-81805142D01*
X83161904Y-91900380D02*
X82590476Y-91900380D01*
X82876190Y-92900380D02*
X82876190Y-91900380D01*
X82257142Y-92900380D02*
X82257142Y-91900380D01*
X81876190Y-91900380D01*
X81780952Y-91948000D01*
X81733333Y-91995619D01*
X81685714Y-92090857D01*
X81685714Y-92233714D01*
X81733333Y-92328952D01*
X81780952Y-92376571D01*
X81876190Y-92424190D01*
X82257142Y-92424190D01*
X80828571Y-92233714D02*
X80828571Y-92900380D01*
X81066666Y-91852761D02*
X81304761Y-92567047D01*
X80685714Y-92567047D01*
X68411904Y-91150380D02*
X67840476Y-91150380D01*
X68126190Y-92150380D02*
X68126190Y-91150380D01*
X67507142Y-92150380D02*
X67507142Y-91150380D01*
X67126190Y-91150380D01*
X67030952Y-91198000D01*
X66983333Y-91245619D01*
X66935714Y-91340857D01*
X66935714Y-91483714D01*
X66983333Y-91578952D01*
X67030952Y-91626571D01*
X67126190Y-91674190D01*
X67507142Y-91674190D01*
X66030952Y-91150380D02*
X66507142Y-91150380D01*
X66554761Y-91626571D01*
X66507142Y-91578952D01*
X66411904Y-91531333D01*
X66173809Y-91531333D01*
X66078571Y-91578952D01*
X66030952Y-91626571D01*
X65983333Y-91721809D01*
X65983333Y-91959904D01*
X66030952Y-92055142D01*
X66078571Y-92102761D01*
X66173809Y-92150380D01*
X66411904Y-92150380D01*
X66507142Y-92102761D01*
X66554761Y-92055142D01*
X77661904Y-91150380D02*
X77090476Y-91150380D01*
X77376190Y-92150380D02*
X77376190Y-91150380D01*
X76757142Y-92150380D02*
X76757142Y-91150380D01*
X76376190Y-91150380D01*
X76280952Y-91198000D01*
X76233333Y-91245619D01*
X76185714Y-91340857D01*
X76185714Y-91483714D01*
X76233333Y-91578952D01*
X76280952Y-91626571D01*
X76376190Y-91674190D01*
X76757142Y-91674190D01*
X75328571Y-91150380D02*
X75519047Y-91150380D01*
X75614285Y-91198000D01*
X75661904Y-91245619D01*
X75757142Y-91388476D01*
X75804761Y-91578952D01*
X75804761Y-91959904D01*
X75757142Y-92055142D01*
X75709523Y-92102761D01*
X75614285Y-92150380D01*
X75423809Y-92150380D01*
X75328571Y-92102761D01*
X75280952Y-92055142D01*
X75233333Y-91959904D01*
X75233333Y-91721809D01*
X75280952Y-91626571D01*
X75328571Y-91578952D01*
X75423809Y-91531333D01*
X75614285Y-91531333D01*
X75709523Y-91578952D01*
X75757142Y-91626571D01*
X75804761Y-91721809D01*
X91661904Y-82900380D02*
X91090476Y-82900380D01*
X91376190Y-83900380D02*
X91376190Y-82900380D01*
X90757142Y-83900380D02*
X90757142Y-82900380D01*
X90376190Y-82900380D01*
X90280952Y-82948000D01*
X90233333Y-82995619D01*
X90185714Y-83090857D01*
X90185714Y-83233714D01*
X90233333Y-83328952D01*
X90280952Y-83376571D01*
X90376190Y-83424190D01*
X90757142Y-83424190D01*
X89852380Y-82900380D02*
X89185714Y-82900380D01*
X89614285Y-83900380D01*
X87161904Y-80650380D02*
X86590476Y-80650380D01*
X86876190Y-81650380D02*
X86876190Y-80650380D01*
X86257142Y-81650380D02*
X86257142Y-80650380D01*
X85876190Y-80650380D01*
X85780952Y-80698000D01*
X85733333Y-80745619D01*
X85685714Y-80840857D01*
X85685714Y-80983714D01*
X85733333Y-81078952D01*
X85780952Y-81126571D01*
X85876190Y-81174190D01*
X86257142Y-81174190D01*
X85114285Y-81078952D02*
X85209523Y-81031333D01*
X85257142Y-80983714D01*
X85304761Y-80888476D01*
X85304761Y-80840857D01*
X85257142Y-80745619D01*
X85209523Y-80698000D01*
X85114285Y-80650380D01*
X84923809Y-80650380D01*
X84828571Y-80698000D01*
X84780952Y-80745619D01*
X84733333Y-80840857D01*
X84733333Y-80888476D01*
X84780952Y-80983714D01*
X84828571Y-81031333D01*
X84923809Y-81078952D01*
X85114285Y-81078952D01*
X85209523Y-81126571D01*
X85257142Y-81174190D01*
X85304761Y-81269428D01*
X85304761Y-81459904D01*
X85257142Y-81555142D01*
X85209523Y-81602761D01*
X85114285Y-81650380D01*
X84923809Y-81650380D01*
X84828571Y-81602761D01*
X84780952Y-81555142D01*
X84733333Y-81459904D01*
X84733333Y-81269428D01*
X84780952Y-81174190D01*
X84828571Y-81126571D01*
X84923809Y-81078952D01*
X67638095Y-95650380D02*
X67066666Y-95650380D01*
X67352380Y-96650380D02*
X67352380Y-95650380D01*
X66733333Y-96650380D02*
X66733333Y-95650380D01*
X66352380Y-95650380D01*
X66257142Y-95698000D01*
X66209523Y-95745619D01*
X66161904Y-95840857D01*
X66161904Y-95983714D01*
X66209523Y-96078952D01*
X66257142Y-96126571D01*
X66352380Y-96174190D01*
X66733333Y-96174190D01*
X65209523Y-96650380D02*
X65780952Y-96650380D01*
X65495238Y-96650380D02*
X65495238Y-95650380D01*
X65590476Y-95793238D01*
X65685714Y-95888476D01*
X65780952Y-95936095D01*
X64352380Y-95983714D02*
X64352380Y-96650380D01*
X64590476Y-95602761D02*
X64828571Y-96317047D01*
X64209523Y-96317047D01*
X114638095Y-93900380D02*
X114066666Y-93900380D01*
X114352380Y-94900380D02*
X114352380Y-93900380D01*
X113733333Y-94900380D02*
X113733333Y-93900380D01*
X113352380Y-93900380D01*
X113257142Y-93948000D01*
X113209523Y-93995619D01*
X113161904Y-94090857D01*
X113161904Y-94233714D01*
X113209523Y-94328952D01*
X113257142Y-94376571D01*
X113352380Y-94424190D01*
X113733333Y-94424190D01*
X112209523Y-94900380D02*
X112780952Y-94900380D01*
X112495238Y-94900380D02*
X112495238Y-93900380D01*
X112590476Y-94043238D01*
X112685714Y-94138476D01*
X112780952Y-94186095D01*
X111304761Y-93900380D02*
X111780952Y-93900380D01*
X111828571Y-94376571D01*
X111780952Y-94328952D01*
X111685714Y-94281333D01*
X111447619Y-94281333D01*
X111352380Y-94328952D01*
X111304761Y-94376571D01*
X111257142Y-94471809D01*
X111257142Y-94709904D01*
X111304761Y-94805142D01*
X111352380Y-94852761D01*
X111447619Y-94900380D01*
X111685714Y-94900380D01*
X111780952Y-94852761D01*
X111828571Y-94805142D01*
X102638095Y-92900380D02*
X102066666Y-92900380D01*
X102352380Y-93900380D02*
X102352380Y-92900380D01*
X101733333Y-93900380D02*
X101733333Y-92900380D01*
X101352380Y-92900380D01*
X101257142Y-92948000D01*
X101209523Y-92995619D01*
X101161904Y-93090857D01*
X101161904Y-93233714D01*
X101209523Y-93328952D01*
X101257142Y-93376571D01*
X101352380Y-93424190D01*
X101733333Y-93424190D01*
X100209523Y-93900380D02*
X100780952Y-93900380D01*
X100495238Y-93900380D02*
X100495238Y-92900380D01*
X100590476Y-93043238D01*
X100685714Y-93138476D01*
X100780952Y-93186095D01*
X99352380Y-92900380D02*
X99542857Y-92900380D01*
X99638095Y-92948000D01*
X99685714Y-92995619D01*
X99780952Y-93138476D01*
X99828571Y-93328952D01*
X99828571Y-93709904D01*
X99780952Y-93805142D01*
X99733333Y-93852761D01*
X99638095Y-93900380D01*
X99447619Y-93900380D01*
X99352380Y-93852761D01*
X99304761Y-93805142D01*
X99257142Y-93709904D01*
X99257142Y-93471809D01*
X99304761Y-93376571D01*
X99352380Y-93328952D01*
X99447619Y-93281333D01*
X99638095Y-93281333D01*
X99733333Y-93328952D01*
X99780952Y-93376571D01*
X99828571Y-93471809D01*
M02*
