M48
INCH,TZ
T1C0.0118
T2C0.0157
T3C0.0197
T4C0.0276
T5C0.0295
T6C0.0315
T7C0.0362
T8C0.0374
T9C0.0394
T10C0.0906
T11C0.1378
%
G90
G05
T1
X22913Y-17205
X22953Y-18307
X24980Y-39094
X25000Y-14272
X25000Y-17323
X25197Y-14764
X25394Y-14272
X25394Y-14961
X26063Y-17205
X26535Y-34941
X26634Y-36240
X26634Y-37028
X26870Y-17126
X26969Y-14961
X27165Y-17323
X27441Y-15906
X27520Y-16969
X28228Y-35433
X28622Y-33583
X28878Y-39075
X29035Y-35433
X29449Y-33583
X29587Y-35157
X29724Y-16240
X31043Y-33878
X32244Y-35256
X32815Y-38287
X32933Y-35354
X34390Y-35335
X34409Y-21969
X34606Y-31417
X35098Y-31811
X35098Y-35138
X35807Y-35335
X36969Y-26594
X37067Y-29409
X37657Y-27874
X38051Y-29350
X38937Y-35551
X39134Y-33583
X39331Y-21476
X39331Y-22461
X40118Y-30118
X40138Y-26575
X40315Y-36476
X40413Y-39488
X40433Y-29843
X40512Y-32106
X40531Y-26299
X41791Y-30827
X41811Y-38917
X42382Y-22165
X42441Y-26161
X42884Y-34528
X42904Y-33760
X43071Y-22165
X43071Y-29350
X43406Y-26240
X43760Y-36988
X44134Y-23012
X44370Y-30512
X44409Y-39764
X44449Y-28760
X44646Y-33780
X44665Y-16417
X44744Y-15866
X44744Y-35059
X45630Y-34370
X45728Y-17933
X45728Y-18327
X45866Y-22205
X46024Y-16831
X46142Y-26220
X46457Y-28504
X46476Y-26319
X46476Y-29193
X46614Y-39980
X46732Y-20531
X46732Y-28839
X46772Y-25846
X46791Y-29469
X47923Y-31703
X47992Y-32106
X48051Y-16024
X48091Y-32992
X48189Y-32402
X48189Y-33976
X48976Y-15472
X49272Y-22244
X49528Y-15472
X49567Y-35453
X49744Y-26102
X49862Y-22264
X50059Y-20531
X50157Y-30138
X50256Y-26102
X50453Y-25610
X50709Y-28366
X50787Y-21535
X50787Y-22146
X51004Y-14370
X51122Y-37087
X51378Y-16476
X51378Y-35354
X51378Y-36890
X51398Y-33366
X51437Y-20886
X51634Y-37087
X51949Y-32205
X51969Y-32835
X52028Y-28031
X52224Y-20886
X52224Y-35354
X52224Y-37087
X52500Y-31890
X52657Y-29213
X52913Y-14980
X52913Y-34567
X52953Y-27589
X53012Y-31516
X53031Y-14567
X53091Y-32047
X53110Y-15965
X53200Y-27298
X53209Y-13051
X53248Y-22362
X53327Y-25138
X53563Y-27313
X53583Y-22362
X53701Y-13878
X53799Y-16358
X53996Y-32205
X54094Y-16063
X54291Y-20098
X54311Y-23740
X54450Y-24841
X54646Y-33563
X54803Y-16201
X54862Y-28484
X54882Y-32500
X55059Y-26437
X55157Y-23799
X55177Y-22402
X55209Y-24843
X55276Y-35157
X55295Y-33937
X55413Y-28465
X55492Y-15827
X55531Y-23819
X55906Y-31604
X56181Y-37539
X56437Y-32461
X56516Y-36102
X56654Y-37126
X56742Y-31959
X57028Y-21260
X57047Y-32402
X58091Y-29921
X58278Y-23632
X58720Y-21535
X58957Y-23356
X59547Y-32667
X60315Y-21634
X60433Y-38287
X60679Y-32756
X60728Y-30551
X60728Y-30846
X60728Y-31142
X60728Y-31437
X60925Y-32500
X61024Y-30551
X61024Y-30846
X61024Y-31142
X61024Y-31437
X61063Y-20984
X61122Y-32362
X61280Y-27283
X61319Y-30551
X61319Y-30846
X61319Y-31142
X61319Y-31437
X61398Y-20512
X61555Y-29567
X61575Y-35256
X61614Y-30551
X61614Y-30846
X61614Y-31142
X61614Y-31437
X61772Y-27185
X62362Y-35256
X62362Y-37303
X62598Y-40650
X62657Y-38091
X62874Y-22795
X63199Y-23159
X63543Y-23415
X63917Y-38091
X64390Y-16142
X64390Y-17047
X64567Y-21142
X64567Y-21437
X64567Y-21732
X64567Y-22028
X64646Y-13406
X64783Y-23130
X64862Y-21142
X64862Y-21437
X64862Y-21732
X64862Y-22028
X64882Y-13406
X64902Y-37264
X64921Y-22933
X65020Y-15748
X65157Y-21142
X65157Y-21437
X65157Y-21732
X65157Y-22028
X65413Y-20118
X65453Y-21142
X65453Y-21437
X65453Y-21732
X65453Y-22028
X65512Y-35354
X65748Y-40669
X68681Y-41240
X71831Y-41240
X73248Y-15787
X74154Y-27362
X74272Y-14291
X74291Y-35413
X74980Y-25827
X74980Y-41220
X75059Y-15551
X75217Y-26693
X76594Y-38602
T2
X20669Y-13976
X24272Y-36614
X25020Y-35866
X25866Y-15630
X25866Y-15945
X25866Y-16260
X26181Y-15630
X26181Y-15945
X26181Y-16260
X26496Y-15630
X26496Y-15945
X26496Y-16260
X41398Y-31969
X42028Y-31969
X42480Y-14291
X42657Y-31969
X42677Y-14488
X43287Y-31969
X43917Y-31969
X52067Y-14705
X52382Y-14685
X52697Y-14685
X61024Y-33228
X61614Y-29016
X61654Y-32972
X61969Y-32972
X62136Y-30167
X62175Y-31929
X62205Y-29094
X62283Y-32972
X62431Y-30177
X62451Y-32028
X62520Y-29094
X62707Y-32185
X62717Y-30187
X62835Y-29094
X63878Y-27992
X63878Y-34803
X64193Y-27992
X64193Y-34803
X64508Y-27992
X64508Y-34803
X64823Y-27992
X64823Y-34803
X64862Y-23799
X65236Y-32579
X65256Y-30472
X65453Y-17323
X65492Y-23563
X65492Y-25787
X65531Y-29016
X65551Y-33760
X65610Y-19567
X65807Y-23563
X65925Y-19567
X65984Y-20679
X66004Y-22480
X66122Y-23583
X66240Y-19567
X66280Y-17323
X66280Y-25787
X66289Y-20797
X66319Y-22362
X66437Y-20522
X66467Y-22648
X66890Y-19291
X66890Y-22441
X66890Y-23898
X66909Y-20689
X67421Y-18189
X67461Y-24961
X67736Y-18189
X67776Y-24961
X68051Y-18189
X68091Y-24961
X68366Y-18189
X68406Y-24961
X68957Y-17126
X68957Y-26024
X68957Y-36496
X69075Y-27283
X69823Y-17126
X69823Y-26063
X69862Y-36496
X69941Y-27283
X70925Y-27283
X71004Y-16772
X71004Y-26378
X71043Y-36693
X71634Y-16772
X71634Y-26378
X71634Y-27283
X71634Y-36693
X71870Y-21161
X71870Y-22047
X71870Y-31575
X71870Y-32402
X72008Y-23720
X72008Y-24114
X72028Y-18996
X72028Y-19390
X72028Y-29508
X72028Y-29882
X72028Y-34075
X72028Y-34488
X72205Y-31575
X72205Y-32402
X72224Y-21161
X72224Y-22047
X72539Y-27283
X72736Y-36693
X72776Y-16772
X72776Y-26378
X73091Y-27283
X73248Y-36693
X73406Y-16772
X73406Y-26378
T3
X21811Y-16496
X22146Y-14075
X22323Y-16496
X22638Y-14075
X22835Y-16496
X23031Y-21260
X23031Y-21654
X23031Y-22047
X23031Y-22441
X23031Y-22933
X23130Y-13091
X23130Y-14075
X23346Y-16496
X23425Y-21260
X23425Y-21654
X23425Y-22047
X23425Y-22441
X23425Y-22933
X23622Y-13091
X23622Y-14075
X23819Y-22933
X23858Y-16496
X24114Y-13091
X24114Y-14075
X24213Y-22933
X24606Y-13091
X25098Y-13091
X25197Y-18307
X25197Y-20768
X25591Y-20768
X25689Y-18307
X25846Y-22362
X25984Y-20768
X26181Y-18307
X26378Y-20768
X26772Y-18307
X26772Y-20768
X27165Y-20768
X28898Y-21673
X28898Y-23051
X29390Y-22362
X30177Y-23051
X30315Y-13287
X30512Y-19291
X30669Y-23051
X30807Y-16732
X30906Y-13287
X30906Y-19291
X31161Y-23051
X31201Y-16732
X31299Y-19291
X31496Y-13287
X31594Y-16732
X31693Y-19291
X31988Y-16732
X32087Y-13287
X32087Y-19291
X32382Y-16732
X32480Y-19291
X32539Y-20787
X32539Y-21181
X32539Y-21575
X32677Y-13287
X32835Y-22854
X33228Y-22854
X33622Y-22854
X35472Y-14213
X35866Y-14213
X36378Y-22362
X36772Y-22362
X37402Y-13287
X37480Y-19291
X37657Y-16654
X37874Y-19291
X37992Y-13287
X38051Y-16654
X38268Y-19291
X38346Y-10059
X38445Y-16654
X38583Y-13287
X38661Y-19291
X38740Y-10059
X38839Y-16654
X39055Y-19291
X39173Y-13287
X39232Y-16654
X39449Y-19291
X39764Y-13287
X45226Y-11417
X45529Y-10687
X45529Y-12148
X46260Y-10384
X46260Y-12451
X46991Y-10687
X46991Y-12148
X47293Y-11417
X77313Y-43701
X77616Y-42970
X77616Y-44432
X78346Y-42667
X78346Y-44734
X79077Y-42970
X79077Y-44432
X79380Y-43701
X45226Y-43701
X45529Y-42970
X45529Y-44432
X46260Y-42667
X46260Y-44734
X46991Y-42970
X46991Y-44432
X47293Y-43701
X17864Y-11417
X18167Y-10687
X18167Y-12148
X18898Y-10384
X18898Y-12451
X19628Y-10687
X19628Y-12148
X19931Y-11417
X17864Y-43701
X18167Y-42970
X18167Y-44432
X18898Y-42667
X18898Y-44734
X19628Y-42970
X19628Y-44432
X19931Y-43701
X77313Y-11417
X77616Y-10687
X77616Y-12148
X78346Y-10384
X78346Y-12451
X79077Y-10687
X79077Y-12148
X79380Y-11417
T4
X22441Y-36220
X22441Y-37008
X22441Y-37795
X22441Y-38583
X22441Y-39370
X23228Y-35827
X23228Y-36614
X23228Y-37402
X23228Y-38189
X23228Y-38976
X23228Y-39764
X25256Y-28811
X25256Y-31811
X28256Y-28811
X28256Y-31811
X30252Y-31811
X30260Y-28807
X32256Y-31811
X32260Y-28807
X18110Y-35827
X18110Y-36614
X18110Y-37402
X18110Y-38189
X18110Y-38976
X18110Y-39764
X18898Y-36220
X18898Y-37008
X18898Y-37795
X18898Y-38583
X18898Y-39370
T5
X57047Y-44094
X57835Y-44094
X58622Y-44094
X18504Y-24409
X18504Y-25197
X29528Y-44094
X30315Y-44094
X31102Y-44094
X54626Y-10925
X55413Y-10925
X56201Y-10925
X56988Y-10925
X57776Y-10925
X25591Y-11024
X26378Y-11024
X66634Y-38091
X67421Y-38091
X68209Y-38091
X40551Y-44094
X41339Y-44094
X42126Y-44094
X42913Y-44094
X18504Y-27559
X18504Y-28346
X18504Y-29134
X78740Y-36024
X78740Y-36811
X73583Y-44094
X74370Y-44094
X52815Y-18327
X53602Y-18327
X54390Y-18327
X63681Y-10925
X64469Y-10925
X65256Y-10925
X33465Y-44094
X34252Y-44094
X35039Y-44094
X50098Y-10925
X50886Y-10925
X51673Y-10925
X52461Y-10925
X31890Y-11024
X32677Y-11024
X18504Y-31496
X18504Y-32283
X18504Y-33071
X28740Y-11024
X29528Y-11024
X67421Y-10925
X68209Y-10925
X68996Y-10925
X69783Y-10925
X70571Y-10925
X71358Y-10925
X72146Y-10925
X72933Y-10925
X73720Y-10925
X74508Y-10925
X61024Y-44094
X61811Y-44094
X78740Y-23819
X78740Y-24606
X35039Y-11024
X35827Y-11024
X36614Y-11024
X22441Y-11024
X23228Y-11024
X25591Y-44094
X26378Y-44094
X27165Y-44094
X56555Y-18327
X57343Y-18327
X58130Y-18327
X22441Y-44094
X23228Y-44094
X37402Y-44094
X38189Y-44094
X67283Y-44094
X68071Y-44094
X59941Y-10925
X60728Y-10925
X61516Y-10925
X70433Y-44094
X71220Y-44094
X42126Y-11024
X42913Y-11024
X70571Y-38091
X71358Y-38091
X72146Y-38091
X78740Y-14961
X78740Y-15748
X64173Y-44094
X64961Y-44094
X38976Y-11024
X39764Y-11024
X78740Y-26969
X78740Y-27756
X78740Y-39213
X78740Y-40000
T6
X61791Y-17953
X63169Y-17953
X28209Y-25610
X29587Y-25610
X60945Y-25197
X62323Y-25197
X23681Y-25610
X25059Y-25610
X57638Y-27283
X59016Y-27283
X57776Y-34626
X59154Y-34626
X47390Y-21457
X49311Y-21457
T7
X51181Y-41929
X51181Y-43189
X52165Y-41929
X52165Y-43189
T8
X78346Y-30512
X78346Y-31496
X78346Y-32480
X78346Y-33465
X78366Y-18307
X78366Y-19291
X78366Y-20276
X78366Y-21260
T9
X18898Y-17126
X18898Y-18110
T10
X49303Y-42996
X54043Y-42996
T11
X78346Y-43701
X18898Y-43701
X78346Y-11417
X46260Y-11417
X46260Y-43701
X18898Y-11417
T0
M30
