G04 #@! TF.GenerationSoftware,KiCad,Pcbnew,(5.1.5)-3*
G04 #@! TF.CreationDate,2020-01-22T21:50:43+01:00*
G04 #@! TF.ProjectId,Main Board,4d61696e-2042-46f6-9172-642e6b696361,rev?*
G04 #@! TF.SameCoordinates,Original*
G04 #@! TF.FileFunction,Soldermask,Bot*
G04 #@! TF.FilePolarity,Negative*
%FSLAX46Y46*%
G04 Gerber Fmt 4.6, Leading zero omitted, Abs format (unit mm)*
G04 Created by KiCad (PCBNEW (5.1.5)-3) date 2020-01-22 21:50:43*
%MOMM*%
%LPD*%
G04 APERTURE LIST*
%ADD10C,0.100000*%
G04 APERTURE END LIST*
D10*
G36*
X200035787Y-107585462D02*
G01*
X200035790Y-107585463D01*
X200035789Y-107585463D01*
X200682029Y-107853144D01*
X201263631Y-108241758D01*
X201758242Y-108736369D01*
X202146856Y-109317971D01*
X202261541Y-109594845D01*
X202414538Y-109964213D01*
X202551000Y-110650256D01*
X202551000Y-111349744D01*
X202414538Y-112035787D01*
X202414537Y-112035789D01*
X202146856Y-112682029D01*
X201758242Y-113263631D01*
X201263631Y-113758242D01*
X200682029Y-114146856D01*
X200225068Y-114336135D01*
X200035787Y-114414538D01*
X199349744Y-114551000D01*
X198650256Y-114551000D01*
X197964213Y-114414538D01*
X197774932Y-114336135D01*
X197317971Y-114146856D01*
X196736369Y-113758242D01*
X196241758Y-113263631D01*
X195853144Y-112682029D01*
X195585463Y-112035789D01*
X195585462Y-112035787D01*
X195449000Y-111349744D01*
X195449000Y-110650256D01*
X195585462Y-109964213D01*
X195738459Y-109594845D01*
X195853144Y-109317971D01*
X196241758Y-108736369D01*
X196736369Y-108241758D01*
X197317971Y-107853144D01*
X197964211Y-107585463D01*
X197964210Y-107585463D01*
X197964213Y-107585462D01*
X198650256Y-107449000D01*
X199349744Y-107449000D01*
X200035787Y-107585462D01*
G37*
G36*
X118535787Y-107585462D02*
G01*
X118535790Y-107585463D01*
X118535789Y-107585463D01*
X119182029Y-107853144D01*
X119763631Y-108241758D01*
X120258242Y-108736369D01*
X120646856Y-109317971D01*
X120761541Y-109594845D01*
X120914538Y-109964213D01*
X121051000Y-110650256D01*
X121051000Y-111349744D01*
X120914538Y-112035787D01*
X120914537Y-112035789D01*
X120646856Y-112682029D01*
X120258242Y-113263631D01*
X119763631Y-113758242D01*
X119182029Y-114146856D01*
X118725068Y-114336135D01*
X118535787Y-114414538D01*
X117849744Y-114551000D01*
X117150256Y-114551000D01*
X116464213Y-114414538D01*
X116274932Y-114336135D01*
X115817971Y-114146856D01*
X115236369Y-113758242D01*
X114741758Y-113263631D01*
X114353144Y-112682029D01*
X114085463Y-112035789D01*
X114085462Y-112035787D01*
X113949000Y-111349744D01*
X113949000Y-110650256D01*
X114085462Y-109964213D01*
X114238459Y-109594845D01*
X114353144Y-109317971D01*
X114741758Y-108736369D01*
X115236369Y-108241758D01*
X115817971Y-107853144D01*
X116464211Y-107585463D01*
X116464210Y-107585463D01*
X116464213Y-107585462D01*
X117150256Y-107449000D01*
X117849744Y-107449000D01*
X118535787Y-107585462D01*
G37*
G36*
X49035787Y-107585462D02*
G01*
X49035790Y-107585463D01*
X49035789Y-107585463D01*
X49682029Y-107853144D01*
X50263631Y-108241758D01*
X50758242Y-108736369D01*
X51146856Y-109317971D01*
X51261541Y-109594845D01*
X51414538Y-109964213D01*
X51551000Y-110650256D01*
X51551000Y-111349744D01*
X51414538Y-112035787D01*
X51414537Y-112035789D01*
X51146856Y-112682029D01*
X50758242Y-113263631D01*
X50263631Y-113758242D01*
X49682029Y-114146856D01*
X49225068Y-114336135D01*
X49035787Y-114414538D01*
X48349744Y-114551000D01*
X47650256Y-114551000D01*
X46964213Y-114414538D01*
X46774932Y-114336135D01*
X46317971Y-114146856D01*
X45736369Y-113758242D01*
X45241758Y-113263631D01*
X44853144Y-112682029D01*
X44585463Y-112035789D01*
X44585462Y-112035787D01*
X44449000Y-111349744D01*
X44449000Y-110650256D01*
X44585462Y-109964213D01*
X44738459Y-109594845D01*
X44853144Y-109317971D01*
X45241758Y-108736369D01*
X45736369Y-108241758D01*
X46317971Y-107853144D01*
X46964211Y-107585463D01*
X46964210Y-107585463D01*
X46964213Y-107585462D01*
X47650256Y-107449000D01*
X48349744Y-107449000D01*
X49035787Y-107585462D01*
G37*
G36*
X179027618Y-111083420D02*
G01*
X179108400Y-111107925D01*
X179150336Y-111120646D01*
X179263425Y-111181094D01*
X179362554Y-111262446D01*
X179443906Y-111361575D01*
X179504354Y-111474664D01*
X179504355Y-111474668D01*
X179541580Y-111597382D01*
X179551000Y-111693027D01*
X179551000Y-112306973D01*
X179541580Y-112402618D01*
X179525240Y-112456484D01*
X179504354Y-112525336D01*
X179443906Y-112638425D01*
X179362554Y-112737553D01*
X179263424Y-112818906D01*
X179150335Y-112879354D01*
X179118403Y-112889040D01*
X179027617Y-112916580D01*
X178900000Y-112929149D01*
X178772382Y-112916580D01*
X178681596Y-112889040D01*
X178649664Y-112879354D01*
X178536575Y-112818906D01*
X178437447Y-112737554D01*
X178356094Y-112638424D01*
X178295646Y-112525335D01*
X178285960Y-112493403D01*
X178258420Y-112402617D01*
X178249000Y-112306972D01*
X178249000Y-111693027D01*
X178258420Y-111597382D01*
X178295645Y-111474668D01*
X178295645Y-111474667D01*
X178335732Y-111399671D01*
X178356095Y-111361574D01*
X178369493Y-111345249D01*
X178437447Y-111262446D01*
X178536576Y-111181094D01*
X178649665Y-111120646D01*
X178691601Y-111107925D01*
X178772383Y-111083420D01*
X178900000Y-111070851D01*
X179027618Y-111083420D01*
G37*
G36*
X75127618Y-111083420D02*
G01*
X75208400Y-111107925D01*
X75250336Y-111120646D01*
X75363425Y-111181094D01*
X75462554Y-111262446D01*
X75543906Y-111361575D01*
X75604354Y-111474664D01*
X75604355Y-111474668D01*
X75641580Y-111597382D01*
X75651000Y-111693027D01*
X75651000Y-112306973D01*
X75641580Y-112402618D01*
X75625240Y-112456484D01*
X75604354Y-112525336D01*
X75543906Y-112638425D01*
X75462554Y-112737553D01*
X75363424Y-112818906D01*
X75250335Y-112879354D01*
X75218403Y-112889040D01*
X75127617Y-112916580D01*
X75000000Y-112929149D01*
X74872382Y-112916580D01*
X74781596Y-112889040D01*
X74749664Y-112879354D01*
X74636575Y-112818906D01*
X74537447Y-112737554D01*
X74456094Y-112638424D01*
X74395646Y-112525335D01*
X74385960Y-112493403D01*
X74358420Y-112402617D01*
X74349000Y-112306972D01*
X74349000Y-111693027D01*
X74358420Y-111597382D01*
X74395645Y-111474668D01*
X74395645Y-111474667D01*
X74435732Y-111399671D01*
X74456095Y-111361574D01*
X74469493Y-111345249D01*
X74537447Y-111262446D01*
X74636576Y-111181094D01*
X74749665Y-111120646D01*
X74791601Y-111107925D01*
X74872383Y-111083420D01*
X75000000Y-111070851D01*
X75127618Y-111083420D01*
G37*
G36*
X77127618Y-111083420D02*
G01*
X77208400Y-111107925D01*
X77250336Y-111120646D01*
X77363425Y-111181094D01*
X77462554Y-111262446D01*
X77543906Y-111361575D01*
X77604354Y-111474664D01*
X77604355Y-111474668D01*
X77641580Y-111597382D01*
X77651000Y-111693027D01*
X77651000Y-112306973D01*
X77641580Y-112402618D01*
X77625240Y-112456484D01*
X77604354Y-112525336D01*
X77543906Y-112638425D01*
X77462554Y-112737553D01*
X77363424Y-112818906D01*
X77250335Y-112879354D01*
X77218403Y-112889040D01*
X77127617Y-112916580D01*
X77000000Y-112929149D01*
X76872382Y-112916580D01*
X76781596Y-112889040D01*
X76749664Y-112879354D01*
X76636575Y-112818906D01*
X76537447Y-112737554D01*
X76456094Y-112638424D01*
X76395646Y-112525335D01*
X76385960Y-112493403D01*
X76358420Y-112402617D01*
X76349000Y-112306972D01*
X76349000Y-111693027D01*
X76358420Y-111597382D01*
X76395645Y-111474668D01*
X76395645Y-111474667D01*
X76435732Y-111399671D01*
X76456095Y-111361574D01*
X76469493Y-111345249D01*
X76537447Y-111262446D01*
X76636576Y-111181094D01*
X76749665Y-111120646D01*
X76791601Y-111107925D01*
X76872383Y-111083420D01*
X77000000Y-111070851D01*
X77127618Y-111083420D01*
G37*
G36*
X57127618Y-111083420D02*
G01*
X57208400Y-111107925D01*
X57250336Y-111120646D01*
X57363425Y-111181094D01*
X57462554Y-111262446D01*
X57543906Y-111361575D01*
X57604354Y-111474664D01*
X57604355Y-111474668D01*
X57641580Y-111597382D01*
X57651000Y-111693027D01*
X57651000Y-112306973D01*
X57641580Y-112402618D01*
X57625240Y-112456484D01*
X57604354Y-112525336D01*
X57543906Y-112638425D01*
X57462554Y-112737553D01*
X57363424Y-112818906D01*
X57250335Y-112879354D01*
X57218403Y-112889040D01*
X57127617Y-112916580D01*
X57000000Y-112929149D01*
X56872382Y-112916580D01*
X56781596Y-112889040D01*
X56749664Y-112879354D01*
X56636575Y-112818906D01*
X56537447Y-112737554D01*
X56456094Y-112638424D01*
X56395646Y-112525335D01*
X56385960Y-112493403D01*
X56358420Y-112402617D01*
X56349000Y-112306972D01*
X56349000Y-111693027D01*
X56358420Y-111597382D01*
X56395645Y-111474668D01*
X56395645Y-111474667D01*
X56435732Y-111399671D01*
X56456095Y-111361574D01*
X56469493Y-111345249D01*
X56537447Y-111262446D01*
X56636576Y-111181094D01*
X56749665Y-111120646D01*
X56791601Y-111107925D01*
X56872383Y-111083420D01*
X57000000Y-111070851D01*
X57127618Y-111083420D01*
G37*
G36*
X65127618Y-111083420D02*
G01*
X65208400Y-111107925D01*
X65250336Y-111120646D01*
X65363425Y-111181094D01*
X65462554Y-111262446D01*
X65543906Y-111361575D01*
X65604354Y-111474664D01*
X65604355Y-111474668D01*
X65641580Y-111597382D01*
X65651000Y-111693027D01*
X65651000Y-112306973D01*
X65641580Y-112402618D01*
X65625240Y-112456484D01*
X65604354Y-112525336D01*
X65543906Y-112638425D01*
X65462554Y-112737553D01*
X65363424Y-112818906D01*
X65250335Y-112879354D01*
X65218403Y-112889040D01*
X65127617Y-112916580D01*
X65000000Y-112929149D01*
X64872382Y-112916580D01*
X64781596Y-112889040D01*
X64749664Y-112879354D01*
X64636575Y-112818906D01*
X64537447Y-112737554D01*
X64456094Y-112638424D01*
X64395646Y-112525335D01*
X64385960Y-112493403D01*
X64358420Y-112402617D01*
X64349000Y-112306972D01*
X64349000Y-111693027D01*
X64358420Y-111597382D01*
X64395645Y-111474668D01*
X64395645Y-111474667D01*
X64435732Y-111399671D01*
X64456095Y-111361574D01*
X64469493Y-111345249D01*
X64537447Y-111262446D01*
X64636576Y-111181094D01*
X64749665Y-111120646D01*
X64791601Y-111107925D01*
X64872383Y-111083420D01*
X65000000Y-111070851D01*
X65127618Y-111083420D01*
G37*
G36*
X67127618Y-111083420D02*
G01*
X67208400Y-111107925D01*
X67250336Y-111120646D01*
X67363425Y-111181094D01*
X67462554Y-111262446D01*
X67543906Y-111361575D01*
X67604354Y-111474664D01*
X67604355Y-111474668D01*
X67641580Y-111597382D01*
X67651000Y-111693027D01*
X67651000Y-112306973D01*
X67641580Y-112402618D01*
X67625240Y-112456484D01*
X67604354Y-112525336D01*
X67543906Y-112638425D01*
X67462554Y-112737553D01*
X67363424Y-112818906D01*
X67250335Y-112879354D01*
X67218403Y-112889040D01*
X67127617Y-112916580D01*
X67000000Y-112929149D01*
X66872382Y-112916580D01*
X66781596Y-112889040D01*
X66749664Y-112879354D01*
X66636575Y-112818906D01*
X66537447Y-112737554D01*
X66456094Y-112638424D01*
X66395646Y-112525335D01*
X66385960Y-112493403D01*
X66358420Y-112402617D01*
X66349000Y-112306972D01*
X66349000Y-111693027D01*
X66358420Y-111597382D01*
X66395645Y-111474668D01*
X66395645Y-111474667D01*
X66435732Y-111399671D01*
X66456095Y-111361574D01*
X66469493Y-111345249D01*
X66537447Y-111262446D01*
X66636576Y-111181094D01*
X66749665Y-111120646D01*
X66791601Y-111107925D01*
X66872383Y-111083420D01*
X67000000Y-111070851D01*
X67127618Y-111083420D01*
G37*
G36*
X107127618Y-111083420D02*
G01*
X107208400Y-111107925D01*
X107250336Y-111120646D01*
X107363425Y-111181094D01*
X107462554Y-111262446D01*
X107543906Y-111361575D01*
X107604354Y-111474664D01*
X107604355Y-111474668D01*
X107641580Y-111597382D01*
X107651000Y-111693027D01*
X107651000Y-112306973D01*
X107641580Y-112402618D01*
X107625240Y-112456484D01*
X107604354Y-112525336D01*
X107543906Y-112638425D01*
X107462554Y-112737553D01*
X107363424Y-112818906D01*
X107250335Y-112879354D01*
X107218403Y-112889040D01*
X107127617Y-112916580D01*
X107000000Y-112929149D01*
X106872382Y-112916580D01*
X106781596Y-112889040D01*
X106749664Y-112879354D01*
X106636575Y-112818906D01*
X106537447Y-112737554D01*
X106456094Y-112638424D01*
X106395646Y-112525335D01*
X106385960Y-112493403D01*
X106358420Y-112402617D01*
X106349000Y-112306972D01*
X106349000Y-111693027D01*
X106358420Y-111597382D01*
X106395645Y-111474668D01*
X106395645Y-111474667D01*
X106435732Y-111399671D01*
X106456095Y-111361574D01*
X106469493Y-111345249D01*
X106537447Y-111262446D01*
X106636576Y-111181094D01*
X106749665Y-111120646D01*
X106791601Y-111107925D01*
X106872383Y-111083420D01*
X107000000Y-111070851D01*
X107127618Y-111083420D01*
G37*
G36*
X105127618Y-111083420D02*
G01*
X105208400Y-111107925D01*
X105250336Y-111120646D01*
X105363425Y-111181094D01*
X105462554Y-111262446D01*
X105543906Y-111361575D01*
X105604354Y-111474664D01*
X105604355Y-111474668D01*
X105641580Y-111597382D01*
X105651000Y-111693027D01*
X105651000Y-112306973D01*
X105641580Y-112402618D01*
X105625240Y-112456484D01*
X105604354Y-112525336D01*
X105543906Y-112638425D01*
X105462554Y-112737553D01*
X105363424Y-112818906D01*
X105250335Y-112879354D01*
X105218403Y-112889040D01*
X105127617Y-112916580D01*
X105000000Y-112929149D01*
X104872382Y-112916580D01*
X104781596Y-112889040D01*
X104749664Y-112879354D01*
X104636575Y-112818906D01*
X104537447Y-112737554D01*
X104456094Y-112638424D01*
X104395646Y-112525335D01*
X104385960Y-112493403D01*
X104358420Y-112402617D01*
X104349000Y-112306972D01*
X104349000Y-111693027D01*
X104358420Y-111597382D01*
X104395645Y-111474668D01*
X104395645Y-111474667D01*
X104435732Y-111399671D01*
X104456095Y-111361574D01*
X104469493Y-111345249D01*
X104537447Y-111262446D01*
X104636576Y-111181094D01*
X104749665Y-111120646D01*
X104791601Y-111107925D01*
X104872383Y-111083420D01*
X105000000Y-111070851D01*
X105127618Y-111083420D01*
G37*
G36*
X103127618Y-111083420D02*
G01*
X103208400Y-111107925D01*
X103250336Y-111120646D01*
X103363425Y-111181094D01*
X103462554Y-111262446D01*
X103543906Y-111361575D01*
X103604354Y-111474664D01*
X103604355Y-111474668D01*
X103641580Y-111597382D01*
X103651000Y-111693027D01*
X103651000Y-112306973D01*
X103641580Y-112402618D01*
X103625240Y-112456484D01*
X103604354Y-112525336D01*
X103543906Y-112638425D01*
X103462554Y-112737553D01*
X103363424Y-112818906D01*
X103250335Y-112879354D01*
X103218403Y-112889040D01*
X103127617Y-112916580D01*
X103000000Y-112929149D01*
X102872382Y-112916580D01*
X102781596Y-112889040D01*
X102749664Y-112879354D01*
X102636575Y-112818906D01*
X102537447Y-112737554D01*
X102456094Y-112638424D01*
X102395646Y-112525335D01*
X102385960Y-112493403D01*
X102358420Y-112402617D01*
X102349000Y-112306972D01*
X102349000Y-111693027D01*
X102358420Y-111597382D01*
X102395645Y-111474668D01*
X102395645Y-111474667D01*
X102435732Y-111399671D01*
X102456095Y-111361574D01*
X102469493Y-111345249D01*
X102537447Y-111262446D01*
X102636576Y-111181094D01*
X102749665Y-111120646D01*
X102791601Y-111107925D01*
X102872383Y-111083420D01*
X103000000Y-111070851D01*
X103127618Y-111083420D01*
G37*
G36*
X85127618Y-111083420D02*
G01*
X85208400Y-111107925D01*
X85250336Y-111120646D01*
X85363425Y-111181094D01*
X85462554Y-111262446D01*
X85543906Y-111361575D01*
X85604354Y-111474664D01*
X85604355Y-111474668D01*
X85641580Y-111597382D01*
X85651000Y-111693027D01*
X85651000Y-112306973D01*
X85641580Y-112402618D01*
X85625240Y-112456484D01*
X85604354Y-112525336D01*
X85543906Y-112638425D01*
X85462554Y-112737553D01*
X85363424Y-112818906D01*
X85250335Y-112879354D01*
X85218403Y-112889040D01*
X85127617Y-112916580D01*
X85000000Y-112929149D01*
X84872382Y-112916580D01*
X84781596Y-112889040D01*
X84749664Y-112879354D01*
X84636575Y-112818906D01*
X84537447Y-112737554D01*
X84456094Y-112638424D01*
X84395646Y-112525335D01*
X84385960Y-112493403D01*
X84358420Y-112402617D01*
X84349000Y-112306972D01*
X84349000Y-111693027D01*
X84358420Y-111597382D01*
X84395645Y-111474668D01*
X84395645Y-111474667D01*
X84435732Y-111399671D01*
X84456095Y-111361574D01*
X84469493Y-111345249D01*
X84537447Y-111262446D01*
X84636576Y-111181094D01*
X84749665Y-111120646D01*
X84791601Y-111107925D01*
X84872383Y-111083420D01*
X85000000Y-111070851D01*
X85127618Y-111083420D01*
G37*
G36*
X145027618Y-111083420D02*
G01*
X145108400Y-111107925D01*
X145150336Y-111120646D01*
X145263425Y-111181094D01*
X145362554Y-111262446D01*
X145443906Y-111361575D01*
X145504354Y-111474664D01*
X145504355Y-111474668D01*
X145541580Y-111597382D01*
X145551000Y-111693027D01*
X145551000Y-112306973D01*
X145541580Y-112402618D01*
X145525240Y-112456484D01*
X145504354Y-112525336D01*
X145443906Y-112638425D01*
X145362554Y-112737553D01*
X145263424Y-112818906D01*
X145150335Y-112879354D01*
X145118403Y-112889040D01*
X145027617Y-112916580D01*
X144900000Y-112929149D01*
X144772382Y-112916580D01*
X144681596Y-112889040D01*
X144649664Y-112879354D01*
X144536575Y-112818906D01*
X144437447Y-112737554D01*
X144356094Y-112638424D01*
X144295646Y-112525335D01*
X144285960Y-112493403D01*
X144258420Y-112402617D01*
X144249000Y-112306972D01*
X144249000Y-111693027D01*
X144258420Y-111597382D01*
X144295645Y-111474668D01*
X144295645Y-111474667D01*
X144335732Y-111399671D01*
X144356095Y-111361574D01*
X144369493Y-111345249D01*
X144437447Y-111262446D01*
X144536576Y-111181094D01*
X144649665Y-111120646D01*
X144691601Y-111107925D01*
X144772383Y-111083420D01*
X144900000Y-111070851D01*
X145027618Y-111083420D01*
G37*
G36*
X95127618Y-111083420D02*
G01*
X95208400Y-111107925D01*
X95250336Y-111120646D01*
X95363425Y-111181094D01*
X95462554Y-111262446D01*
X95543906Y-111361575D01*
X95604354Y-111474664D01*
X95604355Y-111474668D01*
X95641580Y-111597382D01*
X95651000Y-111693027D01*
X95651000Y-112306973D01*
X95641580Y-112402618D01*
X95625240Y-112456484D01*
X95604354Y-112525336D01*
X95543906Y-112638425D01*
X95462554Y-112737553D01*
X95363424Y-112818906D01*
X95250335Y-112879354D01*
X95218403Y-112889040D01*
X95127617Y-112916580D01*
X95000000Y-112929149D01*
X94872382Y-112916580D01*
X94781596Y-112889040D01*
X94749664Y-112879354D01*
X94636575Y-112818906D01*
X94537447Y-112737554D01*
X94456094Y-112638424D01*
X94395646Y-112525335D01*
X94385960Y-112493403D01*
X94358420Y-112402617D01*
X94349000Y-112306972D01*
X94349000Y-111693027D01*
X94358420Y-111597382D01*
X94395645Y-111474668D01*
X94395645Y-111474667D01*
X94435732Y-111399671D01*
X94456095Y-111361574D01*
X94469493Y-111345249D01*
X94537447Y-111262446D01*
X94636576Y-111181094D01*
X94749665Y-111120646D01*
X94791601Y-111107925D01*
X94872383Y-111083420D01*
X95000000Y-111070851D01*
X95127618Y-111083420D01*
G37*
G36*
X163127618Y-111083420D02*
G01*
X163208400Y-111107925D01*
X163250336Y-111120646D01*
X163363425Y-111181094D01*
X163462554Y-111262446D01*
X163543906Y-111361575D01*
X163604354Y-111474664D01*
X163604355Y-111474668D01*
X163641580Y-111597382D01*
X163651000Y-111693027D01*
X163651000Y-112306973D01*
X163641580Y-112402618D01*
X163625240Y-112456484D01*
X163604354Y-112525336D01*
X163543906Y-112638425D01*
X163462554Y-112737553D01*
X163363424Y-112818906D01*
X163250335Y-112879354D01*
X163218403Y-112889040D01*
X163127617Y-112916580D01*
X163000000Y-112929149D01*
X162872382Y-112916580D01*
X162781596Y-112889040D01*
X162749664Y-112879354D01*
X162636575Y-112818906D01*
X162537447Y-112737554D01*
X162456094Y-112638424D01*
X162395646Y-112525335D01*
X162385960Y-112493403D01*
X162358420Y-112402617D01*
X162349000Y-112306972D01*
X162349000Y-111693027D01*
X162358420Y-111597382D01*
X162395645Y-111474668D01*
X162395645Y-111474667D01*
X162435732Y-111399671D01*
X162456095Y-111361574D01*
X162469493Y-111345249D01*
X162537447Y-111262446D01*
X162636576Y-111181094D01*
X162749665Y-111120646D01*
X162791601Y-111107925D01*
X162872383Y-111083420D01*
X163000000Y-111070851D01*
X163127618Y-111083420D01*
G37*
G36*
X155127618Y-111083420D02*
G01*
X155208400Y-111107925D01*
X155250336Y-111120646D01*
X155363425Y-111181094D01*
X155462554Y-111262446D01*
X155543906Y-111361575D01*
X155604354Y-111474664D01*
X155604355Y-111474668D01*
X155641580Y-111597382D01*
X155651000Y-111693027D01*
X155651000Y-112306973D01*
X155641580Y-112402618D01*
X155625240Y-112456484D01*
X155604354Y-112525336D01*
X155543906Y-112638425D01*
X155462554Y-112737553D01*
X155363424Y-112818906D01*
X155250335Y-112879354D01*
X155218403Y-112889040D01*
X155127617Y-112916580D01*
X155000000Y-112929149D01*
X154872382Y-112916580D01*
X154781596Y-112889040D01*
X154749664Y-112879354D01*
X154636575Y-112818906D01*
X154537447Y-112737554D01*
X154456094Y-112638424D01*
X154395646Y-112525335D01*
X154385960Y-112493403D01*
X154358420Y-112402617D01*
X154349000Y-112306972D01*
X154349000Y-111693027D01*
X154358420Y-111597382D01*
X154395645Y-111474668D01*
X154395645Y-111474667D01*
X154435732Y-111399671D01*
X154456095Y-111361574D01*
X154469493Y-111345249D01*
X154537447Y-111262446D01*
X154636576Y-111181094D01*
X154749665Y-111120646D01*
X154791601Y-111107925D01*
X154872383Y-111083420D01*
X155000000Y-111070851D01*
X155127618Y-111083420D01*
G37*
G36*
X187027618Y-111083420D02*
G01*
X187108400Y-111107925D01*
X187150336Y-111120646D01*
X187263425Y-111181094D01*
X187362554Y-111262446D01*
X187443906Y-111361575D01*
X187504354Y-111474664D01*
X187504355Y-111474668D01*
X187541580Y-111597382D01*
X187551000Y-111693027D01*
X187551000Y-112306973D01*
X187541580Y-112402618D01*
X187525240Y-112456484D01*
X187504354Y-112525336D01*
X187443906Y-112638425D01*
X187362554Y-112737553D01*
X187263424Y-112818906D01*
X187150335Y-112879354D01*
X187118403Y-112889040D01*
X187027617Y-112916580D01*
X186900000Y-112929149D01*
X186772382Y-112916580D01*
X186681596Y-112889040D01*
X186649664Y-112879354D01*
X186536575Y-112818906D01*
X186437447Y-112737554D01*
X186356094Y-112638424D01*
X186295646Y-112525335D01*
X186285960Y-112493403D01*
X186258420Y-112402617D01*
X186249000Y-112306972D01*
X186249000Y-111693027D01*
X186258420Y-111597382D01*
X186295645Y-111474668D01*
X186295645Y-111474667D01*
X186335732Y-111399671D01*
X186356095Y-111361574D01*
X186369493Y-111345249D01*
X186437447Y-111262446D01*
X186536576Y-111181094D01*
X186649665Y-111120646D01*
X186691601Y-111107925D01*
X186772383Y-111083420D01*
X186900000Y-111070851D01*
X187027618Y-111083420D01*
G37*
G36*
X171027618Y-111083420D02*
G01*
X171108400Y-111107925D01*
X171150336Y-111120646D01*
X171263425Y-111181094D01*
X171362554Y-111262446D01*
X171443906Y-111361575D01*
X171504354Y-111474664D01*
X171504355Y-111474668D01*
X171541580Y-111597382D01*
X171551000Y-111693027D01*
X171551000Y-112306973D01*
X171541580Y-112402618D01*
X171525240Y-112456484D01*
X171504354Y-112525336D01*
X171443906Y-112638425D01*
X171362554Y-112737553D01*
X171263424Y-112818906D01*
X171150335Y-112879354D01*
X171118403Y-112889040D01*
X171027617Y-112916580D01*
X170900000Y-112929149D01*
X170772382Y-112916580D01*
X170681596Y-112889040D01*
X170649664Y-112879354D01*
X170536575Y-112818906D01*
X170437447Y-112737554D01*
X170356094Y-112638424D01*
X170295646Y-112525335D01*
X170285960Y-112493403D01*
X170258420Y-112402617D01*
X170249000Y-112306972D01*
X170249000Y-111693027D01*
X170258420Y-111597382D01*
X170295645Y-111474668D01*
X170295645Y-111474667D01*
X170335732Y-111399671D01*
X170356095Y-111361574D01*
X170369493Y-111345249D01*
X170437447Y-111262446D01*
X170536576Y-111181094D01*
X170649665Y-111120646D01*
X170691601Y-111107925D01*
X170772383Y-111083420D01*
X170900000Y-111070851D01*
X171027618Y-111083420D01*
G37*
G36*
X147027618Y-111083420D02*
G01*
X147108400Y-111107925D01*
X147150336Y-111120646D01*
X147263425Y-111181094D01*
X147362554Y-111262446D01*
X147443906Y-111361575D01*
X147504354Y-111474664D01*
X147504355Y-111474668D01*
X147541580Y-111597382D01*
X147551000Y-111693027D01*
X147551000Y-112306973D01*
X147541580Y-112402618D01*
X147525240Y-112456484D01*
X147504354Y-112525336D01*
X147443906Y-112638425D01*
X147362554Y-112737553D01*
X147263424Y-112818906D01*
X147150335Y-112879354D01*
X147118403Y-112889040D01*
X147027617Y-112916580D01*
X146900000Y-112929149D01*
X146772382Y-112916580D01*
X146681596Y-112889040D01*
X146649664Y-112879354D01*
X146536575Y-112818906D01*
X146437447Y-112737554D01*
X146356094Y-112638424D01*
X146295646Y-112525335D01*
X146285960Y-112493403D01*
X146258420Y-112402617D01*
X146249000Y-112306972D01*
X146249000Y-111693027D01*
X146258420Y-111597382D01*
X146295645Y-111474668D01*
X146295645Y-111474667D01*
X146335732Y-111399671D01*
X146356095Y-111361574D01*
X146369493Y-111345249D01*
X146437447Y-111262446D01*
X146536576Y-111181094D01*
X146649665Y-111120646D01*
X146691601Y-111107925D01*
X146772383Y-111083420D01*
X146900000Y-111070851D01*
X147027618Y-111083420D01*
G37*
G36*
X87127618Y-111083420D02*
G01*
X87208400Y-111107925D01*
X87250336Y-111120646D01*
X87363425Y-111181094D01*
X87462554Y-111262446D01*
X87543906Y-111361575D01*
X87604354Y-111474664D01*
X87604355Y-111474668D01*
X87641580Y-111597382D01*
X87651000Y-111693027D01*
X87651000Y-112306973D01*
X87641580Y-112402618D01*
X87625240Y-112456484D01*
X87604354Y-112525336D01*
X87543906Y-112638425D01*
X87462554Y-112737553D01*
X87363424Y-112818906D01*
X87250335Y-112879354D01*
X87218403Y-112889040D01*
X87127617Y-112916580D01*
X87000000Y-112929149D01*
X86872382Y-112916580D01*
X86781596Y-112889040D01*
X86749664Y-112879354D01*
X86636575Y-112818906D01*
X86537447Y-112737554D01*
X86456094Y-112638424D01*
X86395646Y-112525335D01*
X86385960Y-112493403D01*
X86358420Y-112402617D01*
X86349000Y-112306972D01*
X86349000Y-111693027D01*
X86358420Y-111597382D01*
X86395645Y-111474668D01*
X86395645Y-111474667D01*
X86435732Y-111399671D01*
X86456095Y-111361574D01*
X86469493Y-111345249D01*
X86537447Y-111262446D01*
X86636576Y-111181094D01*
X86749665Y-111120646D01*
X86791601Y-111107925D01*
X86872383Y-111083420D01*
X87000000Y-111070851D01*
X87127618Y-111083420D01*
G37*
G36*
X165491242Y-111078404D02*
G01*
X165528337Y-111089657D01*
X165562515Y-111107925D01*
X165592481Y-111132519D01*
X165617075Y-111162485D01*
X165635343Y-111196663D01*
X165646596Y-111233758D01*
X165651000Y-111278474D01*
X165651000Y-112721526D01*
X165646596Y-112766242D01*
X165635343Y-112803337D01*
X165617075Y-112837515D01*
X165592481Y-112867481D01*
X165562515Y-112892075D01*
X165528337Y-112910343D01*
X165491242Y-112921596D01*
X165446526Y-112926000D01*
X164553474Y-112926000D01*
X164508758Y-112921596D01*
X164471663Y-112910343D01*
X164437485Y-112892075D01*
X164407519Y-112867481D01*
X164382925Y-112837515D01*
X164364657Y-112803337D01*
X164353404Y-112766242D01*
X164349000Y-112721526D01*
X164349000Y-111278474D01*
X164353404Y-111233758D01*
X164364657Y-111196663D01*
X164382925Y-111162485D01*
X164407519Y-111132519D01*
X164437485Y-111107925D01*
X164471663Y-111089657D01*
X164508758Y-111078404D01*
X164553474Y-111074000D01*
X165446526Y-111074000D01*
X165491242Y-111078404D01*
G37*
G36*
X149391242Y-111078404D02*
G01*
X149428337Y-111089657D01*
X149462515Y-111107925D01*
X149492481Y-111132519D01*
X149517075Y-111162485D01*
X149535343Y-111196663D01*
X149546596Y-111233758D01*
X149551000Y-111278474D01*
X149551000Y-112721526D01*
X149546596Y-112766242D01*
X149535343Y-112803337D01*
X149517075Y-112837515D01*
X149492481Y-112867481D01*
X149462515Y-112892075D01*
X149428337Y-112910343D01*
X149391242Y-112921596D01*
X149346526Y-112926000D01*
X148453474Y-112926000D01*
X148408758Y-112921596D01*
X148371663Y-112910343D01*
X148337485Y-112892075D01*
X148307519Y-112867481D01*
X148282925Y-112837515D01*
X148264657Y-112803337D01*
X148253404Y-112766242D01*
X148249000Y-112721526D01*
X148249000Y-111278474D01*
X148253404Y-111233758D01*
X148264657Y-111196663D01*
X148282925Y-111162485D01*
X148307519Y-111132519D01*
X148337485Y-111107925D01*
X148371663Y-111089657D01*
X148408758Y-111078404D01*
X148453474Y-111074000D01*
X149346526Y-111074000D01*
X149391242Y-111078404D01*
G37*
G36*
X97491242Y-111078404D02*
G01*
X97528337Y-111089657D01*
X97562515Y-111107925D01*
X97592481Y-111132519D01*
X97617075Y-111162485D01*
X97635343Y-111196663D01*
X97646596Y-111233758D01*
X97651000Y-111278474D01*
X97651000Y-112721526D01*
X97646596Y-112766242D01*
X97635343Y-112803337D01*
X97617075Y-112837515D01*
X97592481Y-112867481D01*
X97562515Y-112892075D01*
X97528337Y-112910343D01*
X97491242Y-112921596D01*
X97446526Y-112926000D01*
X96553474Y-112926000D01*
X96508758Y-112921596D01*
X96471663Y-112910343D01*
X96437485Y-112892075D01*
X96407519Y-112867481D01*
X96382925Y-112837515D01*
X96364657Y-112803337D01*
X96353404Y-112766242D01*
X96349000Y-112721526D01*
X96349000Y-111278474D01*
X96353404Y-111233758D01*
X96364657Y-111196663D01*
X96382925Y-111162485D01*
X96407519Y-111132519D01*
X96437485Y-111107925D01*
X96471663Y-111089657D01*
X96508758Y-111078404D01*
X96553474Y-111074000D01*
X97446526Y-111074000D01*
X97491242Y-111078404D01*
G37*
G36*
X157491242Y-111078404D02*
G01*
X157528337Y-111089657D01*
X157562515Y-111107925D01*
X157592481Y-111132519D01*
X157617075Y-111162485D01*
X157635343Y-111196663D01*
X157646596Y-111233758D01*
X157651000Y-111278474D01*
X157651000Y-112721526D01*
X157646596Y-112766242D01*
X157635343Y-112803337D01*
X157617075Y-112837515D01*
X157592481Y-112867481D01*
X157562515Y-112892075D01*
X157528337Y-112910343D01*
X157491242Y-112921596D01*
X157446526Y-112926000D01*
X156553474Y-112926000D01*
X156508758Y-112921596D01*
X156471663Y-112910343D01*
X156437485Y-112892075D01*
X156407519Y-112867481D01*
X156382925Y-112837515D01*
X156364657Y-112803337D01*
X156353404Y-112766242D01*
X156349000Y-112721526D01*
X156349000Y-111278474D01*
X156353404Y-111233758D01*
X156364657Y-111196663D01*
X156382925Y-111162485D01*
X156407519Y-111132519D01*
X156437485Y-111107925D01*
X156471663Y-111089657D01*
X156508758Y-111078404D01*
X156553474Y-111074000D01*
X157446526Y-111074000D01*
X157491242Y-111078404D01*
G37*
G36*
X89491242Y-111078404D02*
G01*
X89528337Y-111089657D01*
X89562515Y-111107925D01*
X89592481Y-111132519D01*
X89617075Y-111162485D01*
X89635343Y-111196663D01*
X89646596Y-111233758D01*
X89651000Y-111278474D01*
X89651000Y-112721526D01*
X89646596Y-112766242D01*
X89635343Y-112803337D01*
X89617075Y-112837515D01*
X89592481Y-112867481D01*
X89562515Y-112892075D01*
X89528337Y-112910343D01*
X89491242Y-112921596D01*
X89446526Y-112926000D01*
X88553474Y-112926000D01*
X88508758Y-112921596D01*
X88471663Y-112910343D01*
X88437485Y-112892075D01*
X88407519Y-112867481D01*
X88382925Y-112837515D01*
X88364657Y-112803337D01*
X88353404Y-112766242D01*
X88349000Y-112721526D01*
X88349000Y-111278474D01*
X88353404Y-111233758D01*
X88364657Y-111196663D01*
X88382925Y-111162485D01*
X88407519Y-111132519D01*
X88437485Y-111107925D01*
X88471663Y-111089657D01*
X88508758Y-111078404D01*
X88553474Y-111074000D01*
X89446526Y-111074000D01*
X89491242Y-111078404D01*
G37*
G36*
X189391242Y-111078404D02*
G01*
X189428337Y-111089657D01*
X189462515Y-111107925D01*
X189492481Y-111132519D01*
X189517075Y-111162485D01*
X189535343Y-111196663D01*
X189546596Y-111233758D01*
X189551000Y-111278474D01*
X189551000Y-112721526D01*
X189546596Y-112766242D01*
X189535343Y-112803337D01*
X189517075Y-112837515D01*
X189492481Y-112867481D01*
X189462515Y-112892075D01*
X189428337Y-112910343D01*
X189391242Y-112921596D01*
X189346526Y-112926000D01*
X188453474Y-112926000D01*
X188408758Y-112921596D01*
X188371663Y-112910343D01*
X188337485Y-112892075D01*
X188307519Y-112867481D01*
X188282925Y-112837515D01*
X188264657Y-112803337D01*
X188253404Y-112766242D01*
X188249000Y-112721526D01*
X188249000Y-111278474D01*
X188253404Y-111233758D01*
X188264657Y-111196663D01*
X188282925Y-111162485D01*
X188307519Y-111132519D01*
X188337485Y-111107925D01*
X188371663Y-111089657D01*
X188408758Y-111078404D01*
X188453474Y-111074000D01*
X189346526Y-111074000D01*
X189391242Y-111078404D01*
G37*
G36*
X173391242Y-111078404D02*
G01*
X173428337Y-111089657D01*
X173462515Y-111107925D01*
X173492481Y-111132519D01*
X173517075Y-111162485D01*
X173535343Y-111196663D01*
X173546596Y-111233758D01*
X173551000Y-111278474D01*
X173551000Y-112721526D01*
X173546596Y-112766242D01*
X173535343Y-112803337D01*
X173517075Y-112837515D01*
X173492481Y-112867481D01*
X173462515Y-112892075D01*
X173428337Y-112910343D01*
X173391242Y-112921596D01*
X173346526Y-112926000D01*
X172453474Y-112926000D01*
X172408758Y-112921596D01*
X172371663Y-112910343D01*
X172337485Y-112892075D01*
X172307519Y-112867481D01*
X172282925Y-112837515D01*
X172264657Y-112803337D01*
X172253404Y-112766242D01*
X172249000Y-112721526D01*
X172249000Y-111278474D01*
X172253404Y-111233758D01*
X172264657Y-111196663D01*
X172282925Y-111162485D01*
X172307519Y-111132519D01*
X172337485Y-111107925D01*
X172371663Y-111089657D01*
X172408758Y-111078404D01*
X172453474Y-111074000D01*
X173346526Y-111074000D01*
X173391242Y-111078404D01*
G37*
G36*
X69491242Y-111078404D02*
G01*
X69528337Y-111089657D01*
X69562515Y-111107925D01*
X69592481Y-111132519D01*
X69617075Y-111162485D01*
X69635343Y-111196663D01*
X69646596Y-111233758D01*
X69651000Y-111278474D01*
X69651000Y-112721526D01*
X69646596Y-112766242D01*
X69635343Y-112803337D01*
X69617075Y-112837515D01*
X69592481Y-112867481D01*
X69562515Y-112892075D01*
X69528337Y-112910343D01*
X69491242Y-112921596D01*
X69446526Y-112926000D01*
X68553474Y-112926000D01*
X68508758Y-112921596D01*
X68471663Y-112910343D01*
X68437485Y-112892075D01*
X68407519Y-112867481D01*
X68382925Y-112837515D01*
X68364657Y-112803337D01*
X68353404Y-112766242D01*
X68349000Y-112721526D01*
X68349000Y-111278474D01*
X68353404Y-111233758D01*
X68364657Y-111196663D01*
X68382925Y-111162485D01*
X68407519Y-111132519D01*
X68437485Y-111107925D01*
X68471663Y-111089657D01*
X68508758Y-111078404D01*
X68553474Y-111074000D01*
X69446526Y-111074000D01*
X69491242Y-111078404D01*
G37*
G36*
X59491242Y-111078404D02*
G01*
X59528337Y-111089657D01*
X59562515Y-111107925D01*
X59592481Y-111132519D01*
X59617075Y-111162485D01*
X59635343Y-111196663D01*
X59646596Y-111233758D01*
X59651000Y-111278474D01*
X59651000Y-112721526D01*
X59646596Y-112766242D01*
X59635343Y-112803337D01*
X59617075Y-112837515D01*
X59592481Y-112867481D01*
X59562515Y-112892075D01*
X59528337Y-112910343D01*
X59491242Y-112921596D01*
X59446526Y-112926000D01*
X58553474Y-112926000D01*
X58508758Y-112921596D01*
X58471663Y-112910343D01*
X58437485Y-112892075D01*
X58407519Y-112867481D01*
X58382925Y-112837515D01*
X58364657Y-112803337D01*
X58353404Y-112766242D01*
X58349000Y-112721526D01*
X58349000Y-111278474D01*
X58353404Y-111233758D01*
X58364657Y-111196663D01*
X58382925Y-111162485D01*
X58407519Y-111132519D01*
X58437485Y-111107925D01*
X58471663Y-111089657D01*
X58508758Y-111078404D01*
X58553474Y-111074000D01*
X59446526Y-111074000D01*
X59491242Y-111078404D01*
G37*
G36*
X181391242Y-111078404D02*
G01*
X181428337Y-111089657D01*
X181462515Y-111107925D01*
X181492481Y-111132519D01*
X181517075Y-111162485D01*
X181535343Y-111196663D01*
X181546596Y-111233758D01*
X181551000Y-111278474D01*
X181551000Y-112721526D01*
X181546596Y-112766242D01*
X181535343Y-112803337D01*
X181517075Y-112837515D01*
X181492481Y-112867481D01*
X181462515Y-112892075D01*
X181428337Y-112910343D01*
X181391242Y-112921596D01*
X181346526Y-112926000D01*
X180453474Y-112926000D01*
X180408758Y-112921596D01*
X180371663Y-112910343D01*
X180337485Y-112892075D01*
X180307519Y-112867481D01*
X180282925Y-112837515D01*
X180264657Y-112803337D01*
X180253404Y-112766242D01*
X180249000Y-112721526D01*
X180249000Y-111278474D01*
X180253404Y-111233758D01*
X180264657Y-111196663D01*
X180282925Y-111162485D01*
X180307519Y-111132519D01*
X180337485Y-111107925D01*
X180371663Y-111089657D01*
X180408758Y-111078404D01*
X180453474Y-111074000D01*
X181346526Y-111074000D01*
X181391242Y-111078404D01*
G37*
G36*
X109491242Y-111078404D02*
G01*
X109528337Y-111089657D01*
X109562515Y-111107925D01*
X109592481Y-111132519D01*
X109617075Y-111162485D01*
X109635343Y-111196663D01*
X109646596Y-111233758D01*
X109651000Y-111278474D01*
X109651000Y-112721526D01*
X109646596Y-112766242D01*
X109635343Y-112803337D01*
X109617075Y-112837515D01*
X109592481Y-112867481D01*
X109562515Y-112892075D01*
X109528337Y-112910343D01*
X109491242Y-112921596D01*
X109446526Y-112926000D01*
X108553474Y-112926000D01*
X108508758Y-112921596D01*
X108471663Y-112910343D01*
X108437485Y-112892075D01*
X108407519Y-112867481D01*
X108382925Y-112837515D01*
X108364657Y-112803337D01*
X108353404Y-112766242D01*
X108349000Y-112721526D01*
X108349000Y-111278474D01*
X108353404Y-111233758D01*
X108364657Y-111196663D01*
X108382925Y-111162485D01*
X108407519Y-111132519D01*
X108437485Y-111107925D01*
X108471663Y-111089657D01*
X108508758Y-111078404D01*
X108553474Y-111074000D01*
X109446526Y-111074000D01*
X109491242Y-111078404D01*
G37*
G36*
X79491242Y-111078404D02*
G01*
X79528337Y-111089657D01*
X79562515Y-111107925D01*
X79592481Y-111132519D01*
X79617075Y-111162485D01*
X79635343Y-111196663D01*
X79646596Y-111233758D01*
X79651000Y-111278474D01*
X79651000Y-112721526D01*
X79646596Y-112766242D01*
X79635343Y-112803337D01*
X79617075Y-112837515D01*
X79592481Y-112867481D01*
X79562515Y-112892075D01*
X79528337Y-112910343D01*
X79491242Y-112921596D01*
X79446526Y-112926000D01*
X78553474Y-112926000D01*
X78508758Y-112921596D01*
X78471663Y-112910343D01*
X78437485Y-112892075D01*
X78407519Y-112867481D01*
X78382925Y-112837515D01*
X78364657Y-112803337D01*
X78353404Y-112766242D01*
X78349000Y-112721526D01*
X78349000Y-111278474D01*
X78353404Y-111233758D01*
X78364657Y-111196663D01*
X78382925Y-111162485D01*
X78407519Y-111132519D01*
X78437485Y-111107925D01*
X78471663Y-111089657D01*
X78508758Y-111078404D01*
X78553474Y-111074000D01*
X79446526Y-111074000D01*
X79491242Y-111078404D01*
G37*
G36*
X137572585Y-107688802D02*
G01*
X137722410Y-107718604D01*
X138004674Y-107835521D01*
X138258705Y-108005259D01*
X138474741Y-108221295D01*
X138644479Y-108475326D01*
X138761396Y-108757590D01*
X138781040Y-108856349D01*
X138821000Y-109057239D01*
X138821000Y-109362761D01*
X138797492Y-109480941D01*
X138761396Y-109662410D01*
X138644479Y-109944674D01*
X138474741Y-110198705D01*
X138258705Y-110414741D01*
X138004674Y-110584479D01*
X137722410Y-110701396D01*
X137666566Y-110712504D01*
X137422761Y-110761000D01*
X137117239Y-110761000D01*
X136873434Y-110712504D01*
X136817590Y-110701396D01*
X136535326Y-110584479D01*
X136281295Y-110414741D01*
X136065259Y-110198705D01*
X135895521Y-109944674D01*
X135778604Y-109662410D01*
X135742508Y-109480941D01*
X135719000Y-109362761D01*
X135719000Y-109057239D01*
X135758960Y-108856349D01*
X135778604Y-108757590D01*
X135895521Y-108475326D01*
X136065259Y-108221295D01*
X136281295Y-108005259D01*
X136535326Y-107835521D01*
X136817590Y-107718604D01*
X136967415Y-107688802D01*
X137117239Y-107659000D01*
X137422761Y-107659000D01*
X137572585Y-107688802D01*
G37*
G36*
X125532585Y-107688802D02*
G01*
X125682410Y-107718604D01*
X125964674Y-107835521D01*
X126218705Y-108005259D01*
X126434741Y-108221295D01*
X126604479Y-108475326D01*
X126721396Y-108757590D01*
X126741040Y-108856349D01*
X126781000Y-109057239D01*
X126781000Y-109362761D01*
X126757492Y-109480941D01*
X126721396Y-109662410D01*
X126604479Y-109944674D01*
X126434741Y-110198705D01*
X126218705Y-110414741D01*
X125964674Y-110584479D01*
X125682410Y-110701396D01*
X125626566Y-110712504D01*
X125382761Y-110761000D01*
X125077239Y-110761000D01*
X124833434Y-110712504D01*
X124777590Y-110701396D01*
X124495326Y-110584479D01*
X124241295Y-110414741D01*
X124025259Y-110198705D01*
X123855521Y-109944674D01*
X123738604Y-109662410D01*
X123702508Y-109480941D01*
X123679000Y-109362761D01*
X123679000Y-109057239D01*
X123718960Y-108856349D01*
X123738604Y-108757590D01*
X123855521Y-108475326D01*
X124025259Y-108221295D01*
X124241295Y-108005259D01*
X124495326Y-107835521D01*
X124777590Y-107718604D01*
X124927415Y-107688802D01*
X125077239Y-107659000D01*
X125382761Y-107659000D01*
X125532585Y-107688802D01*
G37*
G36*
X130219059Y-108977860D02*
G01*
X130302188Y-109012293D01*
X130355732Y-109034472D01*
X130478735Y-109116660D01*
X130583340Y-109221265D01*
X130665528Y-109344268D01*
X130665529Y-109344270D01*
X130722140Y-109480941D01*
X130744797Y-109594845D01*
X130751000Y-109626033D01*
X130751000Y-109773967D01*
X130722140Y-109919059D01*
X130665528Y-110055732D01*
X130583340Y-110178735D01*
X130478735Y-110283340D01*
X130355732Y-110365528D01*
X130355731Y-110365529D01*
X130355730Y-110365529D01*
X130219059Y-110422140D01*
X130073968Y-110451000D01*
X129926032Y-110451000D01*
X129780941Y-110422140D01*
X129644270Y-110365529D01*
X129644269Y-110365529D01*
X129644268Y-110365528D01*
X129521265Y-110283340D01*
X129416660Y-110178735D01*
X129334472Y-110055732D01*
X129277860Y-109919059D01*
X129249000Y-109773967D01*
X129249000Y-109626033D01*
X129255204Y-109594845D01*
X129277860Y-109480941D01*
X129334471Y-109344270D01*
X129334472Y-109344268D01*
X129416660Y-109221265D01*
X129521265Y-109116660D01*
X129644268Y-109034472D01*
X129697813Y-109012293D01*
X129780941Y-108977860D01*
X129926032Y-108949000D01*
X130073968Y-108949000D01*
X130219059Y-108977860D01*
G37*
G36*
X132719059Y-108977860D02*
G01*
X132802188Y-109012293D01*
X132855732Y-109034472D01*
X132978735Y-109116660D01*
X133083340Y-109221265D01*
X133165528Y-109344268D01*
X133165529Y-109344270D01*
X133222140Y-109480941D01*
X133244797Y-109594845D01*
X133251000Y-109626033D01*
X133251000Y-109773967D01*
X133222140Y-109919059D01*
X133165528Y-110055732D01*
X133083340Y-110178735D01*
X132978735Y-110283340D01*
X132855732Y-110365528D01*
X132855731Y-110365529D01*
X132855730Y-110365529D01*
X132719059Y-110422140D01*
X132573968Y-110451000D01*
X132426032Y-110451000D01*
X132280941Y-110422140D01*
X132144270Y-110365529D01*
X132144269Y-110365529D01*
X132144268Y-110365528D01*
X132021265Y-110283340D01*
X131916660Y-110178735D01*
X131834472Y-110055732D01*
X131777860Y-109919059D01*
X131749000Y-109773967D01*
X131749000Y-109626033D01*
X131755204Y-109594845D01*
X131777860Y-109480941D01*
X131834471Y-109344270D01*
X131834472Y-109344268D01*
X131916660Y-109221265D01*
X132021265Y-109116660D01*
X132144268Y-109034472D01*
X132197813Y-109012293D01*
X132280941Y-108977860D01*
X132426032Y-108949000D01*
X132573968Y-108949000D01*
X132719059Y-108977860D01*
G37*
G36*
X133251000Y-107251000D02*
G01*
X131749000Y-107251000D01*
X131749000Y-105749000D01*
X133251000Y-105749000D01*
X133251000Y-107251000D01*
G37*
G36*
X130219059Y-105777860D02*
G01*
X130355732Y-105834472D01*
X130478735Y-105916660D01*
X130583340Y-106021265D01*
X130665528Y-106144268D01*
X130722140Y-106280941D01*
X130751000Y-106426033D01*
X130751000Y-106573967D01*
X130722140Y-106719059D01*
X130665528Y-106855732D01*
X130583340Y-106978735D01*
X130478735Y-107083340D01*
X130355732Y-107165528D01*
X130355731Y-107165529D01*
X130355730Y-107165529D01*
X130219059Y-107222140D01*
X130073968Y-107251000D01*
X129926032Y-107251000D01*
X129780941Y-107222140D01*
X129644270Y-107165529D01*
X129644269Y-107165529D01*
X129644268Y-107165528D01*
X129521265Y-107083340D01*
X129416660Y-106978735D01*
X129334472Y-106855732D01*
X129277860Y-106719059D01*
X129249000Y-106573967D01*
X129249000Y-106426033D01*
X129277860Y-106280941D01*
X129334472Y-106144268D01*
X129416660Y-106021265D01*
X129521265Y-105916660D01*
X129644268Y-105834472D01*
X129780941Y-105777860D01*
X129926032Y-105749000D01*
X130073968Y-105749000D01*
X130219059Y-105777860D01*
G37*
G36*
X200338855Y-100952140D02*
G01*
X200402618Y-100958420D01*
X200493404Y-100985960D01*
X200525336Y-100995646D01*
X200638425Y-101056094D01*
X200737554Y-101137446D01*
X200818906Y-101236575D01*
X200879354Y-101349664D01*
X200879355Y-101349668D01*
X200916580Y-101472382D01*
X200929149Y-101600000D01*
X200916580Y-101727618D01*
X200889040Y-101818404D01*
X200879354Y-101850336D01*
X200818906Y-101963425D01*
X200737554Y-102062554D01*
X200638425Y-102143906D01*
X200525336Y-102204354D01*
X200493404Y-102214040D01*
X200402618Y-102241580D01*
X200338855Y-102247860D01*
X200306974Y-102251000D01*
X199693026Y-102251000D01*
X199661145Y-102247860D01*
X199597382Y-102241580D01*
X199506596Y-102214040D01*
X199474664Y-102204354D01*
X199361575Y-102143906D01*
X199262446Y-102062554D01*
X199181094Y-101963425D01*
X199120646Y-101850336D01*
X199110960Y-101818404D01*
X199083420Y-101727618D01*
X199070851Y-101600000D01*
X199083420Y-101472382D01*
X199120645Y-101349668D01*
X199120646Y-101349664D01*
X199181094Y-101236575D01*
X199262446Y-101137446D01*
X199361575Y-101056094D01*
X199474664Y-100995646D01*
X199506596Y-100985960D01*
X199597382Y-100958420D01*
X199661145Y-100952140D01*
X199693026Y-100949000D01*
X200306974Y-100949000D01*
X200338855Y-100952140D01*
G37*
G36*
X59204473Y-100325938D02*
G01*
X59332049Y-100378782D01*
X59446859Y-100455495D01*
X59544505Y-100553141D01*
X59621218Y-100667951D01*
X59674062Y-100795527D01*
X59701000Y-100930956D01*
X59701000Y-101069044D01*
X59674062Y-101204473D01*
X59621218Y-101332049D01*
X59544505Y-101446859D01*
X59446859Y-101544505D01*
X59332049Y-101621218D01*
X59204473Y-101674062D01*
X59069044Y-101701000D01*
X58930956Y-101701000D01*
X58795527Y-101674062D01*
X58667951Y-101621218D01*
X58553141Y-101544505D01*
X58455495Y-101446859D01*
X58378782Y-101332049D01*
X58325938Y-101204473D01*
X58299000Y-101069044D01*
X58299000Y-100930956D01*
X58325938Y-100795527D01*
X58378782Y-100667951D01*
X58455495Y-100553141D01*
X58553141Y-100455495D01*
X58667951Y-100378782D01*
X58795527Y-100325938D01*
X58930956Y-100299000D01*
X59069044Y-100299000D01*
X59204473Y-100325938D01*
G37*
G36*
X46204473Y-100325938D02*
G01*
X46332049Y-100378782D01*
X46446859Y-100455495D01*
X46544505Y-100553141D01*
X46621218Y-100667951D01*
X46674062Y-100795527D01*
X46701000Y-100930956D01*
X46701000Y-101069044D01*
X46674062Y-101204473D01*
X46621218Y-101332049D01*
X46544505Y-101446859D01*
X46446859Y-101544505D01*
X46332049Y-101621218D01*
X46204473Y-101674062D01*
X46069044Y-101701000D01*
X45930956Y-101701000D01*
X45795527Y-101674062D01*
X45667951Y-101621218D01*
X45553141Y-101544505D01*
X45455495Y-101446859D01*
X45378782Y-101332049D01*
X45325938Y-101204473D01*
X45299000Y-101069044D01*
X45299000Y-100930956D01*
X45325938Y-100795527D01*
X45378782Y-100667951D01*
X45455495Y-100553141D01*
X45553141Y-100455495D01*
X45667951Y-100378782D01*
X45795527Y-100325938D01*
X45930956Y-100299000D01*
X46069044Y-100299000D01*
X46204473Y-100325938D01*
G37*
G36*
X57204473Y-99325938D02*
G01*
X57332049Y-99378782D01*
X57446859Y-99455495D01*
X57544505Y-99553141D01*
X57621218Y-99667951D01*
X57674062Y-99795527D01*
X57701000Y-99930956D01*
X57701000Y-100069044D01*
X57674062Y-100204473D01*
X57621218Y-100332049D01*
X57544505Y-100446859D01*
X57446859Y-100544505D01*
X57332049Y-100621218D01*
X57204473Y-100674062D01*
X57069044Y-100701000D01*
X56930956Y-100701000D01*
X56795527Y-100674062D01*
X56667951Y-100621218D01*
X56553141Y-100544505D01*
X56455495Y-100446859D01*
X56378782Y-100332049D01*
X56325938Y-100204473D01*
X56299000Y-100069044D01*
X56299000Y-99930956D01*
X56325938Y-99795527D01*
X56378782Y-99667951D01*
X56455495Y-99553141D01*
X56553141Y-99455495D01*
X56667951Y-99378782D01*
X56795527Y-99325938D01*
X56930956Y-99299000D01*
X57069044Y-99299000D01*
X57204473Y-99325938D01*
G37*
G36*
X48204473Y-99325938D02*
G01*
X48332049Y-99378782D01*
X48446859Y-99455495D01*
X48544505Y-99553141D01*
X48621218Y-99667951D01*
X48674062Y-99795527D01*
X48701000Y-99930956D01*
X48701000Y-100069044D01*
X48674062Y-100204473D01*
X48621218Y-100332049D01*
X48544505Y-100446859D01*
X48446859Y-100544505D01*
X48332049Y-100621218D01*
X48204473Y-100674062D01*
X48069044Y-100701000D01*
X47930956Y-100701000D01*
X47795527Y-100674062D01*
X47667951Y-100621218D01*
X47553141Y-100544505D01*
X47455495Y-100446859D01*
X47378782Y-100332049D01*
X47325938Y-100204473D01*
X47299000Y-100069044D01*
X47299000Y-99930956D01*
X47325938Y-99795527D01*
X47378782Y-99667951D01*
X47455495Y-99553141D01*
X47553141Y-99455495D01*
X47667951Y-99378782D01*
X47795527Y-99325938D01*
X47930956Y-99299000D01*
X48069044Y-99299000D01*
X48204473Y-99325938D01*
G37*
G36*
X200766242Y-98953404D02*
G01*
X200803337Y-98964657D01*
X200837515Y-98982925D01*
X200867481Y-99007519D01*
X200892075Y-99037485D01*
X200910343Y-99071663D01*
X200921596Y-99108758D01*
X200926000Y-99153474D01*
X200926000Y-100046526D01*
X200921596Y-100091242D01*
X200910343Y-100128337D01*
X200892075Y-100162515D01*
X200867481Y-100192481D01*
X200837515Y-100217075D01*
X200803337Y-100235343D01*
X200766242Y-100246596D01*
X200721526Y-100251000D01*
X199278474Y-100251000D01*
X199233758Y-100246596D01*
X199196663Y-100235343D01*
X199162485Y-100217075D01*
X199132519Y-100192481D01*
X199107925Y-100162515D01*
X199089657Y-100128337D01*
X199078404Y-100091242D01*
X199074000Y-100046526D01*
X199074000Y-99153474D01*
X199078404Y-99108758D01*
X199089657Y-99071663D01*
X199107925Y-99037485D01*
X199132519Y-99007519D01*
X199162485Y-98982925D01*
X199196663Y-98964657D01*
X199233758Y-98953404D01*
X199278474Y-98949000D01*
X200721526Y-98949000D01*
X200766242Y-98953404D01*
G37*
G36*
X46204473Y-98325938D02*
G01*
X46332049Y-98378782D01*
X46446859Y-98455495D01*
X46544505Y-98553141D01*
X46621218Y-98667951D01*
X46674062Y-98795527D01*
X46701000Y-98930956D01*
X46701000Y-99069044D01*
X46674062Y-99204473D01*
X46621218Y-99332049D01*
X46544505Y-99446859D01*
X46446859Y-99544505D01*
X46332049Y-99621218D01*
X46204473Y-99674062D01*
X46069044Y-99701000D01*
X45930956Y-99701000D01*
X45795527Y-99674062D01*
X45667951Y-99621218D01*
X45553141Y-99544505D01*
X45455495Y-99446859D01*
X45378782Y-99332049D01*
X45325938Y-99204473D01*
X45299000Y-99069044D01*
X45299000Y-98930956D01*
X45325938Y-98795527D01*
X45378782Y-98667951D01*
X45455495Y-98553141D01*
X45553141Y-98455495D01*
X45667951Y-98378782D01*
X45795527Y-98325938D01*
X45930956Y-98299000D01*
X46069044Y-98299000D01*
X46204473Y-98325938D01*
G37*
G36*
X59204473Y-98325938D02*
G01*
X59332049Y-98378782D01*
X59446859Y-98455495D01*
X59544505Y-98553141D01*
X59621218Y-98667951D01*
X59674062Y-98795527D01*
X59701000Y-98930956D01*
X59701000Y-99069044D01*
X59674062Y-99204473D01*
X59621218Y-99332049D01*
X59544505Y-99446859D01*
X59446859Y-99544505D01*
X59332049Y-99621218D01*
X59204473Y-99674062D01*
X59069044Y-99701000D01*
X58930956Y-99701000D01*
X58795527Y-99674062D01*
X58667951Y-99621218D01*
X58553141Y-99544505D01*
X58455495Y-99446859D01*
X58378782Y-99332049D01*
X58325938Y-99204473D01*
X58299000Y-99069044D01*
X58299000Y-98930956D01*
X58325938Y-98795527D01*
X58378782Y-98667951D01*
X58455495Y-98553141D01*
X58553141Y-98455495D01*
X58667951Y-98378782D01*
X58795527Y-98325938D01*
X58930956Y-98299000D01*
X59069044Y-98299000D01*
X59204473Y-98325938D01*
G37*
G36*
X57204473Y-97325938D02*
G01*
X57332049Y-97378782D01*
X57446859Y-97455495D01*
X57544505Y-97553141D01*
X57621218Y-97667951D01*
X57674062Y-97795527D01*
X57701000Y-97930956D01*
X57701000Y-98069044D01*
X57674062Y-98204473D01*
X57621218Y-98332049D01*
X57544505Y-98446859D01*
X57446859Y-98544505D01*
X57332049Y-98621218D01*
X57204473Y-98674062D01*
X57069044Y-98701000D01*
X56930956Y-98701000D01*
X56795527Y-98674062D01*
X56667951Y-98621218D01*
X56553141Y-98544505D01*
X56455495Y-98446859D01*
X56378782Y-98332049D01*
X56325938Y-98204473D01*
X56299000Y-98069044D01*
X56299000Y-97930956D01*
X56325938Y-97795527D01*
X56378782Y-97667951D01*
X56455495Y-97553141D01*
X56553141Y-97455495D01*
X56667951Y-97378782D01*
X56795527Y-97325938D01*
X56930956Y-97299000D01*
X57069044Y-97299000D01*
X57204473Y-97325938D01*
G37*
G36*
X48204473Y-97325938D02*
G01*
X48332049Y-97378782D01*
X48446859Y-97455495D01*
X48544505Y-97553141D01*
X48621218Y-97667951D01*
X48674062Y-97795527D01*
X48701000Y-97930956D01*
X48701000Y-98069044D01*
X48674062Y-98204473D01*
X48621218Y-98332049D01*
X48544505Y-98446859D01*
X48446859Y-98544505D01*
X48332049Y-98621218D01*
X48204473Y-98674062D01*
X48069044Y-98701000D01*
X47930956Y-98701000D01*
X47795527Y-98674062D01*
X47667951Y-98621218D01*
X47553141Y-98544505D01*
X47455495Y-98446859D01*
X47378782Y-98332049D01*
X47325938Y-98204473D01*
X47299000Y-98069044D01*
X47299000Y-97930956D01*
X47325938Y-97795527D01*
X47378782Y-97667951D01*
X47455495Y-97553141D01*
X47553141Y-97455495D01*
X47667951Y-97378782D01*
X47795527Y-97325938D01*
X47930956Y-97299000D01*
X48069044Y-97299000D01*
X48204473Y-97325938D01*
G37*
G36*
X59204473Y-96325938D02*
G01*
X59332049Y-96378782D01*
X59446859Y-96455495D01*
X59544505Y-96553141D01*
X59621218Y-96667951D01*
X59674062Y-96795527D01*
X59701000Y-96930956D01*
X59701000Y-97069044D01*
X59674062Y-97204473D01*
X59621218Y-97332049D01*
X59544505Y-97446859D01*
X59446859Y-97544505D01*
X59332049Y-97621218D01*
X59204473Y-97674062D01*
X59069044Y-97701000D01*
X58930956Y-97701000D01*
X58795527Y-97674062D01*
X58667951Y-97621218D01*
X58553141Y-97544505D01*
X58455495Y-97446859D01*
X58378782Y-97332049D01*
X58325938Y-97204473D01*
X58299000Y-97069044D01*
X58299000Y-96930956D01*
X58325938Y-96795527D01*
X58378782Y-96667951D01*
X58455495Y-96553141D01*
X58553141Y-96455495D01*
X58667951Y-96378782D01*
X58795527Y-96325938D01*
X58930956Y-96299000D01*
X59069044Y-96299000D01*
X59204473Y-96325938D01*
G37*
G36*
X46204473Y-96325938D02*
G01*
X46332049Y-96378782D01*
X46446859Y-96455495D01*
X46544505Y-96553141D01*
X46621218Y-96667951D01*
X46674062Y-96795527D01*
X46701000Y-96930956D01*
X46701000Y-97069044D01*
X46674062Y-97204473D01*
X46621218Y-97332049D01*
X46544505Y-97446859D01*
X46446859Y-97544505D01*
X46332049Y-97621218D01*
X46204473Y-97674062D01*
X46069044Y-97701000D01*
X45930956Y-97701000D01*
X45795527Y-97674062D01*
X45667951Y-97621218D01*
X45553141Y-97544505D01*
X45455495Y-97446859D01*
X45378782Y-97332049D01*
X45325938Y-97204473D01*
X45299000Y-97069044D01*
X45299000Y-96930956D01*
X45325938Y-96795527D01*
X45378782Y-96667951D01*
X45455495Y-96553141D01*
X45553141Y-96455495D01*
X45667951Y-96378782D01*
X45795527Y-96325938D01*
X45930956Y-96299000D01*
X46069044Y-96299000D01*
X46204473Y-96325938D01*
G37*
G36*
X179377618Y-95833420D02*
G01*
X179458400Y-95857925D01*
X179500336Y-95870646D01*
X179613425Y-95931094D01*
X179712554Y-96012446D01*
X179793906Y-96111575D01*
X179854354Y-96224664D01*
X179854355Y-96224668D01*
X179891580Y-96347382D01*
X179901000Y-96443027D01*
X179901000Y-97056973D01*
X179891580Y-97152618D01*
X179864040Y-97243404D01*
X179854354Y-97275336D01*
X179793906Y-97388425D01*
X179712554Y-97487553D01*
X179613424Y-97568906D01*
X179500335Y-97629354D01*
X179468403Y-97639040D01*
X179377617Y-97666580D01*
X179250000Y-97679149D01*
X179122382Y-97666580D01*
X179031596Y-97639040D01*
X178999664Y-97629354D01*
X178886575Y-97568906D01*
X178787447Y-97487554D01*
X178706094Y-97388424D01*
X178645646Y-97275335D01*
X178624151Y-97204474D01*
X178608420Y-97152617D01*
X178599000Y-97056972D01*
X178599000Y-96443027D01*
X178608420Y-96347382D01*
X178645645Y-96224668D01*
X178645645Y-96224667D01*
X178677957Y-96164217D01*
X178706095Y-96111574D01*
X178719493Y-96095249D01*
X178787447Y-96012446D01*
X178886576Y-95931094D01*
X178999665Y-95870646D01*
X179041601Y-95857925D01*
X179122383Y-95833420D01*
X179250000Y-95820851D01*
X179377618Y-95833420D01*
G37*
G36*
X181377618Y-95833420D02*
G01*
X181458400Y-95857925D01*
X181500336Y-95870646D01*
X181613425Y-95931094D01*
X181712554Y-96012446D01*
X181793906Y-96111575D01*
X181854354Y-96224664D01*
X181854355Y-96224668D01*
X181891580Y-96347382D01*
X181901000Y-96443027D01*
X181901000Y-97056973D01*
X181891580Y-97152618D01*
X181864040Y-97243404D01*
X181854354Y-97275336D01*
X181793906Y-97388425D01*
X181712554Y-97487553D01*
X181613424Y-97568906D01*
X181500335Y-97629354D01*
X181468403Y-97639040D01*
X181377617Y-97666580D01*
X181250000Y-97679149D01*
X181122382Y-97666580D01*
X181031596Y-97639040D01*
X180999664Y-97629354D01*
X180886575Y-97568906D01*
X180787447Y-97487554D01*
X180706094Y-97388424D01*
X180645646Y-97275335D01*
X180624151Y-97204474D01*
X180608420Y-97152617D01*
X180599000Y-97056972D01*
X180599000Y-96443027D01*
X180608420Y-96347382D01*
X180645645Y-96224668D01*
X180645645Y-96224667D01*
X180677957Y-96164217D01*
X180706095Y-96111574D01*
X180719493Y-96095249D01*
X180787447Y-96012446D01*
X180886576Y-95931094D01*
X180999665Y-95870646D01*
X181041601Y-95857925D01*
X181122383Y-95833420D01*
X181250000Y-95820851D01*
X181377618Y-95833420D01*
G37*
G36*
X171377618Y-95833420D02*
G01*
X171458400Y-95857925D01*
X171500336Y-95870646D01*
X171613425Y-95931094D01*
X171712554Y-96012446D01*
X171793906Y-96111575D01*
X171854354Y-96224664D01*
X171854355Y-96224668D01*
X171891580Y-96347382D01*
X171901000Y-96443027D01*
X171901000Y-97056973D01*
X171891580Y-97152618D01*
X171864040Y-97243404D01*
X171854354Y-97275336D01*
X171793906Y-97388425D01*
X171712554Y-97487553D01*
X171613424Y-97568906D01*
X171500335Y-97629354D01*
X171468403Y-97639040D01*
X171377617Y-97666580D01*
X171250000Y-97679149D01*
X171122382Y-97666580D01*
X171031596Y-97639040D01*
X170999664Y-97629354D01*
X170886575Y-97568906D01*
X170787447Y-97487554D01*
X170706094Y-97388424D01*
X170645646Y-97275335D01*
X170624151Y-97204474D01*
X170608420Y-97152617D01*
X170599000Y-97056972D01*
X170599000Y-96443027D01*
X170608420Y-96347382D01*
X170645645Y-96224668D01*
X170645645Y-96224667D01*
X170677957Y-96164217D01*
X170706095Y-96111574D01*
X170719493Y-96095249D01*
X170787447Y-96012446D01*
X170886576Y-95931094D01*
X170999665Y-95870646D01*
X171041601Y-95857925D01*
X171122383Y-95833420D01*
X171250000Y-95820851D01*
X171377618Y-95833420D01*
G37*
G36*
X169377618Y-95833420D02*
G01*
X169458400Y-95857925D01*
X169500336Y-95870646D01*
X169613425Y-95931094D01*
X169712554Y-96012446D01*
X169793906Y-96111575D01*
X169854354Y-96224664D01*
X169854355Y-96224668D01*
X169891580Y-96347382D01*
X169901000Y-96443027D01*
X169901000Y-97056973D01*
X169891580Y-97152618D01*
X169864040Y-97243404D01*
X169854354Y-97275336D01*
X169793906Y-97388425D01*
X169712554Y-97487553D01*
X169613424Y-97568906D01*
X169500335Y-97629354D01*
X169468403Y-97639040D01*
X169377617Y-97666580D01*
X169250000Y-97679149D01*
X169122382Y-97666580D01*
X169031596Y-97639040D01*
X168999664Y-97629354D01*
X168886575Y-97568906D01*
X168787447Y-97487554D01*
X168706094Y-97388424D01*
X168645646Y-97275335D01*
X168624151Y-97204474D01*
X168608420Y-97152617D01*
X168599000Y-97056972D01*
X168599000Y-96443027D01*
X168608420Y-96347382D01*
X168645645Y-96224668D01*
X168645645Y-96224667D01*
X168677957Y-96164217D01*
X168706095Y-96111574D01*
X168719493Y-96095249D01*
X168787447Y-96012446D01*
X168886576Y-95931094D01*
X168999665Y-95870646D01*
X169041601Y-95857925D01*
X169122383Y-95833420D01*
X169250000Y-95820851D01*
X169377618Y-95833420D01*
G37*
G36*
X173741242Y-95828404D02*
G01*
X173778337Y-95839657D01*
X173812515Y-95857925D01*
X173842481Y-95882519D01*
X173867075Y-95912485D01*
X173885343Y-95946663D01*
X173896596Y-95983758D01*
X173901000Y-96028474D01*
X173901000Y-97471526D01*
X173896596Y-97516242D01*
X173885343Y-97553337D01*
X173867075Y-97587515D01*
X173842481Y-97617481D01*
X173812515Y-97642075D01*
X173778337Y-97660343D01*
X173741242Y-97671596D01*
X173696526Y-97676000D01*
X172803474Y-97676000D01*
X172758758Y-97671596D01*
X172721663Y-97660343D01*
X172687485Y-97642075D01*
X172657519Y-97617481D01*
X172632925Y-97587515D01*
X172614657Y-97553337D01*
X172603404Y-97516242D01*
X172599000Y-97471526D01*
X172599000Y-96028474D01*
X172603404Y-95983758D01*
X172614657Y-95946663D01*
X172632925Y-95912485D01*
X172657519Y-95882519D01*
X172687485Y-95857925D01*
X172721663Y-95839657D01*
X172758758Y-95828404D01*
X172803474Y-95824000D01*
X173696526Y-95824000D01*
X173741242Y-95828404D01*
G37*
G36*
X183741242Y-95828404D02*
G01*
X183778337Y-95839657D01*
X183812515Y-95857925D01*
X183842481Y-95882519D01*
X183867075Y-95912485D01*
X183885343Y-95946663D01*
X183896596Y-95983758D01*
X183901000Y-96028474D01*
X183901000Y-97471526D01*
X183896596Y-97516242D01*
X183885343Y-97553337D01*
X183867075Y-97587515D01*
X183842481Y-97617481D01*
X183812515Y-97642075D01*
X183778337Y-97660343D01*
X183741242Y-97671596D01*
X183696526Y-97676000D01*
X182803474Y-97676000D01*
X182758758Y-97671596D01*
X182721663Y-97660343D01*
X182687485Y-97642075D01*
X182657519Y-97617481D01*
X182632925Y-97587515D01*
X182614657Y-97553337D01*
X182603404Y-97516242D01*
X182599000Y-97471526D01*
X182599000Y-96028474D01*
X182603404Y-95983758D01*
X182614657Y-95946663D01*
X182632925Y-95912485D01*
X182657519Y-95882519D01*
X182687485Y-95857925D01*
X182721663Y-95839657D01*
X182758758Y-95828404D01*
X182803474Y-95824000D01*
X183696526Y-95824000D01*
X183741242Y-95828404D01*
G37*
G36*
X48204473Y-95325938D02*
G01*
X48332049Y-95378782D01*
X48446859Y-95455495D01*
X48544505Y-95553141D01*
X48621218Y-95667951D01*
X48674062Y-95795527D01*
X48701000Y-95930956D01*
X48701000Y-96069044D01*
X48674062Y-96204473D01*
X48621218Y-96332049D01*
X48544505Y-96446859D01*
X48446859Y-96544505D01*
X48332049Y-96621218D01*
X48204473Y-96674062D01*
X48069044Y-96701000D01*
X47930956Y-96701000D01*
X47795527Y-96674062D01*
X47667951Y-96621218D01*
X47553141Y-96544505D01*
X47455495Y-96446859D01*
X47378782Y-96332049D01*
X47325938Y-96204473D01*
X47299000Y-96069044D01*
X47299000Y-95930956D01*
X47325938Y-95795527D01*
X47378782Y-95667951D01*
X47455495Y-95553141D01*
X47553141Y-95455495D01*
X47667951Y-95378782D01*
X47795527Y-95325938D01*
X47930956Y-95299000D01*
X48069044Y-95299000D01*
X48204473Y-95325938D01*
G37*
G36*
X57204473Y-95325938D02*
G01*
X57332049Y-95378782D01*
X57446859Y-95455495D01*
X57544505Y-95553141D01*
X57621218Y-95667951D01*
X57674062Y-95795527D01*
X57701000Y-95930956D01*
X57701000Y-96069044D01*
X57674062Y-96204473D01*
X57621218Y-96332049D01*
X57544505Y-96446859D01*
X57446859Y-96544505D01*
X57332049Y-96621218D01*
X57204473Y-96674062D01*
X57069044Y-96701000D01*
X56930956Y-96701000D01*
X56795527Y-96674062D01*
X56667951Y-96621218D01*
X56553141Y-96544505D01*
X56455495Y-96446859D01*
X56378782Y-96332049D01*
X56325938Y-96204473D01*
X56299000Y-96069044D01*
X56299000Y-95930956D01*
X56325938Y-95795527D01*
X56378782Y-95667951D01*
X56455495Y-95553141D01*
X56553141Y-95455495D01*
X56667951Y-95378782D01*
X56795527Y-95325938D01*
X56930956Y-95299000D01*
X57069044Y-95299000D01*
X57204473Y-95325938D01*
G37*
G36*
X59204473Y-94325938D02*
G01*
X59332049Y-94378782D01*
X59446859Y-94455495D01*
X59544505Y-94553141D01*
X59621218Y-94667951D01*
X59674062Y-94795527D01*
X59701000Y-94930956D01*
X59701000Y-95069044D01*
X59674062Y-95204473D01*
X59621218Y-95332049D01*
X59544505Y-95446859D01*
X59446859Y-95544505D01*
X59332049Y-95621218D01*
X59204473Y-95674062D01*
X59069044Y-95701000D01*
X58930956Y-95701000D01*
X58795527Y-95674062D01*
X58667951Y-95621218D01*
X58553141Y-95544505D01*
X58455495Y-95446859D01*
X58378782Y-95332049D01*
X58325938Y-95204473D01*
X58299000Y-95069044D01*
X58299000Y-94930956D01*
X58325938Y-94795527D01*
X58378782Y-94667951D01*
X58455495Y-94553141D01*
X58553141Y-94455495D01*
X58667951Y-94378782D01*
X58795527Y-94325938D01*
X58930956Y-94299000D01*
X59069044Y-94299000D01*
X59204473Y-94325938D01*
G37*
G36*
X46204473Y-94325938D02*
G01*
X46332049Y-94378782D01*
X46446859Y-94455495D01*
X46544505Y-94553141D01*
X46621218Y-94667951D01*
X46674062Y-94795527D01*
X46701000Y-94930956D01*
X46701000Y-95069044D01*
X46674062Y-95204473D01*
X46621218Y-95332049D01*
X46544505Y-95446859D01*
X46446859Y-95544505D01*
X46332049Y-95621218D01*
X46204473Y-95674062D01*
X46069044Y-95701000D01*
X45930956Y-95701000D01*
X45795527Y-95674062D01*
X45667951Y-95621218D01*
X45553141Y-95544505D01*
X45455495Y-95446859D01*
X45378782Y-95332049D01*
X45325938Y-95204473D01*
X45299000Y-95069044D01*
X45299000Y-94930956D01*
X45325938Y-94795527D01*
X45378782Y-94667951D01*
X45455495Y-94553141D01*
X45553141Y-94455495D01*
X45667951Y-94378782D01*
X45795527Y-94325938D01*
X45930956Y-94299000D01*
X46069044Y-94299000D01*
X46204473Y-94325938D01*
G37*
G36*
X66133642Y-93779781D02*
G01*
X66279414Y-93840162D01*
X66279416Y-93840163D01*
X66410608Y-93927822D01*
X66522178Y-94039392D01*
X66590457Y-94141580D01*
X66609838Y-94170586D01*
X66670219Y-94316358D01*
X66701000Y-94471107D01*
X66701000Y-94628893D01*
X66670219Y-94783642D01*
X66609838Y-94929414D01*
X66609837Y-94929416D01*
X66522178Y-95060608D01*
X66410608Y-95172178D01*
X66279416Y-95259837D01*
X66279415Y-95259838D01*
X66279414Y-95259838D01*
X66133642Y-95320219D01*
X65978893Y-95351000D01*
X65821107Y-95351000D01*
X65666358Y-95320219D01*
X65520586Y-95259838D01*
X65520585Y-95259838D01*
X65520584Y-95259837D01*
X65389392Y-95172178D01*
X65277822Y-95060608D01*
X65190163Y-94929416D01*
X65190162Y-94929414D01*
X65129781Y-94783642D01*
X65099000Y-94628893D01*
X65099000Y-94471107D01*
X65129781Y-94316358D01*
X65190162Y-94170586D01*
X65209543Y-94141580D01*
X65277822Y-94039392D01*
X65389392Y-93927822D01*
X65520584Y-93840163D01*
X65520586Y-93840162D01*
X65666358Y-93779781D01*
X65821107Y-93749000D01*
X65978893Y-93749000D01*
X66133642Y-93779781D01*
G37*
G36*
X48204473Y-93325938D02*
G01*
X48332049Y-93378782D01*
X48446859Y-93455495D01*
X48544505Y-93553141D01*
X48621218Y-93667951D01*
X48674062Y-93795527D01*
X48701000Y-93930956D01*
X48701000Y-94069044D01*
X48674062Y-94204473D01*
X48621218Y-94332049D01*
X48544505Y-94446859D01*
X48446859Y-94544505D01*
X48332049Y-94621218D01*
X48204473Y-94674062D01*
X48069044Y-94701000D01*
X47930956Y-94701000D01*
X47795527Y-94674062D01*
X47667951Y-94621218D01*
X47553141Y-94544505D01*
X47455495Y-94446859D01*
X47378782Y-94332049D01*
X47325938Y-94204473D01*
X47299000Y-94069044D01*
X47299000Y-93930956D01*
X47325938Y-93795527D01*
X47378782Y-93667951D01*
X47455495Y-93553141D01*
X47553141Y-93455495D01*
X47667951Y-93378782D01*
X47795527Y-93325938D01*
X47930956Y-93299000D01*
X48069044Y-93299000D01*
X48204473Y-93325938D01*
G37*
G36*
X57204473Y-93325938D02*
G01*
X57332049Y-93378782D01*
X57446859Y-93455495D01*
X57544505Y-93553141D01*
X57621218Y-93667951D01*
X57674062Y-93795527D01*
X57701000Y-93930956D01*
X57701000Y-94069044D01*
X57674062Y-94204473D01*
X57621218Y-94332049D01*
X57544505Y-94446859D01*
X57446859Y-94544505D01*
X57332049Y-94621218D01*
X57204473Y-94674062D01*
X57069044Y-94701000D01*
X56930956Y-94701000D01*
X56795527Y-94674062D01*
X56667951Y-94621218D01*
X56553141Y-94544505D01*
X56455495Y-94446859D01*
X56378782Y-94332049D01*
X56325938Y-94204473D01*
X56299000Y-94069044D01*
X56299000Y-93930956D01*
X56325938Y-93795527D01*
X56378782Y-93667951D01*
X56455495Y-93553141D01*
X56553141Y-93455495D01*
X56667951Y-93378782D01*
X56795527Y-93325938D01*
X56930956Y-93299000D01*
X57069044Y-93299000D01*
X57204473Y-93325938D01*
G37*
G36*
X200338855Y-92852140D02*
G01*
X200402618Y-92858420D01*
X200470108Y-92878893D01*
X200525336Y-92895646D01*
X200638425Y-92956094D01*
X200737554Y-93037446D01*
X200818906Y-93136575D01*
X200879354Y-93249664D01*
X200879355Y-93249668D01*
X200916580Y-93372382D01*
X200929149Y-93500000D01*
X200916580Y-93627618D01*
X200902491Y-93674062D01*
X200879354Y-93750336D01*
X200818906Y-93863425D01*
X200737554Y-93962554D01*
X200638425Y-94043906D01*
X200525336Y-94104354D01*
X200493404Y-94114040D01*
X200402618Y-94141580D01*
X200338855Y-94147860D01*
X200306974Y-94151000D01*
X199693026Y-94151000D01*
X199661145Y-94147860D01*
X199597382Y-94141580D01*
X199506596Y-94114040D01*
X199474664Y-94104354D01*
X199361575Y-94043906D01*
X199262446Y-93962554D01*
X199181094Y-93863425D01*
X199120646Y-93750336D01*
X199097509Y-93674062D01*
X199083420Y-93627618D01*
X199070851Y-93500000D01*
X199083420Y-93372382D01*
X199120645Y-93249668D01*
X199120646Y-93249664D01*
X199181094Y-93136575D01*
X199262446Y-93037446D01*
X199361575Y-92956094D01*
X199474664Y-92895646D01*
X199529892Y-92878893D01*
X199597382Y-92858420D01*
X199661145Y-92852140D01*
X199693026Y-92849000D01*
X200306974Y-92849000D01*
X200338855Y-92852140D01*
G37*
G36*
X46204473Y-92325938D02*
G01*
X46332049Y-92378782D01*
X46446859Y-92455495D01*
X46544505Y-92553141D01*
X46621218Y-92667951D01*
X46674062Y-92795527D01*
X46701000Y-92930956D01*
X46701000Y-93069044D01*
X46674062Y-93204473D01*
X46621218Y-93332049D01*
X46544505Y-93446859D01*
X46446859Y-93544505D01*
X46332049Y-93621218D01*
X46204473Y-93674062D01*
X46069044Y-93701000D01*
X45930956Y-93701000D01*
X45795527Y-93674062D01*
X45667951Y-93621218D01*
X45553141Y-93544505D01*
X45455495Y-93446859D01*
X45378782Y-93332049D01*
X45325938Y-93204473D01*
X45299000Y-93069044D01*
X45299000Y-92930956D01*
X45325938Y-92795527D01*
X45378782Y-92667951D01*
X45455495Y-92553141D01*
X45553141Y-92455495D01*
X45667951Y-92378782D01*
X45795527Y-92325938D01*
X45930956Y-92299000D01*
X46069044Y-92299000D01*
X46204473Y-92325938D01*
G37*
G36*
X59204473Y-92325938D02*
G01*
X59332049Y-92378782D01*
X59446859Y-92455495D01*
X59544505Y-92553141D01*
X59621218Y-92667951D01*
X59674062Y-92795527D01*
X59701000Y-92930956D01*
X59701000Y-93069044D01*
X59674062Y-93204473D01*
X59621218Y-93332049D01*
X59544505Y-93446859D01*
X59446859Y-93544505D01*
X59332049Y-93621218D01*
X59204473Y-93674062D01*
X59069044Y-93701000D01*
X58930956Y-93701000D01*
X58795527Y-93674062D01*
X58667951Y-93621218D01*
X58553141Y-93544505D01*
X58455495Y-93446859D01*
X58378782Y-93332049D01*
X58325938Y-93204473D01*
X58299000Y-93069044D01*
X58299000Y-92930956D01*
X58325938Y-92795527D01*
X58378782Y-92667951D01*
X58455495Y-92553141D01*
X58553141Y-92455495D01*
X58667951Y-92378782D01*
X58795527Y-92325938D01*
X58930956Y-92299000D01*
X59069044Y-92299000D01*
X59204473Y-92325938D01*
G37*
G36*
X113133642Y-92029781D02*
G01*
X113279414Y-92090162D01*
X113279416Y-92090163D01*
X113410608Y-92177822D01*
X113522178Y-92289392D01*
X113550680Y-92332049D01*
X113609838Y-92420586D01*
X113670219Y-92566358D01*
X113701000Y-92721107D01*
X113701000Y-92878893D01*
X113670219Y-93033642D01*
X113609838Y-93179414D01*
X113609837Y-93179416D01*
X113522178Y-93310608D01*
X113410608Y-93422178D01*
X113279416Y-93509837D01*
X113279415Y-93509838D01*
X113279414Y-93509838D01*
X113133642Y-93570219D01*
X112978893Y-93601000D01*
X112821107Y-93601000D01*
X112666358Y-93570219D01*
X112520586Y-93509838D01*
X112520585Y-93509838D01*
X112520584Y-93509837D01*
X112389392Y-93422178D01*
X112277822Y-93310608D01*
X112190163Y-93179416D01*
X112190162Y-93179414D01*
X112129781Y-93033642D01*
X112099000Y-92878893D01*
X112099000Y-92721107D01*
X112129781Y-92566358D01*
X112190162Y-92420586D01*
X112249320Y-92332049D01*
X112277822Y-92289392D01*
X112389392Y-92177822D01*
X112520584Y-92090163D01*
X112520586Y-92090162D01*
X112666358Y-92029781D01*
X112821107Y-91999000D01*
X112978893Y-91999000D01*
X113133642Y-92029781D01*
G37*
G36*
X48204473Y-91325938D02*
G01*
X48332049Y-91378782D01*
X48446859Y-91455495D01*
X48544505Y-91553141D01*
X48621218Y-91667951D01*
X48674062Y-91795527D01*
X48701000Y-91930956D01*
X48701000Y-92069044D01*
X48674062Y-92204473D01*
X48621218Y-92332049D01*
X48544505Y-92446859D01*
X48446859Y-92544505D01*
X48332049Y-92621218D01*
X48204473Y-92674062D01*
X48069044Y-92701000D01*
X47930956Y-92701000D01*
X47795527Y-92674062D01*
X47667951Y-92621218D01*
X47553141Y-92544505D01*
X47455495Y-92446859D01*
X47378782Y-92332049D01*
X47325938Y-92204473D01*
X47299000Y-92069044D01*
X47299000Y-91930956D01*
X47325938Y-91795527D01*
X47378782Y-91667951D01*
X47455495Y-91553141D01*
X47553141Y-91455495D01*
X47667951Y-91378782D01*
X47795527Y-91325938D01*
X47930956Y-91299000D01*
X48069044Y-91299000D01*
X48204473Y-91325938D01*
G37*
G36*
X57204473Y-91325938D02*
G01*
X57332049Y-91378782D01*
X57446859Y-91455495D01*
X57544505Y-91553141D01*
X57621218Y-91667951D01*
X57674062Y-91795527D01*
X57701000Y-91930956D01*
X57701000Y-92069044D01*
X57674062Y-92204473D01*
X57621218Y-92332049D01*
X57544505Y-92446859D01*
X57446859Y-92544505D01*
X57332049Y-92621218D01*
X57204473Y-92674062D01*
X57069044Y-92701000D01*
X56930956Y-92701000D01*
X56795527Y-92674062D01*
X56667951Y-92621218D01*
X56553141Y-92544505D01*
X56455495Y-92446859D01*
X56378782Y-92332049D01*
X56325938Y-92204473D01*
X56299000Y-92069044D01*
X56299000Y-91930956D01*
X56325938Y-91795527D01*
X56378782Y-91667951D01*
X56455495Y-91553141D01*
X56553141Y-91455495D01*
X56667951Y-91378782D01*
X56795527Y-91325938D01*
X56930956Y-91299000D01*
X57069044Y-91299000D01*
X57204473Y-91325938D01*
G37*
G36*
X101133642Y-91029781D02*
G01*
X101279414Y-91090162D01*
X101279416Y-91090163D01*
X101410608Y-91177822D01*
X101522178Y-91289392D01*
X101550680Y-91332049D01*
X101609838Y-91420586D01*
X101670219Y-91566358D01*
X101701000Y-91721107D01*
X101701000Y-91878893D01*
X101670219Y-92033642D01*
X101610497Y-92177822D01*
X101609837Y-92179416D01*
X101522178Y-92310608D01*
X101410608Y-92422178D01*
X101279416Y-92509837D01*
X101279415Y-92509838D01*
X101279414Y-92509838D01*
X101133642Y-92570219D01*
X100978893Y-92601000D01*
X100821107Y-92601000D01*
X100666358Y-92570219D01*
X100520586Y-92509838D01*
X100520585Y-92509838D01*
X100520584Y-92509837D01*
X100389392Y-92422178D01*
X100277822Y-92310608D01*
X100190163Y-92179416D01*
X100189503Y-92177822D01*
X100129781Y-92033642D01*
X100099000Y-91878893D01*
X100099000Y-91721107D01*
X100129781Y-91566358D01*
X100190162Y-91420586D01*
X100249320Y-91332049D01*
X100277822Y-91289392D01*
X100389392Y-91177822D01*
X100520584Y-91090163D01*
X100520586Y-91090162D01*
X100666358Y-91029781D01*
X100821107Y-90999000D01*
X100978893Y-90999000D01*
X101133642Y-91029781D01*
G37*
G36*
X200766242Y-90853404D02*
G01*
X200803337Y-90864657D01*
X200837515Y-90882925D01*
X200867481Y-90907519D01*
X200892075Y-90937485D01*
X200910343Y-90971663D01*
X200921596Y-91008758D01*
X200926000Y-91053474D01*
X200926000Y-91946526D01*
X200921596Y-91991242D01*
X200910343Y-92028337D01*
X200892075Y-92062515D01*
X200867481Y-92092481D01*
X200837515Y-92117075D01*
X200803337Y-92135343D01*
X200766242Y-92146596D01*
X200721526Y-92151000D01*
X199278474Y-92151000D01*
X199233758Y-92146596D01*
X199196663Y-92135343D01*
X199162485Y-92117075D01*
X199132519Y-92092481D01*
X199107925Y-92062515D01*
X199089657Y-92028337D01*
X199078404Y-91991242D01*
X199074000Y-91946526D01*
X199074000Y-91053474D01*
X199078404Y-91008758D01*
X199089657Y-90971663D01*
X199107925Y-90937485D01*
X199132519Y-90907519D01*
X199162485Y-90882925D01*
X199196663Y-90864657D01*
X199233758Y-90853404D01*
X199278474Y-90849000D01*
X200721526Y-90849000D01*
X200766242Y-90853404D01*
G37*
G36*
X46204473Y-90325938D02*
G01*
X46332049Y-90378782D01*
X46446859Y-90455495D01*
X46544505Y-90553141D01*
X46621218Y-90667951D01*
X46674062Y-90795527D01*
X46701000Y-90930956D01*
X46701000Y-91069044D01*
X46674062Y-91204473D01*
X46621218Y-91332049D01*
X46544505Y-91446859D01*
X46446859Y-91544505D01*
X46332049Y-91621218D01*
X46204473Y-91674062D01*
X46069044Y-91701000D01*
X45930956Y-91701000D01*
X45795527Y-91674062D01*
X45667951Y-91621218D01*
X45553141Y-91544505D01*
X45455495Y-91446859D01*
X45378782Y-91332049D01*
X45325938Y-91204473D01*
X45299000Y-91069044D01*
X45299000Y-90930956D01*
X45325938Y-90795527D01*
X45378782Y-90667951D01*
X45455495Y-90553141D01*
X45553141Y-90455495D01*
X45667951Y-90378782D01*
X45795527Y-90325938D01*
X45930956Y-90299000D01*
X46069044Y-90299000D01*
X46204473Y-90325938D01*
G37*
G36*
X59204473Y-90325938D02*
G01*
X59332049Y-90378782D01*
X59446859Y-90455495D01*
X59544505Y-90553141D01*
X59621218Y-90667951D01*
X59674062Y-90795527D01*
X59701000Y-90930956D01*
X59701000Y-91069044D01*
X59674062Y-91204473D01*
X59621218Y-91332049D01*
X59544505Y-91446859D01*
X59446859Y-91544505D01*
X59332049Y-91621218D01*
X59204473Y-91674062D01*
X59069044Y-91701000D01*
X58930956Y-91701000D01*
X58795527Y-91674062D01*
X58667951Y-91621218D01*
X58553141Y-91544505D01*
X58455495Y-91446859D01*
X58378782Y-91332049D01*
X58325938Y-91204473D01*
X58299000Y-91069044D01*
X58299000Y-90930956D01*
X58325938Y-90795527D01*
X58378782Y-90667951D01*
X58455495Y-90553141D01*
X58553141Y-90455495D01*
X58667951Y-90378782D01*
X58795527Y-90325938D01*
X58930956Y-90299000D01*
X59069044Y-90299000D01*
X59204473Y-90325938D01*
G37*
G36*
X82133642Y-90029781D02*
G01*
X82279414Y-90090162D01*
X82279416Y-90090163D01*
X82410608Y-90177822D01*
X82522178Y-90289392D01*
X82581906Y-90378782D01*
X82609838Y-90420586D01*
X82670219Y-90566358D01*
X82701000Y-90721107D01*
X82701000Y-90878893D01*
X82670219Y-91033642D01*
X82646807Y-91090163D01*
X82609837Y-91179416D01*
X82522178Y-91310608D01*
X82410608Y-91422178D01*
X82279416Y-91509837D01*
X82279415Y-91509838D01*
X82279414Y-91509838D01*
X82133642Y-91570219D01*
X81978893Y-91601000D01*
X81821107Y-91601000D01*
X81666358Y-91570219D01*
X81520586Y-91509838D01*
X81520585Y-91509838D01*
X81520584Y-91509837D01*
X81389392Y-91422178D01*
X81277822Y-91310608D01*
X81190163Y-91179416D01*
X81153193Y-91090163D01*
X81129781Y-91033642D01*
X81099000Y-90878893D01*
X81099000Y-90721107D01*
X81129781Y-90566358D01*
X81190162Y-90420586D01*
X81218094Y-90378782D01*
X81277822Y-90289392D01*
X81389392Y-90177822D01*
X81520584Y-90090163D01*
X81520586Y-90090162D01*
X81666358Y-90029781D01*
X81821107Y-89999000D01*
X81978893Y-89999000D01*
X82133642Y-90029781D01*
G37*
G36*
X67383642Y-89279781D02*
G01*
X67529414Y-89340162D01*
X67529416Y-89340163D01*
X67660608Y-89427822D01*
X67772178Y-89539392D01*
X67816884Y-89606300D01*
X67859838Y-89670586D01*
X67920219Y-89816358D01*
X67951000Y-89971107D01*
X67951000Y-90128893D01*
X67920219Y-90283642D01*
X67859838Y-90429414D01*
X67859837Y-90429416D01*
X67772178Y-90560608D01*
X67660608Y-90672178D01*
X67529416Y-90759837D01*
X67529415Y-90759838D01*
X67529414Y-90759838D01*
X67383642Y-90820219D01*
X67228893Y-90851000D01*
X67071107Y-90851000D01*
X66916358Y-90820219D01*
X66770586Y-90759838D01*
X66770585Y-90759838D01*
X66770584Y-90759837D01*
X66639392Y-90672178D01*
X66527822Y-90560608D01*
X66440163Y-90429416D01*
X66440162Y-90429414D01*
X66379781Y-90283642D01*
X66349000Y-90128893D01*
X66349000Y-89971107D01*
X66379781Y-89816358D01*
X66440162Y-89670586D01*
X66483116Y-89606300D01*
X66527822Y-89539392D01*
X66639392Y-89427822D01*
X66770584Y-89340163D01*
X66770586Y-89340162D01*
X66916358Y-89279781D01*
X67071107Y-89249000D01*
X67228893Y-89249000D01*
X67383642Y-89279781D01*
G37*
G36*
X76633642Y-89279781D02*
G01*
X76779414Y-89340162D01*
X76779416Y-89340163D01*
X76910608Y-89427822D01*
X77022178Y-89539392D01*
X77066884Y-89606300D01*
X77109838Y-89670586D01*
X77170219Y-89816358D01*
X77201000Y-89971107D01*
X77201000Y-90128893D01*
X77170219Y-90283642D01*
X77109838Y-90429414D01*
X77109837Y-90429416D01*
X77022178Y-90560608D01*
X76910608Y-90672178D01*
X76779416Y-90759837D01*
X76779415Y-90759838D01*
X76779414Y-90759838D01*
X76633642Y-90820219D01*
X76478893Y-90851000D01*
X76321107Y-90851000D01*
X76166358Y-90820219D01*
X76020586Y-90759838D01*
X76020585Y-90759838D01*
X76020584Y-90759837D01*
X75889392Y-90672178D01*
X75777822Y-90560608D01*
X75690163Y-90429416D01*
X75690162Y-90429414D01*
X75629781Y-90283642D01*
X75599000Y-90128893D01*
X75599000Y-89971107D01*
X75629781Y-89816358D01*
X75690162Y-89670586D01*
X75733116Y-89606300D01*
X75777822Y-89539392D01*
X75889392Y-89427822D01*
X76020584Y-89340163D01*
X76020586Y-89340162D01*
X76166358Y-89279781D01*
X76321107Y-89249000D01*
X76478893Y-89249000D01*
X76633642Y-89279781D01*
G37*
G36*
X134633642Y-88529781D02*
G01*
X134779414Y-88590162D01*
X134779416Y-88590163D01*
X134910608Y-88677822D01*
X135022178Y-88789392D01*
X135096518Y-88900651D01*
X135109838Y-88920586D01*
X135170219Y-89066358D01*
X135201000Y-89221107D01*
X135201000Y-89378893D01*
X135170219Y-89533642D01*
X135109838Y-89679414D01*
X135109837Y-89679416D01*
X135022178Y-89810608D01*
X134910608Y-89922178D01*
X134779416Y-90009837D01*
X134779415Y-90009838D01*
X134779414Y-90009838D01*
X134633642Y-90070219D01*
X134478893Y-90101000D01*
X134321107Y-90101000D01*
X134166358Y-90070219D01*
X134020586Y-90009838D01*
X134020585Y-90009838D01*
X134020584Y-90009837D01*
X133889392Y-89922178D01*
X133777822Y-89810608D01*
X133690163Y-89679416D01*
X133690162Y-89679414D01*
X133629781Y-89533642D01*
X133599000Y-89378893D01*
X133599000Y-89221107D01*
X133629781Y-89066358D01*
X133690162Y-88920586D01*
X133703482Y-88900651D01*
X133777822Y-88789392D01*
X133889392Y-88677822D01*
X134020584Y-88590163D01*
X134020586Y-88590162D01*
X134166358Y-88529781D01*
X134321107Y-88499000D01*
X134478893Y-88499000D01*
X134633642Y-88529781D01*
G37*
G36*
X137106578Y-88524197D02*
G01*
X137159350Y-88534694D01*
X137258770Y-88575875D01*
X137348246Y-88635661D01*
X137424339Y-88711754D01*
X137484125Y-88801230D01*
X137525306Y-88900650D01*
X137546300Y-89006194D01*
X137546300Y-89113806D01*
X137525306Y-89219350D01*
X137484125Y-89318770D01*
X137424339Y-89408246D01*
X137348246Y-89484339D01*
X137258770Y-89544125D01*
X137159350Y-89585306D01*
X137106578Y-89595803D01*
X137053807Y-89606300D01*
X136946193Y-89606300D01*
X136893422Y-89595803D01*
X136840650Y-89585306D01*
X136741230Y-89544125D01*
X136651754Y-89484339D01*
X136575661Y-89408246D01*
X136515875Y-89318770D01*
X136474694Y-89219350D01*
X136453700Y-89113806D01*
X136453700Y-89006194D01*
X136474694Y-88900650D01*
X136515875Y-88801230D01*
X136575661Y-88711754D01*
X136651754Y-88635661D01*
X136741230Y-88575875D01*
X136840650Y-88534694D01*
X136893422Y-88524197D01*
X136946193Y-88513700D01*
X137053807Y-88513700D01*
X137106578Y-88524197D01*
G37*
G36*
X146998228Y-87131703D02*
G01*
X147153100Y-87195853D01*
X147292481Y-87288985D01*
X147411015Y-87407519D01*
X147504147Y-87546900D01*
X147568297Y-87701772D01*
X147601000Y-87866184D01*
X147601000Y-88033816D01*
X147568297Y-88198228D01*
X147504147Y-88353100D01*
X147411015Y-88492481D01*
X147292481Y-88611015D01*
X147153100Y-88704147D01*
X146998228Y-88768297D01*
X146833816Y-88801000D01*
X146666184Y-88801000D01*
X146501772Y-88768297D01*
X146346900Y-88704147D01*
X146207519Y-88611015D01*
X146088985Y-88492481D01*
X145995853Y-88353100D01*
X145931703Y-88198228D01*
X145899000Y-88033816D01*
X145899000Y-87866184D01*
X145931703Y-87701772D01*
X145995853Y-87546900D01*
X146088985Y-87407519D01*
X146207519Y-87288985D01*
X146346900Y-87195853D01*
X146501772Y-87131703D01*
X146666184Y-87099000D01*
X146833816Y-87099000D01*
X146998228Y-87131703D01*
G37*
G36*
X151101000Y-88801000D02*
G01*
X149399000Y-88801000D01*
X149399000Y-87099000D01*
X151101000Y-87099000D01*
X151101000Y-88801000D01*
G37*
G36*
X199235443Y-84105519D02*
G01*
X199301627Y-84112037D01*
X199471466Y-84163557D01*
X199471468Y-84163558D01*
X199484616Y-84170586D01*
X199627991Y-84247222D01*
X199663729Y-84276552D01*
X199765186Y-84359814D01*
X199848448Y-84461271D01*
X199877778Y-84497009D01*
X199877779Y-84497011D01*
X199948272Y-84628892D01*
X199961443Y-84653534D01*
X200012963Y-84823373D01*
X200030359Y-85000000D01*
X200012963Y-85176627D01*
X199961443Y-85346466D01*
X199877778Y-85502991D01*
X199848448Y-85538729D01*
X199765186Y-85640186D01*
X199663729Y-85723448D01*
X199627991Y-85752778D01*
X199471466Y-85836443D01*
X199301627Y-85887963D01*
X199235443Y-85894481D01*
X199169260Y-85901000D01*
X198830740Y-85901000D01*
X198764557Y-85894481D01*
X198698373Y-85887963D01*
X198528534Y-85836443D01*
X198372009Y-85752778D01*
X198336271Y-85723448D01*
X198234814Y-85640186D01*
X198151552Y-85538729D01*
X198122222Y-85502991D01*
X198038557Y-85346466D01*
X197987037Y-85176627D01*
X197969641Y-85000000D01*
X197987037Y-84823373D01*
X198038557Y-84653534D01*
X198051729Y-84628892D01*
X198122221Y-84497011D01*
X198122222Y-84497009D01*
X198151552Y-84461271D01*
X198234814Y-84359814D01*
X198336271Y-84276552D01*
X198372009Y-84247222D01*
X198515384Y-84170586D01*
X198528532Y-84163558D01*
X198528534Y-84163557D01*
X198698373Y-84112037D01*
X198764557Y-84105519D01*
X198830740Y-84099000D01*
X199169260Y-84099000D01*
X199235443Y-84105519D01*
G37*
G36*
X133383642Y-83779781D02*
G01*
X133482310Y-83820651D01*
X133529416Y-83840163D01*
X133660608Y-83927822D01*
X133772178Y-84039392D01*
X133855142Y-84163558D01*
X133859838Y-84170586D01*
X133920219Y-84316358D01*
X133951000Y-84471107D01*
X133951000Y-84628893D01*
X133920219Y-84783642D01*
X133903761Y-84823375D01*
X133859837Y-84929416D01*
X133772178Y-85060608D01*
X133660608Y-85172178D01*
X133529416Y-85259837D01*
X133529415Y-85259838D01*
X133529414Y-85259838D01*
X133383642Y-85320219D01*
X133228893Y-85351000D01*
X133071107Y-85351000D01*
X132916358Y-85320219D01*
X132770586Y-85259838D01*
X132770585Y-85259838D01*
X132770584Y-85259837D01*
X132639392Y-85172178D01*
X132527822Y-85060608D01*
X132440163Y-84929416D01*
X132396239Y-84823375D01*
X132379781Y-84783642D01*
X132349000Y-84628893D01*
X132349000Y-84471107D01*
X132379781Y-84316358D01*
X132440162Y-84170586D01*
X132444858Y-84163558D01*
X132527822Y-84039392D01*
X132639392Y-83927822D01*
X132770584Y-83840163D01*
X132817690Y-83820651D01*
X132916358Y-83779781D01*
X133071107Y-83749000D01*
X133228893Y-83749000D01*
X133383642Y-83779781D01*
G37*
G36*
X47766242Y-83353404D02*
G01*
X47803337Y-83364657D01*
X47837515Y-83382925D01*
X47867481Y-83407519D01*
X47892075Y-83437485D01*
X47910343Y-83471663D01*
X47921596Y-83508758D01*
X47926000Y-83553474D01*
X47926000Y-84446526D01*
X47921596Y-84491242D01*
X47910343Y-84528337D01*
X47892075Y-84562515D01*
X47867481Y-84592481D01*
X47837515Y-84617075D01*
X47803337Y-84635343D01*
X47766242Y-84646596D01*
X47721526Y-84651000D01*
X46278474Y-84651000D01*
X46233758Y-84646596D01*
X46196663Y-84635343D01*
X46162485Y-84617075D01*
X46132519Y-84592481D01*
X46107925Y-84562515D01*
X46089657Y-84528337D01*
X46078404Y-84491242D01*
X46074000Y-84446526D01*
X46074000Y-83553474D01*
X46078404Y-83508758D01*
X46089657Y-83471663D01*
X46107925Y-83437485D01*
X46132519Y-83407519D01*
X46162485Y-83382925D01*
X46196663Y-83364657D01*
X46233758Y-83353404D01*
X46278474Y-83349000D01*
X47721526Y-83349000D01*
X47766242Y-83353404D01*
G37*
G36*
X138122578Y-83444197D02*
G01*
X138175350Y-83454694D01*
X138274770Y-83495875D01*
X138364246Y-83555661D01*
X138440339Y-83631754D01*
X138500125Y-83721230D01*
X138541306Y-83820650D01*
X138562300Y-83926194D01*
X138562300Y-84033806D01*
X138541306Y-84139350D01*
X138500125Y-84238770D01*
X138440339Y-84328246D01*
X138364246Y-84404339D01*
X138274770Y-84464125D01*
X138175350Y-84505306D01*
X138122578Y-84515803D01*
X138069807Y-84526300D01*
X137962193Y-84526300D01*
X137909422Y-84515803D01*
X137856650Y-84505306D01*
X137757230Y-84464125D01*
X137667754Y-84404339D01*
X137591661Y-84328246D01*
X137531875Y-84238770D01*
X137490694Y-84139350D01*
X137469700Y-84033806D01*
X137469700Y-83926194D01*
X137490694Y-83820650D01*
X137531875Y-83721230D01*
X137591661Y-83631754D01*
X137667754Y-83555661D01*
X137757230Y-83495875D01*
X137856650Y-83454694D01*
X137909422Y-83444197D01*
X137962193Y-83433700D01*
X138069807Y-83433700D01*
X138122578Y-83444197D01*
G37*
G36*
X136090578Y-83444197D02*
G01*
X136143350Y-83454694D01*
X136242770Y-83495875D01*
X136332246Y-83555661D01*
X136408339Y-83631754D01*
X136468125Y-83721230D01*
X136509306Y-83820650D01*
X136530300Y-83926194D01*
X136530300Y-84033806D01*
X136509306Y-84139350D01*
X136468125Y-84238770D01*
X136408339Y-84328246D01*
X136332246Y-84404339D01*
X136242770Y-84464125D01*
X136143350Y-84505306D01*
X136090578Y-84515803D01*
X136037807Y-84526300D01*
X135930193Y-84526300D01*
X135877422Y-84515803D01*
X135824650Y-84505306D01*
X135725230Y-84464125D01*
X135635754Y-84404339D01*
X135559661Y-84328246D01*
X135499875Y-84238770D01*
X135458694Y-84139350D01*
X135437700Y-84033806D01*
X135437700Y-83926194D01*
X135458694Y-83820650D01*
X135499875Y-83721230D01*
X135559661Y-83631754D01*
X135635754Y-83555661D01*
X135725230Y-83495875D01*
X135824650Y-83454694D01*
X135877422Y-83444197D01*
X135930193Y-83433700D01*
X136037807Y-83433700D01*
X136090578Y-83444197D01*
G37*
G36*
X199235442Y-81605518D02*
G01*
X199301627Y-81612037D01*
X199471466Y-81663557D01*
X199627991Y-81747222D01*
X199630971Y-81749668D01*
X199765186Y-81859814D01*
X199848448Y-81961271D01*
X199877778Y-81997009D01*
X199961443Y-82153534D01*
X200012963Y-82323373D01*
X200030359Y-82500000D01*
X200012963Y-82676627D01*
X199961443Y-82846466D01*
X199877778Y-83002991D01*
X199848448Y-83038729D01*
X199765186Y-83140186D01*
X199663729Y-83223448D01*
X199627991Y-83252778D01*
X199471466Y-83336443D01*
X199301627Y-83387963D01*
X199235443Y-83394481D01*
X199169260Y-83401000D01*
X198830740Y-83401000D01*
X198764557Y-83394481D01*
X198698373Y-83387963D01*
X198528534Y-83336443D01*
X198372009Y-83252778D01*
X198336271Y-83223448D01*
X198234814Y-83140186D01*
X198151552Y-83038729D01*
X198122222Y-83002991D01*
X198038557Y-82846466D01*
X197987037Y-82676627D01*
X197969641Y-82500000D01*
X197987037Y-82323373D01*
X198038557Y-82153534D01*
X198122222Y-81997009D01*
X198151552Y-81961271D01*
X198234814Y-81859814D01*
X198369029Y-81749668D01*
X198372009Y-81747222D01*
X198528534Y-81663557D01*
X198698373Y-81612037D01*
X198764558Y-81605518D01*
X198830740Y-81599000D01*
X199169260Y-81599000D01*
X199235442Y-81605518D01*
G37*
G36*
X140883642Y-81529781D02*
G01*
X141029414Y-81590162D01*
X141029416Y-81590163D01*
X141160608Y-81677822D01*
X141272178Y-81789392D01*
X141331980Y-81878893D01*
X141359838Y-81920586D01*
X141420219Y-82066358D01*
X141451000Y-82221107D01*
X141451000Y-82378893D01*
X141420219Y-82533642D01*
X141360993Y-82676625D01*
X141359837Y-82679416D01*
X141272178Y-82810608D01*
X141160608Y-82922178D01*
X141029416Y-83009837D01*
X141029415Y-83009838D01*
X141029414Y-83009838D01*
X140883642Y-83070219D01*
X140728893Y-83101000D01*
X140571107Y-83101000D01*
X140416358Y-83070219D01*
X140270586Y-83009838D01*
X140270585Y-83009838D01*
X140270584Y-83009837D01*
X140139392Y-82922178D01*
X140027822Y-82810608D01*
X139940163Y-82679416D01*
X139939007Y-82676625D01*
X139879781Y-82533642D01*
X139849000Y-82378893D01*
X139849000Y-82221107D01*
X139879781Y-82066358D01*
X139940162Y-81920586D01*
X139968020Y-81878893D01*
X140027822Y-81789392D01*
X140139392Y-81677822D01*
X140270584Y-81590163D01*
X140270586Y-81590162D01*
X140416358Y-81529781D01*
X140571107Y-81499000D01*
X140728893Y-81499000D01*
X140883642Y-81529781D01*
G37*
G36*
X47338855Y-81352140D02*
G01*
X47402618Y-81358420D01*
X47484768Y-81383340D01*
X47525336Y-81395646D01*
X47638425Y-81456094D01*
X47737554Y-81537446D01*
X47818906Y-81636575D01*
X47879354Y-81749664D01*
X47879355Y-81749668D01*
X47916580Y-81872382D01*
X47929149Y-82000000D01*
X47916580Y-82127618D01*
X47908719Y-82153532D01*
X47879354Y-82250336D01*
X47818906Y-82363425D01*
X47737554Y-82462554D01*
X47638425Y-82543906D01*
X47525336Y-82604354D01*
X47493404Y-82614040D01*
X47402618Y-82641580D01*
X47338855Y-82647860D01*
X47306974Y-82651000D01*
X46693026Y-82651000D01*
X46661145Y-82647860D01*
X46597382Y-82641580D01*
X46506596Y-82614040D01*
X46474664Y-82604354D01*
X46361575Y-82543906D01*
X46262446Y-82462554D01*
X46181094Y-82363425D01*
X46120646Y-82250336D01*
X46091281Y-82153532D01*
X46083420Y-82127618D01*
X46070851Y-82000000D01*
X46083420Y-81872382D01*
X46120645Y-81749668D01*
X46120646Y-81749664D01*
X46181094Y-81636575D01*
X46262446Y-81537446D01*
X46361575Y-81456094D01*
X46474664Y-81395646D01*
X46515232Y-81383340D01*
X46597382Y-81358420D01*
X46661145Y-81352140D01*
X46693026Y-81349000D01*
X47306974Y-81349000D01*
X47338855Y-81352140D01*
G37*
G36*
X90633642Y-81029781D02*
G01*
X90779414Y-81090162D01*
X90779416Y-81090163D01*
X90910608Y-81177822D01*
X91022178Y-81289392D01*
X91084952Y-81383341D01*
X91109838Y-81420586D01*
X91170219Y-81566358D01*
X91201000Y-81721107D01*
X91201000Y-81878893D01*
X91170219Y-82033642D01*
X91120558Y-82153534D01*
X91109837Y-82179416D01*
X91022178Y-82310608D01*
X90910608Y-82422178D01*
X90779416Y-82509837D01*
X90779415Y-82509838D01*
X90779414Y-82509838D01*
X90633642Y-82570219D01*
X90478893Y-82601000D01*
X90321107Y-82601000D01*
X90166358Y-82570219D01*
X90020586Y-82509838D01*
X90020585Y-82509838D01*
X90020584Y-82509837D01*
X89889392Y-82422178D01*
X89777822Y-82310608D01*
X89690163Y-82179416D01*
X89679442Y-82153534D01*
X89629781Y-82033642D01*
X89599000Y-81878893D01*
X89599000Y-81721107D01*
X89629781Y-81566358D01*
X89690162Y-81420586D01*
X89715048Y-81383341D01*
X89777822Y-81289392D01*
X89889392Y-81177822D01*
X90020584Y-81090163D01*
X90020586Y-81090162D01*
X90166358Y-81029781D01*
X90321107Y-80999000D01*
X90478893Y-80999000D01*
X90633642Y-81029781D01*
G37*
G36*
X64901000Y-81551000D02*
G01*
X63399000Y-81551000D01*
X63399000Y-80049000D01*
X64901000Y-80049000D01*
X64901000Y-81551000D01*
G37*
G36*
X71989059Y-80077860D02*
G01*
X72109181Y-80127616D01*
X72125732Y-80134472D01*
X72248735Y-80216660D01*
X72353340Y-80321265D01*
X72435528Y-80444268D01*
X72492140Y-80580941D01*
X72521000Y-80726033D01*
X72521000Y-80873967D01*
X72492140Y-81019059D01*
X72435528Y-81155732D01*
X72353340Y-81278735D01*
X72248735Y-81383340D01*
X72125732Y-81465528D01*
X72125731Y-81465529D01*
X72125730Y-81465529D01*
X71989059Y-81522140D01*
X71843968Y-81551000D01*
X71696032Y-81551000D01*
X71550941Y-81522140D01*
X71414270Y-81465529D01*
X71414269Y-81465529D01*
X71414268Y-81465528D01*
X71291265Y-81383340D01*
X71186660Y-81278735D01*
X71104472Y-81155732D01*
X71047860Y-81019059D01*
X71019000Y-80873967D01*
X71019000Y-80726033D01*
X71047860Y-80580941D01*
X71104472Y-80444268D01*
X71186660Y-80321265D01*
X71291265Y-80216660D01*
X71414268Y-80134472D01*
X71430820Y-80127616D01*
X71550941Y-80077860D01*
X71696032Y-80049000D01*
X71843968Y-80049000D01*
X71989059Y-80077860D01*
G37*
G36*
X77059059Y-80077860D02*
G01*
X77179181Y-80127616D01*
X77195732Y-80134472D01*
X77318735Y-80216660D01*
X77423340Y-80321265D01*
X77505528Y-80444268D01*
X77562140Y-80580941D01*
X77591000Y-80726033D01*
X77591000Y-80873967D01*
X77562140Y-81019059D01*
X77505528Y-81155732D01*
X77423340Y-81278735D01*
X77318735Y-81383340D01*
X77195732Y-81465528D01*
X77195731Y-81465529D01*
X77195730Y-81465529D01*
X77059059Y-81522140D01*
X76913968Y-81551000D01*
X76766032Y-81551000D01*
X76620941Y-81522140D01*
X76484270Y-81465529D01*
X76484269Y-81465529D01*
X76484268Y-81465528D01*
X76361265Y-81383340D01*
X76256660Y-81278735D01*
X76174472Y-81155732D01*
X76117860Y-81019059D01*
X76089000Y-80873967D01*
X76089000Y-80726033D01*
X76117860Y-80580941D01*
X76174472Y-80444268D01*
X76256660Y-80321265D01*
X76361265Y-80216660D01*
X76484268Y-80134472D01*
X76500820Y-80127616D01*
X76620941Y-80077860D01*
X76766032Y-80049000D01*
X76913968Y-80049000D01*
X77059059Y-80077860D01*
G37*
G36*
X82149059Y-80077860D02*
G01*
X82269181Y-80127616D01*
X82285732Y-80134472D01*
X82408735Y-80216660D01*
X82513340Y-80321265D01*
X82595528Y-80444268D01*
X82652140Y-80580941D01*
X82681000Y-80726033D01*
X82681000Y-80873967D01*
X82652140Y-81019059D01*
X82595528Y-81155732D01*
X82513340Y-81278735D01*
X82408735Y-81383340D01*
X82285732Y-81465528D01*
X82285731Y-81465529D01*
X82285730Y-81465529D01*
X82149059Y-81522140D01*
X82003968Y-81551000D01*
X81856032Y-81551000D01*
X81710941Y-81522140D01*
X81574270Y-81465529D01*
X81574269Y-81465529D01*
X81574268Y-81465528D01*
X81451265Y-81383340D01*
X81346660Y-81278735D01*
X81264472Y-81155732D01*
X81207860Y-81019059D01*
X81179000Y-80873967D01*
X81179000Y-80726033D01*
X81207860Y-80580941D01*
X81264472Y-80444268D01*
X81346660Y-80321265D01*
X81451265Y-80216660D01*
X81574268Y-80134472D01*
X81590820Y-80127616D01*
X81710941Y-80077860D01*
X81856032Y-80049000D01*
X82003968Y-80049000D01*
X82149059Y-80077860D01*
G37*
G36*
X199235442Y-79105518D02*
G01*
X199301627Y-79112037D01*
X199471466Y-79163557D01*
X199471468Y-79163558D01*
X199484616Y-79170586D01*
X199627991Y-79247222D01*
X199663729Y-79276552D01*
X199765186Y-79359814D01*
X199844200Y-79456094D01*
X199877778Y-79497009D01*
X199877779Y-79497011D01*
X199948272Y-79628892D01*
X199961443Y-79653534D01*
X200012963Y-79823373D01*
X200030359Y-80000000D01*
X200012963Y-80176627D01*
X199961443Y-80346466D01*
X199877778Y-80502991D01*
X199848448Y-80538729D01*
X199765186Y-80640186D01*
X199663729Y-80723448D01*
X199627991Y-80752778D01*
X199471466Y-80836443D01*
X199301627Y-80887963D01*
X199235442Y-80894482D01*
X199169260Y-80901000D01*
X198830740Y-80901000D01*
X198764558Y-80894482D01*
X198698373Y-80887963D01*
X198528534Y-80836443D01*
X198372009Y-80752778D01*
X198336271Y-80723448D01*
X198234814Y-80640186D01*
X198151552Y-80538729D01*
X198122222Y-80502991D01*
X198038557Y-80346466D01*
X197987037Y-80176627D01*
X197969641Y-80000000D01*
X197987037Y-79823373D01*
X198038557Y-79653534D01*
X198051729Y-79628892D01*
X198122221Y-79497011D01*
X198122222Y-79497009D01*
X198155800Y-79456094D01*
X198234814Y-79359814D01*
X198336271Y-79276552D01*
X198372009Y-79247222D01*
X198515384Y-79170586D01*
X198528532Y-79163558D01*
X198528534Y-79163557D01*
X198698373Y-79112037D01*
X198764558Y-79105518D01*
X198830740Y-79099000D01*
X199169260Y-79099000D01*
X199235442Y-79105518D01*
G37*
G36*
X47338855Y-79352140D02*
G01*
X47402618Y-79358420D01*
X47493404Y-79385960D01*
X47525336Y-79395646D01*
X47638425Y-79456094D01*
X47737554Y-79537446D01*
X47818906Y-79636575D01*
X47879354Y-79749664D01*
X47879355Y-79749668D01*
X47916580Y-79872382D01*
X47929149Y-80000000D01*
X47916580Y-80127618D01*
X47903063Y-80172178D01*
X47879354Y-80250336D01*
X47818906Y-80363425D01*
X47737554Y-80462554D01*
X47638425Y-80543906D01*
X47525336Y-80604354D01*
X47493404Y-80614040D01*
X47402618Y-80641580D01*
X47338855Y-80647860D01*
X47306974Y-80651000D01*
X46693026Y-80651000D01*
X46661145Y-80647860D01*
X46597382Y-80641580D01*
X46506596Y-80614040D01*
X46474664Y-80604354D01*
X46361575Y-80543906D01*
X46262446Y-80462554D01*
X46181094Y-80363425D01*
X46120646Y-80250336D01*
X46096937Y-80172178D01*
X46083420Y-80127618D01*
X46070851Y-80000000D01*
X46083420Y-79872382D01*
X46120645Y-79749668D01*
X46120646Y-79749664D01*
X46181094Y-79636575D01*
X46262446Y-79537446D01*
X46361575Y-79456094D01*
X46474664Y-79395646D01*
X46506596Y-79385960D01*
X46597382Y-79358420D01*
X46661145Y-79352140D01*
X46693026Y-79349000D01*
X47306974Y-79349000D01*
X47338855Y-79352140D01*
G37*
G36*
X136383642Y-79029781D02*
G01*
X136529414Y-79090162D01*
X136529416Y-79090163D01*
X136660608Y-79177822D01*
X136772178Y-79289392D01*
X136843173Y-79395645D01*
X136859838Y-79420586D01*
X136920219Y-79566358D01*
X136951000Y-79721107D01*
X136951000Y-79878893D01*
X136920219Y-80033642D01*
X136862835Y-80172178D01*
X136859837Y-80179416D01*
X136772178Y-80310608D01*
X136660608Y-80422178D01*
X136529416Y-80509837D01*
X136529415Y-80509838D01*
X136529414Y-80509838D01*
X136383642Y-80570219D01*
X136228893Y-80601000D01*
X136071107Y-80601000D01*
X135916358Y-80570219D01*
X135770586Y-80509838D01*
X135770585Y-80509838D01*
X135770584Y-80509837D01*
X135639392Y-80422178D01*
X135527822Y-80310608D01*
X135440163Y-80179416D01*
X135437165Y-80172178D01*
X135379781Y-80033642D01*
X135349000Y-79878893D01*
X135349000Y-79721107D01*
X135379781Y-79566358D01*
X135440162Y-79420586D01*
X135456827Y-79395645D01*
X135527822Y-79289392D01*
X135639392Y-79177822D01*
X135770584Y-79090163D01*
X135770586Y-79090162D01*
X135916358Y-79029781D01*
X136071107Y-78999000D01*
X136228893Y-78999000D01*
X136383642Y-79029781D01*
G37*
G36*
X86133642Y-78779781D02*
G01*
X86279414Y-78840162D01*
X86279416Y-78840163D01*
X86410608Y-78927822D01*
X86522178Y-79039392D01*
X86605142Y-79163558D01*
X86609838Y-79170586D01*
X86670219Y-79316358D01*
X86701000Y-79471107D01*
X86701000Y-79628893D01*
X86670219Y-79783642D01*
X86609838Y-79929414D01*
X86609837Y-79929416D01*
X86522178Y-80060608D01*
X86410608Y-80172178D01*
X86279416Y-80259837D01*
X86279415Y-80259838D01*
X86279414Y-80259838D01*
X86133642Y-80320219D01*
X85978893Y-80351000D01*
X85821107Y-80351000D01*
X85666358Y-80320219D01*
X85520586Y-80259838D01*
X85520585Y-80259838D01*
X85520584Y-80259837D01*
X85389392Y-80172178D01*
X85277822Y-80060608D01*
X85190163Y-79929416D01*
X85190162Y-79929414D01*
X85129781Y-79783642D01*
X85099000Y-79628893D01*
X85099000Y-79471107D01*
X85129781Y-79316358D01*
X85190162Y-79170586D01*
X85194858Y-79163558D01*
X85277822Y-79039392D01*
X85389392Y-78927822D01*
X85520584Y-78840163D01*
X85520586Y-78840162D01*
X85666358Y-78779781D01*
X85821107Y-78749000D01*
X85978893Y-78749000D01*
X86133642Y-78779781D01*
G37*
G36*
X199883600Y-76602989D02*
G01*
X199916652Y-76613015D01*
X199947103Y-76629292D01*
X199973799Y-76651201D01*
X199995708Y-76677897D01*
X200011985Y-76708348D01*
X200022011Y-76741400D01*
X200026000Y-76781903D01*
X200026000Y-78218097D01*
X200022011Y-78258600D01*
X200011985Y-78291652D01*
X199995708Y-78322103D01*
X199973799Y-78348799D01*
X199947103Y-78370708D01*
X199916652Y-78386985D01*
X199883600Y-78397011D01*
X199843097Y-78401000D01*
X198156903Y-78401000D01*
X198116400Y-78397011D01*
X198083348Y-78386985D01*
X198052897Y-78370708D01*
X198026201Y-78348799D01*
X198004292Y-78322103D01*
X197988015Y-78291652D01*
X197977989Y-78258600D01*
X197974000Y-78218097D01*
X197974000Y-76781903D01*
X197977989Y-76741400D01*
X197988015Y-76708348D01*
X198004292Y-76677897D01*
X198026201Y-76651201D01*
X198052897Y-76629292D01*
X198083348Y-76613015D01*
X198116400Y-76602989D01*
X198156903Y-76599000D01*
X199843097Y-76599000D01*
X199883600Y-76602989D01*
G37*
G36*
X197189890Y-75274017D02*
G01*
X197308364Y-75323091D01*
X197414988Y-75394335D01*
X197505665Y-75485012D01*
X197576909Y-75591636D01*
X197625983Y-75710110D01*
X197651000Y-75835882D01*
X197651000Y-75964118D01*
X197625983Y-76089890D01*
X197576909Y-76208364D01*
X197505665Y-76314988D01*
X197414988Y-76405665D01*
X197308364Y-76476909D01*
X197308363Y-76476910D01*
X197308362Y-76476910D01*
X197189890Y-76525983D01*
X197064119Y-76551000D01*
X196935881Y-76551000D01*
X196810110Y-76525983D01*
X196691638Y-76476910D01*
X196691637Y-76476910D01*
X196691636Y-76476909D01*
X196585012Y-76405665D01*
X196494335Y-76314988D01*
X196423091Y-76208364D01*
X196374017Y-76089890D01*
X196349000Y-75964118D01*
X196349000Y-75835882D01*
X196374017Y-75710110D01*
X196423091Y-75591636D01*
X196494335Y-75485012D01*
X196585012Y-75394335D01*
X196691636Y-75323091D01*
X196810110Y-75274017D01*
X196935881Y-75249000D01*
X197064119Y-75249000D01*
X197189890Y-75274017D01*
G37*
G36*
X47766242Y-73353404D02*
G01*
X47803337Y-73364657D01*
X47837515Y-73382925D01*
X47867481Y-73407519D01*
X47892075Y-73437485D01*
X47910343Y-73471663D01*
X47921596Y-73508758D01*
X47926000Y-73553474D01*
X47926000Y-74446526D01*
X47921596Y-74491242D01*
X47910343Y-74528337D01*
X47892075Y-74562515D01*
X47867481Y-74592481D01*
X47837515Y-74617075D01*
X47803337Y-74635343D01*
X47766242Y-74646596D01*
X47721526Y-74651000D01*
X46278474Y-74651000D01*
X46233758Y-74646596D01*
X46196663Y-74635343D01*
X46162485Y-74617075D01*
X46132519Y-74592481D01*
X46107925Y-74562515D01*
X46089657Y-74528337D01*
X46078404Y-74491242D01*
X46074000Y-74446526D01*
X46074000Y-73553474D01*
X46078404Y-73508758D01*
X46089657Y-73471663D01*
X46107925Y-73437485D01*
X46132519Y-73407519D01*
X46162485Y-73382925D01*
X46196663Y-73364657D01*
X46233758Y-73353404D01*
X46278474Y-73349000D01*
X47721526Y-73349000D01*
X47766242Y-73353404D01*
G37*
G36*
X64318785Y-72447860D02*
G01*
X64369059Y-72457860D01*
X64505732Y-72514472D01*
X64628735Y-72596660D01*
X64733340Y-72701265D01*
X64815528Y-72824268D01*
X64815529Y-72824270D01*
X64872140Y-72960941D01*
X64901000Y-73106032D01*
X64901000Y-73253968D01*
X64878983Y-73364657D01*
X64872140Y-73399059D01*
X64815528Y-73535732D01*
X64733340Y-73658735D01*
X64628735Y-73763340D01*
X64505732Y-73845528D01*
X64505731Y-73845529D01*
X64505730Y-73845529D01*
X64369059Y-73902140D01*
X64223968Y-73931000D01*
X64076032Y-73931000D01*
X63930941Y-73902140D01*
X63794270Y-73845529D01*
X63794269Y-73845529D01*
X63794268Y-73845528D01*
X63671265Y-73763340D01*
X63566660Y-73658735D01*
X63484472Y-73535732D01*
X63427860Y-73399059D01*
X63421017Y-73364657D01*
X63399000Y-73253968D01*
X63399000Y-73106032D01*
X63427860Y-72960941D01*
X63484471Y-72824270D01*
X63484472Y-72824268D01*
X63566660Y-72701265D01*
X63671265Y-72596660D01*
X63794268Y-72514472D01*
X63930941Y-72457860D01*
X63981215Y-72447860D01*
X64076032Y-72429000D01*
X64223968Y-72429000D01*
X64318785Y-72447860D01*
G37*
G36*
X71938785Y-72447860D02*
G01*
X71989059Y-72457860D01*
X72125732Y-72514472D01*
X72248735Y-72596660D01*
X72353340Y-72701265D01*
X72435528Y-72824268D01*
X72435529Y-72824270D01*
X72492140Y-72960941D01*
X72521000Y-73106032D01*
X72521000Y-73253968D01*
X72498983Y-73364657D01*
X72492140Y-73399059D01*
X72435528Y-73535732D01*
X72353340Y-73658735D01*
X72248735Y-73763340D01*
X72125732Y-73845528D01*
X72125731Y-73845529D01*
X72125730Y-73845529D01*
X71989059Y-73902140D01*
X71843968Y-73931000D01*
X71696032Y-73931000D01*
X71550941Y-73902140D01*
X71414270Y-73845529D01*
X71414269Y-73845529D01*
X71414268Y-73845528D01*
X71291265Y-73763340D01*
X71186660Y-73658735D01*
X71104472Y-73535732D01*
X71047860Y-73399059D01*
X71041017Y-73364657D01*
X71019000Y-73253968D01*
X71019000Y-73106032D01*
X71047860Y-72960941D01*
X71104471Y-72824270D01*
X71104472Y-72824268D01*
X71186660Y-72701265D01*
X71291265Y-72596660D01*
X71414268Y-72514472D01*
X71550941Y-72457860D01*
X71601215Y-72447860D01*
X71696032Y-72429000D01*
X71843968Y-72429000D01*
X71938785Y-72447860D01*
G37*
G36*
X77079059Y-72447860D02*
G01*
X77215732Y-72504472D01*
X77338735Y-72586660D01*
X77443340Y-72691265D01*
X77525528Y-72814268D01*
X77582140Y-72950941D01*
X77611000Y-73096033D01*
X77611000Y-73243967D01*
X77582140Y-73389059D01*
X77525528Y-73525732D01*
X77443340Y-73648735D01*
X77338735Y-73753340D01*
X77215732Y-73835528D01*
X77215731Y-73835529D01*
X77215730Y-73835529D01*
X77079059Y-73892140D01*
X76933968Y-73921000D01*
X76786032Y-73921000D01*
X76640941Y-73892140D01*
X76504270Y-73835529D01*
X76504269Y-73835529D01*
X76504268Y-73835528D01*
X76381265Y-73753340D01*
X76276660Y-73648735D01*
X76194472Y-73525732D01*
X76137860Y-73389059D01*
X76109000Y-73243967D01*
X76109000Y-73096033D01*
X76137860Y-72950941D01*
X76194472Y-72814268D01*
X76276660Y-72691265D01*
X76381265Y-72586660D01*
X76504268Y-72504472D01*
X76640941Y-72447860D01*
X76786032Y-72419000D01*
X76933968Y-72419000D01*
X77079059Y-72447860D01*
G37*
G36*
X82159059Y-72447860D02*
G01*
X82295732Y-72504472D01*
X82418735Y-72586660D01*
X82523340Y-72691265D01*
X82605528Y-72814268D01*
X82662140Y-72950941D01*
X82691000Y-73096033D01*
X82691000Y-73243967D01*
X82662140Y-73389059D01*
X82605528Y-73525732D01*
X82523340Y-73648735D01*
X82418735Y-73753340D01*
X82295732Y-73835528D01*
X82295731Y-73835529D01*
X82295730Y-73835529D01*
X82159059Y-73892140D01*
X82013968Y-73921000D01*
X81866032Y-73921000D01*
X81720941Y-73892140D01*
X81584270Y-73835529D01*
X81584269Y-73835529D01*
X81584268Y-73835528D01*
X81461265Y-73753340D01*
X81356660Y-73648735D01*
X81274472Y-73525732D01*
X81217860Y-73389059D01*
X81189000Y-73243967D01*
X81189000Y-73096033D01*
X81217860Y-72950941D01*
X81274472Y-72814268D01*
X81356660Y-72691265D01*
X81461265Y-72586660D01*
X81584268Y-72504472D01*
X81720941Y-72447860D01*
X81866032Y-72419000D01*
X82013968Y-72419000D01*
X82159059Y-72447860D01*
G37*
G36*
X47338855Y-71352140D02*
G01*
X47402618Y-71358420D01*
X47493404Y-71385960D01*
X47525336Y-71395646D01*
X47638425Y-71456094D01*
X47737554Y-71537446D01*
X47818906Y-71636575D01*
X47879354Y-71749664D01*
X47879355Y-71749668D01*
X47916580Y-71872382D01*
X47929149Y-72000000D01*
X47916580Y-72127618D01*
X47889040Y-72218404D01*
X47879354Y-72250336D01*
X47818906Y-72363425D01*
X47737554Y-72462554D01*
X47638425Y-72543906D01*
X47525336Y-72604354D01*
X47493404Y-72614040D01*
X47402618Y-72641580D01*
X47338855Y-72647860D01*
X47306974Y-72651000D01*
X46693026Y-72651000D01*
X46661145Y-72647860D01*
X46597382Y-72641580D01*
X46506596Y-72614040D01*
X46474664Y-72604354D01*
X46361575Y-72543906D01*
X46262446Y-72462554D01*
X46181094Y-72363425D01*
X46120646Y-72250336D01*
X46110960Y-72218404D01*
X46083420Y-72127618D01*
X46070851Y-72000000D01*
X46083420Y-71872382D01*
X46120645Y-71749668D01*
X46120646Y-71749664D01*
X46181094Y-71636575D01*
X46262446Y-71537446D01*
X46361575Y-71456094D01*
X46474664Y-71395646D01*
X46506596Y-71385960D01*
X46597382Y-71358420D01*
X46661145Y-71352140D01*
X46693026Y-71349000D01*
X47306974Y-71349000D01*
X47338855Y-71352140D01*
G37*
G36*
X200338855Y-69852140D02*
G01*
X200402618Y-69858420D01*
X200493404Y-69885960D01*
X200525336Y-69895646D01*
X200638425Y-69956094D01*
X200737554Y-70037446D01*
X200818906Y-70136575D01*
X200879354Y-70249664D01*
X200879558Y-70250336D01*
X200916580Y-70372382D01*
X200929149Y-70500000D01*
X200916580Y-70627618D01*
X200909487Y-70651000D01*
X200879354Y-70750336D01*
X200818906Y-70863425D01*
X200737554Y-70962554D01*
X200638425Y-71043906D01*
X200525336Y-71104354D01*
X200493404Y-71114040D01*
X200402618Y-71141580D01*
X200338855Y-71147860D01*
X200306974Y-71151000D01*
X199693026Y-71151000D01*
X199661145Y-71147860D01*
X199597382Y-71141580D01*
X199506596Y-71114040D01*
X199474664Y-71104354D01*
X199361575Y-71043906D01*
X199262446Y-70962554D01*
X199181094Y-70863425D01*
X199120646Y-70750336D01*
X199090513Y-70651000D01*
X199083420Y-70627618D01*
X199070851Y-70500000D01*
X199083420Y-70372382D01*
X199120442Y-70250336D01*
X199120646Y-70249664D01*
X199181094Y-70136575D01*
X199262446Y-70037446D01*
X199361575Y-69956094D01*
X199474664Y-69895646D01*
X199506596Y-69885960D01*
X199597382Y-69858420D01*
X199661145Y-69852140D01*
X199693026Y-69849000D01*
X200306974Y-69849000D01*
X200338855Y-69852140D01*
G37*
G36*
X47338855Y-69352140D02*
G01*
X47402618Y-69358420D01*
X47486334Y-69383815D01*
X47525336Y-69395646D01*
X47638425Y-69456094D01*
X47737554Y-69537446D01*
X47818906Y-69636575D01*
X47879354Y-69749664D01*
X47879355Y-69749668D01*
X47916580Y-69872382D01*
X47929149Y-70000000D01*
X47916580Y-70127618D01*
X47909487Y-70151000D01*
X47879354Y-70250336D01*
X47818906Y-70363425D01*
X47737554Y-70462554D01*
X47638425Y-70543906D01*
X47525336Y-70604354D01*
X47493404Y-70614040D01*
X47402618Y-70641580D01*
X47338855Y-70647860D01*
X47306974Y-70651000D01*
X46693026Y-70651000D01*
X46661145Y-70647860D01*
X46597382Y-70641580D01*
X46506596Y-70614040D01*
X46474664Y-70604354D01*
X46361575Y-70543906D01*
X46262446Y-70462554D01*
X46181094Y-70363425D01*
X46120646Y-70250336D01*
X46090513Y-70151000D01*
X46083420Y-70127618D01*
X46070851Y-70000000D01*
X46083420Y-69872382D01*
X46120645Y-69749668D01*
X46120646Y-69749664D01*
X46181094Y-69636575D01*
X46262446Y-69537446D01*
X46361575Y-69456094D01*
X46474664Y-69395646D01*
X46513666Y-69383815D01*
X46597382Y-69358420D01*
X46661145Y-69352140D01*
X46693026Y-69349000D01*
X47306974Y-69349000D01*
X47338855Y-69352140D01*
G37*
G36*
X150751000Y-70151000D02*
G01*
X149049000Y-70151000D01*
X149049000Y-68449000D01*
X150751000Y-68449000D01*
X150751000Y-70151000D01*
G37*
G36*
X146648228Y-68481703D02*
G01*
X146803100Y-68545853D01*
X146942481Y-68638985D01*
X147061015Y-68757519D01*
X147154147Y-68896900D01*
X147218297Y-69051772D01*
X147251000Y-69216184D01*
X147251000Y-69383816D01*
X147218297Y-69548228D01*
X147154147Y-69703100D01*
X147061015Y-69842481D01*
X146942481Y-69961015D01*
X146803100Y-70054147D01*
X146648228Y-70118297D01*
X146483816Y-70151000D01*
X146316184Y-70151000D01*
X146151772Y-70118297D01*
X145996900Y-70054147D01*
X145857519Y-69961015D01*
X145738985Y-69842481D01*
X145645853Y-69703100D01*
X145581703Y-69548228D01*
X145549000Y-69383816D01*
X145549000Y-69216184D01*
X145581703Y-69051772D01*
X145645853Y-68896900D01*
X145738985Y-68757519D01*
X145857519Y-68638985D01*
X145996900Y-68545853D01*
X146151772Y-68481703D01*
X146316184Y-68449000D01*
X146483816Y-68449000D01*
X146648228Y-68481703D01*
G37*
G36*
X200766242Y-67853404D02*
G01*
X200803337Y-67864657D01*
X200837515Y-67882925D01*
X200867481Y-67907519D01*
X200892075Y-67937485D01*
X200910343Y-67971663D01*
X200921596Y-68008758D01*
X200926000Y-68053474D01*
X200926000Y-68946526D01*
X200921596Y-68991242D01*
X200910343Y-69028337D01*
X200892075Y-69062515D01*
X200867481Y-69092481D01*
X200837515Y-69117075D01*
X200803337Y-69135343D01*
X200766242Y-69146596D01*
X200721526Y-69151000D01*
X199278474Y-69151000D01*
X199233758Y-69146596D01*
X199196663Y-69135343D01*
X199162485Y-69117075D01*
X199132519Y-69092481D01*
X199107925Y-69062515D01*
X199089657Y-69028337D01*
X199078404Y-68991242D01*
X199074000Y-68946526D01*
X199074000Y-68053474D01*
X199078404Y-68008758D01*
X199089657Y-67971663D01*
X199107925Y-67937485D01*
X199132519Y-67907519D01*
X199162485Y-67882925D01*
X199196663Y-67864657D01*
X199233758Y-67853404D01*
X199278474Y-67849000D01*
X200721526Y-67849000D01*
X200766242Y-67853404D01*
G37*
G36*
X75398228Y-64231703D02*
G01*
X75553100Y-64295853D01*
X75692481Y-64388985D01*
X75811015Y-64507519D01*
X75904147Y-64646900D01*
X75968297Y-64801772D01*
X76001000Y-64966184D01*
X76001000Y-65133816D01*
X75968297Y-65298228D01*
X75904147Y-65453100D01*
X75811015Y-65592481D01*
X75692481Y-65711015D01*
X75553100Y-65804147D01*
X75398228Y-65868297D01*
X75233816Y-65901000D01*
X75066184Y-65901000D01*
X74901772Y-65868297D01*
X74746900Y-65804147D01*
X74607519Y-65711015D01*
X74488985Y-65592481D01*
X74395853Y-65453100D01*
X74331703Y-65298228D01*
X74299000Y-65133816D01*
X74299000Y-64966184D01*
X74331703Y-64801772D01*
X74395853Y-64646900D01*
X74488985Y-64507519D01*
X74607519Y-64388985D01*
X74746900Y-64295853D01*
X74901772Y-64231703D01*
X75066184Y-64199000D01*
X75233816Y-64199000D01*
X75398228Y-64231703D01*
G37*
G36*
X72501000Y-65901000D02*
G01*
X70799000Y-65901000D01*
X70799000Y-64199000D01*
X72501000Y-64199000D01*
X72501000Y-65901000D01*
G37*
G36*
X63898228Y-64231703D02*
G01*
X64053100Y-64295853D01*
X64192481Y-64388985D01*
X64311015Y-64507519D01*
X64404147Y-64646900D01*
X64468297Y-64801772D01*
X64501000Y-64966184D01*
X64501000Y-65133816D01*
X64468297Y-65298228D01*
X64404147Y-65453100D01*
X64311015Y-65592481D01*
X64192481Y-65711015D01*
X64053100Y-65804147D01*
X63898228Y-65868297D01*
X63733816Y-65901000D01*
X63566184Y-65901000D01*
X63401772Y-65868297D01*
X63246900Y-65804147D01*
X63107519Y-65711015D01*
X62988985Y-65592481D01*
X62895853Y-65453100D01*
X62831703Y-65298228D01*
X62799000Y-65133816D01*
X62799000Y-64966184D01*
X62831703Y-64801772D01*
X62895853Y-64646900D01*
X62988985Y-64507519D01*
X63107519Y-64388985D01*
X63246900Y-64295853D01*
X63401772Y-64231703D01*
X63566184Y-64199000D01*
X63733816Y-64199000D01*
X63898228Y-64231703D01*
G37*
G36*
X61001000Y-65901000D02*
G01*
X59299000Y-65901000D01*
X59299000Y-64199000D01*
X61001000Y-64199000D01*
X61001000Y-65901000D01*
G37*
G36*
X155048228Y-63181703D02*
G01*
X155203100Y-63245853D01*
X155342481Y-63338985D01*
X155461015Y-63457519D01*
X155554147Y-63596900D01*
X155618297Y-63751772D01*
X155651000Y-63916184D01*
X155651000Y-64083816D01*
X155618297Y-64248228D01*
X155554147Y-64403100D01*
X155461015Y-64542481D01*
X155342481Y-64661015D01*
X155203100Y-64754147D01*
X155048228Y-64818297D01*
X154883816Y-64851000D01*
X154716184Y-64851000D01*
X154551772Y-64818297D01*
X154396900Y-64754147D01*
X154257519Y-64661015D01*
X154138985Y-64542481D01*
X154045853Y-64403100D01*
X153981703Y-64248228D01*
X153949000Y-64083816D01*
X153949000Y-63916184D01*
X153981703Y-63751772D01*
X154045853Y-63596900D01*
X154138985Y-63457519D01*
X154257519Y-63338985D01*
X154396900Y-63245853D01*
X154551772Y-63181703D01*
X154716184Y-63149000D01*
X154883816Y-63149000D01*
X155048228Y-63181703D01*
G37*
G36*
X159151000Y-64851000D02*
G01*
X157449000Y-64851000D01*
X157449000Y-63149000D01*
X159151000Y-63149000D01*
X159151000Y-64851000D01*
G37*
G36*
X47766242Y-63353404D02*
G01*
X47803337Y-63364657D01*
X47837515Y-63382925D01*
X47867481Y-63407519D01*
X47892075Y-63437485D01*
X47910343Y-63471663D01*
X47921596Y-63508758D01*
X47926000Y-63553474D01*
X47926000Y-64446526D01*
X47921596Y-64491242D01*
X47910343Y-64528337D01*
X47892075Y-64562515D01*
X47867481Y-64592481D01*
X47837515Y-64617075D01*
X47803337Y-64635343D01*
X47766242Y-64646596D01*
X47721526Y-64651000D01*
X46278474Y-64651000D01*
X46233758Y-64646596D01*
X46196663Y-64635343D01*
X46162485Y-64617075D01*
X46132519Y-64592481D01*
X46107925Y-64562515D01*
X46089657Y-64528337D01*
X46078404Y-64491242D01*
X46074000Y-64446526D01*
X46074000Y-63553474D01*
X46078404Y-63508758D01*
X46089657Y-63471663D01*
X46107925Y-63437485D01*
X46132519Y-63407519D01*
X46162485Y-63382925D01*
X46196663Y-63364657D01*
X46233758Y-63353404D01*
X46278474Y-63349000D01*
X47721526Y-63349000D01*
X47766242Y-63353404D01*
G37*
G36*
X200338855Y-61852140D02*
G01*
X200402618Y-61858420D01*
X200493404Y-61885960D01*
X200525336Y-61895646D01*
X200638425Y-61956094D01*
X200737554Y-62037446D01*
X200818906Y-62136575D01*
X200879354Y-62249664D01*
X200879558Y-62250336D01*
X200916580Y-62372382D01*
X200929149Y-62500000D01*
X200916580Y-62627618D01*
X200909487Y-62651000D01*
X200879354Y-62750336D01*
X200818906Y-62863425D01*
X200737554Y-62962554D01*
X200638425Y-63043906D01*
X200525336Y-63104354D01*
X200493404Y-63114040D01*
X200402618Y-63141580D01*
X200338855Y-63147860D01*
X200306974Y-63151000D01*
X199693026Y-63151000D01*
X199661145Y-63147860D01*
X199597382Y-63141580D01*
X199506596Y-63114040D01*
X199474664Y-63104354D01*
X199361575Y-63043906D01*
X199262446Y-62962554D01*
X199181094Y-62863425D01*
X199120646Y-62750336D01*
X199090513Y-62651000D01*
X199083420Y-62627618D01*
X199070851Y-62500000D01*
X199083420Y-62372382D01*
X199120442Y-62250336D01*
X199120646Y-62249664D01*
X199181094Y-62136575D01*
X199262446Y-62037446D01*
X199361575Y-61956094D01*
X199474664Y-61895646D01*
X199506596Y-61885960D01*
X199597382Y-61858420D01*
X199661145Y-61852140D01*
X199693026Y-61849000D01*
X200306974Y-61849000D01*
X200338855Y-61852140D01*
G37*
G36*
X47338855Y-61352140D02*
G01*
X47402618Y-61358420D01*
X47493404Y-61385960D01*
X47525336Y-61395646D01*
X47638425Y-61456094D01*
X47737554Y-61537446D01*
X47818906Y-61636575D01*
X47879354Y-61749664D01*
X47879355Y-61749668D01*
X47916580Y-61872382D01*
X47929149Y-62000000D01*
X47916580Y-62127618D01*
X47889040Y-62218404D01*
X47879354Y-62250336D01*
X47818906Y-62363425D01*
X47737554Y-62462554D01*
X47638425Y-62543906D01*
X47525336Y-62604354D01*
X47493404Y-62614040D01*
X47402618Y-62641580D01*
X47338855Y-62647860D01*
X47306974Y-62651000D01*
X46693026Y-62651000D01*
X46661145Y-62647860D01*
X46597382Y-62641580D01*
X46506596Y-62614040D01*
X46474664Y-62604354D01*
X46361575Y-62543906D01*
X46262446Y-62462554D01*
X46181094Y-62363425D01*
X46120646Y-62250336D01*
X46110960Y-62218404D01*
X46083420Y-62127618D01*
X46070851Y-62000000D01*
X46083420Y-61872382D01*
X46120645Y-61749668D01*
X46120646Y-61749664D01*
X46181094Y-61636575D01*
X46262446Y-61537446D01*
X46361575Y-61456094D01*
X46474664Y-61395646D01*
X46506596Y-61385960D01*
X46597382Y-61358420D01*
X46661145Y-61352140D01*
X46693026Y-61349000D01*
X47306974Y-61349000D01*
X47338855Y-61352140D01*
G37*
G36*
X200766242Y-59853404D02*
G01*
X200803337Y-59864657D01*
X200837515Y-59882925D01*
X200867481Y-59907519D01*
X200892075Y-59937485D01*
X200910343Y-59971663D01*
X200921596Y-60008758D01*
X200926000Y-60053474D01*
X200926000Y-60946526D01*
X200921596Y-60991242D01*
X200910343Y-61028337D01*
X200892075Y-61062515D01*
X200867481Y-61092481D01*
X200837515Y-61117075D01*
X200803337Y-61135343D01*
X200766242Y-61146596D01*
X200721526Y-61151000D01*
X199278474Y-61151000D01*
X199233758Y-61146596D01*
X199196663Y-61135343D01*
X199162485Y-61117075D01*
X199132519Y-61092481D01*
X199107925Y-61062515D01*
X199089657Y-61028337D01*
X199078404Y-60991242D01*
X199074000Y-60946526D01*
X199074000Y-60053474D01*
X199078404Y-60008758D01*
X199089657Y-59971663D01*
X199107925Y-59937485D01*
X199132519Y-59907519D01*
X199162485Y-59882925D01*
X199196663Y-59864657D01*
X199233758Y-59853404D01*
X199278474Y-59849000D01*
X200721526Y-59849000D01*
X200766242Y-59853404D01*
G37*
G36*
X125483642Y-53729781D02*
G01*
X125629414Y-53790162D01*
X125629416Y-53790163D01*
X125760608Y-53877822D01*
X125872178Y-53989392D01*
X125959837Y-54120584D01*
X125959838Y-54120586D01*
X126020219Y-54266358D01*
X126051000Y-54421107D01*
X126051000Y-54578893D01*
X126020219Y-54733642D01*
X125977637Y-54836443D01*
X125959837Y-54879416D01*
X125872178Y-55010608D01*
X125760608Y-55122178D01*
X125629416Y-55209837D01*
X125629415Y-55209838D01*
X125629414Y-55209838D01*
X125483642Y-55270219D01*
X125328893Y-55301000D01*
X125171107Y-55301000D01*
X125016358Y-55270219D01*
X124870586Y-55209838D01*
X124870585Y-55209838D01*
X124870584Y-55209837D01*
X124739392Y-55122178D01*
X124627822Y-55010608D01*
X124540163Y-54879416D01*
X124522363Y-54836443D01*
X124479781Y-54733642D01*
X124449000Y-54578893D01*
X124449000Y-54421107D01*
X124479781Y-54266358D01*
X124540162Y-54120586D01*
X124540163Y-54120584D01*
X124627822Y-53989392D01*
X124739392Y-53877822D01*
X124870584Y-53790163D01*
X124870586Y-53790162D01*
X125016358Y-53729781D01*
X125171107Y-53699000D01*
X125328893Y-53699000D01*
X125483642Y-53729781D01*
G37*
G36*
X120603642Y-53729781D02*
G01*
X120749414Y-53790162D01*
X120749416Y-53790163D01*
X120880608Y-53877822D01*
X120992178Y-53989392D01*
X121079837Y-54120584D01*
X121079838Y-54120586D01*
X121140219Y-54266358D01*
X121171000Y-54421107D01*
X121171000Y-54578893D01*
X121140219Y-54733642D01*
X121097637Y-54836443D01*
X121079837Y-54879416D01*
X120992178Y-55010608D01*
X120880608Y-55122178D01*
X120749416Y-55209837D01*
X120749415Y-55209838D01*
X120749414Y-55209838D01*
X120603642Y-55270219D01*
X120448893Y-55301000D01*
X120291107Y-55301000D01*
X120136358Y-55270219D01*
X119990586Y-55209838D01*
X119990585Y-55209838D01*
X119990584Y-55209837D01*
X119859392Y-55122178D01*
X119747822Y-55010608D01*
X119660163Y-54879416D01*
X119642363Y-54836443D01*
X119599781Y-54733642D01*
X119569000Y-54578893D01*
X119569000Y-54421107D01*
X119599781Y-54266358D01*
X119660162Y-54120586D01*
X119660163Y-54120584D01*
X119747822Y-53989392D01*
X119859392Y-53877822D01*
X119990584Y-53790163D01*
X119990586Y-53790162D01*
X120136358Y-53729781D01*
X120291107Y-53699000D01*
X120448893Y-53699000D01*
X120603642Y-53729781D01*
G37*
G36*
X199285442Y-53105518D02*
G01*
X199351627Y-53112037D01*
X199521466Y-53163557D01*
X199677991Y-53247222D01*
X199713729Y-53276552D01*
X199815186Y-53359814D01*
X199898448Y-53461271D01*
X199927778Y-53497009D01*
X200011443Y-53653534D01*
X200062963Y-53823373D01*
X200080359Y-54000000D01*
X200062963Y-54176627D01*
X200011443Y-54346466D01*
X199927778Y-54502991D01*
X199898448Y-54538729D01*
X199815186Y-54640186D01*
X199713729Y-54723448D01*
X199677991Y-54752778D01*
X199521466Y-54836443D01*
X199351627Y-54887963D01*
X199285442Y-54894482D01*
X199219260Y-54901000D01*
X198880740Y-54901000D01*
X198814558Y-54894482D01*
X198748373Y-54887963D01*
X198578534Y-54836443D01*
X198422009Y-54752778D01*
X198386271Y-54723448D01*
X198284814Y-54640186D01*
X198201552Y-54538729D01*
X198172222Y-54502991D01*
X198088557Y-54346466D01*
X198037037Y-54176627D01*
X198019641Y-54000000D01*
X198037037Y-53823373D01*
X198088557Y-53653534D01*
X198172222Y-53497009D01*
X198201552Y-53461271D01*
X198284814Y-53359814D01*
X198386271Y-53276552D01*
X198422009Y-53247222D01*
X198578534Y-53163557D01*
X198748373Y-53112037D01*
X198814558Y-53105518D01*
X198880740Y-53099000D01*
X199219260Y-53099000D01*
X199285442Y-53105518D01*
G37*
G36*
X199285443Y-50605519D02*
G01*
X199351627Y-50612037D01*
X199521466Y-50663557D01*
X199677991Y-50747222D01*
X199713729Y-50776552D01*
X199815186Y-50859814D01*
X199898448Y-50961271D01*
X199927778Y-50997009D01*
X200011443Y-51153534D01*
X200062963Y-51323373D01*
X200080359Y-51500000D01*
X200062963Y-51676627D01*
X200011443Y-51846466D01*
X199927778Y-52002991D01*
X199898448Y-52038729D01*
X199815186Y-52140186D01*
X199713729Y-52223448D01*
X199677991Y-52252778D01*
X199521466Y-52336443D01*
X199351627Y-52387963D01*
X199285443Y-52394481D01*
X199219260Y-52401000D01*
X198880740Y-52401000D01*
X198814557Y-52394481D01*
X198748373Y-52387963D01*
X198578534Y-52336443D01*
X198422009Y-52252778D01*
X198386271Y-52223448D01*
X198284814Y-52140186D01*
X198201552Y-52038729D01*
X198172222Y-52002991D01*
X198088557Y-51846466D01*
X198037037Y-51676627D01*
X198019641Y-51500000D01*
X198037037Y-51323373D01*
X198088557Y-51153534D01*
X198172222Y-50997009D01*
X198201552Y-50961271D01*
X198284814Y-50859814D01*
X198386271Y-50776552D01*
X198422009Y-50747222D01*
X198578534Y-50663557D01*
X198748373Y-50612037D01*
X198814557Y-50605519D01*
X198880740Y-50599000D01*
X199219260Y-50599000D01*
X199285443Y-50605519D01*
G37*
G36*
X199285442Y-48105518D02*
G01*
X199351627Y-48112037D01*
X199521466Y-48163557D01*
X199677991Y-48247222D01*
X199682594Y-48251000D01*
X199815186Y-48359814D01*
X199898448Y-48461271D01*
X199927778Y-48497009D01*
X200011443Y-48653534D01*
X200062963Y-48823373D01*
X200080359Y-49000000D01*
X200062963Y-49176627D01*
X200011443Y-49346466D01*
X199927778Y-49502991D01*
X199898448Y-49538729D01*
X199815186Y-49640186D01*
X199713729Y-49723448D01*
X199677991Y-49752778D01*
X199521466Y-49836443D01*
X199351627Y-49887963D01*
X199285442Y-49894482D01*
X199219260Y-49901000D01*
X198880740Y-49901000D01*
X198814557Y-49894481D01*
X198748373Y-49887963D01*
X198578534Y-49836443D01*
X198422009Y-49752778D01*
X198386271Y-49723448D01*
X198284814Y-49640186D01*
X198201552Y-49538729D01*
X198172222Y-49502991D01*
X198088557Y-49346466D01*
X198037037Y-49176627D01*
X198019641Y-49000000D01*
X198037037Y-48823373D01*
X198088557Y-48653534D01*
X198172222Y-48497009D01*
X198201552Y-48461271D01*
X198284814Y-48359814D01*
X198417406Y-48251000D01*
X198422009Y-48247222D01*
X198578534Y-48163557D01*
X198748373Y-48112037D01*
X198814558Y-48105518D01*
X198880740Y-48099000D01*
X199219260Y-48099000D01*
X199285442Y-48105518D01*
G37*
G36*
X50189890Y-46974017D02*
G01*
X50308364Y-47023091D01*
X50414988Y-47094335D01*
X50505665Y-47185012D01*
X50574181Y-47287553D01*
X50576910Y-47291638D01*
X50603710Y-47356339D01*
X50625983Y-47410110D01*
X50651000Y-47535882D01*
X50651000Y-47664118D01*
X50625983Y-47789890D01*
X50576909Y-47908364D01*
X50505665Y-48014988D01*
X50414988Y-48105665D01*
X50308364Y-48176909D01*
X50308363Y-48176910D01*
X50308362Y-48176910D01*
X50189890Y-48225983D01*
X50064119Y-48251000D01*
X49935881Y-48251000D01*
X49810110Y-48225983D01*
X49691638Y-48176910D01*
X49691637Y-48176910D01*
X49691636Y-48176909D01*
X49585012Y-48105665D01*
X49494335Y-48014988D01*
X49423091Y-47908364D01*
X49374017Y-47789890D01*
X49349000Y-47664118D01*
X49349000Y-47535882D01*
X49374017Y-47410110D01*
X49396290Y-47356339D01*
X49423090Y-47291638D01*
X49425820Y-47287553D01*
X49494335Y-47185012D01*
X49585012Y-47094335D01*
X49691636Y-47023091D01*
X49810110Y-46974017D01*
X49935881Y-46949000D01*
X50064119Y-46949000D01*
X50189890Y-46974017D01*
G37*
G36*
X136277617Y-45633420D02*
G01*
X136358399Y-45657925D01*
X136400335Y-45670646D01*
X136513424Y-45731094D01*
X136612554Y-45812447D01*
X136693906Y-45911575D01*
X136754354Y-46024664D01*
X136764040Y-46056596D01*
X136791580Y-46147382D01*
X136801000Y-46243027D01*
X136801000Y-46856973D01*
X136791580Y-46952618D01*
X136770202Y-47023090D01*
X136754354Y-47075336D01*
X136693906Y-47188425D01*
X136612554Y-47287554D01*
X136513425Y-47368906D01*
X136400336Y-47429354D01*
X136368404Y-47439040D01*
X136277618Y-47466580D01*
X136150000Y-47479149D01*
X136022383Y-47466580D01*
X135931597Y-47439040D01*
X135899665Y-47429354D01*
X135786576Y-47368906D01*
X135687447Y-47287554D01*
X135606096Y-47188427D01*
X135606095Y-47188425D01*
X135545647Y-47075336D01*
X135545645Y-47075333D01*
X135529798Y-47023090D01*
X135508420Y-46952618D01*
X135499000Y-46856973D01*
X135499000Y-46243028D01*
X135508420Y-46147383D01*
X135545645Y-46024669D01*
X135545646Y-46024665D01*
X135606094Y-45911576D01*
X135687447Y-45812446D01*
X135786575Y-45731094D01*
X135899664Y-45670646D01*
X135941600Y-45657925D01*
X136022382Y-45633420D01*
X136150000Y-45620851D01*
X136277617Y-45633420D01*
G37*
G36*
X147777617Y-45633420D02*
G01*
X147858399Y-45657925D01*
X147900335Y-45670646D01*
X148013424Y-45731094D01*
X148112554Y-45812447D01*
X148193906Y-45911575D01*
X148254354Y-46024664D01*
X148264040Y-46056596D01*
X148291580Y-46147382D01*
X148301000Y-46243027D01*
X148301000Y-46856973D01*
X148291580Y-46952618D01*
X148270202Y-47023090D01*
X148254354Y-47075336D01*
X148193906Y-47188425D01*
X148112554Y-47287554D01*
X148013425Y-47368906D01*
X147900336Y-47429354D01*
X147868404Y-47439040D01*
X147777618Y-47466580D01*
X147650000Y-47479149D01*
X147522383Y-47466580D01*
X147431597Y-47439040D01*
X147399665Y-47429354D01*
X147286576Y-47368906D01*
X147187447Y-47287554D01*
X147106096Y-47188427D01*
X147106095Y-47188425D01*
X147045647Y-47075336D01*
X147045645Y-47075333D01*
X147029798Y-47023090D01*
X147008420Y-46952618D01*
X146999000Y-46856973D01*
X146999000Y-46243028D01*
X147008420Y-46147383D01*
X147045645Y-46024669D01*
X147045646Y-46024665D01*
X147106094Y-45911576D01*
X147187447Y-45812446D01*
X147286575Y-45731094D01*
X147399664Y-45670646D01*
X147441600Y-45657925D01*
X147522382Y-45633420D01*
X147650000Y-45620851D01*
X147777617Y-45633420D01*
G37*
G36*
X145777617Y-45633420D02*
G01*
X145858399Y-45657925D01*
X145900335Y-45670646D01*
X146013424Y-45731094D01*
X146112554Y-45812447D01*
X146193906Y-45911575D01*
X146254354Y-46024664D01*
X146264040Y-46056596D01*
X146291580Y-46147382D01*
X146301000Y-46243027D01*
X146301000Y-46856973D01*
X146291580Y-46952618D01*
X146270202Y-47023090D01*
X146254354Y-47075336D01*
X146193906Y-47188425D01*
X146112554Y-47287554D01*
X146013425Y-47368906D01*
X145900336Y-47429354D01*
X145868404Y-47439040D01*
X145777618Y-47466580D01*
X145650000Y-47479149D01*
X145522383Y-47466580D01*
X145431597Y-47439040D01*
X145399665Y-47429354D01*
X145286576Y-47368906D01*
X145187447Y-47287554D01*
X145106096Y-47188427D01*
X145106095Y-47188425D01*
X145045647Y-47075336D01*
X145045645Y-47075333D01*
X145029798Y-47023090D01*
X145008420Y-46952618D01*
X144999000Y-46856973D01*
X144999000Y-46243028D01*
X145008420Y-46147383D01*
X145045645Y-46024669D01*
X145045646Y-46024665D01*
X145106094Y-45911576D01*
X145187447Y-45812446D01*
X145286575Y-45731094D01*
X145399664Y-45670646D01*
X145441600Y-45657925D01*
X145522382Y-45633420D01*
X145650000Y-45620851D01*
X145777617Y-45633420D01*
G37*
G36*
X138277617Y-45633420D02*
G01*
X138358399Y-45657925D01*
X138400335Y-45670646D01*
X138513424Y-45731094D01*
X138612554Y-45812447D01*
X138693906Y-45911575D01*
X138754354Y-46024664D01*
X138764040Y-46056596D01*
X138791580Y-46147382D01*
X138801000Y-46243027D01*
X138801000Y-46856973D01*
X138791580Y-46952618D01*
X138770202Y-47023090D01*
X138754354Y-47075336D01*
X138693906Y-47188425D01*
X138612554Y-47287554D01*
X138513425Y-47368906D01*
X138400336Y-47429354D01*
X138368404Y-47439040D01*
X138277618Y-47466580D01*
X138150000Y-47479149D01*
X138022383Y-47466580D01*
X137931597Y-47439040D01*
X137899665Y-47429354D01*
X137786576Y-47368906D01*
X137687447Y-47287554D01*
X137606096Y-47188427D01*
X137606095Y-47188425D01*
X137545647Y-47075336D01*
X137545645Y-47075333D01*
X137529798Y-47023090D01*
X137508420Y-46952618D01*
X137499000Y-46856973D01*
X137499000Y-46243028D01*
X137508420Y-46147383D01*
X137545645Y-46024669D01*
X137545646Y-46024665D01*
X137606094Y-45911576D01*
X137687447Y-45812446D01*
X137786575Y-45731094D01*
X137899664Y-45670646D01*
X137941600Y-45657925D01*
X138022382Y-45633420D01*
X138150000Y-45620851D01*
X138277617Y-45633420D01*
G37*
G36*
X134641242Y-45628404D02*
G01*
X134678337Y-45639657D01*
X134712515Y-45657925D01*
X134742481Y-45682519D01*
X134767075Y-45712485D01*
X134785343Y-45746663D01*
X134796596Y-45783758D01*
X134801000Y-45828474D01*
X134801000Y-47271526D01*
X134796596Y-47316242D01*
X134785343Y-47353337D01*
X134767075Y-47387515D01*
X134742481Y-47417481D01*
X134712515Y-47442075D01*
X134678337Y-47460343D01*
X134641242Y-47471596D01*
X134596526Y-47476000D01*
X133703474Y-47476000D01*
X133658758Y-47471596D01*
X133621663Y-47460343D01*
X133587485Y-47442075D01*
X133557519Y-47417481D01*
X133532925Y-47387515D01*
X133514657Y-47353337D01*
X133503404Y-47316242D01*
X133499000Y-47271526D01*
X133499000Y-45828474D01*
X133503404Y-45783758D01*
X133514657Y-45746663D01*
X133532925Y-45712485D01*
X133557519Y-45682519D01*
X133587485Y-45657925D01*
X133621663Y-45639657D01*
X133658758Y-45628404D01*
X133703474Y-45624000D01*
X134596526Y-45624000D01*
X134641242Y-45628404D01*
G37*
G36*
X144141242Y-45628404D02*
G01*
X144178337Y-45639657D01*
X144212515Y-45657925D01*
X144242481Y-45682519D01*
X144267075Y-45712485D01*
X144285343Y-45746663D01*
X144296596Y-45783758D01*
X144301000Y-45828474D01*
X144301000Y-47271526D01*
X144296596Y-47316242D01*
X144285343Y-47353337D01*
X144267075Y-47387515D01*
X144242481Y-47417481D01*
X144212515Y-47442075D01*
X144178337Y-47460343D01*
X144141242Y-47471596D01*
X144096526Y-47476000D01*
X143203474Y-47476000D01*
X143158758Y-47471596D01*
X143121663Y-47460343D01*
X143087485Y-47442075D01*
X143057519Y-47417481D01*
X143032925Y-47387515D01*
X143014657Y-47353337D01*
X143003404Y-47316242D01*
X142999000Y-47271526D01*
X142999000Y-45828474D01*
X143003404Y-45783758D01*
X143014657Y-45746663D01*
X143032925Y-45712485D01*
X143057519Y-45682519D01*
X143087485Y-45657925D01*
X143121663Y-45639657D01*
X143158758Y-45628404D01*
X143203474Y-45624000D01*
X144096526Y-45624000D01*
X144141242Y-45628404D01*
G37*
G36*
X199933600Y-45602989D02*
G01*
X199966652Y-45613015D01*
X199997103Y-45629292D01*
X200023799Y-45651201D01*
X200045708Y-45677897D01*
X200061985Y-45708348D01*
X200072011Y-45741400D01*
X200076000Y-45781903D01*
X200076000Y-47218097D01*
X200072011Y-47258600D01*
X200061985Y-47291652D01*
X200045708Y-47322103D01*
X200023799Y-47348799D01*
X199997103Y-47370708D01*
X199966652Y-47386985D01*
X199933600Y-47397011D01*
X199893097Y-47401000D01*
X198206903Y-47401000D01*
X198166400Y-47397011D01*
X198133348Y-47386985D01*
X198102897Y-47370708D01*
X198076201Y-47348799D01*
X198054292Y-47322103D01*
X198038015Y-47291652D01*
X198027989Y-47258600D01*
X198024000Y-47218097D01*
X198024000Y-45781903D01*
X198027989Y-45741400D01*
X198038015Y-45708348D01*
X198054292Y-45677897D01*
X198076201Y-45651201D01*
X198102897Y-45629292D01*
X198133348Y-45613015D01*
X198166400Y-45602989D01*
X198206903Y-45599000D01*
X199893097Y-45599000D01*
X199933600Y-45602989D01*
G37*
G36*
X48908600Y-45102989D02*
G01*
X48941652Y-45113015D01*
X48972103Y-45129292D01*
X48998799Y-45151201D01*
X49020708Y-45177897D01*
X49036985Y-45208348D01*
X49047011Y-45241400D01*
X49051000Y-45281903D01*
X49051000Y-46718097D01*
X49047011Y-46758600D01*
X49036985Y-46791652D01*
X49020708Y-46822103D01*
X48998799Y-46848799D01*
X48972103Y-46870708D01*
X48941652Y-46886985D01*
X48908600Y-46897011D01*
X48868097Y-46901000D01*
X47131903Y-46901000D01*
X47091400Y-46897011D01*
X47058348Y-46886985D01*
X47027897Y-46870708D01*
X47001201Y-46848799D01*
X46979292Y-46822103D01*
X46963015Y-46791652D01*
X46952989Y-46758600D01*
X46949000Y-46718097D01*
X46949000Y-45281903D01*
X46952989Y-45241400D01*
X46963015Y-45208348D01*
X46979292Y-45177897D01*
X47001201Y-45151201D01*
X47027897Y-45129292D01*
X47058348Y-45113015D01*
X47091400Y-45102989D01*
X47131903Y-45099000D01*
X48868097Y-45099000D01*
X48908600Y-45102989D01*
G37*
G36*
X161301000Y-46451000D02*
G01*
X159599000Y-46451000D01*
X159599000Y-44749000D01*
X161301000Y-44749000D01*
X161301000Y-46451000D01*
G37*
G36*
X157198228Y-44781703D02*
G01*
X157353100Y-44845853D01*
X157492481Y-44938985D01*
X157611015Y-45057519D01*
X157704147Y-45196900D01*
X157768297Y-45351772D01*
X157801000Y-45516184D01*
X157801000Y-45683816D01*
X157768297Y-45848228D01*
X157704147Y-46003100D01*
X157611015Y-46142481D01*
X157492481Y-46261015D01*
X157353100Y-46354147D01*
X157198228Y-46418297D01*
X157033816Y-46451000D01*
X156866184Y-46451000D01*
X156701772Y-46418297D01*
X156546900Y-46354147D01*
X156407519Y-46261015D01*
X156288985Y-46142481D01*
X156195853Y-46003100D01*
X156131703Y-45848228D01*
X156099000Y-45683816D01*
X156099000Y-45516184D01*
X156131703Y-45351772D01*
X156195853Y-45196900D01*
X156288985Y-45057519D01*
X156407519Y-44938985D01*
X156546900Y-44845853D01*
X156701772Y-44781703D01*
X156866184Y-44749000D01*
X157033816Y-44749000D01*
X157198228Y-44781703D01*
G37*
G36*
X197239890Y-44274017D02*
G01*
X197358364Y-44323091D01*
X197455452Y-44387963D01*
X197464988Y-44394335D01*
X197555665Y-44485012D01*
X197626910Y-44591638D01*
X197675983Y-44710110D01*
X197701000Y-44835881D01*
X197701000Y-44964119D01*
X197675983Y-45089890D01*
X197631657Y-45196903D01*
X197626909Y-45208364D01*
X197555665Y-45314988D01*
X197464988Y-45405665D01*
X197358364Y-45476909D01*
X197358363Y-45476910D01*
X197358362Y-45476910D01*
X197239890Y-45525983D01*
X197114119Y-45551000D01*
X196985881Y-45551000D01*
X196860110Y-45525983D01*
X196741638Y-45476910D01*
X196741637Y-45476910D01*
X196741636Y-45476909D01*
X196635012Y-45405665D01*
X196544335Y-45314988D01*
X196473091Y-45208364D01*
X196468344Y-45196903D01*
X196424017Y-45089890D01*
X196399000Y-44964119D01*
X196399000Y-44835881D01*
X196424017Y-44710110D01*
X196473090Y-44591638D01*
X196544335Y-44485012D01*
X196635012Y-44394335D01*
X196644548Y-44387963D01*
X196741636Y-44323091D01*
X196860110Y-44274017D01*
X196985881Y-44249000D01*
X197114119Y-44249000D01*
X197239890Y-44274017D01*
G37*
G36*
X48260443Y-42605519D02*
G01*
X48326627Y-42612037D01*
X48496466Y-42663557D01*
X48652991Y-42747222D01*
X48688729Y-42776552D01*
X48790186Y-42859814D01*
X48873448Y-42961271D01*
X48902778Y-42997009D01*
X48986443Y-43153534D01*
X49037963Y-43323373D01*
X49055359Y-43500000D01*
X49037963Y-43676627D01*
X48986443Y-43846466D01*
X48902778Y-44002991D01*
X48873448Y-44038729D01*
X48790186Y-44140186D01*
X48688729Y-44223448D01*
X48652991Y-44252778D01*
X48496466Y-44336443D01*
X48326627Y-44387963D01*
X48261930Y-44394335D01*
X48194260Y-44401000D01*
X47805740Y-44401000D01*
X47738070Y-44394335D01*
X47673373Y-44387963D01*
X47503534Y-44336443D01*
X47347009Y-44252778D01*
X47311271Y-44223448D01*
X47209814Y-44140186D01*
X47126552Y-44038729D01*
X47097222Y-44002991D01*
X47013557Y-43846466D01*
X46962037Y-43676627D01*
X46944641Y-43500000D01*
X46962037Y-43323373D01*
X47013557Y-43153534D01*
X47097222Y-42997009D01*
X47126552Y-42961271D01*
X47209814Y-42859814D01*
X47311271Y-42776552D01*
X47347009Y-42747222D01*
X47503534Y-42663557D01*
X47673373Y-42612037D01*
X47739557Y-42605519D01*
X47805740Y-42599000D01*
X48194260Y-42599000D01*
X48260443Y-42605519D01*
G37*
G36*
X200338855Y-39352140D02*
G01*
X200402618Y-39358420D01*
X200493404Y-39385960D01*
X200525336Y-39395646D01*
X200638425Y-39456094D01*
X200737554Y-39537446D01*
X200818906Y-39636575D01*
X200879354Y-39749664D01*
X200879355Y-39749668D01*
X200916580Y-39872382D01*
X200929149Y-40000000D01*
X200916580Y-40127618D01*
X200889040Y-40218404D01*
X200879354Y-40250336D01*
X200818906Y-40363425D01*
X200737554Y-40462554D01*
X200638425Y-40543906D01*
X200525336Y-40604354D01*
X200493404Y-40614040D01*
X200402618Y-40641580D01*
X200338855Y-40647860D01*
X200306974Y-40651000D01*
X199693026Y-40651000D01*
X199661145Y-40647860D01*
X199597382Y-40641580D01*
X199506596Y-40614040D01*
X199474664Y-40604354D01*
X199361575Y-40543906D01*
X199262446Y-40462554D01*
X199181094Y-40363425D01*
X199120646Y-40250336D01*
X199110960Y-40218404D01*
X199083420Y-40127618D01*
X199070851Y-40000000D01*
X199083420Y-39872382D01*
X199120645Y-39749668D01*
X199120646Y-39749664D01*
X199181094Y-39636575D01*
X199262446Y-39537446D01*
X199361575Y-39456094D01*
X199474664Y-39395646D01*
X199506596Y-39385960D01*
X199597382Y-39358420D01*
X199661145Y-39352140D01*
X199693026Y-39349000D01*
X200306974Y-39349000D01*
X200338855Y-39352140D01*
G37*
G36*
X200766242Y-37353404D02*
G01*
X200803337Y-37364657D01*
X200837515Y-37382925D01*
X200867481Y-37407519D01*
X200892075Y-37437485D01*
X200910343Y-37471663D01*
X200921596Y-37508758D01*
X200926000Y-37553474D01*
X200926000Y-38446526D01*
X200921596Y-38491242D01*
X200910343Y-38528337D01*
X200892075Y-38562515D01*
X200867481Y-38592481D01*
X200837515Y-38617075D01*
X200803337Y-38635343D01*
X200766242Y-38646596D01*
X200721526Y-38651000D01*
X199278474Y-38651000D01*
X199233758Y-38646596D01*
X199196663Y-38635343D01*
X199162485Y-38617075D01*
X199132519Y-38592481D01*
X199107925Y-38562515D01*
X199089657Y-38528337D01*
X199078404Y-38491242D01*
X199074000Y-38446526D01*
X199074000Y-37553474D01*
X199078404Y-37508758D01*
X199089657Y-37471663D01*
X199107925Y-37437485D01*
X199132519Y-37407519D01*
X199162485Y-37382925D01*
X199196663Y-37364657D01*
X199233758Y-37353404D01*
X199278474Y-37349000D01*
X200721526Y-37349000D01*
X200766242Y-37353404D01*
G37*
G36*
X118535787Y-25585462D02*
G01*
X118535790Y-25585463D01*
X118535789Y-25585463D01*
X119182029Y-25853144D01*
X119763631Y-26241758D01*
X120258242Y-26736369D01*
X120646856Y-27317971D01*
X120761541Y-27594845D01*
X120914538Y-27964213D01*
X121051000Y-28650256D01*
X121051000Y-29349744D01*
X120914538Y-30035787D01*
X120914537Y-30035789D01*
X120646856Y-30682029D01*
X120258242Y-31263631D01*
X119763631Y-31758242D01*
X119182029Y-32146856D01*
X118725068Y-32336135D01*
X118535787Y-32414538D01*
X117849744Y-32551000D01*
X117150256Y-32551000D01*
X116464213Y-32414538D01*
X116274932Y-32336135D01*
X115817971Y-32146856D01*
X115236369Y-31758242D01*
X114741758Y-31263631D01*
X114353144Y-30682029D01*
X114085463Y-30035789D01*
X114085462Y-30035787D01*
X113949000Y-29349744D01*
X113949000Y-28650256D01*
X114085462Y-27964213D01*
X114238459Y-27594845D01*
X114353144Y-27317971D01*
X114741758Y-26736369D01*
X115236369Y-26241758D01*
X115817971Y-25853144D01*
X116464211Y-25585463D01*
X116464210Y-25585463D01*
X116464213Y-25585462D01*
X117150256Y-25449000D01*
X117849744Y-25449000D01*
X118535787Y-25585462D01*
G37*
G36*
X200035787Y-25585462D02*
G01*
X200035790Y-25585463D01*
X200035789Y-25585463D01*
X200682029Y-25853144D01*
X201263631Y-26241758D01*
X201758242Y-26736369D01*
X202146856Y-27317971D01*
X202261541Y-27594845D01*
X202414538Y-27964213D01*
X202551000Y-28650256D01*
X202551000Y-29349744D01*
X202414538Y-30035787D01*
X202414537Y-30035789D01*
X202146856Y-30682029D01*
X201758242Y-31263631D01*
X201263631Y-31758242D01*
X200682029Y-32146856D01*
X200225068Y-32336135D01*
X200035787Y-32414538D01*
X199349744Y-32551000D01*
X198650256Y-32551000D01*
X197964213Y-32414538D01*
X197774932Y-32336135D01*
X197317971Y-32146856D01*
X196736369Y-31758242D01*
X196241758Y-31263631D01*
X195853144Y-30682029D01*
X195585463Y-30035789D01*
X195585462Y-30035787D01*
X195449000Y-29349744D01*
X195449000Y-28650256D01*
X195585462Y-27964213D01*
X195738459Y-27594845D01*
X195853144Y-27317971D01*
X196241758Y-26736369D01*
X196736369Y-26241758D01*
X197317971Y-25853144D01*
X197964211Y-25585463D01*
X197964210Y-25585463D01*
X197964213Y-25585462D01*
X198650256Y-25449000D01*
X199349744Y-25449000D01*
X200035787Y-25585462D01*
G37*
G36*
X49035787Y-25585462D02*
G01*
X49035790Y-25585463D01*
X49035789Y-25585463D01*
X49682029Y-25853144D01*
X50263631Y-26241758D01*
X50758242Y-26736369D01*
X51146856Y-27317971D01*
X51261541Y-27594845D01*
X51414538Y-27964213D01*
X51551000Y-28650256D01*
X51551000Y-29349744D01*
X51414538Y-30035787D01*
X51414537Y-30035789D01*
X51146856Y-30682029D01*
X50758242Y-31263631D01*
X50263631Y-31758242D01*
X49682029Y-32146856D01*
X49225068Y-32336135D01*
X49035787Y-32414538D01*
X48349744Y-32551000D01*
X47650256Y-32551000D01*
X46964213Y-32414538D01*
X46774932Y-32336135D01*
X46317971Y-32146856D01*
X45736369Y-31758242D01*
X45241758Y-31263631D01*
X44853144Y-30682029D01*
X44585463Y-30035789D01*
X44585462Y-30035787D01*
X44449000Y-29349744D01*
X44449000Y-28650256D01*
X44585462Y-27964213D01*
X44738459Y-27594845D01*
X44853144Y-27317971D01*
X45241758Y-26736369D01*
X45736369Y-26241758D01*
X46317971Y-25853144D01*
X46964211Y-25585463D01*
X46964210Y-25585463D01*
X46964213Y-25585462D01*
X47650256Y-25449000D01*
X48349744Y-25449000D01*
X49035787Y-25585462D01*
G37*
G36*
X83127617Y-27083420D02*
G01*
X83208399Y-27107925D01*
X83250335Y-27120646D01*
X83363424Y-27181094D01*
X83462554Y-27262447D01*
X83543906Y-27361575D01*
X83604354Y-27474664D01*
X83610268Y-27494159D01*
X83641580Y-27597382D01*
X83651000Y-27693027D01*
X83651000Y-28306973D01*
X83641580Y-28402618D01*
X83624880Y-28457669D01*
X83604354Y-28525336D01*
X83543906Y-28638425D01*
X83462554Y-28737554D01*
X83363425Y-28818906D01*
X83250336Y-28879354D01*
X83218404Y-28889040D01*
X83127618Y-28916580D01*
X83000000Y-28929149D01*
X82872383Y-28916580D01*
X82781597Y-28889040D01*
X82749665Y-28879354D01*
X82636576Y-28818906D01*
X82537447Y-28737554D01*
X82456096Y-28638427D01*
X82456095Y-28638425D01*
X82410614Y-28553337D01*
X82395645Y-28525333D01*
X82375120Y-28457669D01*
X82358420Y-28402618D01*
X82349000Y-28306973D01*
X82349000Y-27693028D01*
X82358420Y-27597383D01*
X82395645Y-27474669D01*
X82395646Y-27474665D01*
X82456094Y-27361576D01*
X82537447Y-27262446D01*
X82636575Y-27181094D01*
X82749664Y-27120646D01*
X82791600Y-27107925D01*
X82872382Y-27083420D01*
X83000000Y-27070851D01*
X83127617Y-27083420D01*
G37*
G36*
X109127617Y-27083420D02*
G01*
X109208399Y-27107925D01*
X109250335Y-27120646D01*
X109363424Y-27181094D01*
X109462554Y-27262447D01*
X109543906Y-27361575D01*
X109604354Y-27474664D01*
X109610268Y-27494159D01*
X109641580Y-27597382D01*
X109651000Y-27693027D01*
X109651000Y-28306973D01*
X109641580Y-28402618D01*
X109624880Y-28457669D01*
X109604354Y-28525336D01*
X109543906Y-28638425D01*
X109462554Y-28737554D01*
X109363425Y-28818906D01*
X109250336Y-28879354D01*
X109218404Y-28889040D01*
X109127618Y-28916580D01*
X109000000Y-28929149D01*
X108872383Y-28916580D01*
X108781597Y-28889040D01*
X108749665Y-28879354D01*
X108636576Y-28818906D01*
X108537447Y-28737554D01*
X108456096Y-28638427D01*
X108456095Y-28638425D01*
X108410614Y-28553337D01*
X108395645Y-28525333D01*
X108375120Y-28457669D01*
X108358420Y-28402618D01*
X108349000Y-28306973D01*
X108349000Y-27693028D01*
X108358420Y-27597383D01*
X108395645Y-27474669D01*
X108395646Y-27474665D01*
X108456094Y-27361576D01*
X108537447Y-27262446D01*
X108636575Y-27181094D01*
X108749664Y-27120646D01*
X108791600Y-27107925D01*
X108872382Y-27083420D01*
X109000000Y-27070851D01*
X109127617Y-27083420D01*
G37*
G36*
X93127617Y-27083420D02*
G01*
X93208399Y-27107925D01*
X93250335Y-27120646D01*
X93363424Y-27181094D01*
X93462554Y-27262447D01*
X93543906Y-27361575D01*
X93604354Y-27474664D01*
X93610268Y-27494159D01*
X93641580Y-27597382D01*
X93651000Y-27693027D01*
X93651000Y-28306973D01*
X93641580Y-28402618D01*
X93624880Y-28457669D01*
X93604354Y-28525336D01*
X93543906Y-28638425D01*
X93462554Y-28737554D01*
X93363425Y-28818906D01*
X93250336Y-28879354D01*
X93218404Y-28889040D01*
X93127618Y-28916580D01*
X93000000Y-28929149D01*
X92872383Y-28916580D01*
X92781597Y-28889040D01*
X92749665Y-28879354D01*
X92636576Y-28818906D01*
X92537447Y-28737554D01*
X92456096Y-28638427D01*
X92456095Y-28638425D01*
X92410614Y-28553337D01*
X92395645Y-28525333D01*
X92375120Y-28457669D01*
X92358420Y-28402618D01*
X92349000Y-28306973D01*
X92349000Y-27693028D01*
X92358420Y-27597383D01*
X92395645Y-27474669D01*
X92395646Y-27474665D01*
X92456094Y-27361576D01*
X92537447Y-27262446D01*
X92636575Y-27181094D01*
X92749664Y-27120646D01*
X92791600Y-27107925D01*
X92872382Y-27083420D01*
X93000000Y-27070851D01*
X93127617Y-27083420D01*
G37*
G36*
X91127617Y-27083420D02*
G01*
X91208399Y-27107925D01*
X91250335Y-27120646D01*
X91363424Y-27181094D01*
X91462554Y-27262447D01*
X91543906Y-27361575D01*
X91604354Y-27474664D01*
X91610268Y-27494159D01*
X91641580Y-27597382D01*
X91651000Y-27693027D01*
X91651000Y-28306973D01*
X91641580Y-28402618D01*
X91624880Y-28457669D01*
X91604354Y-28525336D01*
X91543906Y-28638425D01*
X91462554Y-28737554D01*
X91363425Y-28818906D01*
X91250336Y-28879354D01*
X91218404Y-28889040D01*
X91127618Y-28916580D01*
X91000000Y-28929149D01*
X90872383Y-28916580D01*
X90781597Y-28889040D01*
X90749665Y-28879354D01*
X90636576Y-28818906D01*
X90537447Y-28737554D01*
X90456096Y-28638427D01*
X90456095Y-28638425D01*
X90410614Y-28553337D01*
X90395645Y-28525333D01*
X90375120Y-28457669D01*
X90358420Y-28402618D01*
X90349000Y-28306973D01*
X90349000Y-27693028D01*
X90358420Y-27597383D01*
X90395645Y-27474669D01*
X90395646Y-27474665D01*
X90456094Y-27361576D01*
X90537447Y-27262446D01*
X90636575Y-27181094D01*
X90749664Y-27120646D01*
X90791600Y-27107925D01*
X90872382Y-27083420D01*
X91000000Y-27070851D01*
X91127617Y-27083420D01*
G37*
G36*
X75127617Y-27083420D02*
G01*
X75208399Y-27107925D01*
X75250335Y-27120646D01*
X75363424Y-27181094D01*
X75462554Y-27262447D01*
X75543906Y-27361575D01*
X75604354Y-27474664D01*
X75610268Y-27494159D01*
X75641580Y-27597382D01*
X75651000Y-27693027D01*
X75651000Y-28306973D01*
X75641580Y-28402618D01*
X75624880Y-28457669D01*
X75604354Y-28525336D01*
X75543906Y-28638425D01*
X75462554Y-28737554D01*
X75363425Y-28818906D01*
X75250336Y-28879354D01*
X75218404Y-28889040D01*
X75127618Y-28916580D01*
X75000000Y-28929149D01*
X74872383Y-28916580D01*
X74781597Y-28889040D01*
X74749665Y-28879354D01*
X74636576Y-28818906D01*
X74537447Y-28737554D01*
X74456096Y-28638427D01*
X74456095Y-28638425D01*
X74410614Y-28553337D01*
X74395645Y-28525333D01*
X74375120Y-28457669D01*
X74358420Y-28402618D01*
X74349000Y-28306973D01*
X74349000Y-27693028D01*
X74358420Y-27597383D01*
X74395645Y-27474669D01*
X74395646Y-27474665D01*
X74456094Y-27361576D01*
X74537447Y-27262446D01*
X74636575Y-27181094D01*
X74749664Y-27120646D01*
X74791600Y-27107925D01*
X74872382Y-27083420D01*
X75000000Y-27070851D01*
X75127617Y-27083420D01*
G37*
G36*
X59127617Y-27083420D02*
G01*
X59208399Y-27107925D01*
X59250335Y-27120646D01*
X59363424Y-27181094D01*
X59462554Y-27262447D01*
X59543906Y-27361575D01*
X59604354Y-27474664D01*
X59610268Y-27494159D01*
X59641580Y-27597382D01*
X59651000Y-27693027D01*
X59651000Y-28306973D01*
X59641580Y-28402618D01*
X59624880Y-28457669D01*
X59604354Y-28525336D01*
X59543906Y-28638425D01*
X59462554Y-28737554D01*
X59363425Y-28818906D01*
X59250336Y-28879354D01*
X59218404Y-28889040D01*
X59127618Y-28916580D01*
X59000000Y-28929149D01*
X58872383Y-28916580D01*
X58781597Y-28889040D01*
X58749665Y-28879354D01*
X58636576Y-28818906D01*
X58537447Y-28737554D01*
X58456096Y-28638427D01*
X58456095Y-28638425D01*
X58410614Y-28553337D01*
X58395645Y-28525333D01*
X58375120Y-28457669D01*
X58358420Y-28402618D01*
X58349000Y-28306973D01*
X58349000Y-27693028D01*
X58358420Y-27597383D01*
X58395645Y-27474669D01*
X58395646Y-27474665D01*
X58456094Y-27361576D01*
X58537447Y-27262446D01*
X58636575Y-27181094D01*
X58749664Y-27120646D01*
X58791600Y-27107925D01*
X58872382Y-27083420D01*
X59000000Y-27070851D01*
X59127617Y-27083420D01*
G37*
G36*
X101127617Y-27083420D02*
G01*
X101208399Y-27107925D01*
X101250335Y-27120646D01*
X101363424Y-27181094D01*
X101462554Y-27262447D01*
X101543906Y-27361575D01*
X101604354Y-27474664D01*
X101610268Y-27494159D01*
X101641580Y-27597382D01*
X101651000Y-27693027D01*
X101651000Y-28306973D01*
X101641580Y-28402618D01*
X101624880Y-28457669D01*
X101604354Y-28525336D01*
X101543906Y-28638425D01*
X101462554Y-28737554D01*
X101363425Y-28818906D01*
X101250336Y-28879354D01*
X101218404Y-28889040D01*
X101127618Y-28916580D01*
X101000000Y-28929149D01*
X100872383Y-28916580D01*
X100781597Y-28889040D01*
X100749665Y-28879354D01*
X100636576Y-28818906D01*
X100537447Y-28737554D01*
X100456096Y-28638427D01*
X100456095Y-28638425D01*
X100410614Y-28553337D01*
X100395645Y-28525333D01*
X100375120Y-28457669D01*
X100358420Y-28402618D01*
X100349000Y-28306973D01*
X100349000Y-27693028D01*
X100358420Y-27597383D01*
X100395645Y-27474669D01*
X100395646Y-27474665D01*
X100456094Y-27361576D01*
X100537447Y-27262446D01*
X100636575Y-27181094D01*
X100749664Y-27120646D01*
X100791600Y-27107925D01*
X100872382Y-27083420D01*
X101000000Y-27070851D01*
X101127617Y-27083420D01*
G37*
G36*
X67127617Y-27083420D02*
G01*
X67208399Y-27107925D01*
X67250335Y-27120646D01*
X67363424Y-27181094D01*
X67462554Y-27262447D01*
X67543906Y-27361575D01*
X67604354Y-27474664D01*
X67610268Y-27494159D01*
X67641580Y-27597382D01*
X67651000Y-27693027D01*
X67651000Y-28306973D01*
X67641580Y-28402618D01*
X67624880Y-28457669D01*
X67604354Y-28525336D01*
X67543906Y-28638425D01*
X67462554Y-28737554D01*
X67363425Y-28818906D01*
X67250336Y-28879354D01*
X67218404Y-28889040D01*
X67127618Y-28916580D01*
X67000000Y-28929149D01*
X66872383Y-28916580D01*
X66781597Y-28889040D01*
X66749665Y-28879354D01*
X66636576Y-28818906D01*
X66537447Y-28737554D01*
X66456096Y-28638427D01*
X66456095Y-28638425D01*
X66410614Y-28553337D01*
X66395645Y-28525333D01*
X66375120Y-28457669D01*
X66358420Y-28402618D01*
X66349000Y-28306973D01*
X66349000Y-27693028D01*
X66358420Y-27597383D01*
X66395645Y-27474669D01*
X66395646Y-27474665D01*
X66456094Y-27361576D01*
X66537447Y-27262446D01*
X66636575Y-27181094D01*
X66749664Y-27120646D01*
X66791600Y-27107925D01*
X66872382Y-27083420D01*
X67000000Y-27070851D01*
X67127617Y-27083420D01*
G37*
G36*
X81491242Y-27078404D02*
G01*
X81528337Y-27089657D01*
X81562515Y-27107925D01*
X81592481Y-27132519D01*
X81617075Y-27162485D01*
X81635343Y-27196663D01*
X81646596Y-27233758D01*
X81651000Y-27278474D01*
X81651000Y-28721526D01*
X81646596Y-28766242D01*
X81635343Y-28803337D01*
X81617075Y-28837515D01*
X81592481Y-28867481D01*
X81562515Y-28892075D01*
X81528337Y-28910343D01*
X81491242Y-28921596D01*
X81446526Y-28926000D01*
X80553474Y-28926000D01*
X80508758Y-28921596D01*
X80471663Y-28910343D01*
X80437485Y-28892075D01*
X80407519Y-28867481D01*
X80382925Y-28837515D01*
X80364657Y-28803337D01*
X80353404Y-28766242D01*
X80349000Y-28721526D01*
X80349000Y-27278474D01*
X80353404Y-27233758D01*
X80364657Y-27196663D01*
X80382925Y-27162485D01*
X80407519Y-27132519D01*
X80437485Y-27107925D01*
X80471663Y-27089657D01*
X80508758Y-27078404D01*
X80553474Y-27074000D01*
X81446526Y-27074000D01*
X81491242Y-27078404D01*
G37*
G36*
X65491242Y-27078404D02*
G01*
X65528337Y-27089657D01*
X65562515Y-27107925D01*
X65592481Y-27132519D01*
X65617075Y-27162485D01*
X65635343Y-27196663D01*
X65646596Y-27233758D01*
X65651000Y-27278474D01*
X65651000Y-28721526D01*
X65646596Y-28766242D01*
X65635343Y-28803337D01*
X65617075Y-28837515D01*
X65592481Y-28867481D01*
X65562515Y-28892075D01*
X65528337Y-28910343D01*
X65491242Y-28921596D01*
X65446526Y-28926000D01*
X64553474Y-28926000D01*
X64508758Y-28921596D01*
X64471663Y-28910343D01*
X64437485Y-28892075D01*
X64407519Y-28867481D01*
X64382925Y-28837515D01*
X64364657Y-28803337D01*
X64353404Y-28766242D01*
X64349000Y-28721526D01*
X64349000Y-27278474D01*
X64353404Y-27233758D01*
X64364657Y-27196663D01*
X64382925Y-27162485D01*
X64407519Y-27132519D01*
X64437485Y-27107925D01*
X64471663Y-27089657D01*
X64508758Y-27078404D01*
X64553474Y-27074000D01*
X65446526Y-27074000D01*
X65491242Y-27078404D01*
G37*
G36*
X99491242Y-27078404D02*
G01*
X99528337Y-27089657D01*
X99562515Y-27107925D01*
X99592481Y-27132519D01*
X99617075Y-27162485D01*
X99635343Y-27196663D01*
X99646596Y-27233758D01*
X99651000Y-27278474D01*
X99651000Y-28721526D01*
X99646596Y-28766242D01*
X99635343Y-28803337D01*
X99617075Y-28837515D01*
X99592481Y-28867481D01*
X99562515Y-28892075D01*
X99528337Y-28910343D01*
X99491242Y-28921596D01*
X99446526Y-28926000D01*
X98553474Y-28926000D01*
X98508758Y-28921596D01*
X98471663Y-28910343D01*
X98437485Y-28892075D01*
X98407519Y-28867481D01*
X98382925Y-28837515D01*
X98364657Y-28803337D01*
X98353404Y-28766242D01*
X98349000Y-28721526D01*
X98349000Y-27278474D01*
X98353404Y-27233758D01*
X98364657Y-27196663D01*
X98382925Y-27162485D01*
X98407519Y-27132519D01*
X98437485Y-27107925D01*
X98471663Y-27089657D01*
X98508758Y-27078404D01*
X98553474Y-27074000D01*
X99446526Y-27074000D01*
X99491242Y-27078404D01*
G37*
G36*
X107491242Y-27078404D02*
G01*
X107528337Y-27089657D01*
X107562515Y-27107925D01*
X107592481Y-27132519D01*
X107617075Y-27162485D01*
X107635343Y-27196663D01*
X107646596Y-27233758D01*
X107651000Y-27278474D01*
X107651000Y-28721526D01*
X107646596Y-28766242D01*
X107635343Y-28803337D01*
X107617075Y-28837515D01*
X107592481Y-28867481D01*
X107562515Y-28892075D01*
X107528337Y-28910343D01*
X107491242Y-28921596D01*
X107446526Y-28926000D01*
X106553474Y-28926000D01*
X106508758Y-28921596D01*
X106471663Y-28910343D01*
X106437485Y-28892075D01*
X106407519Y-28867481D01*
X106382925Y-28837515D01*
X106364657Y-28803337D01*
X106353404Y-28766242D01*
X106349000Y-28721526D01*
X106349000Y-27278474D01*
X106353404Y-27233758D01*
X106364657Y-27196663D01*
X106382925Y-27162485D01*
X106407519Y-27132519D01*
X106437485Y-27107925D01*
X106471663Y-27089657D01*
X106508758Y-27078404D01*
X106553474Y-27074000D01*
X107446526Y-27074000D01*
X107491242Y-27078404D01*
G37*
G36*
X57491242Y-27078404D02*
G01*
X57528337Y-27089657D01*
X57562515Y-27107925D01*
X57592481Y-27132519D01*
X57617075Y-27162485D01*
X57635343Y-27196663D01*
X57646596Y-27233758D01*
X57651000Y-27278474D01*
X57651000Y-28721526D01*
X57646596Y-28766242D01*
X57635343Y-28803337D01*
X57617075Y-28837515D01*
X57592481Y-28867481D01*
X57562515Y-28892075D01*
X57528337Y-28910343D01*
X57491242Y-28921596D01*
X57446526Y-28926000D01*
X56553474Y-28926000D01*
X56508758Y-28921596D01*
X56471663Y-28910343D01*
X56437485Y-28892075D01*
X56407519Y-28867481D01*
X56382925Y-28837515D01*
X56364657Y-28803337D01*
X56353404Y-28766242D01*
X56349000Y-28721526D01*
X56349000Y-27278474D01*
X56353404Y-27233758D01*
X56364657Y-27196663D01*
X56382925Y-27162485D01*
X56407519Y-27132519D01*
X56437485Y-27107925D01*
X56471663Y-27089657D01*
X56508758Y-27078404D01*
X56553474Y-27074000D01*
X57446526Y-27074000D01*
X57491242Y-27078404D01*
G37*
G36*
X89491242Y-27078404D02*
G01*
X89528337Y-27089657D01*
X89562515Y-27107925D01*
X89592481Y-27132519D01*
X89617075Y-27162485D01*
X89635343Y-27196663D01*
X89646596Y-27233758D01*
X89651000Y-27278474D01*
X89651000Y-28721526D01*
X89646596Y-28766242D01*
X89635343Y-28803337D01*
X89617075Y-28837515D01*
X89592481Y-28867481D01*
X89562515Y-28892075D01*
X89528337Y-28910343D01*
X89491242Y-28921596D01*
X89446526Y-28926000D01*
X88553474Y-28926000D01*
X88508758Y-28921596D01*
X88471663Y-28910343D01*
X88437485Y-28892075D01*
X88407519Y-28867481D01*
X88382925Y-28837515D01*
X88364657Y-28803337D01*
X88353404Y-28766242D01*
X88349000Y-28721526D01*
X88349000Y-27278474D01*
X88353404Y-27233758D01*
X88364657Y-27196663D01*
X88382925Y-27162485D01*
X88407519Y-27132519D01*
X88437485Y-27107925D01*
X88471663Y-27089657D01*
X88508758Y-27078404D01*
X88553474Y-27074000D01*
X89446526Y-27074000D01*
X89491242Y-27078404D01*
G37*
G36*
X73491242Y-27078404D02*
G01*
X73528337Y-27089657D01*
X73562515Y-27107925D01*
X73592481Y-27132519D01*
X73617075Y-27162485D01*
X73635343Y-27196663D01*
X73646596Y-27233758D01*
X73651000Y-27278474D01*
X73651000Y-28721526D01*
X73646596Y-28766242D01*
X73635343Y-28803337D01*
X73617075Y-28837515D01*
X73592481Y-28867481D01*
X73562515Y-28892075D01*
X73528337Y-28910343D01*
X73491242Y-28921596D01*
X73446526Y-28926000D01*
X72553474Y-28926000D01*
X72508758Y-28921596D01*
X72471663Y-28910343D01*
X72437485Y-28892075D01*
X72407519Y-28867481D01*
X72382925Y-28837515D01*
X72364657Y-28803337D01*
X72353404Y-28766242D01*
X72349000Y-28721526D01*
X72349000Y-27278474D01*
X72353404Y-27233758D01*
X72364657Y-27196663D01*
X72382925Y-27162485D01*
X72407519Y-27132519D01*
X72437485Y-27107925D01*
X72471663Y-27089657D01*
X72508758Y-27078404D01*
X72553474Y-27074000D01*
X73446526Y-27074000D01*
X73491242Y-27078404D01*
G37*
G36*
X131377617Y-26833420D02*
G01*
X131458399Y-26857925D01*
X131500335Y-26870646D01*
X131613424Y-26931094D01*
X131712554Y-27012447D01*
X131793906Y-27111575D01*
X131854354Y-27224664D01*
X131859445Y-27241447D01*
X131891580Y-27347382D01*
X131901000Y-27443027D01*
X131901000Y-28056973D01*
X131891580Y-28152618D01*
X131864040Y-28243404D01*
X131854354Y-28275336D01*
X131793906Y-28388425D01*
X131712554Y-28487554D01*
X131613425Y-28568906D01*
X131500336Y-28629354D01*
X131470432Y-28638425D01*
X131377618Y-28666580D01*
X131250000Y-28679149D01*
X131122383Y-28666580D01*
X131029569Y-28638425D01*
X130999665Y-28629354D01*
X130886576Y-28568906D01*
X130787447Y-28487554D01*
X130706096Y-28388427D01*
X130706095Y-28388425D01*
X130645647Y-28275336D01*
X130645645Y-28275333D01*
X130633237Y-28234427D01*
X130608420Y-28152618D01*
X130599000Y-28056973D01*
X130599000Y-27443028D01*
X130608420Y-27347383D01*
X130645645Y-27224669D01*
X130645646Y-27224665D01*
X130706094Y-27111576D01*
X130787447Y-27012446D01*
X130886575Y-26931094D01*
X130999664Y-26870646D01*
X131041600Y-26857925D01*
X131122382Y-26833420D01*
X131250000Y-26820851D01*
X131377617Y-26833420D01*
G37*
G36*
X177377617Y-26833420D02*
G01*
X177458399Y-26857925D01*
X177500335Y-26870646D01*
X177613424Y-26931094D01*
X177712554Y-27012447D01*
X177793906Y-27111575D01*
X177854354Y-27224664D01*
X177859445Y-27241447D01*
X177891580Y-27347382D01*
X177901000Y-27443027D01*
X177901000Y-28056973D01*
X177891580Y-28152618D01*
X177864040Y-28243404D01*
X177854354Y-28275336D01*
X177793906Y-28388425D01*
X177712554Y-28487554D01*
X177613425Y-28568906D01*
X177500336Y-28629354D01*
X177470432Y-28638425D01*
X177377618Y-28666580D01*
X177250000Y-28679149D01*
X177122383Y-28666580D01*
X177029569Y-28638425D01*
X176999665Y-28629354D01*
X176886576Y-28568906D01*
X176787447Y-28487554D01*
X176706096Y-28388427D01*
X176706095Y-28388425D01*
X176645647Y-28275336D01*
X176645645Y-28275333D01*
X176633237Y-28234427D01*
X176608420Y-28152618D01*
X176599000Y-28056973D01*
X176599000Y-27443028D01*
X176608420Y-27347383D01*
X176645645Y-27224669D01*
X176645646Y-27224665D01*
X176706094Y-27111576D01*
X176787447Y-27012446D01*
X176886575Y-26931094D01*
X176999664Y-26870646D01*
X177041600Y-26857925D01*
X177122382Y-26833420D01*
X177250000Y-26820851D01*
X177377617Y-26833420D01*
G37*
G36*
X165877617Y-26833420D02*
G01*
X165958399Y-26857925D01*
X166000335Y-26870646D01*
X166113424Y-26931094D01*
X166212554Y-27012447D01*
X166293906Y-27111575D01*
X166354354Y-27224664D01*
X166359445Y-27241447D01*
X166391580Y-27347382D01*
X166401000Y-27443027D01*
X166401000Y-28056973D01*
X166391580Y-28152618D01*
X166364040Y-28243404D01*
X166354354Y-28275336D01*
X166293906Y-28388425D01*
X166212554Y-28487554D01*
X166113425Y-28568906D01*
X166000336Y-28629354D01*
X165970432Y-28638425D01*
X165877618Y-28666580D01*
X165750000Y-28679149D01*
X165622383Y-28666580D01*
X165529569Y-28638425D01*
X165499665Y-28629354D01*
X165386576Y-28568906D01*
X165287447Y-28487554D01*
X165206096Y-28388427D01*
X165206095Y-28388425D01*
X165145647Y-28275336D01*
X165145645Y-28275333D01*
X165133237Y-28234427D01*
X165108420Y-28152618D01*
X165099000Y-28056973D01*
X165099000Y-27443028D01*
X165108420Y-27347383D01*
X165145645Y-27224669D01*
X165145646Y-27224665D01*
X165206094Y-27111576D01*
X165287447Y-27012446D01*
X165386575Y-26931094D01*
X165499664Y-26870646D01*
X165541600Y-26857925D01*
X165622382Y-26833420D01*
X165750000Y-26820851D01*
X165877617Y-26833420D01*
G37*
G36*
X187377617Y-26833420D02*
G01*
X187458399Y-26857925D01*
X187500335Y-26870646D01*
X187613424Y-26931094D01*
X187712554Y-27012447D01*
X187793906Y-27111575D01*
X187854354Y-27224664D01*
X187859445Y-27241447D01*
X187891580Y-27347382D01*
X187901000Y-27443027D01*
X187901000Y-28056973D01*
X187891580Y-28152618D01*
X187864040Y-28243404D01*
X187854354Y-28275336D01*
X187793906Y-28388425D01*
X187712554Y-28487554D01*
X187613425Y-28568906D01*
X187500336Y-28629354D01*
X187470432Y-28638425D01*
X187377618Y-28666580D01*
X187250000Y-28679149D01*
X187122383Y-28666580D01*
X187029569Y-28638425D01*
X186999665Y-28629354D01*
X186886576Y-28568906D01*
X186787447Y-28487554D01*
X186706096Y-28388427D01*
X186706095Y-28388425D01*
X186645647Y-28275336D01*
X186645645Y-28275333D01*
X186633237Y-28234427D01*
X186608420Y-28152618D01*
X186599000Y-28056973D01*
X186599000Y-27443028D01*
X186608420Y-27347383D01*
X186645645Y-27224669D01*
X186645646Y-27224665D01*
X186706094Y-27111576D01*
X186787447Y-27012446D01*
X186886575Y-26931094D01*
X186999664Y-26870646D01*
X187041600Y-26857925D01*
X187122382Y-26833420D01*
X187250000Y-26820851D01*
X187377617Y-26833420D01*
G37*
G36*
X185377617Y-26833420D02*
G01*
X185458399Y-26857925D01*
X185500335Y-26870646D01*
X185613424Y-26931094D01*
X185712554Y-27012447D01*
X185793906Y-27111575D01*
X185854354Y-27224664D01*
X185859445Y-27241447D01*
X185891580Y-27347382D01*
X185901000Y-27443027D01*
X185901000Y-28056973D01*
X185891580Y-28152618D01*
X185864040Y-28243404D01*
X185854354Y-28275336D01*
X185793906Y-28388425D01*
X185712554Y-28487554D01*
X185613425Y-28568906D01*
X185500336Y-28629354D01*
X185470432Y-28638425D01*
X185377618Y-28666580D01*
X185250000Y-28679149D01*
X185122383Y-28666580D01*
X185029569Y-28638425D01*
X184999665Y-28629354D01*
X184886576Y-28568906D01*
X184787447Y-28487554D01*
X184706096Y-28388427D01*
X184706095Y-28388425D01*
X184645647Y-28275336D01*
X184645645Y-28275333D01*
X184633237Y-28234427D01*
X184608420Y-28152618D01*
X184599000Y-28056973D01*
X184599000Y-27443028D01*
X184608420Y-27347383D01*
X184645645Y-27224669D01*
X184645646Y-27224665D01*
X184706094Y-27111576D01*
X184787447Y-27012446D01*
X184886575Y-26931094D01*
X184999664Y-26870646D01*
X185041600Y-26857925D01*
X185122382Y-26833420D01*
X185250000Y-26820851D01*
X185377617Y-26833420D01*
G37*
G36*
X181377617Y-26833420D02*
G01*
X181458399Y-26857925D01*
X181500335Y-26870646D01*
X181613424Y-26931094D01*
X181712554Y-27012447D01*
X181793906Y-27111575D01*
X181854354Y-27224664D01*
X181859445Y-27241447D01*
X181891580Y-27347382D01*
X181901000Y-27443027D01*
X181901000Y-28056973D01*
X181891580Y-28152618D01*
X181864040Y-28243404D01*
X181854354Y-28275336D01*
X181793906Y-28388425D01*
X181712554Y-28487554D01*
X181613425Y-28568906D01*
X181500336Y-28629354D01*
X181470432Y-28638425D01*
X181377618Y-28666580D01*
X181250000Y-28679149D01*
X181122383Y-28666580D01*
X181029569Y-28638425D01*
X180999665Y-28629354D01*
X180886576Y-28568906D01*
X180787447Y-28487554D01*
X180706096Y-28388427D01*
X180706095Y-28388425D01*
X180645647Y-28275336D01*
X180645645Y-28275333D01*
X180633237Y-28234427D01*
X180608420Y-28152618D01*
X180599000Y-28056973D01*
X180599000Y-27443028D01*
X180608420Y-27347383D01*
X180645645Y-27224669D01*
X180645646Y-27224665D01*
X180706094Y-27111576D01*
X180787447Y-27012446D01*
X180886575Y-26931094D01*
X180999664Y-26870646D01*
X181041600Y-26857925D01*
X181122382Y-26833420D01*
X181250000Y-26820851D01*
X181377617Y-26833420D01*
G37*
G36*
X179377617Y-26833420D02*
G01*
X179458399Y-26857925D01*
X179500335Y-26870646D01*
X179613424Y-26931094D01*
X179712554Y-27012447D01*
X179793906Y-27111575D01*
X179854354Y-27224664D01*
X179859445Y-27241447D01*
X179891580Y-27347382D01*
X179901000Y-27443027D01*
X179901000Y-28056973D01*
X179891580Y-28152618D01*
X179864040Y-28243404D01*
X179854354Y-28275336D01*
X179793906Y-28388425D01*
X179712554Y-28487554D01*
X179613425Y-28568906D01*
X179500336Y-28629354D01*
X179470432Y-28638425D01*
X179377618Y-28666580D01*
X179250000Y-28679149D01*
X179122383Y-28666580D01*
X179029569Y-28638425D01*
X178999665Y-28629354D01*
X178886576Y-28568906D01*
X178787447Y-28487554D01*
X178706096Y-28388427D01*
X178706095Y-28388425D01*
X178645647Y-28275336D01*
X178645645Y-28275333D01*
X178633237Y-28234427D01*
X178608420Y-28152618D01*
X178599000Y-28056973D01*
X178599000Y-27443028D01*
X178608420Y-27347383D01*
X178645645Y-27224669D01*
X178645646Y-27224665D01*
X178706094Y-27111576D01*
X178787447Y-27012446D01*
X178886575Y-26931094D01*
X178999664Y-26870646D01*
X179041600Y-26857925D01*
X179122382Y-26833420D01*
X179250000Y-26820851D01*
X179377617Y-26833420D01*
G37*
G36*
X183377617Y-26833420D02*
G01*
X183458399Y-26857925D01*
X183500335Y-26870646D01*
X183613424Y-26931094D01*
X183712554Y-27012447D01*
X183793906Y-27111575D01*
X183854354Y-27224664D01*
X183859445Y-27241447D01*
X183891580Y-27347382D01*
X183901000Y-27443027D01*
X183901000Y-28056973D01*
X183891580Y-28152618D01*
X183864040Y-28243404D01*
X183854354Y-28275336D01*
X183793906Y-28388425D01*
X183712554Y-28487554D01*
X183613425Y-28568906D01*
X183500336Y-28629354D01*
X183470432Y-28638425D01*
X183377618Y-28666580D01*
X183250000Y-28679149D01*
X183122383Y-28666580D01*
X183029569Y-28638425D01*
X182999665Y-28629354D01*
X182886576Y-28568906D01*
X182787447Y-28487554D01*
X182706096Y-28388427D01*
X182706095Y-28388425D01*
X182645647Y-28275336D01*
X182645645Y-28275333D01*
X182633237Y-28234427D01*
X182608420Y-28152618D01*
X182599000Y-28056973D01*
X182599000Y-27443028D01*
X182608420Y-27347383D01*
X182645645Y-27224669D01*
X182645646Y-27224665D01*
X182706094Y-27111576D01*
X182787447Y-27012446D01*
X182886575Y-26931094D01*
X182999664Y-26870646D01*
X183041600Y-26857925D01*
X183122382Y-26833420D01*
X183250000Y-26820851D01*
X183377617Y-26833420D01*
G37*
G36*
X144877617Y-26833420D02*
G01*
X144958399Y-26857925D01*
X145000335Y-26870646D01*
X145113424Y-26931094D01*
X145212554Y-27012447D01*
X145293906Y-27111575D01*
X145354354Y-27224664D01*
X145359445Y-27241447D01*
X145391580Y-27347382D01*
X145401000Y-27443027D01*
X145401000Y-28056973D01*
X145391580Y-28152618D01*
X145364040Y-28243404D01*
X145354354Y-28275336D01*
X145293906Y-28388425D01*
X145212554Y-28487554D01*
X145113425Y-28568906D01*
X145000336Y-28629354D01*
X144970432Y-28638425D01*
X144877618Y-28666580D01*
X144750000Y-28679149D01*
X144622383Y-28666580D01*
X144529569Y-28638425D01*
X144499665Y-28629354D01*
X144386576Y-28568906D01*
X144287447Y-28487554D01*
X144206096Y-28388427D01*
X144206095Y-28388425D01*
X144145647Y-28275336D01*
X144145645Y-28275333D01*
X144133237Y-28234427D01*
X144108420Y-28152618D01*
X144099000Y-28056973D01*
X144099000Y-27443028D01*
X144108420Y-27347383D01*
X144145645Y-27224669D01*
X144145646Y-27224665D01*
X144206094Y-27111576D01*
X144287447Y-27012446D01*
X144386575Y-26931094D01*
X144499664Y-26870646D01*
X144541600Y-26857925D01*
X144622382Y-26833420D01*
X144750000Y-26820851D01*
X144877617Y-26833420D01*
G37*
G36*
X189377617Y-26833420D02*
G01*
X189458399Y-26857925D01*
X189500335Y-26870646D01*
X189613424Y-26931094D01*
X189712554Y-27012447D01*
X189793906Y-27111575D01*
X189854354Y-27224664D01*
X189859445Y-27241447D01*
X189891580Y-27347382D01*
X189901000Y-27443027D01*
X189901000Y-28056973D01*
X189891580Y-28152618D01*
X189864040Y-28243404D01*
X189854354Y-28275336D01*
X189793906Y-28388425D01*
X189712554Y-28487554D01*
X189613425Y-28568906D01*
X189500336Y-28629354D01*
X189470432Y-28638425D01*
X189377618Y-28666580D01*
X189250000Y-28679149D01*
X189122383Y-28666580D01*
X189029569Y-28638425D01*
X188999665Y-28629354D01*
X188886576Y-28568906D01*
X188787447Y-28487554D01*
X188706096Y-28388427D01*
X188706095Y-28388425D01*
X188645647Y-28275336D01*
X188645645Y-28275333D01*
X188633237Y-28234427D01*
X188608420Y-28152618D01*
X188599000Y-28056973D01*
X188599000Y-27443028D01*
X188608420Y-27347383D01*
X188645645Y-27224669D01*
X188645646Y-27224665D01*
X188706094Y-27111576D01*
X188787447Y-27012446D01*
X188886575Y-26931094D01*
X188999664Y-26870646D01*
X189041600Y-26857925D01*
X189122382Y-26833420D01*
X189250000Y-26820851D01*
X189377617Y-26833420D01*
G37*
G36*
X142877617Y-26833420D02*
G01*
X142958399Y-26857925D01*
X143000335Y-26870646D01*
X143113424Y-26931094D01*
X143212554Y-27012447D01*
X143293906Y-27111575D01*
X143354354Y-27224664D01*
X143359445Y-27241447D01*
X143391580Y-27347382D01*
X143401000Y-27443027D01*
X143401000Y-28056973D01*
X143391580Y-28152618D01*
X143364040Y-28243404D01*
X143354354Y-28275336D01*
X143293906Y-28388425D01*
X143212554Y-28487554D01*
X143113425Y-28568906D01*
X143000336Y-28629354D01*
X142970432Y-28638425D01*
X142877618Y-28666580D01*
X142750000Y-28679149D01*
X142622383Y-28666580D01*
X142529569Y-28638425D01*
X142499665Y-28629354D01*
X142386576Y-28568906D01*
X142287447Y-28487554D01*
X142206096Y-28388427D01*
X142206095Y-28388425D01*
X142145647Y-28275336D01*
X142145645Y-28275333D01*
X142133237Y-28234427D01*
X142108420Y-28152618D01*
X142099000Y-28056973D01*
X142099000Y-27443028D01*
X142108420Y-27347383D01*
X142145645Y-27224669D01*
X142145646Y-27224665D01*
X142206094Y-27111576D01*
X142287447Y-27012446D01*
X142386575Y-26931094D01*
X142499664Y-26870646D01*
X142541600Y-26857925D01*
X142622382Y-26833420D01*
X142750000Y-26820851D01*
X142877617Y-26833420D01*
G37*
G36*
X154377617Y-26833420D02*
G01*
X154458399Y-26857925D01*
X154500335Y-26870646D01*
X154613424Y-26931094D01*
X154712554Y-27012447D01*
X154793906Y-27111575D01*
X154854354Y-27224664D01*
X154859445Y-27241447D01*
X154891580Y-27347382D01*
X154901000Y-27443027D01*
X154901000Y-28056973D01*
X154891580Y-28152618D01*
X154864040Y-28243404D01*
X154854354Y-28275336D01*
X154793906Y-28388425D01*
X154712554Y-28487554D01*
X154613425Y-28568906D01*
X154500336Y-28629354D01*
X154470432Y-28638425D01*
X154377618Y-28666580D01*
X154250000Y-28679149D01*
X154122383Y-28666580D01*
X154029569Y-28638425D01*
X153999665Y-28629354D01*
X153886576Y-28568906D01*
X153787447Y-28487554D01*
X153706096Y-28388427D01*
X153706095Y-28388425D01*
X153645647Y-28275336D01*
X153645645Y-28275333D01*
X153633237Y-28234427D01*
X153608420Y-28152618D01*
X153599000Y-28056973D01*
X153599000Y-27443028D01*
X153608420Y-27347383D01*
X153645645Y-27224669D01*
X153645646Y-27224665D01*
X153706094Y-27111576D01*
X153787447Y-27012446D01*
X153886575Y-26931094D01*
X153999664Y-26870646D01*
X154041600Y-26857925D01*
X154122382Y-26833420D01*
X154250000Y-26820851D01*
X154377617Y-26833420D01*
G37*
G36*
X156377617Y-26833420D02*
G01*
X156458399Y-26857925D01*
X156500335Y-26870646D01*
X156613424Y-26931094D01*
X156712554Y-27012447D01*
X156793906Y-27111575D01*
X156854354Y-27224664D01*
X156859445Y-27241447D01*
X156891580Y-27347382D01*
X156901000Y-27443027D01*
X156901000Y-28056973D01*
X156891580Y-28152618D01*
X156864040Y-28243404D01*
X156854354Y-28275336D01*
X156793906Y-28388425D01*
X156712554Y-28487554D01*
X156613425Y-28568906D01*
X156500336Y-28629354D01*
X156470432Y-28638425D01*
X156377618Y-28666580D01*
X156250000Y-28679149D01*
X156122383Y-28666580D01*
X156029569Y-28638425D01*
X155999665Y-28629354D01*
X155886576Y-28568906D01*
X155787447Y-28487554D01*
X155706096Y-28388427D01*
X155706095Y-28388425D01*
X155645647Y-28275336D01*
X155645645Y-28275333D01*
X155633237Y-28234427D01*
X155608420Y-28152618D01*
X155599000Y-28056973D01*
X155599000Y-27443028D01*
X155608420Y-27347383D01*
X155645645Y-27224669D01*
X155645646Y-27224665D01*
X155706094Y-27111576D01*
X155787447Y-27012446D01*
X155886575Y-26931094D01*
X155999664Y-26870646D01*
X156041600Y-26857925D01*
X156122382Y-26833420D01*
X156250000Y-26820851D01*
X156377617Y-26833420D01*
G37*
G36*
X163877617Y-26833420D02*
G01*
X163958399Y-26857925D01*
X164000335Y-26870646D01*
X164113424Y-26931094D01*
X164212554Y-27012447D01*
X164293906Y-27111575D01*
X164354354Y-27224664D01*
X164359445Y-27241447D01*
X164391580Y-27347382D01*
X164401000Y-27443027D01*
X164401000Y-28056973D01*
X164391580Y-28152618D01*
X164364040Y-28243404D01*
X164354354Y-28275336D01*
X164293906Y-28388425D01*
X164212554Y-28487554D01*
X164113425Y-28568906D01*
X164000336Y-28629354D01*
X163970432Y-28638425D01*
X163877618Y-28666580D01*
X163750000Y-28679149D01*
X163622383Y-28666580D01*
X163529569Y-28638425D01*
X163499665Y-28629354D01*
X163386576Y-28568906D01*
X163287447Y-28487554D01*
X163206096Y-28388427D01*
X163206095Y-28388425D01*
X163145647Y-28275336D01*
X163145645Y-28275333D01*
X163133237Y-28234427D01*
X163108420Y-28152618D01*
X163099000Y-28056973D01*
X163099000Y-27443028D01*
X163108420Y-27347383D01*
X163145645Y-27224669D01*
X163145646Y-27224665D01*
X163206094Y-27111576D01*
X163287447Y-27012446D01*
X163386575Y-26931094D01*
X163499664Y-26870646D01*
X163541600Y-26857925D01*
X163622382Y-26833420D01*
X163750000Y-26820851D01*
X163877617Y-26833420D01*
G37*
G36*
X129377617Y-26833420D02*
G01*
X129458399Y-26857925D01*
X129500335Y-26870646D01*
X129613424Y-26931094D01*
X129712554Y-27012447D01*
X129793906Y-27111575D01*
X129854354Y-27224664D01*
X129859445Y-27241447D01*
X129891580Y-27347382D01*
X129901000Y-27443027D01*
X129901000Y-28056973D01*
X129891580Y-28152618D01*
X129864040Y-28243404D01*
X129854354Y-28275336D01*
X129793906Y-28388425D01*
X129712554Y-28487554D01*
X129613425Y-28568906D01*
X129500336Y-28629354D01*
X129470432Y-28638425D01*
X129377618Y-28666580D01*
X129250000Y-28679149D01*
X129122383Y-28666580D01*
X129029569Y-28638425D01*
X128999665Y-28629354D01*
X128886576Y-28568906D01*
X128787447Y-28487554D01*
X128706096Y-28388427D01*
X128706095Y-28388425D01*
X128645647Y-28275336D01*
X128645645Y-28275333D01*
X128633237Y-28234427D01*
X128608420Y-28152618D01*
X128599000Y-28056973D01*
X128599000Y-27443028D01*
X128608420Y-27347383D01*
X128645645Y-27224669D01*
X128645646Y-27224665D01*
X128706094Y-27111576D01*
X128787447Y-27012446D01*
X128886575Y-26931094D01*
X128999664Y-26870646D01*
X129041600Y-26857925D01*
X129122382Y-26833420D01*
X129250000Y-26820851D01*
X129377617Y-26833420D01*
G37*
G36*
X175377617Y-26833420D02*
G01*
X175458399Y-26857925D01*
X175500335Y-26870646D01*
X175613424Y-26931094D01*
X175712554Y-27012447D01*
X175793906Y-27111575D01*
X175854354Y-27224664D01*
X175859445Y-27241447D01*
X175891580Y-27347382D01*
X175901000Y-27443027D01*
X175901000Y-28056973D01*
X175891580Y-28152618D01*
X175864040Y-28243404D01*
X175854354Y-28275336D01*
X175793906Y-28388425D01*
X175712554Y-28487554D01*
X175613425Y-28568906D01*
X175500336Y-28629354D01*
X175470432Y-28638425D01*
X175377618Y-28666580D01*
X175250000Y-28679149D01*
X175122383Y-28666580D01*
X175029569Y-28638425D01*
X174999665Y-28629354D01*
X174886576Y-28568906D01*
X174787447Y-28487554D01*
X174706096Y-28388427D01*
X174706095Y-28388425D01*
X174645647Y-28275336D01*
X174645645Y-28275333D01*
X174633237Y-28234427D01*
X174608420Y-28152618D01*
X174599000Y-28056973D01*
X174599000Y-27443028D01*
X174608420Y-27347383D01*
X174645645Y-27224669D01*
X174645646Y-27224665D01*
X174706094Y-27111576D01*
X174787447Y-27012446D01*
X174886575Y-26931094D01*
X174999664Y-26870646D01*
X175041600Y-26857925D01*
X175122382Y-26833420D01*
X175250000Y-26820851D01*
X175377617Y-26833420D01*
G37*
G36*
X140877617Y-26833420D02*
G01*
X140958399Y-26857925D01*
X141000335Y-26870646D01*
X141113424Y-26931094D01*
X141212554Y-27012447D01*
X141293906Y-27111575D01*
X141354354Y-27224664D01*
X141359445Y-27241447D01*
X141391580Y-27347382D01*
X141401000Y-27443027D01*
X141401000Y-28056973D01*
X141391580Y-28152618D01*
X141364040Y-28243404D01*
X141354354Y-28275336D01*
X141293906Y-28388425D01*
X141212554Y-28487554D01*
X141113425Y-28568906D01*
X141000336Y-28629354D01*
X140970432Y-28638425D01*
X140877618Y-28666580D01*
X140750000Y-28679149D01*
X140622383Y-28666580D01*
X140529569Y-28638425D01*
X140499665Y-28629354D01*
X140386576Y-28568906D01*
X140287447Y-28487554D01*
X140206096Y-28388427D01*
X140206095Y-28388425D01*
X140145647Y-28275336D01*
X140145645Y-28275333D01*
X140133237Y-28234427D01*
X140108420Y-28152618D01*
X140099000Y-28056973D01*
X140099000Y-27443028D01*
X140108420Y-27347383D01*
X140145645Y-27224669D01*
X140145646Y-27224665D01*
X140206094Y-27111576D01*
X140287447Y-27012446D01*
X140386575Y-26931094D01*
X140499664Y-26870646D01*
X140541600Y-26857925D01*
X140622382Y-26833420D01*
X140750000Y-26820851D01*
X140877617Y-26833420D01*
G37*
G36*
X133377617Y-26833420D02*
G01*
X133458399Y-26857925D01*
X133500335Y-26870646D01*
X133613424Y-26931094D01*
X133712554Y-27012447D01*
X133793906Y-27111575D01*
X133854354Y-27224664D01*
X133859445Y-27241447D01*
X133891580Y-27347382D01*
X133901000Y-27443027D01*
X133901000Y-28056973D01*
X133891580Y-28152618D01*
X133864040Y-28243404D01*
X133854354Y-28275336D01*
X133793906Y-28388425D01*
X133712554Y-28487554D01*
X133613425Y-28568906D01*
X133500336Y-28629354D01*
X133470432Y-28638425D01*
X133377618Y-28666580D01*
X133250000Y-28679149D01*
X133122383Y-28666580D01*
X133029569Y-28638425D01*
X132999665Y-28629354D01*
X132886576Y-28568906D01*
X132787447Y-28487554D01*
X132706096Y-28388427D01*
X132706095Y-28388425D01*
X132645647Y-28275336D01*
X132645645Y-28275333D01*
X132633237Y-28234427D01*
X132608420Y-28152618D01*
X132599000Y-28056973D01*
X132599000Y-27443028D01*
X132608420Y-27347383D01*
X132645645Y-27224669D01*
X132645646Y-27224665D01*
X132706094Y-27111576D01*
X132787447Y-27012446D01*
X132886575Y-26931094D01*
X132999664Y-26870646D01*
X133041600Y-26857925D01*
X133122382Y-26833420D01*
X133250000Y-26820851D01*
X133377617Y-26833420D01*
G37*
G36*
X173377617Y-26833420D02*
G01*
X173458399Y-26857925D01*
X173500335Y-26870646D01*
X173613424Y-26931094D01*
X173712554Y-27012447D01*
X173793906Y-27111575D01*
X173854354Y-27224664D01*
X173859445Y-27241447D01*
X173891580Y-27347382D01*
X173901000Y-27443027D01*
X173901000Y-28056973D01*
X173891580Y-28152618D01*
X173864040Y-28243404D01*
X173854354Y-28275336D01*
X173793906Y-28388425D01*
X173712554Y-28487554D01*
X173613425Y-28568906D01*
X173500336Y-28629354D01*
X173470432Y-28638425D01*
X173377618Y-28666580D01*
X173250000Y-28679149D01*
X173122383Y-28666580D01*
X173029569Y-28638425D01*
X172999665Y-28629354D01*
X172886576Y-28568906D01*
X172787447Y-28487554D01*
X172706096Y-28388427D01*
X172706095Y-28388425D01*
X172645647Y-28275336D01*
X172645645Y-28275333D01*
X172633237Y-28234427D01*
X172608420Y-28152618D01*
X172599000Y-28056973D01*
X172599000Y-27443028D01*
X172608420Y-27347383D01*
X172645645Y-27224669D01*
X172645646Y-27224665D01*
X172706094Y-27111576D01*
X172787447Y-27012446D01*
X172886575Y-26931094D01*
X172999664Y-26870646D01*
X173041600Y-26857925D01*
X173122382Y-26833420D01*
X173250000Y-26820851D01*
X173377617Y-26833420D01*
G37*
G36*
X146877617Y-26833420D02*
G01*
X146958399Y-26857925D01*
X147000335Y-26870646D01*
X147113424Y-26931094D01*
X147212554Y-27012447D01*
X147293906Y-27111575D01*
X147354354Y-27224664D01*
X147359445Y-27241447D01*
X147391580Y-27347382D01*
X147401000Y-27443027D01*
X147401000Y-28056973D01*
X147391580Y-28152618D01*
X147364040Y-28243404D01*
X147354354Y-28275336D01*
X147293906Y-28388425D01*
X147212554Y-28487554D01*
X147113425Y-28568906D01*
X147000336Y-28629354D01*
X146970432Y-28638425D01*
X146877618Y-28666580D01*
X146750000Y-28679149D01*
X146622383Y-28666580D01*
X146529569Y-28638425D01*
X146499665Y-28629354D01*
X146386576Y-28568906D01*
X146287447Y-28487554D01*
X146206096Y-28388427D01*
X146206095Y-28388425D01*
X146145647Y-28275336D01*
X146145645Y-28275333D01*
X146133237Y-28234427D01*
X146108420Y-28152618D01*
X146099000Y-28056973D01*
X146099000Y-27443028D01*
X146108420Y-27347383D01*
X146145645Y-27224669D01*
X146145646Y-27224665D01*
X146206094Y-27111576D01*
X146287447Y-27012446D01*
X146386575Y-26931094D01*
X146499664Y-26870646D01*
X146541600Y-26857925D01*
X146622382Y-26833420D01*
X146750000Y-26820851D01*
X146877617Y-26833420D01*
G37*
G36*
X127741242Y-26828404D02*
G01*
X127778337Y-26839657D01*
X127812515Y-26857925D01*
X127842481Y-26882519D01*
X127867075Y-26912485D01*
X127885343Y-26946663D01*
X127896596Y-26983758D01*
X127901000Y-27028474D01*
X127901000Y-28471526D01*
X127896596Y-28516242D01*
X127885343Y-28553337D01*
X127867075Y-28587515D01*
X127842481Y-28617481D01*
X127812515Y-28642075D01*
X127778337Y-28660343D01*
X127741242Y-28671596D01*
X127696526Y-28676000D01*
X126803474Y-28676000D01*
X126758758Y-28671596D01*
X126721663Y-28660343D01*
X126687485Y-28642075D01*
X126657519Y-28617481D01*
X126632925Y-28587515D01*
X126614657Y-28553337D01*
X126603404Y-28516242D01*
X126599000Y-28471526D01*
X126599000Y-27028474D01*
X126603404Y-26983758D01*
X126614657Y-26946663D01*
X126632925Y-26912485D01*
X126657519Y-26882519D01*
X126687485Y-26857925D01*
X126721663Y-26839657D01*
X126758758Y-26828404D01*
X126803474Y-26824000D01*
X127696526Y-26824000D01*
X127741242Y-26828404D01*
G37*
G36*
X152741242Y-26828404D02*
G01*
X152778337Y-26839657D01*
X152812515Y-26857925D01*
X152842481Y-26882519D01*
X152867075Y-26912485D01*
X152885343Y-26946663D01*
X152896596Y-26983758D01*
X152901000Y-27028474D01*
X152901000Y-28471526D01*
X152896596Y-28516242D01*
X152885343Y-28553337D01*
X152867075Y-28587515D01*
X152842481Y-28617481D01*
X152812515Y-28642075D01*
X152778337Y-28660343D01*
X152741242Y-28671596D01*
X152696526Y-28676000D01*
X151803474Y-28676000D01*
X151758758Y-28671596D01*
X151721663Y-28660343D01*
X151687485Y-28642075D01*
X151657519Y-28617481D01*
X151632925Y-28587515D01*
X151614657Y-28553337D01*
X151603404Y-28516242D01*
X151599000Y-28471526D01*
X151599000Y-27028474D01*
X151603404Y-26983758D01*
X151614657Y-26946663D01*
X151632925Y-26912485D01*
X151657519Y-26882519D01*
X151687485Y-26857925D01*
X151721663Y-26839657D01*
X151758758Y-26828404D01*
X151803474Y-26824000D01*
X152696526Y-26824000D01*
X152741242Y-26828404D01*
G37*
G36*
X171741242Y-26828404D02*
G01*
X171778337Y-26839657D01*
X171812515Y-26857925D01*
X171842481Y-26882519D01*
X171867075Y-26912485D01*
X171885343Y-26946663D01*
X171896596Y-26983758D01*
X171901000Y-27028474D01*
X171901000Y-28471526D01*
X171896596Y-28516242D01*
X171885343Y-28553337D01*
X171867075Y-28587515D01*
X171842481Y-28617481D01*
X171812515Y-28642075D01*
X171778337Y-28660343D01*
X171741242Y-28671596D01*
X171696526Y-28676000D01*
X170803474Y-28676000D01*
X170758758Y-28671596D01*
X170721663Y-28660343D01*
X170687485Y-28642075D01*
X170657519Y-28617481D01*
X170632925Y-28587515D01*
X170614657Y-28553337D01*
X170603404Y-28516242D01*
X170599000Y-28471526D01*
X170599000Y-27028474D01*
X170603404Y-26983758D01*
X170614657Y-26946663D01*
X170632925Y-26912485D01*
X170657519Y-26882519D01*
X170687485Y-26857925D01*
X170721663Y-26839657D01*
X170758758Y-26828404D01*
X170803474Y-26824000D01*
X171696526Y-26824000D01*
X171741242Y-26828404D01*
G37*
G36*
X139241242Y-26828404D02*
G01*
X139278337Y-26839657D01*
X139312515Y-26857925D01*
X139342481Y-26882519D01*
X139367075Y-26912485D01*
X139385343Y-26946663D01*
X139396596Y-26983758D01*
X139401000Y-27028474D01*
X139401000Y-28471526D01*
X139396596Y-28516242D01*
X139385343Y-28553337D01*
X139367075Y-28587515D01*
X139342481Y-28617481D01*
X139312515Y-28642075D01*
X139278337Y-28660343D01*
X139241242Y-28671596D01*
X139196526Y-28676000D01*
X138303474Y-28676000D01*
X138258758Y-28671596D01*
X138221663Y-28660343D01*
X138187485Y-28642075D01*
X138157519Y-28617481D01*
X138132925Y-28587515D01*
X138114657Y-28553337D01*
X138103404Y-28516242D01*
X138099000Y-28471526D01*
X138099000Y-27028474D01*
X138103404Y-26983758D01*
X138114657Y-26946663D01*
X138132925Y-26912485D01*
X138157519Y-26882519D01*
X138187485Y-26857925D01*
X138221663Y-26839657D01*
X138258758Y-26828404D01*
X138303474Y-26824000D01*
X139196526Y-26824000D01*
X139241242Y-26828404D01*
G37*
G36*
X162241242Y-26828404D02*
G01*
X162278337Y-26839657D01*
X162312515Y-26857925D01*
X162342481Y-26882519D01*
X162367075Y-26912485D01*
X162385343Y-26946663D01*
X162396596Y-26983758D01*
X162401000Y-27028474D01*
X162401000Y-28471526D01*
X162396596Y-28516242D01*
X162385343Y-28553337D01*
X162367075Y-28587515D01*
X162342481Y-28617481D01*
X162312515Y-28642075D01*
X162278337Y-28660343D01*
X162241242Y-28671596D01*
X162196526Y-28676000D01*
X161303474Y-28676000D01*
X161258758Y-28671596D01*
X161221663Y-28660343D01*
X161187485Y-28642075D01*
X161157519Y-28617481D01*
X161132925Y-28587515D01*
X161114657Y-28553337D01*
X161103404Y-28516242D01*
X161099000Y-28471526D01*
X161099000Y-27028474D01*
X161103404Y-26983758D01*
X161114657Y-26946663D01*
X161132925Y-26912485D01*
X161157519Y-26882519D01*
X161187485Y-26857925D01*
X161221663Y-26839657D01*
X161258758Y-26828404D01*
X161303474Y-26824000D01*
X162196526Y-26824000D01*
X162241242Y-26828404D01*
G37*
M02*
