M48
; DRILL file {KiCad (5.1.5)-3} date 22.01.2020 21:50:47
; FORMAT={-:-/ absolute / inch / decimal}
; #@! TF.CreationDate,2020-01-22T21:50:47+01:00
; #@! TF.GenerationSoftware,Kicad,Pcbnew,(5.1.5)-3
; #@! TF.FileFunction,Plated,1,4,PTH
FMAT,2
INCH
T1C0.0118
T2C0.0157
T3C0.0197
T4C0.0276
T5C0.0295
T6C0.0315
T7C0.0362
T8C0.0374
T9C0.0394
T10C0.0906
T11C0.1378
%
G90
G05
T1
X2.2913Y-1.7205
X2.2953Y-1.8307
X2.498Y-3.9094
X2.5Y-1.4272
X2.5Y-1.7323
X2.5197Y-1.4764
X2.5394Y-1.4272
X2.5394Y-1.4961
X2.6063Y-1.7205
X2.6535Y-3.4941
X2.6634Y-3.624
X2.6634Y-3.7028
X2.687Y-1.7126
X2.6969Y-1.4961
X2.7165Y-1.7323
X2.7441Y-1.5906
X2.752Y-1.6969
X2.8228Y-3.5433
X2.8622Y-3.3583
X2.8878Y-3.9075
X2.9035Y-3.5433
X2.9449Y-3.3583
X2.9587Y-3.5157
X2.9724Y-1.624
X3.1043Y-3.3878
X3.2244Y-3.5256
X3.2815Y-3.8287
X3.2933Y-3.5354
X3.439Y-3.5335
X3.4409Y-2.1969
X3.4606Y-3.1417
X3.5098Y-3.1811
X3.5098Y-3.5138
X3.5807Y-3.5335
X3.6969Y-2.6594
X3.7067Y-2.9409
X3.7657Y-2.7874
X3.8051Y-2.935
X3.8937Y-3.5551
X3.9134Y-3.3583
X3.9331Y-2.1476
X3.9331Y-2.2461
X4.0118Y-3.0118
X4.0138Y-2.6575
X4.0315Y-3.6476
X4.0413Y-3.9488
X4.0433Y-2.9843
X4.0512Y-3.2106
X4.0531Y-2.6299
X4.1791Y-3.0827
X4.1811Y-3.8917
X4.2382Y-2.2165
X4.2441Y-2.6161
X4.3071Y-2.2165
X4.3071Y-2.935
X4.3406Y-2.624
X4.376Y-3.6988
X4.4134Y-2.3012
X4.437Y-3.0512
X4.4409Y-3.9764
X4.4449Y-2.876
X4.4646Y-3.378
X4.4665Y-1.6417
X4.4744Y-1.5866
X4.4744Y-3.5059
X4.563Y-3.437
X4.5728Y-1.7933
X4.5728Y-1.8327
X4.5866Y-2.2205
X4.6024Y-1.6831
X4.6142Y-2.622
X4.6457Y-2.8504
X4.6476Y-2.6319
X4.6476Y-2.9193
X4.6614Y-3.998
X4.6732Y-2.0531
X4.6732Y-2.8839
X4.6772Y-2.5846
X4.6791Y-2.9469
X4.7992Y-3.2106
X4.8051Y-1.6024
X4.8091Y-3.2992
X4.8189Y-3.2402
X4.8189Y-3.3976
X4.8976Y-1.5472
X4.9272Y-2.2244
X4.9528Y-1.5472
X4.9567Y-3.5453
X4.9744Y-2.6102
X4.9862Y-2.2264
X5.0059Y-2.0531
X5.0157Y-3.0138
X5.0256Y-2.6102
X5.0453Y-2.561
X5.0709Y-2.8366
X5.0787Y-2.1535
X5.0787Y-2.2146
X5.1004Y-1.437
X5.1122Y-3.7087
X5.1378Y-1.6476
X5.1378Y-3.5354
X5.1378Y-3.689
X5.1398Y-3.3366
X5.1437Y-2.0886
X5.1634Y-3.7087
X5.1949Y-3.2205
X5.1969Y-3.2835
X5.2028Y-2.8031
X5.2224Y-2.0886
X5.25Y-3.189
X5.2657Y-2.9213
X5.2913Y-1.498
X5.2913Y-3.4567
X5.2953Y-2.7589
X5.3012Y-3.1516
X5.3031Y-1.4567
X5.3091Y-3.2047
X5.311Y-1.5965
X5.32Y-2.7298
X5.3209Y-1.3051
X5.3248Y-2.2362
X5.3327Y-2.5138
X5.3563Y-2.7313
X5.3583Y-2.2362
X5.3701Y-1.3878
X5.3799Y-1.6358
X5.3996Y-3.2205
X5.4094Y-1.6063
X5.4291Y-2.0098
X5.4311Y-2.374
X5.445Y-2.4841
X5.4646Y-3.3563
X5.4803Y-1.6201
X5.4862Y-2.8484
X5.4882Y-3.25
X5.5059Y-2.6437
X5.5157Y-2.3799
X5.5177Y-2.2402
X5.5209Y-2.4843
X5.5276Y-3.5157
X5.5295Y-3.3937
X5.5413Y-2.8465
X5.5492Y-1.5827
X5.5531Y-2.3819
X5.5906Y-3.1604
X5.6181Y-3.7539
X5.6437Y-3.2461
X5.6654Y-3.7126
X5.6742Y-3.1959
X5.7028Y-2.126
X5.7047Y-3.2402
X5.8091Y-2.9921
X5.8278Y-2.3632
X5.872Y-2.1535
X5.8957Y-2.3356
X5.9547Y-3.2667
X6.0315Y-2.1634
X6.0433Y-3.8287
X6.0679Y-3.2756
X6.0728Y-3.0551
X6.0728Y-3.0846
X6.0728Y-3.1142
X6.0728Y-3.1437
X6.0925Y-3.25
X6.1024Y-3.0551
X6.1024Y-3.0846
X6.1024Y-3.1142
X6.1024Y-3.1437
X6.1063Y-2.0984
X6.1122Y-3.2362
X6.128Y-2.7283
X6.1319Y-3.0551
X6.1319Y-3.0846
X6.1319Y-3.1142
X6.1319Y-3.1437
X6.1398Y-2.0512
X6.1555Y-2.9567
X6.1575Y-3.5256
X6.1614Y-3.0551
X6.1614Y-3.0846
X6.1614Y-3.1142
X6.1614Y-3.1437
X6.1772Y-2.7185
X6.2362Y-3.5256
X6.2362Y-3.7303
X6.2598Y-4.065
X6.2657Y-3.8091
X6.2874Y-2.2795
X6.3199Y-2.3159
X6.3543Y-2.3415
X6.3917Y-3.8091
X6.439Y-1.6142
X6.439Y-1.7047
X6.4567Y-2.1142
X6.4567Y-2.1437
X6.4567Y-2.1732
X6.4567Y-2.2028
X6.4646Y-1.3406
X6.4783Y-2.313
X6.4862Y-2.1142
X6.4862Y-2.1437
X6.4862Y-2.1732
X6.4862Y-2.2028
X6.4882Y-1.3406
X6.4902Y-3.7264
X6.4921Y-2.2933
X6.502Y-1.5748
X6.5157Y-2.1142
X6.5157Y-2.1437
X6.5157Y-2.1732
X6.5157Y-2.2028
X6.5413Y-2.0118
X6.5453Y-2.1142
X6.5453Y-2.1437
X6.5453Y-2.1732
X6.5453Y-2.2028
X6.5512Y-3.5354
X6.5748Y-4.0669
X6.8681Y-4.124
X7.1831Y-4.124
X7.3248Y-1.5787
X7.4154Y-2.7362
X7.4272Y-1.4291
X7.4291Y-3.5413
X7.498Y-2.5827
X7.498Y-4.122
X7.5059Y-1.5551
X7.5217Y-2.6693
X7.6594Y-3.8602
T2
X2.0669Y-1.3976
X2.4272Y-3.6614
X2.502Y-3.5866
X2.5866Y-1.563
X2.5866Y-1.5945
X2.5866Y-1.626
X2.6181Y-1.563
X2.6181Y-1.5945
X2.6181Y-1.626
X2.6496Y-1.563
X2.6496Y-1.5945
X2.6496Y-1.626
X4.1398Y-3.1969
X4.2028Y-3.1969
X4.248Y-1.4291
X4.2657Y-3.1969
X4.2677Y-1.4488
X4.3287Y-3.1969
X4.3917Y-3.1969
X5.2067Y-1.4705
X5.2382Y-1.4685
X5.2697Y-1.4685
X6.1024Y-3.3228
X6.1614Y-2.9016
X6.1654Y-3.2972
X6.1969Y-3.2972
X6.2136Y-3.0167
X6.2175Y-3.1929
X6.2205Y-2.9094
X6.2283Y-3.2972
X6.2431Y-3.0177
X6.2451Y-3.2028
X6.252Y-2.9094
X6.2707Y-3.2185
X6.2717Y-3.0187
X6.2835Y-2.9094
X6.3878Y-2.7992
X6.3878Y-3.4803
X6.4193Y-2.7992
X6.4193Y-3.4803
X6.4508Y-2.7992
X6.4508Y-3.4803
X6.4823Y-2.7992
X6.4823Y-3.4803
X6.4862Y-2.3799
X6.5236Y-3.2579
X6.5256Y-3.0472
X6.5453Y-1.7323
X6.5492Y-2.3563
X6.5492Y-2.5787
X6.5531Y-2.9016
X6.5551Y-3.376
X6.561Y-1.9567
X6.5807Y-2.3563
X6.5925Y-1.9567
X6.5984Y-2.0679
X6.6004Y-2.248
X6.6122Y-2.3583
X6.624Y-1.9567
X6.628Y-1.7323
X6.628Y-2.5787
X6.6289Y-2.0797
X6.6319Y-2.2362
X6.6437Y-2.0522
X6.6467Y-2.2648
X6.689Y-1.9291
X6.689Y-2.2441
X6.689Y-2.3898
X6.6909Y-2.0689
X6.7421Y-1.8189
X6.7461Y-2.4961
X6.7736Y-1.8189
X6.7776Y-2.4961
X6.8051Y-1.8189
X6.8091Y-2.4961
X6.8366Y-1.8189
X6.8406Y-2.4961
X6.8957Y-1.7126
X6.8957Y-2.6024
X6.8957Y-3.6496
X6.9075Y-2.7283
X6.9823Y-1.7126
X6.9823Y-2.6063
X6.9862Y-3.6496
X6.9941Y-2.7283
X7.0925Y-2.7283
X7.1004Y-1.6772
X7.1004Y-2.6378
X7.1043Y-3.6693
X7.1634Y-1.6772
X7.1634Y-2.6378
X7.1634Y-2.7283
X7.1634Y-3.6693
X7.187Y-2.1161
X7.187Y-2.2047
X7.187Y-3.1575
X7.187Y-3.2402
X7.2008Y-2.372
X7.2008Y-2.4114
X7.2028Y-1.8996
X7.2028Y-1.939
X7.2028Y-2.9508
X7.2028Y-2.9882
X7.2028Y-3.4075
X7.2028Y-3.4488
X7.2205Y-3.1575
X7.2205Y-3.2402
X7.2224Y-2.1161
X7.2224Y-2.2047
X7.2539Y-2.7283
X7.2736Y-3.6693
X7.2776Y-1.6772
X7.2776Y-2.6378
X7.3091Y-2.7283
X7.3248Y-3.6693
X7.3406Y-1.6772
X7.3406Y-2.6378
T3
X2.1811Y-1.6496
X2.2146Y-1.4075
X2.2323Y-1.6496
X2.2638Y-1.4075
X2.2835Y-1.6496
X2.3031Y-2.126
X2.3031Y-2.1654
X2.3031Y-2.2047
X2.3031Y-2.2441
X2.3031Y-2.2933
X2.313Y-1.3091
X2.313Y-1.4075
X2.3346Y-1.6496
X2.3425Y-2.126
X2.3425Y-2.1654
X2.3425Y-2.2047
X2.3425Y-2.2441
X2.3425Y-2.2933
X2.3622Y-1.3091
X2.3622Y-1.4075
X2.3819Y-2.2933
X2.3858Y-1.6496
X2.4114Y-1.3091
X2.4114Y-1.4075
X2.4213Y-2.2933
X2.4606Y-1.3091
X2.5098Y-1.3091
X2.5197Y-1.8307
X2.5197Y-2.0768
X2.5591Y-2.0768
X2.5689Y-1.8307
X2.5846Y-2.2362
X2.5984Y-2.0768
X2.6181Y-1.8307
X2.6378Y-2.0768
X2.6772Y-1.8307
X2.6772Y-2.0768
X2.7165Y-2.0768
X2.8898Y-2.1673
X2.8898Y-2.3051
X2.939Y-2.2362
X3.0177Y-2.3051
X3.0315Y-1.3287
X3.0512Y-1.9291
X3.0669Y-2.3051
X3.0807Y-1.6732
X3.0906Y-1.3287
X3.0906Y-1.9291
X3.1161Y-2.3051
X3.1201Y-1.6732
X3.1299Y-1.9291
X3.1496Y-1.3287
X3.1594Y-1.6732
X3.1693Y-1.9291
X3.1988Y-1.6732
X3.2087Y-1.3287
X3.2087Y-1.9291
X3.2382Y-1.6732
X3.248Y-1.9291
X3.2539Y-2.0787
X3.2539Y-2.1181
X3.2539Y-2.1575
X3.2677Y-1.3287
X3.2835Y-2.2854
X3.3228Y-2.2854
X3.3622Y-2.2854
X3.5472Y-1.4213
X3.5866Y-1.4213
X3.6378Y-2.2362
X3.6772Y-2.2362
X3.7402Y-1.3287
X3.748Y-1.9291
X3.7657Y-1.6654
X3.7874Y-1.9291
X3.7992Y-1.3287
X3.8051Y-1.6654
X3.8268Y-1.9291
X3.8346Y-1.0059
X3.8445Y-1.6654
X3.8583Y-1.3287
X3.8661Y-1.9291
X3.874Y-1.0059
X3.8839Y-1.6654
X3.9055Y-1.9291
X3.9173Y-1.3287
X3.9232Y-1.6654
X3.9449Y-1.9291
X3.9764Y-1.3287
X1.7864Y-4.3701
X1.8167Y-4.297
X1.8167Y-4.4432
X1.8898Y-4.2667
X1.8898Y-4.4734
X1.9628Y-4.297
X1.9628Y-4.4432
X1.9931Y-4.3701
X7.7313Y-4.3701
X7.7616Y-4.297
X7.7616Y-4.4432
X7.8346Y-4.2667
X7.8346Y-4.4734
X7.9077Y-4.297
X7.9077Y-4.4432
X7.938Y-4.3701
X7.7313Y-1.1417
X7.7616Y-1.0687
X7.7616Y-1.2148
X7.8346Y-1.0384
X7.8346Y-1.2451
X7.9077Y-1.0687
X7.9077Y-1.2148
X7.938Y-1.1417
X4.5226Y-4.3701
X4.5529Y-4.297
X4.5529Y-4.4432
X4.626Y-4.2667
X4.626Y-4.4734
X4.6991Y-4.297
X4.6991Y-4.4432
X4.7293Y-4.3701
X1.7864Y-1.1417
X1.8167Y-1.0687
X1.8167Y-1.2148
X1.8898Y-1.0384
X1.8898Y-1.2451
X1.9628Y-1.0687
X1.9628Y-1.2148
X1.9931Y-1.1417
X4.5226Y-1.1417
X4.5529Y-1.0687
X4.5529Y-1.2148
X4.626Y-1.0384
X4.626Y-1.2451
X4.6991Y-1.0687
X4.6991Y-1.2148
X4.7293Y-1.1417
T4
X2.5256Y-2.8811
X2.5256Y-3.1811
X2.8256Y-2.8811
X2.8256Y-3.1811
X3.0252Y-3.1811
X3.026Y-2.8807
X3.2256Y-3.1811
X3.226Y-2.8807
X2.2441Y-3.622
X2.2441Y-3.7008
X2.2441Y-3.7795
X2.2441Y-3.8583
X2.2441Y-3.937
X2.3228Y-3.5827
X2.3228Y-3.6614
X2.3228Y-3.7402
X2.3228Y-3.8189
X2.3228Y-3.8976
X2.3228Y-3.9764
X1.811Y-3.5827
X1.811Y-3.6614
X1.811Y-3.7402
X1.811Y-3.8189
X1.811Y-3.8976
X1.811Y-3.9764
X1.8898Y-3.622
X1.8898Y-3.7008
X1.8898Y-3.7795
X1.8898Y-3.8583
X1.8898Y-3.937
T5
X5.0098Y-1.0925
X5.0886Y-1.0925
X5.1673Y-1.0925
X5.2461Y-1.0925
X1.8504Y-2.7559
X1.8504Y-2.8346
X1.8504Y-2.9134
X7.0571Y-3.8091
X7.1358Y-3.8091
X7.2146Y-3.8091
X6.6634Y-3.8091
X6.7421Y-3.8091
X6.8209Y-3.8091
X5.6555Y-1.8327
X5.7343Y-1.8327
X5.813Y-1.8327
X3.8976Y-1.1024
X3.9764Y-1.1024
X4.2126Y-1.1024
X4.2913Y-1.1024
X7.874Y-3.6024
X7.874Y-3.6811
X4.0551Y-4.4094
X4.1339Y-4.4094
X4.2126Y-4.4094
X4.2913Y-4.4094
X3.5039Y-1.1024
X3.5827Y-1.1024
X3.6614Y-1.1024
X5.9941Y-1.0925
X6.0728Y-1.0925
X6.1516Y-1.0925
X5.2815Y-1.8327
X5.3602Y-1.8327
X5.439Y-1.8327
X7.874Y-2.3819
X7.874Y-2.4606
X1.8504Y-2.4409
X1.8504Y-2.5197
X7.874Y-2.6969
X7.874Y-2.7756
X3.189Y-1.1024
X3.2677Y-1.1024
X7.874Y-1.4961
X7.874Y-1.5748
X6.7421Y-1.0925
X6.8209Y-1.0925
X6.8996Y-1.0925
X6.9783Y-1.0925
X7.0571Y-1.0925
X7.1358Y-1.0925
X7.2146Y-1.0925
X7.2933Y-1.0925
X7.372Y-1.0925
X7.4508Y-1.0925
X6.1024Y-4.4094
X6.1811Y-4.4094
X5.4626Y-1.0925
X5.5413Y-1.0925
X5.6201Y-1.0925
X5.6988Y-1.0925
X5.7776Y-1.0925
X7.874Y-3.9213
X7.874Y-4.0
X2.2441Y-4.4094
X2.3228Y-4.4094
X2.2441Y-1.1024
X2.3228Y-1.1024
X5.7047Y-4.4094
X5.7835Y-4.4094
X5.8622Y-4.4094
X3.3465Y-4.4094
X3.4252Y-4.4094
X3.5039Y-4.4094
X7.3583Y-4.4094
X7.437Y-4.4094
X6.3681Y-1.0925
X6.4469Y-1.0925
X6.5256Y-1.0925
X2.5591Y-4.4094
X2.6378Y-4.4094
X2.7165Y-4.4094
X2.9528Y-4.4094
X3.0315Y-4.4094
X3.1102Y-4.4094
X3.7402Y-4.4094
X3.8189Y-4.4094
X2.5591Y-1.1024
X2.6378Y-1.1024
X6.7283Y-4.4094
X6.8071Y-4.4094
X2.874Y-1.1024
X2.9528Y-1.1024
X7.0433Y-4.4094
X7.122Y-4.4094
X6.4173Y-4.4094
X6.4961Y-4.4094
X1.8504Y-3.1496
X1.8504Y-3.2283
X1.8504Y-3.3071
T6
X6.1791Y-1.7953
X6.3169Y-1.7953
X2.3681Y-2.561
X2.5059Y-2.561
X5.7638Y-2.7283
X5.9016Y-2.7283
X5.7776Y-3.4626
X5.9154Y-3.4626
X2.8209Y-2.561
X2.9587Y-2.561
X4.739Y-2.1457
X4.9311Y-2.1457
X6.0945Y-2.5197
X6.2323Y-2.5197
T7
X5.1181Y-4.1929
X5.1181Y-4.3189
X5.2165Y-4.1929
X5.2165Y-4.3189
T8
X7.8366Y-1.8307
X7.8366Y-1.9291
X7.8366Y-2.0276
X7.8366Y-2.126
X7.8346Y-3.0512
X7.8346Y-3.1496
X7.8346Y-3.248
X7.8346Y-3.3465
T9
X1.8898Y-1.7126
X1.8898Y-1.811
T10
X4.9303Y-4.2996
X5.4043Y-4.2996
T11
X1.8898Y-4.3701
X7.8346Y-4.3701
X7.8346Y-1.1417
X4.626Y-4.3701
X1.8898Y-1.1417
X4.626Y-1.1417
T0
M30
